%TF.GenerationSoftware,KiCad,Pcbnew,9.0.1*%
%TF.CreationDate,2025-08-23T17:21:42+08:00*%
%TF.ProjectId,dcdc,64636463-2e6b-4696-9361-645f70636258,rev?*%
%TF.SameCoordinates,PX71a15b0PY7e1f990*%
%TF.FileFunction,Soldermask,Top*%
%TF.FilePolarity,Negative*%
%FSLAX46Y46*%
G04 Gerber Fmt 4.6, Leading zero omitted, Abs format (unit mm)*
G04 Created by KiCad (PCBNEW 9.0.1) date 2025-08-23 17:21:42*
%MOMM*%
%LPD*%
G01*
G04 APERTURE LIST*
G04 Aperture macros list*
%AMRoundRect*
0 Rectangle with rounded corners*
0 $1 Rounding radius*
0 $2 $3 $4 $5 $6 $7 $8 $9 X,Y pos of 4 corners*
0 Add a 4 corners polygon primitive as box body*
4,1,4,$2,$3,$4,$5,$6,$7,$8,$9,$2,$3,0*
0 Add four circle primitives for the rounded corners*
1,1,$1+$1,$2,$3*
1,1,$1+$1,$4,$5*
1,1,$1+$1,$6,$7*
1,1,$1+$1,$8,$9*
0 Add four rect primitives between the rounded corners*
20,1,$1+$1,$2,$3,$4,$5,0*
20,1,$1+$1,$4,$5,$6,$7,0*
20,1,$1+$1,$6,$7,$8,$9,0*
20,1,$1+$1,$8,$9,$2,$3,0*%
G04 Aperture macros list end*
%ADD10RoundRect,0.250002X-1.799998X-2.499998X1.799998X-2.499998X1.799998X2.499998X-1.799998X2.499998X0*%
%ADD11RoundRect,0.225000X-0.225000X-0.250000X0.225000X-0.250000X0.225000X0.250000X-0.225000X0.250000X0*%
%ADD12RoundRect,0.218750X0.218750X0.256250X-0.218750X0.256250X-0.218750X-0.256250X0.218750X-0.256250X0*%
%ADD13RoundRect,0.225000X0.225000X0.250000X-0.225000X0.250000X-0.225000X-0.250000X0.225000X-0.250000X0*%
%ADD14RoundRect,0.200000X0.200000X0.275000X-0.200000X0.275000X-0.200000X-0.275000X0.200000X-0.275000X0*%
%ADD15RoundRect,0.150000X0.150000X-0.650000X0.150000X0.650000X-0.150000X0.650000X-0.150000X-0.650000X0*%
%ADD16R,3.100000X2.410000*%
%ADD17RoundRect,0.200000X-0.275000X0.200000X-0.275000X-0.200000X0.275000X-0.200000X0.275000X0.200000X0*%
%ADD18RoundRect,0.225000X-0.250000X0.225000X-0.250000X-0.225000X0.250000X-0.225000X0.250000X0.225000X0*%
%ADD19RoundRect,0.218750X-0.218750X-0.256250X0.218750X-0.256250X0.218750X0.256250X-0.218750X0.256250X0*%
%ADD20C,0.800000*%
%ADD21C,6.400000*%
%ADD22RoundRect,0.250000X-1.500000X0.925000X-1.500000X-0.925000X1.500000X-0.925000X1.500000X0.925000X0*%
%ADD23RoundRect,0.250000X1.000000X-1.750000X1.000000X1.750000X-1.000000X1.750000X-1.000000X-1.750000X0*%
%ADD24RoundRect,0.250000X-1.000000X1.750000X-1.000000X-1.750000X1.000000X-1.750000X1.000000X1.750000X0*%
%ADD25RoundRect,0.218750X0.256250X-0.218750X0.256250X0.218750X-0.256250X0.218750X-0.256250X-0.218750X0*%
%ADD26R,1.900000X0.400000*%
%ADD27RoundRect,0.200000X0.275000X-0.200000X0.275000X0.200000X-0.275000X0.200000X-0.275000X-0.200000X0*%
%ADD28R,1.500000X1.500000*%
%ADD29RoundRect,0.250000X-0.400000X-0.450000X0.400000X-0.450000X0.400000X0.450000X-0.400000X0.450000X0*%
%ADD30RoundRect,0.250000X0.900000X-1.000000X0.900000X1.000000X-0.900000X1.000000X-0.900000X-1.000000X0*%
%ADD31RoundRect,0.250000X-0.420000X-0.945000X0.420000X-0.945000X0.420000X0.945000X-0.420000X0.945000X0*%
%ADD32RoundRect,0.250000X-0.650000X0.325000X-0.650000X-0.325000X0.650000X-0.325000X0.650000X0.325000X0*%
%ADD33RoundRect,0.250000X0.325000X0.650000X-0.325000X0.650000X-0.325000X-0.650000X0.325000X-0.650000X0*%
%ADD34RoundRect,0.225000X0.250000X-0.225000X0.250000X0.225000X-0.250000X0.225000X-0.250000X-0.225000X0*%
%ADD35RoundRect,0.200000X-0.200000X-0.275000X0.200000X-0.275000X0.200000X0.275000X-0.200000X0.275000X0*%
%ADD36RoundRect,0.250000X0.650000X-0.325000X0.650000X0.325000X-0.650000X0.325000X-0.650000X-0.325000X0*%
%ADD37R,1.700000X1.700000*%
%ADD38C,1.700000*%
%ADD39RoundRect,0.250000X0.850000X0.350000X-0.850000X0.350000X-0.850000X-0.350000X0.850000X-0.350000X0*%
%ADD40RoundRect,0.249997X2.950003X2.650003X-2.950003X2.650003X-2.950003X-2.650003X2.950003X-2.650003X0*%
%ADD41RoundRect,0.250000X-0.900000X1.000000X-0.900000X-1.000000X0.900000X-1.000000X0.900000X1.000000X0*%
%ADD42RoundRect,0.075000X-0.662500X-0.075000X0.662500X-0.075000X0.662500X0.075000X-0.662500X0.075000X0*%
%ADD43RoundRect,0.075000X-0.075000X-0.662500X0.075000X-0.662500X0.075000X0.662500X-0.075000X0.662500X0*%
%ADD44RoundRect,0.250000X0.350000X-0.850000X0.350000X0.850000X-0.350000X0.850000X-0.350000X-0.850000X0*%
%ADD45RoundRect,0.249997X2.650003X-2.950003X2.650003X2.950003X-2.650003X2.950003X-2.650003X-2.950003X0*%
%ADD46RoundRect,0.250000X-0.325000X-0.650000X0.325000X-0.650000X0.325000X0.650000X-0.325000X0.650000X0*%
G04 APERTURE END LIST*
D10*
%TO.C,L3*%
X19250000Y7350000D03*
X8650000Y7350000D03*
%TD*%
D11*
%TO.C,C43*%
X20725000Y35000000D03*
X22275000Y35000000D03*
%TD*%
D12*
%TO.C,D16*%
X5037500Y31550000D03*
X3462500Y31550000D03*
%TD*%
D13*
%TO.C,C41*%
X10050000Y38000000D03*
X8500000Y38000000D03*
%TD*%
D14*
%TO.C,R13*%
X52175000Y50025000D03*
X50525000Y50025000D03*
%TD*%
D12*
%TO.C,D14*%
X5037500Y27600000D03*
X3462500Y27600000D03*
%TD*%
D15*
%TO.C,U3*%
X49895000Y41330000D03*
X51165000Y41330000D03*
X52435000Y41330000D03*
X53705000Y41330000D03*
X53705000Y46630000D03*
X52435000Y46630000D03*
X51165000Y46630000D03*
X49895000Y46630000D03*
D16*
X51800000Y43980000D03*
%TD*%
D17*
%TO.C,R6*%
X38000000Y46825000D03*
X38000000Y45175000D03*
%TD*%
D18*
%TO.C,C19*%
X23500000Y42525000D03*
X23500000Y40975000D03*
%TD*%
D13*
%TO.C,C13*%
X51375000Y48525000D03*
X49825000Y48525000D03*
%TD*%
D19*
%TO.C,D2*%
X29925000Y50000000D03*
X31500000Y50000000D03*
%TD*%
D18*
%TO.C,C18*%
X41000000Y45250000D03*
X41000000Y43700000D03*
%TD*%
D20*
%TO.C,H4*%
X51652944Y30552944D03*
X52355888Y32250000D03*
X52355888Y28855888D03*
X54052944Y32952944D03*
D21*
X54052944Y30552944D03*
D20*
X54052944Y28152944D03*
X55750000Y32250000D03*
X55750000Y28855888D03*
X56452944Y30552944D03*
%TD*%
D14*
%TO.C,R4*%
X48925000Y50025000D03*
X47275000Y50025000D03*
%TD*%
D22*
%TO.C,L1*%
X45350000Y47800000D03*
X45350000Y41750000D03*
%TD*%
D20*
%TO.C,H2*%
X54052944Y1600000D03*
X52355888Y2302944D03*
X55750000Y2302944D03*
X51652944Y4000000D03*
D21*
X54052944Y4000000D03*
D20*
X56452944Y4000000D03*
X52355888Y5697056D03*
X55750000Y5697056D03*
X54052944Y6400000D03*
%TD*%
D23*
%TO.C,C29*%
X38675000Y7692500D03*
X38675000Y15692500D03*
%TD*%
D24*
%TO.C,C10*%
X35175000Y29192500D03*
X35175000Y21192500D03*
%TD*%
D25*
%TO.C,D17*%
X22000000Y36962500D03*
X22000000Y38537500D03*
%TD*%
D26*
%TO.C,Y1*%
X9250000Y41950000D03*
X9250000Y40750000D03*
X9250000Y39550000D03*
%TD*%
D27*
%TO.C,R7*%
X53775000Y48450000D03*
X53775000Y50100000D03*
%TD*%
D15*
%TO.C,U2*%
X32445000Y41226750D03*
X33715000Y41226750D03*
X34985000Y41226750D03*
X36255000Y41226750D03*
X36255000Y46526750D03*
X34985000Y46526750D03*
X33715000Y46526750D03*
X32445000Y46526750D03*
D16*
X34350000Y43876750D03*
%TD*%
D28*
%TO.C,SW2*%
X47250000Y54750000D03*
X55050000Y54750000D03*
%TD*%
D23*
%TO.C,C27*%
X27200000Y7692500D03*
X27200000Y15692500D03*
%TD*%
D29*
%TO.C,D6*%
X44900000Y35525000D03*
X47800000Y35525000D03*
%TD*%
D30*
%TO.C,D12*%
X47000000Y11500000D03*
X47000000Y15800000D03*
%TD*%
D11*
%TO.C,C38*%
X31025000Y57750000D03*
X32575000Y57750000D03*
%TD*%
D31*
%TO.C,C21*%
X27310000Y38500000D03*
X30390000Y38500000D03*
%TD*%
D32*
%TO.C,C9*%
X42750000Y26700000D03*
X42750000Y23750000D03*
%TD*%
D24*
%TO.C,C12*%
X23675000Y29192500D03*
X23675000Y21192500D03*
%TD*%
D33*
%TO.C,C5*%
X52800000Y37275000D03*
X49850000Y37275000D03*
%TD*%
D28*
%TO.C,SW1*%
X26100000Y54750000D03*
X33900000Y54750000D03*
%TD*%
D34*
%TO.C,C44*%
X10750000Y43475000D03*
X10750000Y45025000D03*
%TD*%
D32*
%TO.C,C8*%
X15500000Y26750000D03*
X15500000Y23800000D03*
%TD*%
D22*
%TO.C,L2*%
X27850000Y47775000D03*
X27850000Y41725000D03*
%TD*%
D33*
%TO.C,C4*%
X35325000Y37250000D03*
X32375000Y37250000D03*
%TD*%
D28*
%TO.C,SW4*%
X2500000Y44400000D03*
X2500000Y36600000D03*
%TD*%
D14*
%TO.C,R3*%
X34750000Y50000000D03*
X33100000Y50000000D03*
%TD*%
D34*
%TO.C,C16*%
X55600000Y48500000D03*
X55600000Y50050000D03*
%TD*%
D27*
%TO.C,R32*%
X22000000Y40175000D03*
X22000000Y41825000D03*
%TD*%
D35*
%TO.C,R34*%
X38125000Y57750000D03*
X39775000Y57750000D03*
%TD*%
D36*
%TO.C,C33*%
X19700000Y15400000D03*
X19700000Y18350000D03*
%TD*%
D27*
%TO.C,R2*%
X55600000Y41200000D03*
X55600000Y42850000D03*
%TD*%
D35*
%TO.C,R33*%
X48850000Y57800000D03*
X50500000Y57800000D03*
%TD*%
D13*
%TO.C,C1*%
X34125000Y39250000D03*
X32575000Y39250000D03*
%TD*%
D33*
%TO.C,C47*%
X9975000Y36000000D03*
X7025000Y36000000D03*
%TD*%
D28*
%TO.C,SW3*%
X36700000Y54750000D03*
X44500000Y54750000D03*
%TD*%
D20*
%TO.C,H1*%
X46650000Y28152944D03*
X44952944Y28855888D03*
X48347056Y28855888D03*
X44250000Y30552944D03*
D21*
X46650000Y30552944D03*
D20*
X49050000Y30552944D03*
X44952944Y32250000D03*
X48347056Y32250000D03*
X46650000Y32952944D03*
%TD*%
D17*
%TO.C,R5*%
X55600000Y46850000D03*
X55600000Y45200000D03*
%TD*%
D27*
%TO.C,R1*%
X37985000Y41101750D03*
X37985000Y42751750D03*
%TD*%
D34*
%TO.C,C17*%
X38100000Y48475000D03*
X38100000Y50025000D03*
%TD*%
D11*
%TO.C,C40*%
X41475000Y57750000D03*
X43025000Y57750000D03*
%TD*%
D29*
%TO.C,D7*%
X27400000Y35500000D03*
X30300000Y35500000D03*
%TD*%
D11*
%TO.C,C39*%
X52075000Y57750000D03*
X53625000Y57750000D03*
%TD*%
D37*
%TO.C,J2*%
X2250000Y48115000D03*
D38*
X4790000Y48115000D03*
X7330000Y48115000D03*
X9870000Y48115000D03*
%TD*%
D39*
%TO.C,Q2*%
X16175000Y15745000D03*
D40*
X9875000Y18025000D03*
D39*
X16175000Y20305000D03*
%TD*%
D19*
%TO.C,D3*%
X44062500Y50025000D03*
X45637500Y50025000D03*
%TD*%
D41*
%TO.C,D1*%
X47000000Y25400000D03*
X47000000Y21100000D03*
%TD*%
D13*
%TO.C,C2*%
X51375000Y39275000D03*
X49825000Y39275000D03*
%TD*%
D34*
%TO.C,C46*%
X20500000Y43250000D03*
X20500000Y44800000D03*
%TD*%
D35*
%TO.C,R28*%
X27800000Y57750000D03*
X29450000Y57750000D03*
%TD*%
D12*
%TO.C,D15*%
X5037500Y29600000D03*
X3462500Y29600000D03*
%TD*%
D42*
%TO.C,U7*%
X11837500Y42000000D03*
X11837500Y41500000D03*
X11837500Y41000000D03*
X11837500Y40500000D03*
X11837500Y40000000D03*
X11837500Y39500000D03*
X11837500Y39000000D03*
X11837500Y38500000D03*
X11837500Y38000000D03*
X11837500Y37500000D03*
X11837500Y37000000D03*
X11837500Y36500000D03*
D43*
X13250000Y35087500D03*
X13750000Y35087500D03*
X14250000Y35087500D03*
X14750000Y35087500D03*
X15250000Y35087500D03*
X15750000Y35087500D03*
X16250000Y35087500D03*
X16750000Y35087500D03*
X17250000Y35087500D03*
X17750000Y35087500D03*
X18250000Y35087500D03*
X18750000Y35087500D03*
D42*
X20162500Y36500000D03*
X20162500Y37000000D03*
X20162500Y37500000D03*
X20162500Y38000000D03*
X20162500Y38500000D03*
X20162500Y39000000D03*
X20162500Y39500000D03*
X20162500Y40000000D03*
X20162500Y40500000D03*
X20162500Y41000000D03*
X20162500Y41500000D03*
X20162500Y42000000D03*
D43*
X18750000Y43412500D03*
X18250000Y43412500D03*
X17750000Y43412500D03*
X17250000Y43412500D03*
X16750000Y43412500D03*
X16250000Y43412500D03*
X15750000Y43412500D03*
X15250000Y43412500D03*
X14750000Y43412500D03*
X14250000Y43412500D03*
X13750000Y43412500D03*
X13250000Y43412500D03*
%TD*%
D44*
%TO.C,Q1*%
X7695000Y23375000D03*
D45*
X9975000Y29675000D03*
D44*
X12255000Y23375000D03*
%TD*%
D20*
%TO.C,H3*%
X49050000Y4000000D03*
X48347056Y2302944D03*
X48347056Y5697056D03*
X46650000Y1600000D03*
D21*
X46650000Y4000000D03*
D20*
X46650000Y6400000D03*
X44952944Y2302944D03*
X44952944Y5697056D03*
X44250000Y4000000D03*
%TD*%
D27*
%TO.C,R11*%
X23500000Y43925000D03*
X23500000Y45575000D03*
%TD*%
%TO.C,R12*%
X36350000Y48425000D03*
X36350000Y50075000D03*
%TD*%
D11*
%TO.C,C45*%
X12225000Y45250000D03*
X13775000Y45250000D03*
%TD*%
D46*
%TO.C,C31*%
X48775000Y8500000D03*
X51725000Y8500000D03*
%TD*%
D37*
%TO.C,J1*%
X13500000Y48115000D03*
D38*
X16040000Y48115000D03*
X18580000Y48115000D03*
X21120000Y48115000D03*
%TD*%
D13*
%TO.C,C15*%
X33875000Y48500000D03*
X32325000Y48500000D03*
%TD*%
D27*
%TO.C,R8*%
X41000000Y46850000D03*
X41000000Y48500000D03*
%TD*%
D31*
%TO.C,C20*%
X44810000Y38525000D03*
X47890000Y38525000D03*
%TD*%
M02*
