%TF.GenerationSoftware,KiCad,Pcbnew,9.0.1*%
%TF.CreationDate,2025-08-23T17:21:42+08:00*%
%TF.ProjectId,dcdc,64636463-2e6b-4696-9361-645f70636258,rev?*%
%TF.SameCoordinates,PX71a15b0PY7e1f990*%
%TF.FileFunction,Paste,Bot*%
%TF.FilePolarity,Positive*%
%FSLAX46Y46*%
G04 Gerber Fmt 4.6, Leading zero omitted, Abs format (unit mm)*
G04 Created by KiCad (PCBNEW 9.0.1) date 2025-08-23 17:21:42*
%MOMM*%
%LPD*%
G01*
G04 APERTURE LIST*
G04 Aperture macros list*
%AMRoundRect*
0 Rectangle with rounded corners*
0 $1 Rounding radius*
0 $2 $3 $4 $5 $6 $7 $8 $9 X,Y pos of 4 corners*
0 Add a 4 corners polygon primitive as box body*
4,1,4,$2,$3,$4,$5,$6,$7,$8,$9,$2,$3,0*
0 Add four circle primitives for the rounded corners*
1,1,$1+$1,$2,$3*
1,1,$1+$1,$4,$5*
1,1,$1+$1,$6,$7*
1,1,$1+$1,$8,$9*
0 Add four rect primitives between the rounded corners*
20,1,$1+$1,$2,$3,$4,$5,0*
20,1,$1+$1,$4,$5,$6,$7,0*
20,1,$1+$1,$6,$7,$8,$9,0*
20,1,$1+$1,$8,$9,$2,$3,0*%
G04 Aperture macros list end*
%ADD10RoundRect,0.225000X0.225000X0.250000X-0.225000X0.250000X-0.225000X-0.250000X0.225000X-0.250000X0*%
%ADD11RoundRect,0.225000X-0.250000X0.225000X-0.250000X-0.225000X0.250000X-0.225000X0.250000X0.225000X0*%
%ADD12RoundRect,0.250000X-0.362500X-1.425000X0.362500X-1.425000X0.362500X1.425000X-0.362500X1.425000X0*%
%ADD13RoundRect,0.100000X-0.637500X-0.100000X0.637500X-0.100000X0.637500X0.100000X-0.637500X0.100000X0*%
%ADD14RoundRect,0.150000X-0.150000X0.825000X-0.150000X-0.825000X0.150000X-0.825000X0.150000X0.825000X0*%
%ADD15RoundRect,0.225000X-0.225000X-0.250000X0.225000X-0.250000X0.225000X0.250000X-0.225000X0.250000X0*%
%ADD16RoundRect,0.200000X0.200000X0.275000X-0.200000X0.275000X-0.200000X-0.275000X0.200000X-0.275000X0*%
%ADD17RoundRect,0.250000X0.650000X-1.000000X0.650000X1.000000X-0.650000X1.000000X-0.650000X-1.000000X0*%
%ADD18RoundRect,0.225000X0.250000X-0.225000X0.250000X0.225000X-0.250000X0.225000X-0.250000X-0.225000X0*%
%ADD19RoundRect,0.150000X0.150000X-0.512500X0.150000X0.512500X-0.150000X0.512500X-0.150000X-0.512500X0*%
%ADD20RoundRect,0.200000X-0.200000X-0.275000X0.200000X-0.275000X0.200000X0.275000X-0.200000X0.275000X0*%
%ADD21RoundRect,0.150000X-0.512500X-0.150000X0.512500X-0.150000X0.512500X0.150000X-0.512500X0.150000X0*%
%ADD22RoundRect,0.200000X0.275000X-0.200000X0.275000X0.200000X-0.275000X0.200000X-0.275000X-0.200000X0*%
%ADD23RoundRect,0.200000X-0.275000X0.200000X-0.275000X-0.200000X0.275000X-0.200000X0.275000X0.200000X0*%
%ADD24RoundRect,0.250000X0.325000X0.650000X-0.325000X0.650000X-0.325000X-0.650000X0.325000X-0.650000X0*%
%ADD25RoundRect,0.250000X0.450000X-0.400000X0.450000X0.400000X-0.450000X0.400000X-0.450000X-0.400000X0*%
%ADD26RoundRect,0.250000X-0.400000X-0.450000X0.400000X-0.450000X0.400000X0.450000X-0.400000X0.450000X0*%
%ADD27RoundRect,0.250000X-1.000000X-0.650000X1.000000X-0.650000X1.000000X0.650000X-1.000000X0.650000X0*%
%ADD28RoundRect,0.250000X0.650000X-0.325000X0.650000X0.325000X-0.650000X0.325000X-0.650000X-0.325000X0*%
%ADD29RoundRect,0.150000X-0.825000X-0.150000X0.825000X-0.150000X0.825000X0.150000X-0.825000X0.150000X0*%
G04 APERTURE END LIST*
D10*
%TO.C,C28*%
X47950000Y17950000D03*
X46400000Y17950000D03*
%TD*%
D11*
%TO.C,C24*%
X31700000Y4175000D03*
X31700000Y2625000D03*
%TD*%
D12*
%TO.C,R14*%
X20687500Y7750000D03*
X26612500Y7750000D03*
%TD*%
D13*
%TO.C,U4*%
X23737500Y2575000D03*
X23737500Y3225000D03*
X23737500Y3875000D03*
X23737500Y4525000D03*
X29462500Y4525000D03*
X29462500Y3875000D03*
X29462500Y3225000D03*
X29462500Y2575000D03*
%TD*%
D14*
%TO.C,U6*%
X49595000Y21225000D03*
X50865000Y21225000D03*
X52135000Y21225000D03*
X53405000Y21225000D03*
X53405000Y16275000D03*
X52135000Y16275000D03*
X50865000Y16275000D03*
X49595000Y16275000D03*
%TD*%
D15*
%TO.C,C6*%
X49475000Y27302944D03*
X51025000Y27302944D03*
%TD*%
D16*
%TO.C,R29*%
X3525000Y27600000D03*
X1875000Y27600000D03*
%TD*%
D17*
%TO.C,D11*%
X4750000Y20250000D03*
X4750000Y24250000D03*
%TD*%
D18*
%TO.C,C42*%
X1400000Y41225000D03*
X1400000Y42775000D03*
%TD*%
D19*
%TO.C,U1*%
X40750000Y43250000D03*
X39800000Y43250000D03*
X38850000Y43250000D03*
X38850000Y45525000D03*
X40750000Y45525000D03*
%TD*%
D20*
%TO.C,R9*%
X9675000Y28250000D03*
X11325000Y28250000D03*
%TD*%
%TO.C,R15*%
X16175000Y38750000D03*
X17825000Y38750000D03*
%TD*%
D21*
%TO.C,D9*%
X3250000Y34837500D03*
X3250000Y36737500D03*
X5525000Y35787500D03*
%TD*%
D22*
%TO.C,R10*%
X20500000Y15925000D03*
X20500000Y17575000D03*
%TD*%
D16*
%TO.C,R25*%
X16325000Y18250000D03*
X14675000Y18250000D03*
%TD*%
D22*
%TO.C,R17*%
X49500000Y23175000D03*
X49500000Y24825000D03*
%TD*%
D23*
%TO.C,R26*%
X7500000Y24250000D03*
X7500000Y22600000D03*
%TD*%
D24*
%TO.C,C11*%
X41075000Y49250000D03*
X38125000Y49250000D03*
%TD*%
D25*
%TO.C,D5*%
X18500000Y15300000D03*
X18500000Y18200000D03*
%TD*%
D10*
%TO.C,C26*%
X10000000Y38000000D03*
X8450000Y38000000D03*
%TD*%
D16*
%TO.C,R18*%
X18325000Y24000000D03*
X16675000Y24000000D03*
%TD*%
D26*
%TO.C,D4*%
X9050000Y26250000D03*
X11950000Y26250000D03*
%TD*%
D16*
%TO.C,R31*%
X3525000Y31550000D03*
X1875000Y31550000D03*
%TD*%
D18*
%TO.C,C25*%
X53000000Y23225000D03*
X53000000Y24775000D03*
%TD*%
D10*
%TO.C,C14*%
X41125000Y47250000D03*
X39575000Y47250000D03*
%TD*%
D15*
%TO.C,C22*%
X45325000Y36775000D03*
X46875000Y36775000D03*
%TD*%
D27*
%TO.C,D10*%
X11500000Y15750000D03*
X15500000Y15750000D03*
%TD*%
D20*
%TO.C,R36*%
X13675000Y41500000D03*
X15325000Y41500000D03*
%TD*%
D28*
%TO.C,C48*%
X21000000Y43275000D03*
X21000000Y46225000D03*
%TD*%
D10*
%TO.C,C32*%
X10000000Y36350000D03*
X8450000Y36350000D03*
%TD*%
D15*
%TO.C,C35*%
X49475000Y7250000D03*
X51025000Y7250000D03*
%TD*%
%TO.C,C23*%
X27850000Y36726750D03*
X29400000Y36726750D03*
%TD*%
D16*
%TO.C,R30*%
X3525000Y29600000D03*
X1875000Y29600000D03*
%TD*%
D10*
%TO.C,C30*%
X11050000Y18250000D03*
X9500000Y18250000D03*
%TD*%
D20*
%TO.C,R19*%
X16675000Y22250000D03*
X18325000Y22250000D03*
%TD*%
D23*
%TO.C,R23*%
X53000000Y14325000D03*
X53000000Y12675000D03*
%TD*%
%TO.C,R35*%
X14650000Y39325000D03*
X14650000Y37675000D03*
%TD*%
D20*
%TO.C,R22*%
X8400000Y34800000D03*
X10050000Y34800000D03*
%TD*%
%TO.C,R16*%
X16675000Y40250000D03*
X18325000Y40250000D03*
%TD*%
D23*
%TO.C,R27*%
X49500000Y14325000D03*
X49500000Y12675000D03*
%TD*%
D11*
%TO.C,C37*%
X51250000Y14275000D03*
X51250000Y12725000D03*
%TD*%
D20*
%TO.C,R21*%
X12750000Y35700000D03*
X14400000Y35700000D03*
%TD*%
D21*
%TO.C,D8*%
X3212500Y38425000D03*
X3212500Y40325000D03*
X5487500Y39375000D03*
%TD*%
D29*
%TO.C,U5*%
X9525000Y19940000D03*
X9525000Y21210000D03*
X9525000Y22480000D03*
X9525000Y23750000D03*
X14475000Y23750000D03*
X14475000Y22480000D03*
X14475000Y21210000D03*
X14475000Y19940000D03*
%TD*%
D18*
%TO.C,C36*%
X12700000Y37775000D03*
X12700000Y39325000D03*
%TD*%
D21*
%TO.C,D13*%
X3212500Y41987500D03*
X3212500Y43887500D03*
X5487500Y42937500D03*
%TD*%
D22*
%TO.C,R20*%
X51250000Y23175000D03*
X51250000Y24825000D03*
%TD*%
D20*
%TO.C,R24*%
X15875000Y35700000D03*
X17525000Y35700000D03*
%TD*%
D10*
%TO.C,C3*%
X41125000Y41500000D03*
X39575000Y41500000D03*
%TD*%
D24*
%TO.C,C7*%
X41075000Y39500000D03*
X38125000Y39500000D03*
%TD*%
D11*
%TO.C,C34*%
X7500000Y20750000D03*
X7500000Y19200000D03*
%TD*%
M02*
