%TF.GenerationSoftware,KiCad,Pcbnew,9.0.1*%
%TF.CreationDate,2025-08-23T17:21:42+08:00*%
%TF.ProjectId,dcdc,64636463-2e6b-4696-9361-645f70636258,rev?*%
%TF.SameCoordinates,PX71a15b0PY7e1f990*%
%TF.FileFunction,Copper,L1,Top*%
%TF.FilePolarity,Positive*%
%FSLAX46Y46*%
G04 Gerber Fmt 4.6, Leading zero omitted, Abs format (unit mm)*
G04 Created by KiCad (PCBNEW 9.0.1) date 2025-08-23 17:21:42*
%MOMM*%
%LPD*%
G01*
G04 APERTURE LIST*
G04 Aperture macros list*
%AMRoundRect*
0 Rectangle with rounded corners*
0 $1 Rounding radius*
0 $2 $3 $4 $5 $6 $7 $8 $9 X,Y pos of 4 corners*
0 Add a 4 corners polygon primitive as box body*
4,1,4,$2,$3,$4,$5,$6,$7,$8,$9,$2,$3,0*
0 Add four circle primitives for the rounded corners*
1,1,$1+$1,$2,$3*
1,1,$1+$1,$4,$5*
1,1,$1+$1,$6,$7*
1,1,$1+$1,$8,$9*
0 Add four rect primitives between the rounded corners*
20,1,$1+$1,$2,$3,$4,$5,0*
20,1,$1+$1,$4,$5,$6,$7,0*
20,1,$1+$1,$6,$7,$8,$9,0*
20,1,$1+$1,$8,$9,$2,$3,0*%
G04 Aperture macros list end*
%TA.AperFunction,SMDPad,CuDef*%
%ADD10RoundRect,0.250002X-1.799998X-2.499998X1.799998X-2.499998X1.799998X2.499998X-1.799998X2.499998X0*%
%TD*%
%TA.AperFunction,SMDPad,CuDef*%
%ADD11RoundRect,0.225000X-0.225000X-0.250000X0.225000X-0.250000X0.225000X0.250000X-0.225000X0.250000X0*%
%TD*%
%TA.AperFunction,SMDPad,CuDef*%
%ADD12RoundRect,0.218750X0.218750X0.256250X-0.218750X0.256250X-0.218750X-0.256250X0.218750X-0.256250X0*%
%TD*%
%TA.AperFunction,SMDPad,CuDef*%
%ADD13RoundRect,0.225000X0.225000X0.250000X-0.225000X0.250000X-0.225000X-0.250000X0.225000X-0.250000X0*%
%TD*%
%TA.AperFunction,SMDPad,CuDef*%
%ADD14RoundRect,0.200000X0.200000X0.275000X-0.200000X0.275000X-0.200000X-0.275000X0.200000X-0.275000X0*%
%TD*%
%TA.AperFunction,SMDPad,CuDef*%
%ADD15RoundRect,0.150000X0.150000X-0.650000X0.150000X0.650000X-0.150000X0.650000X-0.150000X-0.650000X0*%
%TD*%
%TA.AperFunction,HeatsinkPad*%
%ADD16C,0.500000*%
%TD*%
%TA.AperFunction,HeatsinkPad*%
%ADD17R,3.100000X2.410000*%
%TD*%
%TA.AperFunction,SMDPad,CuDef*%
%ADD18RoundRect,0.200000X-0.275000X0.200000X-0.275000X-0.200000X0.275000X-0.200000X0.275000X0.200000X0*%
%TD*%
%TA.AperFunction,SMDPad,CuDef*%
%ADD19RoundRect,0.225000X-0.250000X0.225000X-0.250000X-0.225000X0.250000X-0.225000X0.250000X0.225000X0*%
%TD*%
%TA.AperFunction,SMDPad,CuDef*%
%ADD20RoundRect,0.218750X-0.218750X-0.256250X0.218750X-0.256250X0.218750X0.256250X-0.218750X0.256250X0*%
%TD*%
%TA.AperFunction,ComponentPad*%
%ADD21C,0.800000*%
%TD*%
%TA.AperFunction,ComponentPad*%
%ADD22C,6.400000*%
%TD*%
%TA.AperFunction,SMDPad,CuDef*%
%ADD23RoundRect,0.250000X-1.500000X0.925000X-1.500000X-0.925000X1.500000X-0.925000X1.500000X0.925000X0*%
%TD*%
%TA.AperFunction,SMDPad,CuDef*%
%ADD24RoundRect,0.250000X1.000000X-1.750000X1.000000X1.750000X-1.000000X1.750000X-1.000000X-1.750000X0*%
%TD*%
%TA.AperFunction,SMDPad,CuDef*%
%ADD25RoundRect,0.250000X-1.000000X1.750000X-1.000000X-1.750000X1.000000X-1.750000X1.000000X1.750000X0*%
%TD*%
%TA.AperFunction,SMDPad,CuDef*%
%ADD26RoundRect,0.218750X0.256250X-0.218750X0.256250X0.218750X-0.256250X0.218750X-0.256250X-0.218750X0*%
%TD*%
%TA.AperFunction,SMDPad,CuDef*%
%ADD27R,1.900000X0.400000*%
%TD*%
%TA.AperFunction,SMDPad,CuDef*%
%ADD28RoundRect,0.200000X0.275000X-0.200000X0.275000X0.200000X-0.275000X0.200000X-0.275000X-0.200000X0*%
%TD*%
%TA.AperFunction,SMDPad,CuDef*%
%ADD29R,1.500000X1.500000*%
%TD*%
%TA.AperFunction,SMDPad,CuDef*%
%ADD30RoundRect,0.250000X-0.400000X-0.450000X0.400000X-0.450000X0.400000X0.450000X-0.400000X0.450000X0*%
%TD*%
%TA.AperFunction,SMDPad,CuDef*%
%ADD31RoundRect,0.250000X0.900000X-1.000000X0.900000X1.000000X-0.900000X1.000000X-0.900000X-1.000000X0*%
%TD*%
%TA.AperFunction,SMDPad,CuDef*%
%ADD32RoundRect,0.250000X-0.420000X-0.945000X0.420000X-0.945000X0.420000X0.945000X-0.420000X0.945000X0*%
%TD*%
%TA.AperFunction,SMDPad,CuDef*%
%ADD33RoundRect,0.250000X-0.650000X0.325000X-0.650000X-0.325000X0.650000X-0.325000X0.650000X0.325000X0*%
%TD*%
%TA.AperFunction,SMDPad,CuDef*%
%ADD34RoundRect,0.250000X0.325000X0.650000X-0.325000X0.650000X-0.325000X-0.650000X0.325000X-0.650000X0*%
%TD*%
%TA.AperFunction,SMDPad,CuDef*%
%ADD35RoundRect,0.225000X0.250000X-0.225000X0.250000X0.225000X-0.250000X0.225000X-0.250000X-0.225000X0*%
%TD*%
%TA.AperFunction,SMDPad,CuDef*%
%ADD36RoundRect,0.200000X-0.200000X-0.275000X0.200000X-0.275000X0.200000X0.275000X-0.200000X0.275000X0*%
%TD*%
%TA.AperFunction,SMDPad,CuDef*%
%ADD37RoundRect,0.250000X0.650000X-0.325000X0.650000X0.325000X-0.650000X0.325000X-0.650000X-0.325000X0*%
%TD*%
%TA.AperFunction,ComponentPad*%
%ADD38R,1.700000X1.700000*%
%TD*%
%TA.AperFunction,ComponentPad*%
%ADD39C,1.700000*%
%TD*%
%TA.AperFunction,SMDPad,CuDef*%
%ADD40RoundRect,0.250000X0.850000X0.350000X-0.850000X0.350000X-0.850000X-0.350000X0.850000X-0.350000X0*%
%TD*%
%TA.AperFunction,SMDPad,CuDef*%
%ADD41RoundRect,0.249997X2.950003X2.650003X-2.950003X2.650003X-2.950003X-2.650003X2.950003X-2.650003X0*%
%TD*%
%TA.AperFunction,SMDPad,CuDef*%
%ADD42RoundRect,0.250000X-0.900000X1.000000X-0.900000X-1.000000X0.900000X-1.000000X0.900000X1.000000X0*%
%TD*%
%TA.AperFunction,SMDPad,CuDef*%
%ADD43RoundRect,0.075000X-0.662500X-0.075000X0.662500X-0.075000X0.662500X0.075000X-0.662500X0.075000X0*%
%TD*%
%TA.AperFunction,SMDPad,CuDef*%
%ADD44RoundRect,0.075000X-0.075000X-0.662500X0.075000X-0.662500X0.075000X0.662500X-0.075000X0.662500X0*%
%TD*%
%TA.AperFunction,SMDPad,CuDef*%
%ADD45RoundRect,0.250000X0.350000X-0.850000X0.350000X0.850000X-0.350000X0.850000X-0.350000X-0.850000X0*%
%TD*%
%TA.AperFunction,SMDPad,CuDef*%
%ADD46RoundRect,0.249997X2.650003X-2.950003X2.650003X2.950003X-2.650003X2.950003X-2.650003X-2.950003X0*%
%TD*%
%TA.AperFunction,SMDPad,CuDef*%
%ADD47RoundRect,0.250000X-0.325000X-0.650000X0.325000X-0.650000X0.325000X0.650000X-0.325000X0.650000X0*%
%TD*%
%TA.AperFunction,ViaPad*%
%ADD48C,0.762000*%
%TD*%
%TA.AperFunction,ViaPad*%
%ADD49C,0.508000*%
%TD*%
%TA.AperFunction,Conductor*%
%ADD50C,0.254000*%
%TD*%
%TA.AperFunction,Conductor*%
%ADD51C,0.508000*%
%TD*%
G04 APERTURE END LIST*
D10*
%TO.P,L3,2,2*%
%TO.N,I+*%
X19250000Y7350000D03*
%TO.P,L3,1,1*%
%TO.N,SW*%
X8650000Y7350000D03*
%TD*%
D11*
%TO.P,C43,1*%
%TO.N,+3V3*%
X20725000Y35000000D03*
%TO.P,C43,2*%
%TO.N,GND*%
X22275000Y35000000D03*
%TD*%
D12*
%TO.P,D16,1,K*%
%TO.N,PB15*%
X5037500Y31550000D03*
%TO.P,D16,2,A*%
%TO.N,Net-(D16-A)*%
X3462500Y31550000D03*
%TD*%
D13*
%TO.P,C41,1*%
%TO.N,+3V3*%
X10050000Y38000000D03*
%TO.P,C41,2*%
%TO.N,GND*%
X8500000Y38000000D03*
%TD*%
D14*
%TO.P,R13,1*%
%TO.N,Net-(R13-Pad1)*%
X52175000Y50025000D03*
%TO.P,R13,2*%
%TO.N,+5V*%
X50525000Y50025000D03*
%TD*%
D12*
%TO.P,D14,1,K*%
%TO.N,PB13*%
X5037500Y27600000D03*
%TO.P,D14,2,A*%
%TO.N,Net-(D14-A)*%
X3462500Y27600000D03*
%TD*%
D15*
%TO.P,U3,1,GND*%
%TO.N,GND*%
X49895000Y41330000D03*
%TO.P,U3,2,VIN*%
%TO.N,VIN*%
X51165000Y41330000D03*
%TO.P,U3,3,EN/UVLO*%
X52435000Y41330000D03*
%TO.P,U3,4,RON*%
%TO.N,Net-(U3-RON)*%
X53705000Y41330000D03*
%TO.P,U3,5,FB*%
%TO.N,Net-(U3-FB)*%
X53705000Y46630000D03*
%TO.P,U3,6,PGOOD*%
%TO.N,Net-(D3-A)*%
X52435000Y46630000D03*
%TO.P,U3,7,BST*%
%TO.N,Net-(U3-BST)*%
X51165000Y46630000D03*
%TO.P,U3,8,SW*%
%TO.N,Net-(U3-SW)*%
X49895000Y46630000D03*
D16*
%TO.P,U3,9,EP*%
%TO.N,GND*%
X50500000Y43025000D03*
X51800000Y43025000D03*
X53100000Y43025000D03*
D17*
X51800000Y43980000D03*
D16*
X50500000Y44935000D03*
X51800000Y44935000D03*
X53100000Y44935000D03*
%TD*%
D18*
%TO.P,R6,1*%
%TO.N,Net-(U2-FB)*%
X38000000Y46825000D03*
%TO.P,R6,2*%
%TO.N,GND*%
X38000000Y45175000D03*
%TD*%
D19*
%TO.P,C19,1*%
%TO.N,Net-(C17-Pad2)*%
X23500000Y42525000D03*
%TO.P,C19,2*%
%TO.N,+12V*%
X23500000Y40975000D03*
%TD*%
D13*
%TO.P,C13,1*%
%TO.N,Net-(U3-BST)*%
X51375000Y48525000D03*
%TO.P,C13,2*%
%TO.N,Net-(U3-SW)*%
X49825000Y48525000D03*
%TD*%
D20*
%TO.P,D2,1,K*%
%TO.N,GND*%
X29925000Y50000000D03*
%TO.P,D2,2,A*%
%TO.N,Net-(D2-A)*%
X31500000Y50000000D03*
%TD*%
D19*
%TO.P,C18,1*%
%TO.N,Net-(C16-Pad2)*%
X41000000Y45250000D03*
%TO.P,C18,2*%
%TO.N,+5V*%
X41000000Y43700000D03*
%TD*%
D21*
%TO.P,H4,1,1*%
%TO.N,GND*%
X51652944Y30552944D03*
X52355888Y32250000D03*
X52355888Y28855888D03*
X54052944Y32952944D03*
D22*
X54052944Y30552944D03*
D21*
X54052944Y28152944D03*
X55750000Y32250000D03*
X55750000Y28855888D03*
X56452944Y30552944D03*
%TD*%
D14*
%TO.P,R4,1*%
%TO.N,+5V*%
X48925000Y50025000D03*
%TO.P,R4,2*%
%TO.N,Net-(D3-A)*%
X47275000Y50025000D03*
%TD*%
D23*
%TO.P,L1,1,1*%
%TO.N,Net-(U3-SW)*%
X45350000Y47800000D03*
%TO.P,L1,2,2*%
%TO.N,+5V*%
X45350000Y41750000D03*
%TD*%
D21*
%TO.P,H2,1,1*%
%TO.N,GND*%
X54052944Y1600000D03*
X52355888Y2302944D03*
X55750000Y2302944D03*
X51652944Y4000000D03*
D22*
X54052944Y4000000D03*
D21*
X56452944Y4000000D03*
X52355888Y5697056D03*
X55750000Y5697056D03*
X54052944Y6400000D03*
%TD*%
D24*
%TO.P,C29,1*%
%TO.N,I-*%
X38675000Y7692500D03*
%TO.P,C29,2*%
%TO.N,GND*%
X38675000Y15692500D03*
%TD*%
D25*
%TO.P,C10,1*%
%TO.N,VIN*%
X35175000Y29192500D03*
%TO.P,C10,2*%
%TO.N,GND*%
X35175000Y21192500D03*
%TD*%
D26*
%TO.P,D17,1,K*%
%TO.N,GND*%
X22000000Y36962500D03*
%TO.P,D17,2,A*%
%TO.N,Net-(D17-A)*%
X22000000Y38537500D03*
%TD*%
D27*
%TO.P,Y1,1,1*%
%TO.N,Net-(U7-PF0)*%
X9250000Y41950000D03*
%TO.P,Y1,2,2*%
%TO.N,GND*%
X9250000Y40750000D03*
%TO.P,Y1,3,3*%
%TO.N,Net-(U7-PF1)*%
X9250000Y39550000D03*
%TD*%
D28*
%TO.P,R7,1*%
%TO.N,Net-(U3-FB)*%
X53775000Y48450000D03*
%TO.P,R7,2*%
%TO.N,Net-(R13-Pad1)*%
X53775000Y50100000D03*
%TD*%
D15*
%TO.P,U2,1,GND*%
%TO.N,GND*%
X32445000Y41226750D03*
%TO.P,U2,2,VIN*%
%TO.N,VIN*%
X33715000Y41226750D03*
%TO.P,U2,3,EN/UVLO*%
X34985000Y41226750D03*
%TO.P,U2,4,RON*%
%TO.N,Net-(U2-RON)*%
X36255000Y41226750D03*
%TO.P,U2,5,FB*%
%TO.N,Net-(U2-FB)*%
X36255000Y46526750D03*
%TO.P,U2,6,PGOOD*%
%TO.N,Net-(D2-A)*%
X34985000Y46526750D03*
%TO.P,U2,7,BST*%
%TO.N,Net-(U2-BST)*%
X33715000Y46526750D03*
%TO.P,U2,8,SW*%
%TO.N,Net-(U2-SW)*%
X32445000Y46526750D03*
D16*
%TO.P,U2,9,EP*%
%TO.N,GND*%
X33050000Y42921750D03*
X34350000Y42921750D03*
X35650000Y42921750D03*
D17*
X34350000Y43876750D03*
D16*
X33050000Y44831750D03*
X34350000Y44831750D03*
X35650000Y44831750D03*
%TD*%
D29*
%TO.P,SW2,1,1*%
%TO.N,PB5*%
X47250000Y54750000D03*
%TO.P,SW2,2,2*%
%TO.N,GND*%
X55050000Y54750000D03*
%TD*%
D24*
%TO.P,C27,1*%
%TO.N,I-*%
X27200000Y7692500D03*
%TO.P,C27,2*%
%TO.N,GND*%
X27200000Y15692500D03*
%TD*%
D30*
%TO.P,D6,1,A1*%
%TO.N,+5V*%
X44900000Y35525000D03*
%TO.P,D6,2,A2*%
%TO.N,GND*%
X47800000Y35525000D03*
%TD*%
D31*
%TO.P,D12,1,K*%
%TO.N,I-*%
X47000000Y11500000D03*
%TO.P,D12,2,A*%
%TO.N,GND*%
X47000000Y15800000D03*
%TD*%
D11*
%TO.P,C38,1*%
%TO.N,PB7*%
X31025000Y57750000D03*
%TO.P,C38,2*%
%TO.N,GND*%
X32575000Y57750000D03*
%TD*%
D32*
%TO.P,C21,1*%
%TO.N,+12V*%
X27310000Y38500000D03*
%TO.P,C21,2*%
%TO.N,GND*%
X30390000Y38500000D03*
%TD*%
D33*
%TO.P,C9,1*%
%TO.N,VIN*%
X42750000Y26700000D03*
%TO.P,C9,2*%
%TO.N,GND*%
X42750000Y23750000D03*
%TD*%
D25*
%TO.P,C12,1*%
%TO.N,VIN*%
X23675000Y29192500D03*
%TO.P,C12,2*%
%TO.N,GND*%
X23675000Y21192500D03*
%TD*%
D34*
%TO.P,C5,1*%
%TO.N,VIN*%
X52800000Y37275000D03*
%TO.P,C5,2*%
%TO.N,GND*%
X49850000Y37275000D03*
%TD*%
D29*
%TO.P,SW1,1,1*%
%TO.N,PB7*%
X26100000Y54750000D03*
%TO.P,SW1,2,2*%
%TO.N,GND*%
X33900000Y54750000D03*
%TD*%
D35*
%TO.P,C44,1*%
%TO.N,+3V3*%
X10750000Y43475000D03*
%TO.P,C44,2*%
%TO.N,GND*%
X10750000Y45025000D03*
%TD*%
D33*
%TO.P,C8,1*%
%TO.N,VIN*%
X15500000Y26750000D03*
%TO.P,C8,2*%
%TO.N,GND*%
X15500000Y23800000D03*
%TD*%
D23*
%TO.P,L2,1,1*%
%TO.N,Net-(U2-SW)*%
X27850000Y47775000D03*
%TO.P,L2,2,2*%
%TO.N,+12V*%
X27850000Y41725000D03*
%TD*%
D34*
%TO.P,C4,1*%
%TO.N,VIN*%
X35325000Y37250000D03*
%TO.P,C4,2*%
%TO.N,GND*%
X32375000Y37250000D03*
%TD*%
D29*
%TO.P,SW4,1,1*%
%TO.N,RS*%
X2500000Y44400000D03*
%TO.P,SW4,2,2*%
%TO.N,GND*%
X2500000Y36600000D03*
%TD*%
D14*
%TO.P,R3,1*%
%TO.N,+12V*%
X34750000Y50000000D03*
%TO.P,R3,2*%
%TO.N,Net-(D2-A)*%
X33100000Y50000000D03*
%TD*%
D35*
%TO.P,C16,1*%
%TO.N,Net-(U3-FB)*%
X55600000Y48500000D03*
%TO.P,C16,2*%
%TO.N,Net-(C16-Pad2)*%
X55600000Y50050000D03*
%TD*%
D28*
%TO.P,R32,1*%
%TO.N,Net-(D17-A)*%
X22000000Y40175000D03*
%TO.P,R32,2*%
%TO.N,+3V3*%
X22000000Y41825000D03*
%TD*%
D36*
%TO.P,R34,1*%
%TO.N,+3V3*%
X38125000Y57750000D03*
%TO.P,R34,2*%
%TO.N,PB6*%
X39775000Y57750000D03*
%TD*%
D37*
%TO.P,C33,1*%
%TO.N,I-*%
X19700000Y15400000D03*
%TO.P,C33,2*%
%TO.N,GND*%
X19700000Y18350000D03*
%TD*%
D28*
%TO.P,R2,1*%
%TO.N,Net-(U3-RON)*%
X55600000Y41200000D03*
%TO.P,R2,2*%
%TO.N,GND*%
X55600000Y42850000D03*
%TD*%
D36*
%TO.P,R33,1*%
%TO.N,+3V3*%
X48850000Y57800000D03*
%TO.P,R33,2*%
%TO.N,PB5*%
X50500000Y57800000D03*
%TD*%
D13*
%TO.P,C1,1*%
%TO.N,VIN*%
X34125000Y39250000D03*
%TO.P,C1,2*%
%TO.N,GND*%
X32575000Y39250000D03*
%TD*%
D34*
%TO.P,C47,1*%
%TO.N,+3V3*%
X9975000Y36000000D03*
%TO.P,C47,2*%
%TO.N,GND*%
X7025000Y36000000D03*
%TD*%
D29*
%TO.P,SW3,1,1*%
%TO.N,PB6*%
X36700000Y54750000D03*
%TO.P,SW3,2,2*%
%TO.N,GND*%
X44500000Y54750000D03*
%TD*%
D21*
%TO.P,H1,1,1*%
%TO.N,VIN*%
X46650000Y28152944D03*
X44952944Y28855888D03*
X48347056Y28855888D03*
X44250000Y30552944D03*
D22*
X46650000Y30552944D03*
D21*
X49050000Y30552944D03*
X44952944Y32250000D03*
X48347056Y32250000D03*
X46650000Y32952944D03*
%TD*%
D18*
%TO.P,R5,1*%
%TO.N,Net-(U3-FB)*%
X55600000Y46850000D03*
%TO.P,R5,2*%
%TO.N,GND*%
X55600000Y45200000D03*
%TD*%
D28*
%TO.P,R1,1*%
%TO.N,Net-(U2-RON)*%
X37985000Y41101750D03*
%TO.P,R1,2*%
%TO.N,GND*%
X37985000Y42751750D03*
%TD*%
D35*
%TO.P,C17,1*%
%TO.N,Net-(U2-FB)*%
X38100000Y48475000D03*
%TO.P,C17,2*%
%TO.N,Net-(C17-Pad2)*%
X38100000Y50025000D03*
%TD*%
D11*
%TO.P,C40,1*%
%TO.N,PB6*%
X41475000Y57750000D03*
%TO.P,C40,2*%
%TO.N,GND*%
X43025000Y57750000D03*
%TD*%
D30*
%TO.P,D7,1,A1*%
%TO.N,+12V*%
X27400000Y35500000D03*
%TO.P,D7,2,A2*%
%TO.N,GND*%
X30300000Y35500000D03*
%TD*%
D11*
%TO.P,C39,1*%
%TO.N,PB5*%
X52075000Y57750000D03*
%TO.P,C39,2*%
%TO.N,GND*%
X53625000Y57750000D03*
%TD*%
D38*
%TO.P,J2,1,Pin_1*%
%TO.N,SDA*%
X2250000Y48115000D03*
D39*
%TO.P,J2,2,Pin_2*%
%TO.N,SCL*%
X4790000Y48115000D03*
%TO.P,J2,3,Pin_3*%
%TO.N,+3V3*%
X7330000Y48115000D03*
%TO.P,J2,4,Pin_4*%
%TO.N,GND*%
X9870000Y48115000D03*
%TD*%
D40*
%TO.P,Q2,1,G*%
%TO.N,LO*%
X16175000Y15745000D03*
D41*
%TO.P,Q2,2,D*%
%TO.N,SW*%
X9875000Y18025000D03*
D40*
%TO.P,Q2,3,S*%
%TO.N,GND*%
X16175000Y20305000D03*
%TD*%
D20*
%TO.P,D3,1,K*%
%TO.N,GND*%
X44062500Y50025000D03*
%TO.P,D3,2,A*%
%TO.N,Net-(D3-A)*%
X45637500Y50025000D03*
%TD*%
D42*
%TO.P,D1,1,K*%
%TO.N,VIN*%
X47000000Y25400000D03*
%TO.P,D1,2,A*%
%TO.N,GND*%
X47000000Y21100000D03*
%TD*%
D13*
%TO.P,C2,1*%
%TO.N,VIN*%
X51375000Y39275000D03*
%TO.P,C2,2*%
%TO.N,GND*%
X49825000Y39275000D03*
%TD*%
D35*
%TO.P,C46,1*%
%TO.N,+3V3*%
X20500000Y43250000D03*
%TO.P,C46,2*%
%TO.N,GND*%
X20500000Y44800000D03*
%TD*%
D36*
%TO.P,R28,1*%
%TO.N,+3V3*%
X27800000Y57750000D03*
%TO.P,R28,2*%
%TO.N,PB7*%
X29450000Y57750000D03*
%TD*%
D12*
%TO.P,D15,1,K*%
%TO.N,PB14*%
X5037500Y29600000D03*
%TO.P,D15,2,A*%
%TO.N,Net-(D15-A)*%
X3462500Y29600000D03*
%TD*%
D43*
%TO.P,U7,1,VBAT*%
%TO.N,+3V3*%
X11837500Y42000000D03*
%TO.P,U7,2,PC13*%
%TO.N,unconnected-(U7-PC13-Pad2)*%
X11837500Y41500000D03*
%TO.P,U7,3,PC14*%
%TO.N,unconnected-(U7-PC14-Pad3)*%
X11837500Y41000000D03*
%TO.P,U7,4,PC15*%
%TO.N,unconnected-(U7-PC15-Pad4)*%
X11837500Y40500000D03*
%TO.P,U7,5,PF0*%
%TO.N,Net-(U7-PF0)*%
X11837500Y40000000D03*
%TO.P,U7,6,PF1*%
%TO.N,Net-(U7-PF1)*%
X11837500Y39500000D03*
%TO.P,U7,7,NRST*%
%TO.N,RS*%
X11837500Y39000000D03*
%TO.P,U7,8,VSSA*%
%TO.N,GND*%
X11837500Y38500000D03*
%TO.P,U7,9,VDDA*%
%TO.N,+3V3*%
X11837500Y38000000D03*
%TO.P,U7,10,PA0*%
%TO.N,VHS*%
X11837500Y37500000D03*
%TO.P,U7,11,PA1*%
%TO.N,VLS*%
X11837500Y37000000D03*
%TO.P,U7,12,PA2*%
%TO.N,IS*%
X11837500Y36500000D03*
D44*
%TO.P,U7,13,PA3*%
%TO.N,unconnected-(U7-PA3-Pad13)*%
X13250000Y35087500D03*
%TO.P,U7,14,PA4*%
%TO.N,unconnected-(U7-PA4-Pad14)*%
X13750000Y35087500D03*
%TO.P,U7,15,PA5*%
%TO.N,unconnected-(U7-PA5-Pad15)*%
X14250000Y35087500D03*
%TO.P,U7,16,PA6*%
%TO.N,unconnected-(U7-PA6-Pad16)*%
X14750000Y35087500D03*
%TO.P,U7,17,PA7*%
%TO.N,unconnected-(U7-PA7-Pad17)*%
X15250000Y35087500D03*
%TO.P,U7,18,PB0*%
%TO.N,unconnected-(U7-PB0-Pad18)*%
X15750000Y35087500D03*
%TO.P,U7,19,PB1*%
%TO.N,unconnected-(U7-PB1-Pad19)*%
X16250000Y35087500D03*
%TO.P,U7,20,PB2*%
%TO.N,unconnected-(U7-PB2-Pad20)*%
X16750000Y35087500D03*
%TO.P,U7,21,PB10*%
%TO.N,unconnected-(U7-PB10-Pad21)*%
X17250000Y35087500D03*
%TO.P,U7,22,PB11*%
%TO.N,unconnected-(U7-PB11-Pad22)*%
X17750000Y35087500D03*
%TO.P,U7,23,VSS*%
%TO.N,GND*%
X18250000Y35087500D03*
%TO.P,U7,24,VDD*%
%TO.N,+3V3*%
X18750000Y35087500D03*
D43*
%TO.P,U7,25,PB12*%
%TO.N,unconnected-(U7-PB12-Pad25)*%
X20162500Y36500000D03*
%TO.P,U7,26,PB13*%
%TO.N,PB13*%
X20162500Y37000000D03*
%TO.P,U7,27,PB14*%
%TO.N,PB14*%
X20162500Y37500000D03*
%TO.P,U7,28,PB15*%
%TO.N,PB15*%
X20162500Y38000000D03*
%TO.P,U7,29,PA8*%
%TO.N,HI*%
X20162500Y38500000D03*
%TO.P,U7,30,PA9*%
%TO.N,LI*%
X20162500Y39000000D03*
%TO.P,U7,31,PA10*%
%TO.N,unconnected-(U7-PA10-Pad31)*%
X20162500Y39500000D03*
%TO.P,U7,32,PA11*%
%TO.N,unconnected-(U7-PA11-Pad32)*%
X20162500Y40000000D03*
%TO.P,U7,33,PA12*%
%TO.N,unconnected-(U7-PA12-Pad33)*%
X20162500Y40500000D03*
%TO.P,U7,34,PA13*%
%TO.N,DIO*%
X20162500Y41000000D03*
%TO.P,U7,35,VSS*%
%TO.N,GND*%
X20162500Y41500000D03*
%TO.P,U7,36,VDD*%
%TO.N,+3V3*%
X20162500Y42000000D03*
D44*
%TO.P,U7,37,PA14*%
%TO.N,CLK*%
X18750000Y43412500D03*
%TO.P,U7,38,PA15*%
%TO.N,unconnected-(U7-PA15-Pad38)*%
X18250000Y43412500D03*
%TO.P,U7,39,PB3*%
%TO.N,unconnected-(U7-PB3-Pad39)*%
X17750000Y43412500D03*
%TO.P,U7,40,PB4*%
%TO.N,unconnected-(U7-PB4-Pad40)*%
X17250000Y43412500D03*
%TO.P,U7,41,PB5*%
%TO.N,PB5*%
X16750000Y43412500D03*
%TO.P,U7,42,PB6*%
%TO.N,PB6*%
X16250000Y43412500D03*
%TO.P,U7,43,PB7*%
%TO.N,PB7*%
X15750000Y43412500D03*
%TO.P,U7,44,BOOT0*%
%TO.N,Net-(U7-BOOT0)*%
X15250000Y43412500D03*
%TO.P,U7,45,PB8*%
%TO.N,SDA*%
X14750000Y43412500D03*
%TO.P,U7,46,PB9*%
%TO.N,SCL*%
X14250000Y43412500D03*
%TO.P,U7,47,VSS*%
%TO.N,GND*%
X13750000Y43412500D03*
%TO.P,U7,48,VDD*%
%TO.N,+3V3*%
X13250000Y43412500D03*
%TD*%
D45*
%TO.P,Q1,1,G*%
%TO.N,HO*%
X7695000Y23375000D03*
D46*
%TO.P,Q1,2,D*%
%TO.N,VIN*%
X9975000Y29675000D03*
D45*
%TO.P,Q1,3,S*%
%TO.N,SW*%
X12255000Y23375000D03*
%TD*%
D21*
%TO.P,H3,1,1*%
%TO.N,I-*%
X49050000Y4000000D03*
X48347056Y2302944D03*
X48347056Y5697056D03*
X46650000Y1600000D03*
D22*
X46650000Y4000000D03*
D21*
X46650000Y6400000D03*
X44952944Y2302944D03*
X44952944Y5697056D03*
X44250000Y4000000D03*
%TD*%
D28*
%TO.P,R11,1*%
%TO.N,Net-(C17-Pad2)*%
X23500000Y43925000D03*
%TO.P,R11,2*%
%TO.N,Net-(U2-SW)*%
X23500000Y45575000D03*
%TD*%
%TO.P,R12,1*%
%TO.N,Net-(U2-FB)*%
X36350000Y48425000D03*
%TO.P,R12,2*%
%TO.N,+12V*%
X36350000Y50075000D03*
%TD*%
D11*
%TO.P,C45,1*%
%TO.N,+3V3*%
X12225000Y45250000D03*
%TO.P,C45,2*%
%TO.N,GND*%
X13775000Y45250000D03*
%TD*%
D47*
%TO.P,C31,1*%
%TO.N,I-*%
X48775000Y8500000D03*
%TO.P,C31,2*%
%TO.N,GND*%
X51725000Y8500000D03*
%TD*%
D38*
%TO.P,J1,1,Pin_1*%
%TO.N,+3V3*%
X13500000Y48115000D03*
D39*
%TO.P,J1,2,Pin_2*%
%TO.N,DIO*%
X16040000Y48115000D03*
%TO.P,J1,3,Pin_3*%
%TO.N,CLK*%
X18580000Y48115000D03*
%TO.P,J1,4,Pin_4*%
%TO.N,GND*%
X21120000Y48115000D03*
%TD*%
D13*
%TO.P,C15,1*%
%TO.N,Net-(U2-BST)*%
X33875000Y48500000D03*
%TO.P,C15,2*%
%TO.N,Net-(U2-SW)*%
X32325000Y48500000D03*
%TD*%
D28*
%TO.P,R8,1*%
%TO.N,Net-(C16-Pad2)*%
X41000000Y46850000D03*
%TO.P,R8,2*%
%TO.N,Net-(U3-SW)*%
X41000000Y48500000D03*
%TD*%
D32*
%TO.P,C20,1*%
%TO.N,+5V*%
X44810000Y38525000D03*
%TO.P,C20,2*%
%TO.N,GND*%
X47890000Y38525000D03*
%TD*%
D48*
%TO.N,SW*%
X8850000Y16500000D03*
X7600000Y16500000D03*
X7600000Y5750000D03*
X7600000Y6750000D03*
X7600000Y7750000D03*
X7600000Y8750000D03*
X9600000Y5750000D03*
X8600000Y5750000D03*
X8600000Y6750000D03*
X9600000Y6750000D03*
X9600000Y7750000D03*
X8600000Y7750000D03*
X8600000Y8750000D03*
X9600000Y8750000D03*
%TO.N,I+*%
X18600000Y8750000D03*
X18600000Y7750000D03*
X18600000Y6750000D03*
X18600000Y5750000D03*
X19600000Y5750000D03*
X19600000Y6750000D03*
X19600000Y7750000D03*
X19600000Y8750000D03*
D49*
%TO.N,I-*%
X39450000Y5350000D03*
X38650000Y5350000D03*
X37850000Y5350000D03*
X27900000Y5350000D03*
X27150000Y5350000D03*
%TO.N,+3V3*%
X26750000Y57800000D03*
X22150000Y51550000D03*
%TO.N,SW*%
X7500000Y18100000D03*
%TO.N,GND*%
X45350000Y17950000D03*
%TO.N,+3V3*%
X49525000Y17725000D03*
%TO.N,GND*%
X22250000Y2200000D03*
X23044500Y5150000D03*
X31700000Y1800000D03*
X30700000Y3200000D03*
X13748736Y18000000D03*
D48*
%TO.N,I-*%
X26550000Y6750000D03*
X26600000Y7750000D03*
X26600000Y8750000D03*
%TO.N,I+*%
X20700000Y6800000D03*
X20700000Y7750000D03*
X20700000Y8700000D03*
%TO.N,GND*%
X37750000Y18500000D03*
X39750000Y13000000D03*
X18000000Y19500000D03*
D49*
X2050000Y34900000D03*
X6700000Y38250000D03*
X18999443Y41749811D03*
D48*
X38750000Y18500000D03*
X22750000Y23750000D03*
D49*
X14150000Y38500000D03*
X13750000Y42250000D03*
X7750000Y40750000D03*
X19500000Y44850000D03*
D48*
X15750000Y21500000D03*
X39750000Y18500000D03*
D49*
X22000000Y36150000D03*
X19550000Y46100000D03*
D48*
X55500000Y44000000D03*
X28250000Y13000000D03*
D49*
X2000000Y38450000D03*
X55000000Y56250000D03*
X18600000Y36350000D03*
D48*
X27250000Y18500000D03*
D49*
X21000000Y49750000D03*
X11250000Y48250000D03*
X7400000Y38250000D03*
D48*
X43000000Y49750000D03*
D49*
X6700000Y37450000D03*
X2550000Y41350000D03*
D48*
X37750000Y13000000D03*
X35250000Y18500000D03*
X28250000Y18500000D03*
X36250000Y23750000D03*
D49*
X1400000Y40200000D03*
D48*
X34250000Y23750000D03*
D49*
X13450000Y40250000D03*
D48*
X19250000Y24000000D03*
X23750000Y23750000D03*
X38750000Y13000000D03*
X38000000Y44250000D03*
X19250000Y22250000D03*
X26250000Y18500000D03*
X24750000Y18500000D03*
D49*
X7400000Y37450000D03*
D48*
X35250000Y23750000D03*
X26250000Y13000000D03*
X36250000Y18500000D03*
X27250000Y13000000D03*
X22750000Y18500000D03*
D49*
X22850000Y36200000D03*
D48*
X34250000Y18500000D03*
X28900000Y49900000D03*
X24750000Y23750000D03*
D49*
X44500000Y56250000D03*
D48*
X23750000Y18500000D03*
D49*
X11750000Y44250000D03*
X34000000Y56250000D03*
D48*
%TO.N,VIN*%
X13750000Y32500000D03*
X36750000Y38000000D03*
X15000000Y31250000D03*
X35750000Y35500000D03*
X35750000Y39000000D03*
X15000000Y32500000D03*
X15000000Y30000000D03*
X54250000Y37500000D03*
X36250000Y33000000D03*
X15000000Y28750000D03*
X23750000Y33000000D03*
X34250000Y33000000D03*
X22750000Y33000000D03*
X54250000Y36500000D03*
X16250000Y30000000D03*
X55250000Y36500000D03*
X23750000Y26500000D03*
X13750000Y28750000D03*
X16250000Y28750000D03*
X16250000Y32500000D03*
X55250000Y39500000D03*
X36750000Y39000000D03*
X22750000Y32000000D03*
X36250000Y26500000D03*
X55250000Y38500000D03*
X35250000Y33000000D03*
X24750000Y26500000D03*
X54250000Y38500000D03*
X24750000Y32000000D03*
X34250000Y32000000D03*
X33750000Y35500000D03*
X22750000Y26500000D03*
X23750000Y32000000D03*
X54250000Y35500000D03*
X34250000Y26500000D03*
X36750000Y37000000D03*
X34750000Y35500000D03*
X54250000Y39500000D03*
X35250000Y26500000D03*
X55250000Y35500000D03*
X35250000Y32000000D03*
X55250000Y37500000D03*
X13750000Y30000000D03*
X16250000Y31250000D03*
X36250000Y32000000D03*
X24750000Y33000000D03*
X13750000Y31250000D03*
%TO.N,+12V*%
X25750000Y37500000D03*
X25750000Y36500000D03*
X24750000Y38500000D03*
X24750000Y39500000D03*
X24750000Y36500000D03*
X25750000Y35500000D03*
X25750000Y39500000D03*
X13750000Y19000000D03*
D49*
X34000000Y51500000D03*
D48*
X25750000Y38500000D03*
X24750000Y35500000D03*
X24750000Y37500000D03*
%TO.N,SW*%
X11000000Y23500000D03*
D49*
%TO.N,IS*%
X11800000Y36050000D03*
%TO.N,+3V3*%
X22350000Y44000000D03*
X9450000Y43700000D03*
X42000000Y49750000D03*
X20700000Y35850000D03*
X39750000Y36500000D03*
X39750000Y39000000D03*
X13900000Y37750000D03*
X3800000Y35850000D03*
%TO.N,Net-(C16-Pad2)*%
X55500000Y50750000D03*
X39750000Y48750000D03*
D48*
%TO.N,+5V*%
X43250000Y35250000D03*
X42250000Y38250000D03*
X43250000Y39250000D03*
D49*
X39000000Y44250000D03*
D48*
X43250000Y38250000D03*
X42250000Y39250000D03*
D49*
X49500000Y51500000D03*
D48*
X43250000Y37250000D03*
X42250000Y37250000D03*
X42250000Y35250000D03*
X42250000Y36250000D03*
X43250000Y36250000D03*
D49*
%TO.N,Net-(C17-Pad2)*%
X38000000Y50750000D03*
X22750000Y44750000D03*
%TO.N,VHS*%
X13950000Y36850000D03*
%TO.N,VLS*%
X13200000Y36750000D03*
%TO.N,RS*%
X13900000Y39250000D03*
X3750000Y44900000D03*
X1350000Y44150000D03*
D48*
%TO.N,LO*%
X16250000Y17250000D03*
%TO.N,Net-(D2-A)*%
X35000000Y48500000D03*
D49*
X33750000Y50000000D03*
D48*
%TO.N,HO*%
X6500000Y23750000D03*
D49*
%TO.N,Net-(D3-A)*%
X48000000Y49750000D03*
D48*
X52500000Y48500000D03*
D49*
%TO.N,PB13*%
X16700000Y36400000D03*
X5050000Y28500000D03*
%TO.N,Net-(D16-A)*%
X3750000Y32550000D03*
%TO.N,PB14*%
X5050000Y30500000D03*
X15800000Y36750000D03*
X21350000Y37750000D03*
%TO.N,PB15*%
X5050000Y32550000D03*
X15600000Y37550000D03*
%TO.N,Net-(D14-A)*%
X3550000Y28500000D03*
%TO.N,Net-(D15-A)*%
X3650000Y30500000D03*
%TO.N,DIO*%
X16250000Y42000000D03*
%TO.N,SDA*%
X14500000Y42000000D03*
%TO.N,SCL*%
X14250000Y46250000D03*
D48*
%TO.N,I-*%
X37750000Y10500000D03*
X26250000Y10500000D03*
X27250000Y10500000D03*
X39750000Y10500000D03*
X38750000Y10500000D03*
X28250000Y10500000D03*
D49*
%TO.N,HI*%
X18750000Y38250000D03*
D48*
%TO.N,Net-(U5-HI)*%
X17250000Y24750000D03*
D49*
X17000000Y38000000D03*
%TO.N,LI*%
X18750000Y39250000D03*
D48*
%TO.N,Net-(U5-LI)*%
X17875000Y21125000D03*
D49*
X15750000Y40250000D03*
D48*
%TO.N,Net-(U6B--)*%
X51500000Y17500000D03*
D49*
X40500000Y34600000D03*
X39150000Y34600000D03*
X23000000Y34150000D03*
%TO.N,Net-(R22-Pad2)*%
X1450000Y18250000D03*
X11300000Y34800000D03*
D48*
%TO.N,Net-(U6A--)*%
X50250000Y19750000D03*
D49*
X23400000Y34750000D03*
X39100000Y35450000D03*
X40350000Y35400000D03*
%TO.N,Net-(U7-BOOT0)*%
X15250000Y42250000D03*
%TO.N,PB5*%
X17250000Y46250000D03*
X47250000Y53500000D03*
%TD*%
D50*
%TO.N,+3V3*%
X26750000Y57800000D02*
X27800000Y57800000D01*
X22200000Y51550000D02*
X22150000Y51550000D01*
X22550000Y51200000D02*
X22200000Y51550000D01*
%TO.N,PB5*%
X49678000Y58622000D02*
X50500000Y57800000D01*
X47572000Y58622000D02*
X49678000Y58622000D01*
X47250000Y58300000D02*
X47572000Y58622000D01*
X47250000Y56225000D02*
X47250000Y58300000D01*
%TO.N,+3V3*%
X48900000Y54244000D02*
X48900000Y57750000D01*
X46906000Y52250000D02*
X48900000Y54244000D01*
X40800000Y52250000D02*
X46906000Y52250000D01*
%TO.N,PB7*%
X28578000Y58622000D02*
X28300000Y58622000D01*
X29450000Y57750000D02*
X28578000Y58622000D01*
X26372000Y58622000D02*
X28300000Y58622000D01*
X26100000Y58350000D02*
X26372000Y58622000D01*
X26100000Y56125000D02*
X26100000Y58350000D01*
X29450000Y57750000D02*
X31000000Y57750000D01*
%TO.N,PB5*%
X52000000Y57800000D02*
X52050000Y57750000D01*
X50500000Y57800000D02*
X52000000Y57800000D01*
%TO.N,+3V3*%
X38125000Y57750000D02*
X38125000Y52275000D01*
X38100000Y52250000D02*
X23600000Y52250000D01*
X38125000Y52275000D02*
X38100000Y52250000D01*
%TO.N,PB6*%
X38925000Y58600000D02*
X37450000Y58600000D01*
X39775000Y57750000D02*
X38925000Y58600000D01*
X39775000Y57750000D02*
X41500000Y57750000D01*
X37450000Y58600000D02*
X36700000Y57850000D01*
X36700000Y57850000D02*
X36700000Y54750000D01*
%TO.N,PB5*%
X47250000Y56225000D02*
X47250000Y54750000D01*
X52075000Y57750000D02*
X52025000Y57800000D01*
%TO.N,PB7*%
X26100000Y56125000D02*
X26100000Y54750000D01*
%TO.N,GND*%
X10975000Y45025000D02*
X11750000Y44250000D01*
X18250000Y36000000D02*
X18250000Y35087500D01*
X53625000Y57625000D02*
X55000000Y56250000D01*
D51*
X55600000Y42850000D02*
X55600000Y43900000D01*
D50*
X33900000Y54750000D02*
X33900000Y56150000D01*
X6700000Y38250000D02*
X7150000Y38250000D01*
X13750000Y42250000D02*
X13750000Y43412500D01*
D51*
X28900000Y49900000D02*
X29000000Y50000000D01*
D50*
X7150000Y38250000D02*
X7400000Y38000000D01*
X21120000Y49630000D02*
X21000000Y49750000D01*
D51*
X37985000Y44235000D02*
X38000000Y44250000D01*
D50*
X22000000Y36962500D02*
X22000000Y36150000D01*
D51*
X43275000Y50025000D02*
X44062500Y50025000D01*
D50*
X6700000Y37500000D02*
X7025000Y37175000D01*
D51*
X43000000Y49750000D02*
X43275000Y50025000D01*
D50*
X19550000Y44800000D02*
X19500000Y44850000D01*
D51*
X55500000Y45100000D02*
X55600000Y45200000D01*
D50*
X13750000Y45225000D02*
X13775000Y45250000D01*
X44500000Y54750000D02*
X44500000Y56250000D01*
X43025000Y57725000D02*
X44500000Y56250000D01*
X19249254Y41500000D02*
X18999443Y41749811D01*
X7500000Y38000000D02*
X8500000Y38000000D01*
X9870000Y48115000D02*
X11115000Y48115000D01*
X20162500Y41500000D02*
X19249254Y41500000D01*
D51*
X55500000Y44000000D02*
X55500000Y45100000D01*
D50*
X33900000Y56150000D02*
X34000000Y56250000D01*
X11837500Y38500000D02*
X14150000Y38500000D01*
X20500000Y44800000D02*
X19550000Y44800000D01*
X7400000Y38000000D02*
X7500000Y38000000D01*
X22850000Y36200000D02*
X22275000Y35625000D01*
X43025000Y57750000D02*
X43025000Y57725000D01*
X21120000Y48115000D02*
X21120000Y49630000D01*
X13750000Y43412500D02*
X13750000Y45225000D01*
D51*
X29000000Y50000000D02*
X29925000Y50000000D01*
X37985000Y42751750D02*
X37985000Y44235000D01*
D50*
X32575000Y57675000D02*
X34000000Y56250000D01*
X22275000Y35625000D02*
X22275000Y35000000D01*
X53625000Y57750000D02*
X53625000Y57625000D01*
X11115000Y48115000D02*
X11250000Y48250000D01*
X55050000Y56200000D02*
X55000000Y56250000D01*
X9250000Y40750000D02*
X7750000Y40750000D01*
D51*
X55600000Y43900000D02*
X55500000Y44000000D01*
D50*
X55050000Y54750000D02*
X55050000Y56200000D01*
X10750000Y45025000D02*
X10975000Y45025000D01*
X18600000Y36350000D02*
X18250000Y36000000D01*
X32575000Y57750000D02*
X32575000Y57675000D01*
D51*
X38000000Y45175000D02*
X38000000Y44250000D01*
D50*
X7025000Y37175000D02*
X7025000Y36000000D01*
D51*
%TO.N,VIN*%
X40325000Y32250000D02*
X35325000Y37250000D01*
X44952944Y32250000D02*
X40325000Y32250000D01*
X52800000Y36702944D02*
X52800000Y37275000D01*
X48347056Y32250000D02*
X52800000Y36702944D01*
%TO.N,+12V*%
X36275000Y50000000D02*
X36350000Y50075000D01*
X27100000Y40975000D02*
X27850000Y41725000D01*
D50*
X34000000Y51500000D02*
X34750000Y50750000D01*
D51*
X23500000Y40975000D02*
X27100000Y40975000D01*
X34750000Y50000000D02*
X36275000Y50000000D01*
D50*
X34750000Y50750000D02*
X34750000Y50000000D01*
X34750000Y50000000D02*
X35000000Y49750000D01*
D51*
%TO.N,SW*%
X11000000Y23500000D02*
X12130000Y23500000D01*
X12130000Y23500000D02*
X12255000Y23375000D01*
%TO.N,Net-(U3-SW)*%
X45200000Y47650000D02*
X45350000Y47800000D01*
X49895000Y46630000D02*
X49895000Y48455000D01*
X41000000Y48500000D02*
X44650000Y48500000D01*
X49895000Y48455000D02*
X49825000Y48525000D01*
X44650000Y48500000D02*
X45350000Y47800000D01*
D50*
%TO.N,IS*%
X11837500Y36087500D02*
X11800000Y36050000D01*
X11837500Y36500000D02*
X11837500Y36087500D01*
D51*
%TO.N,Net-(U3-BST)*%
X51165000Y48315000D02*
X51375000Y48525000D01*
X51165000Y46630000D02*
X51165000Y48315000D01*
%TO.N,Net-(U2-SW)*%
X23500000Y45575000D02*
X25700000Y47775000D01*
X32445000Y48380000D02*
X32325000Y48500000D01*
X25700000Y47775000D02*
X27850000Y47775000D01*
X32445000Y46526750D02*
X32445000Y48380000D01*
D50*
%TO.N,+3V3*%
X8675000Y34700000D02*
X4800000Y34700000D01*
X10525000Y43700000D02*
X10750000Y43475000D01*
X20700000Y35850000D02*
X20700000Y35025000D01*
X11837500Y42000000D02*
X11837500Y42387500D01*
X9975000Y36000000D02*
X8675000Y34700000D01*
X9450000Y43700000D02*
X8750000Y44400000D01*
X20162500Y42000000D02*
X21825000Y42000000D01*
X11837500Y42387500D02*
X10750000Y43475000D01*
X22550000Y51200000D02*
X22550000Y45650000D01*
X42000000Y51050000D02*
X40800000Y52250000D01*
X13250000Y44225000D02*
X12225000Y45250000D01*
X20700000Y35025000D02*
X20725000Y35000000D01*
X21825000Y42000000D02*
X22000000Y41825000D01*
X13650000Y38000000D02*
X11837500Y38000000D01*
X10975000Y46500000D02*
X8750000Y46500000D01*
X18837500Y35000000D02*
X18750000Y35087500D01*
X13900000Y37750000D02*
X13650000Y38000000D01*
X3800000Y35700000D02*
X3800000Y35850000D01*
X8750000Y44400000D02*
X8750000Y46500000D01*
X13500000Y46525000D02*
X13500000Y48115000D01*
X9975000Y36000000D02*
X9975000Y37925000D01*
X12225000Y45250000D02*
X10975000Y46500000D01*
X20500000Y43250000D02*
X20500000Y42337500D01*
X21750000Y44850000D02*
X21750000Y44500000D01*
X21750000Y44500000D02*
X20500000Y43250000D01*
X20725000Y35000000D02*
X18837500Y35000000D01*
X9975000Y37925000D02*
X10050000Y38000000D01*
X4800000Y34700000D02*
X3800000Y35700000D01*
X22350000Y44000000D02*
X22250000Y44000000D01*
X9450000Y43700000D02*
X10525000Y43700000D01*
X13250000Y43412500D02*
X13250000Y44225000D01*
X12225000Y45250000D02*
X13500000Y46525000D01*
X42000000Y49750000D02*
X42000000Y51050000D01*
X8750000Y46500000D02*
X7330000Y47920000D01*
X11837500Y38000000D02*
X10050000Y38000000D01*
X22550000Y45650000D02*
X21750000Y44850000D01*
X7330000Y47920000D02*
X7330000Y48115000D01*
X40800000Y52250000D02*
X38100000Y52250000D01*
X7500000Y47945000D02*
X7330000Y48115000D01*
X22250000Y44000000D02*
X21750000Y44500000D01*
X23600000Y52250000D02*
X22550000Y51200000D01*
X20500000Y42337500D02*
X20162500Y42000000D01*
D51*
%TO.N,Net-(U2-BST)*%
X33715000Y48340000D02*
X33875000Y48500000D01*
X33715000Y46526750D02*
X33715000Y48340000D01*
D50*
%TO.N,Net-(C16-Pad2)*%
X55500000Y50750000D02*
X55500000Y50150000D01*
X55500000Y50150000D02*
X55600000Y50050000D01*
X41000000Y46850000D02*
X39750000Y48100000D01*
D51*
X41000000Y45250000D02*
X41000000Y46850000D01*
D50*
X39750000Y48100000D02*
X39750000Y48750000D01*
D51*
%TO.N,+5V*%
X50525000Y50025000D02*
X48925000Y50025000D01*
X41000000Y42500000D02*
X42000000Y41500000D01*
X41000000Y43700000D02*
X41000000Y42500000D01*
X42000000Y41500000D02*
X45100000Y41500000D01*
X45100000Y41500000D02*
X45350000Y41750000D01*
D50*
X50500000Y50500000D02*
X50500000Y50050000D01*
X49500000Y51500000D02*
X50500000Y50500000D01*
X50500000Y50050000D02*
X50525000Y50025000D01*
D51*
%TO.N,Net-(U3-FB)*%
X53775000Y48450000D02*
X55550000Y48450000D01*
X55550000Y48450000D02*
X55600000Y48500000D01*
X53825000Y46750000D02*
X55500000Y46750000D01*
X55500000Y46750000D02*
X55600000Y46850000D01*
X53705000Y46630000D02*
X53705000Y48380000D01*
X53705000Y46630000D02*
X53825000Y46750000D01*
X53705000Y48380000D02*
X53775000Y48450000D01*
%TO.N,Net-(C17-Pad2)*%
X23500000Y42525000D02*
X23500000Y43925000D01*
D50*
X23500000Y43925000D02*
X23500000Y44000000D01*
X38000000Y50125000D02*
X38100000Y50025000D01*
X23500000Y44000000D02*
X22750000Y44750000D01*
X38000000Y50750000D02*
X38000000Y50125000D01*
%TO.N,VHS*%
X13200000Y37500000D02*
X11837500Y37500000D01*
X13350000Y37450000D02*
X13950000Y36850000D01*
X13250000Y37450000D02*
X13200000Y37500000D01*
X13250000Y37450000D02*
X13350000Y37450000D01*
%TO.N,VLS*%
X13150000Y36750000D02*
X12900000Y37000000D01*
X12900000Y37000000D02*
X11837500Y37000000D01*
X11837500Y37000000D02*
X12500000Y37000000D01*
X13200000Y36750000D02*
X13150000Y36750000D01*
%TO.N,RS*%
X3000000Y44900000D02*
X3750000Y44900000D01*
X13650000Y39000000D02*
X11837500Y39000000D01*
X2250000Y44150000D02*
X2500000Y44400000D01*
X1350000Y44150000D02*
X2250000Y44150000D01*
X13900000Y39250000D02*
X13650000Y39000000D01*
X2500000Y44400000D02*
X3000000Y44900000D01*
D51*
%TO.N,Net-(U2-FB)*%
X36255000Y48330000D02*
X36350000Y48425000D01*
X36255000Y46526750D02*
X36255000Y48330000D01*
X36478250Y46750000D02*
X37925000Y46750000D01*
X36400000Y48475000D02*
X38100000Y48475000D01*
X36350000Y48425000D02*
X36400000Y48475000D01*
X37925000Y46750000D02*
X38000000Y46825000D01*
X36255000Y46526750D02*
X36478250Y46750000D01*
%TO.N,LO*%
X16175000Y17175000D02*
X16250000Y17250000D01*
X16175000Y15745000D02*
X16175000Y17175000D01*
%TO.N,Net-(D2-A)*%
X34985000Y46526750D02*
X34985000Y48485000D01*
D50*
X33750000Y50000000D02*
X33100000Y50000000D01*
D51*
X34985000Y48485000D02*
X35000000Y48500000D01*
X33100000Y50000000D02*
X31500000Y50000000D01*
%TO.N,HO*%
X6875000Y23375000D02*
X6500000Y23750000D01*
X7695000Y23375000D02*
X6875000Y23375000D01*
%TO.N,Net-(D3-A)*%
X47275000Y50025000D02*
X45637500Y50025000D01*
X52435000Y46630000D02*
X52435000Y48435000D01*
D50*
X47725000Y50025000D02*
X48000000Y49750000D01*
X47275000Y50025000D02*
X47725000Y50025000D01*
D51*
X52435000Y48435000D02*
X52500000Y48500000D01*
D50*
%TO.N,PB13*%
X18150000Y36750000D02*
X18400000Y37000000D01*
X5037500Y28487500D02*
X5050000Y28500000D01*
X5037500Y27600000D02*
X5037500Y28487500D01*
X16700000Y36400000D02*
X17050000Y36750000D01*
X18400000Y37000000D02*
X20162500Y37000000D01*
X17050000Y36750000D02*
X18150000Y36750000D01*
D51*
%TO.N,Net-(U2-RON)*%
X36380000Y41101750D02*
X36255000Y41226750D01*
X37985000Y41101750D02*
X36380000Y41101750D01*
%TO.N,Net-(U3-RON)*%
X55470000Y41330000D02*
X55600000Y41200000D01*
X53705000Y41330000D02*
X55470000Y41330000D01*
D50*
%TO.N,Net-(D16-A)*%
X3750000Y32550000D02*
X3462500Y32262500D01*
X3462500Y32262500D02*
X3462500Y31550000D01*
%TO.N,PB14*%
X21100000Y37500000D02*
X21350000Y37750000D01*
X5037500Y30487500D02*
X5050000Y30500000D01*
X20162500Y37500000D02*
X21100000Y37500000D01*
X5037500Y29600000D02*
X5037500Y30487500D01*
%TO.N,Net-(D17-A)*%
X22000000Y40175000D02*
X22000000Y38537500D01*
%TO.N,PB15*%
X18300000Y37600000D02*
X18950000Y37600000D01*
X18050000Y37350000D02*
X18300000Y37600000D01*
X15800000Y37350000D02*
X18050000Y37350000D01*
X5037500Y32537500D02*
X5050000Y32550000D01*
X19350000Y38000000D02*
X20162500Y38000000D01*
X5037500Y31550000D02*
X5037500Y32537500D01*
X15600000Y37550000D02*
X15800000Y37350000D01*
X18950000Y37600000D02*
X19350000Y38000000D01*
%TO.N,Net-(D14-A)*%
X3550000Y27687500D02*
X3462500Y27600000D01*
X3550000Y28500000D02*
X3550000Y27687500D01*
%TO.N,Net-(D15-A)*%
X3650000Y29787500D02*
X3462500Y29600000D01*
X3650000Y30500000D02*
X3650000Y29787500D01*
%TO.N,DIO*%
X20162500Y41000000D02*
X17250000Y41000000D01*
X17250000Y41000000D02*
X16250000Y42000000D01*
%TO.N,CLK*%
X18750000Y43412500D02*
X18750000Y47945000D01*
X18750000Y47945000D02*
X18580000Y48115000D01*
%TO.N,SDA*%
X14750000Y43412500D02*
X14750000Y42604408D01*
X14572796Y42072796D02*
X14500000Y42000000D01*
X14750000Y42604408D02*
X14572796Y42427204D01*
X14572796Y42427204D02*
X14572796Y42072796D01*
%TO.N,SCL*%
X14750000Y44750000D02*
X14750000Y46000000D01*
X14500000Y46250000D02*
X14250000Y46250000D01*
X14750000Y46000000D02*
X14500000Y46250000D01*
X14250000Y43412500D02*
X14250000Y44250000D01*
X14250000Y44250000D02*
X14750000Y44750000D01*
D51*
%TO.N,Net-(R13-Pad1)*%
X53775000Y50100000D02*
X52250000Y50100000D01*
X52250000Y50100000D02*
X52175000Y50025000D01*
D50*
%TO.N,HI*%
X18750000Y38250000D02*
X19000000Y38500000D01*
X19000000Y38500000D02*
X20162500Y38500000D01*
%TO.N,LI*%
X20162500Y39000000D02*
X19000000Y39000000D01*
X19000000Y39000000D02*
X18750000Y39250000D01*
%TO.N,Net-(U7-BOOT0)*%
X15250000Y42250000D02*
X15250000Y43412500D01*
%TO.N,PB5*%
X16750000Y45750000D02*
X16750000Y43412500D01*
X47250000Y53500000D02*
X47250000Y54750000D01*
X17250000Y46250000D02*
X16750000Y45750000D01*
%TO.N,PB6*%
X16250000Y43412500D02*
X16250000Y46500000D01*
X16250000Y46500000D02*
X17250000Y47500000D01*
X18500000Y53000000D02*
X35500000Y53000000D01*
X36700000Y54200000D02*
X36700000Y54750000D01*
X35500000Y53000000D02*
X36700000Y54200000D01*
X17250000Y51750000D02*
X18500000Y53000000D01*
X17250000Y47500000D02*
X17250000Y51750000D01*
%TO.N,Net-(U7-PF1)*%
X9300000Y39500000D02*
X9250000Y39550000D01*
X11837500Y39500000D02*
X9300000Y39500000D01*
X9550000Y39500000D02*
X9500000Y39550000D01*
%TO.N,PB7*%
X15750000Y46500000D02*
X14750000Y47500000D01*
X14750000Y47500000D02*
X14750000Y50000000D01*
X24850000Y53500000D02*
X26100000Y54750000D01*
X14750000Y50000000D02*
X18250000Y53500000D01*
X15750000Y43412500D02*
X15750000Y46500000D01*
X18250000Y53500000D02*
X24850000Y53500000D01*
%TO.N,Net-(U7-PF0)*%
X11837500Y40000000D02*
X11000000Y40000000D01*
X10750000Y41500000D02*
X10300000Y41950000D01*
X10300000Y41950000D02*
X9250000Y41950000D01*
X11000000Y40000000D02*
X10750000Y40250000D01*
X10750000Y40250000D02*
X10750000Y41500000D01*
%TD*%
%TA.AperFunction,Conductor*%
%TO.N,Net-(U2-SW)*%
G36*
X32615931Y48929998D02*
G01*
X32636905Y48913095D01*
X32763095Y48786905D01*
X32797121Y48724593D01*
X32800000Y48697810D01*
X32800000Y45852190D01*
X32791216Y45822275D01*
X32784588Y45791805D01*
X32780773Y45786710D01*
X32779998Y45784069D01*
X32763095Y45763095D01*
X32686905Y45686905D01*
X32624593Y45652879D01*
X32597810Y45650000D01*
X31902190Y45650000D01*
X31834069Y45670002D01*
X31813095Y45686905D01*
X30850001Y46650000D01*
X30850000Y46650000D01*
X26302190Y46650000D01*
X26272274Y46658784D01*
X26241805Y46665412D01*
X26236709Y46669227D01*
X26234069Y46670002D01*
X26213095Y46686905D01*
X26036905Y46863095D01*
X26002879Y46925407D01*
X26000000Y46952190D01*
X26000000Y48647810D01*
X26020002Y48715931D01*
X26036905Y48736905D01*
X26213095Y48913095D01*
X26275407Y48947121D01*
X26302190Y48950000D01*
X32547810Y48950000D01*
X32615931Y48929998D01*
G37*
%TD.AperFunction*%
%TD*%
%TA.AperFunction,Conductor*%
%TO.N,Net-(U3-SW)*%
G36*
X47874230Y48997579D02*
G01*
X47876533Y48997121D01*
X47924900Y48987500D01*
X47924905Y48987500D01*
X48075095Y48987500D01*
X48075100Y48987500D01*
X48123467Y48997121D01*
X48125770Y48997579D01*
X48150351Y49000000D01*
X49947810Y49000000D01*
X49977725Y48991217D01*
X50008195Y48984588D01*
X50013290Y48980774D01*
X50015931Y48979998D01*
X50036905Y48963095D01*
X50213095Y48786905D01*
X50247121Y48724593D01*
X50250000Y48697810D01*
X50250000Y46052190D01*
X50229998Y45984069D01*
X50213095Y45963095D01*
X50036905Y45786905D01*
X49974593Y45752879D01*
X49947810Y45750000D01*
X49052190Y45750000D01*
X48984069Y45770002D01*
X48963099Y45786901D01*
X48250000Y46500000D01*
X43802190Y46500000D01*
X43772274Y46508784D01*
X43741805Y46515412D01*
X43736709Y46519227D01*
X43734069Y46520002D01*
X43713095Y46536905D01*
X43536905Y46713095D01*
X43502879Y46775407D01*
X43500000Y46802190D01*
X43500000Y48697810D01*
X43520002Y48765931D01*
X43536905Y48786905D01*
X43713095Y48963095D01*
X43775407Y48997121D01*
X43802190Y49000000D01*
X47849649Y49000000D01*
X47874230Y48997579D01*
G37*
%TD.AperFunction*%
%TD*%
%TA.AperFunction,Conductor*%
%TO.N,+12V*%
G36*
X29515931Y42979998D02*
G01*
X29536905Y42963095D01*
X29713095Y42786905D01*
X29747121Y42724593D01*
X29750000Y42697810D01*
X29750000Y41052191D01*
X29729998Y40984070D01*
X29713095Y40963096D01*
X28750000Y40000002D01*
X28750000Y34849999D01*
X28760904Y34839095D01*
X28765312Y34831023D01*
X28772677Y34825509D01*
X28782060Y34800351D01*
X28794930Y34776783D01*
X28794273Y34767607D01*
X28797488Y34758989D01*
X28791780Y34732753D01*
X28789865Y34705968D01*
X28783953Y34696770D01*
X28782397Y34689615D01*
X28760905Y34660905D01*
X28650403Y34550404D01*
X28588094Y34516380D01*
X28561310Y34513500D01*
X25038690Y34513500D01*
X24970569Y34533502D01*
X24949595Y34550405D01*
X24036905Y35463095D01*
X24002879Y35525407D01*
X24000000Y35552190D01*
X24000000Y41522072D01*
X24020002Y41590193D01*
X24059853Y41629313D01*
X24062095Y41630697D01*
X24062101Y41630698D01*
X24208040Y41720715D01*
X24329285Y41841960D01*
X24419302Y41987899D01*
X24473236Y42150664D01*
X24476035Y42178064D01*
X24483500Y42251120D01*
X24483500Y42481310D01*
X24503502Y42549431D01*
X24520405Y42570405D01*
X24913095Y42963095D01*
X24975407Y42997121D01*
X25002190Y43000000D01*
X29447810Y43000000D01*
X29515931Y42979998D01*
G37*
%TD.AperFunction*%
%TD*%
%TA.AperFunction,Conductor*%
%TO.N,VIN*%
G36*
X52515931Y42229998D02*
G01*
X52536905Y42213095D01*
X52859595Y41890405D01*
X52893621Y41828093D01*
X52896500Y41801310D01*
X52896500Y40613489D01*
X52899437Y40576172D01*
X52899437Y40576171D01*
X52945856Y40416397D01*
X52982453Y40354516D01*
X53000000Y40290376D01*
X53000000Y40249999D01*
X53249998Y40000001D01*
X53250000Y40000000D01*
X56697810Y40000000D01*
X56765931Y39979998D01*
X56786905Y39963095D01*
X57213095Y39536905D01*
X57247121Y39474593D01*
X57250000Y39447810D01*
X57250000Y34552190D01*
X57241216Y34522275D01*
X57234588Y34491805D01*
X57230773Y34486710D01*
X57229998Y34484069D01*
X57213095Y34463095D01*
X57036905Y34286905D01*
X56974593Y34252879D01*
X56947810Y34250000D01*
X54357510Y34250000D01*
X54345160Y34250607D01*
X54235137Y34261444D01*
X54235131Y34261444D01*
X53870757Y34261444D01*
X53870750Y34261444D01*
X53760728Y34250607D01*
X53748378Y34250000D01*
X50802190Y34250000D01*
X50772274Y34258784D01*
X50741805Y34265412D01*
X50736709Y34269227D01*
X50734069Y34270002D01*
X50713095Y34286905D01*
X50536905Y34463095D01*
X50502879Y34525407D01*
X50500000Y34552190D01*
X50500000Y35863958D01*
X50520002Y35932079D01*
X50559850Y35971197D01*
X50648652Y36025970D01*
X50774030Y36151348D01*
X50867115Y36302262D01*
X50922887Y36470574D01*
X50933500Y36574455D01*
X50933499Y37975544D01*
X50922887Y38079426D01*
X50867115Y38247738D01*
X50774030Y38398652D01*
X50774029Y38398653D01*
X50774024Y38398659D01*
X50690744Y38481939D01*
X50656718Y38544251D01*
X50661783Y38615066D01*
X50672598Y38637181D01*
X50719302Y38712899D01*
X50773236Y38875664D01*
X50776035Y38903064D01*
X50783500Y38976120D01*
X50783500Y39573881D01*
X50773236Y39674334D01*
X50773236Y39674336D01*
X50719302Y39837101D01*
X50629285Y39983040D01*
X50629284Y39983041D01*
X50629279Y39983047D01*
X50543388Y40068938D01*
X50509362Y40131250D01*
X50514427Y40202065D01*
X50543387Y40247128D01*
X50569453Y40273193D01*
X50654145Y40416399D01*
X50700562Y40576169D01*
X50703499Y40613489D01*
X50703500Y40613489D01*
X50703500Y41901310D01*
X50723502Y41969431D01*
X50740405Y41990405D01*
X50963095Y42213095D01*
X51025407Y42247121D01*
X51052190Y42250000D01*
X52447810Y42250000D01*
X52515931Y42229998D01*
G37*
%TD.AperFunction*%
%TD*%
%TA.AperFunction,Conductor*%
%TO.N,+5V*%
G36*
X47015931Y42979998D02*
G01*
X47036905Y42963095D01*
X47213095Y42786905D01*
X47247121Y42724593D01*
X47250000Y42697810D01*
X47250000Y40802191D01*
X47229998Y40734070D01*
X47213095Y40713096D01*
X46250000Y39750002D01*
X46250000Y35052190D01*
X46229998Y34984069D01*
X46213095Y34963095D01*
X45800405Y34550405D01*
X45738093Y34516379D01*
X45711310Y34513500D01*
X41788690Y34513500D01*
X41720569Y34533502D01*
X41699595Y34550405D01*
X41129031Y35120969D01*
X41095005Y35183281D01*
X41094547Y35234646D01*
X41112499Y35324897D01*
X41112500Y35324900D01*
X41112500Y35475101D01*
X41112499Y35475104D01*
X41083197Y35622413D01*
X41025718Y35761179D01*
X40942272Y35886065D01*
X40836065Y35992272D01*
X40711179Y36075718D01*
X40577781Y36130974D01*
X40561964Y36143720D01*
X40543488Y36152158D01*
X40534887Y36165540D01*
X40522501Y36175522D01*
X40516085Y36194797D01*
X40505104Y36211884D01*
X40501077Y36239889D01*
X40500080Y36242885D01*
X40500000Y36247382D01*
X40500000Y36349650D01*
X40502421Y36374231D01*
X40512500Y36424900D01*
X40512500Y36575100D01*
X40502421Y36625771D01*
X40500000Y36650353D01*
X40500000Y38849650D01*
X40502421Y38874231D01*
X40512500Y38924900D01*
X40512500Y39075100D01*
X40502421Y39125771D01*
X40500000Y39150353D01*
X40500000Y42197810D01*
X40520002Y42265931D01*
X40536905Y42286905D01*
X41213095Y42963095D01*
X41275407Y42997121D01*
X41302190Y43000000D01*
X46947810Y43000000D01*
X47015931Y42979998D01*
G37*
%TD.AperFunction*%
%TD*%
%TA.AperFunction,Conductor*%
%TO.N,VIN*%
G36*
X12795716Y33979998D02*
G01*
X12804298Y33973963D01*
X12859751Y33931413D01*
X12880732Y33915314D01*
X13022676Y33856519D01*
X13136756Y33841500D01*
X13136763Y33841500D01*
X13363237Y33841500D01*
X13363244Y33841500D01*
X13477324Y33856519D01*
X13477327Y33856521D01*
X13483553Y33857340D01*
X13516447Y33857340D01*
X13522672Y33856521D01*
X13522676Y33856519D01*
X13636756Y33841500D01*
X13636763Y33841500D01*
X13863237Y33841500D01*
X13863244Y33841500D01*
X13977324Y33856519D01*
X13977327Y33856521D01*
X13983553Y33857340D01*
X14016447Y33857340D01*
X14022672Y33856521D01*
X14022676Y33856519D01*
X14136756Y33841500D01*
X14136763Y33841500D01*
X14363237Y33841500D01*
X14363244Y33841500D01*
X14477324Y33856519D01*
X14477327Y33856521D01*
X14483553Y33857340D01*
X14516447Y33857340D01*
X14522672Y33856521D01*
X14522676Y33856519D01*
X14636756Y33841500D01*
X14636763Y33841500D01*
X14863237Y33841500D01*
X14863244Y33841500D01*
X14977324Y33856519D01*
X14977327Y33856521D01*
X14983553Y33857340D01*
X15016447Y33857340D01*
X15022672Y33856521D01*
X15022676Y33856519D01*
X15136756Y33841500D01*
X15136763Y33841500D01*
X15363237Y33841500D01*
X15363244Y33841500D01*
X15477324Y33856519D01*
X15477327Y33856521D01*
X15483553Y33857340D01*
X15516447Y33857340D01*
X15522672Y33856521D01*
X15522676Y33856519D01*
X15636756Y33841500D01*
X15636763Y33841500D01*
X15863237Y33841500D01*
X15863244Y33841500D01*
X15977324Y33856519D01*
X15977327Y33856521D01*
X15983553Y33857340D01*
X16016447Y33857340D01*
X16022672Y33856521D01*
X16022676Y33856519D01*
X16136756Y33841500D01*
X16136763Y33841500D01*
X16363237Y33841500D01*
X16363244Y33841500D01*
X16477324Y33856519D01*
X16477327Y33856521D01*
X16483553Y33857340D01*
X16516447Y33857340D01*
X16522672Y33856521D01*
X16522676Y33856519D01*
X16636756Y33841500D01*
X16636763Y33841500D01*
X16863237Y33841500D01*
X16863244Y33841500D01*
X16977324Y33856519D01*
X16977327Y33856521D01*
X16983553Y33857340D01*
X17016447Y33857340D01*
X17022672Y33856521D01*
X17022676Y33856519D01*
X17136756Y33841500D01*
X17136763Y33841500D01*
X17363237Y33841500D01*
X17363244Y33841500D01*
X17477324Y33856519D01*
X17477327Y33856521D01*
X17483553Y33857340D01*
X17516447Y33857340D01*
X17522672Y33856521D01*
X17522676Y33856519D01*
X17636756Y33841500D01*
X17636763Y33841500D01*
X17863237Y33841500D01*
X17863244Y33841500D01*
X17977324Y33856519D01*
X17977327Y33856521D01*
X17983553Y33857340D01*
X18016447Y33857340D01*
X18022672Y33856521D01*
X18022676Y33856519D01*
X18136756Y33841500D01*
X18136763Y33841500D01*
X18363237Y33841500D01*
X18363244Y33841500D01*
X18477324Y33856519D01*
X18477327Y33856521D01*
X18483553Y33857340D01*
X18516447Y33857340D01*
X18522672Y33856521D01*
X18522676Y33856519D01*
X18636756Y33841500D01*
X18636763Y33841500D01*
X18863237Y33841500D01*
X18863244Y33841500D01*
X18977324Y33856519D01*
X19119268Y33915314D01*
X19159498Y33946184D01*
X19195702Y33973963D01*
X19261922Y33999563D01*
X19272405Y34000000D01*
X22152617Y34000000D01*
X22220738Y33979998D01*
X22267231Y33926342D01*
X22269025Y33922219D01*
X22324279Y33788826D01*
X22324281Y33788822D01*
X22324282Y33788821D01*
X22407728Y33663935D01*
X22513935Y33557728D01*
X22638821Y33474282D01*
X22777587Y33416803D01*
X22924900Y33387500D01*
X23075100Y33387500D01*
X23222413Y33416803D01*
X23361179Y33474282D01*
X23486065Y33557728D01*
X23592272Y33663935D01*
X23675718Y33788821D01*
X23695882Y33837500D01*
X23730975Y33922219D01*
X23775523Y33977500D01*
X23842887Y33999920D01*
X23847383Y34000000D01*
X38637279Y34000000D01*
X38705400Y33979998D01*
X38707281Y33978765D01*
X38788821Y33924282D01*
X38927587Y33866803D01*
X39074900Y33837500D01*
X39225100Y33837500D01*
X39372413Y33866803D01*
X39511179Y33924282D01*
X39592719Y33978765D01*
X39660472Y33999980D01*
X39662721Y34000000D01*
X39987279Y34000000D01*
X40055400Y33979998D01*
X40057281Y33978765D01*
X40138821Y33924282D01*
X40277587Y33866803D01*
X40424900Y33837500D01*
X40575100Y33837500D01*
X40722413Y33866803D01*
X40861179Y33924282D01*
X40942719Y33978765D01*
X41010472Y33999980D01*
X41012721Y34000000D01*
X49697810Y34000000D01*
X49765931Y33979998D01*
X49786905Y33963095D01*
X50213095Y33536905D01*
X50247121Y33474593D01*
X50250000Y33447810D01*
X50250000Y24802190D01*
X50229998Y24734069D01*
X50213095Y24713095D01*
X48786905Y23286905D01*
X48724593Y23252879D01*
X48697810Y23250000D01*
X45302190Y23250000D01*
X45234069Y23270002D01*
X45213095Y23286905D01*
X44086197Y24413803D01*
X44068051Y24436751D01*
X44061274Y24447738D01*
X43999030Y24548652D01*
X43999029Y24548653D01*
X43999024Y24548659D01*
X43873658Y24674025D01*
X43873654Y24674028D01*
X43873652Y24674030D01*
X43873646Y24674034D01*
X43761749Y24743054D01*
X43738804Y24761196D01*
X43250000Y25250000D01*
X35232500Y25250000D01*
X35211904Y25229405D01*
X35149595Y25195380D01*
X35122810Y25192500D01*
X18091472Y25192500D01*
X18023351Y25212502D01*
X17986707Y25248498D01*
X17940920Y25317023D01*
X17817023Y25440920D01*
X17671336Y25538265D01*
X17509458Y25605317D01*
X17337610Y25639500D01*
X17337608Y25639500D01*
X17162392Y25639500D01*
X17162389Y25639500D01*
X16990541Y25605317D01*
X16990536Y25605315D01*
X16828664Y25538265D01*
X16682981Y25440923D01*
X16682979Y25440922D01*
X16559079Y25317023D01*
X16513293Y25248498D01*
X16458816Y25202970D01*
X16408528Y25192500D01*
X7109690Y25192500D01*
X7041569Y25212502D01*
X7020595Y25229405D01*
X6286905Y25963095D01*
X6252879Y26025407D01*
X6250000Y26052190D01*
X6250000Y32947810D01*
X6270002Y33015931D01*
X6286905Y33036905D01*
X7213095Y33963095D01*
X7275407Y33997121D01*
X7302190Y34000000D01*
X12727595Y34000000D01*
X12795716Y33979998D01*
G37*
%TD.AperFunction*%
%TD*%
%TA.AperFunction,Conductor*%
%TO.N,VIN*%
G36*
X35015931Y41979998D02*
G01*
X35036905Y41963095D01*
X35213095Y41786905D01*
X35247121Y41724593D01*
X35250000Y41697810D01*
X35250000Y40499999D01*
X35499997Y40250002D01*
X35499998Y40250002D01*
X35500000Y40250000D01*
X35500002Y40250000D01*
X35505134Y40247874D01*
X35560416Y40203326D01*
X35565371Y40195603D01*
X35580544Y40169947D01*
X35580549Y40169940D01*
X35698189Y40052300D01*
X35698196Y40052295D01*
X35841394Y39967607D01*
X35841397Y39967607D01*
X35841399Y39967605D01*
X36001169Y39921188D01*
X36038488Y39918251D01*
X36038489Y39918250D01*
X36038498Y39918250D01*
X36471511Y39918250D01*
X36471511Y39918251D01*
X36508831Y39921188D01*
X36668601Y39967605D01*
X36811807Y40052297D01*
X36811809Y40052300D01*
X36813075Y40053048D01*
X36881891Y40070508D01*
X36949223Y40047992D01*
X36966310Y40033690D01*
X37213095Y39786905D01*
X37247121Y39724593D01*
X37250000Y39697810D01*
X37250000Y35052190D01*
X37229998Y34984069D01*
X37213095Y34963095D01*
X36786905Y34536905D01*
X36724593Y34502879D01*
X36697810Y34500000D01*
X34052190Y34500000D01*
X33984069Y34520002D01*
X33963095Y34536905D01*
X33286905Y35213095D01*
X33252879Y35275407D01*
X33250000Y35302190D01*
X33250000Y36025128D01*
X33270002Y36093249D01*
X33286902Y36114221D01*
X33299030Y36126348D01*
X33392115Y36277262D01*
X33447887Y36445574D01*
X33458500Y36549455D01*
X33458499Y37950544D01*
X33447887Y38054426D01*
X33392115Y38222738D01*
X33317739Y38343319D01*
X33299002Y38411797D01*
X33320261Y38479536D01*
X33335880Y38498556D01*
X33379285Y38541960D01*
X33469302Y38687899D01*
X33523236Y38850664D01*
X33526035Y38878064D01*
X33533500Y38951120D01*
X33533500Y39548881D01*
X33523236Y39649334D01*
X33523236Y39649336D01*
X33469302Y39812101D01*
X33379285Y39958040D01*
X33379284Y39958041D01*
X33379279Y39958047D01*
X33286905Y40050421D01*
X33252879Y40112733D01*
X33250000Y40139516D01*
X33250000Y40460831D01*
X33250389Y40470719D01*
X33253499Y40510239D01*
X33253500Y40510239D01*
X33253500Y41701310D01*
X33262283Y41731226D01*
X33268912Y41761695D01*
X33272726Y41766791D01*
X33273502Y41769431D01*
X33290405Y41790405D01*
X33463095Y41963095D01*
X33525407Y41997121D01*
X33552190Y42000000D01*
X34947810Y42000000D01*
X35015931Y41979998D01*
G37*
%TD.AperFunction*%
%TD*%
%TA.AperFunction,Conductor*%
%TO.N,I-*%
G36*
X20951929Y16144063D02*
G01*
X20972571Y16127429D01*
X25407500Y11692500D01*
X38623638Y11692500D01*
X38690677Y11672815D01*
X38711319Y11656181D01*
X38717500Y11650000D01*
X41350000Y11650000D01*
X43313681Y13613681D01*
X43375004Y13647166D01*
X43401362Y13650000D01*
X49298638Y13650000D01*
X49365677Y13630315D01*
X49386319Y13613681D01*
X50213681Y12786319D01*
X50247166Y12724996D01*
X50250000Y12698638D01*
X50250000Y1301362D01*
X50230315Y1234323D01*
X50213681Y1213681D01*
X49536819Y536819D01*
X49475496Y503334D01*
X49449138Y500500D01*
X44000862Y500500D01*
X43933823Y520185D01*
X43913181Y536819D01*
X43236319Y1213681D01*
X43202834Y1275004D01*
X43200000Y1301362D01*
X43200000Y4000000D01*
X42320000Y4880000D01*
X26931362Y4880000D01*
X26864323Y4899685D01*
X26843681Y4916319D01*
X26086319Y5673681D01*
X26052834Y5735004D01*
X26050000Y5761362D01*
X26050000Y9650000D01*
X21450000Y14250000D01*
X18851362Y14250000D01*
X18784323Y14269685D01*
X18763681Y14286319D01*
X18512571Y14537429D01*
X18479086Y14598752D01*
X18476252Y14625110D01*
X18476252Y15798638D01*
X18495937Y15865677D01*
X18512571Y15886319D01*
X18753681Y16127429D01*
X18815004Y16160914D01*
X18841362Y16163748D01*
X20884890Y16163748D01*
X20951929Y16144063D01*
G37*
%TD.AperFunction*%
%TD*%
%TA.AperFunction,Conductor*%
%TO.N,SW*%
G36*
X13015677Y24530315D02*
G01*
X13036319Y24513681D01*
X13263681Y24286319D01*
X13297166Y24224996D01*
X13300000Y24198638D01*
X13300000Y19825771D01*
X13280315Y19758732D01*
X13244892Y19722669D01*
X13188073Y19684704D01*
X13065296Y19561927D01*
X13065293Y19561923D01*
X12968828Y19417554D01*
X12968821Y19417541D01*
X12902377Y19257129D01*
X12902374Y19257119D01*
X12868500Y19086823D01*
X12868500Y19086820D01*
X12868500Y18913180D01*
X12868500Y18913178D01*
X12868499Y18913178D01*
X12902374Y18742882D01*
X12902377Y18742872D01*
X12968821Y18582460D01*
X12968828Y18582447D01*
X13058246Y18448624D01*
X13079124Y18381946D01*
X13069705Y18332281D01*
X13023232Y18220085D01*
X13023229Y18220073D01*
X12994236Y18074317D01*
X12994236Y17925684D01*
X13023229Y17779928D01*
X13023231Y17779920D01*
X13080107Y17642609D01*
X13162675Y17519036D01*
X13162681Y17519029D01*
X13263681Y17418029D01*
X13297166Y17356706D01*
X13300000Y17330348D01*
X13300000Y15401362D01*
X13280315Y15334323D01*
X13263681Y15313681D01*
X12937239Y14987239D01*
X12875916Y14953754D01*
X12849558Y14950920D01*
X11400919Y14950920D01*
X10900000Y14450001D01*
X10900000Y4701362D01*
X10880315Y4634323D01*
X10863681Y4613681D01*
X10626319Y4376319D01*
X10564996Y4342834D01*
X10538638Y4340000D01*
X6811362Y4340000D01*
X6744323Y4359685D01*
X6723681Y4376319D01*
X6536319Y4563681D01*
X6502834Y4625004D01*
X6500000Y4651362D01*
X6500000Y21348638D01*
X6519685Y21415677D01*
X6536319Y21436319D01*
X6763681Y21663681D01*
X6825004Y21697166D01*
X6851362Y21700000D01*
X10600000Y21700000D01*
X10700000Y21800000D01*
X10700000Y23498638D01*
X10719685Y23565677D01*
X10736319Y23586319D01*
X11663681Y24513681D01*
X11725004Y24547166D01*
X11751362Y24550000D01*
X12948638Y24550000D01*
X13015677Y24530315D01*
G37*
%TD.AperFunction*%
%TD*%
%TA.AperFunction,Conductor*%
%TO.N,GND*%
G36*
X25425360Y58742259D02*
G01*
X25450846Y58738907D01*
X25458332Y58732577D01*
X25467737Y58729815D01*
X25484567Y58710393D01*
X25504198Y58693792D01*
X25507073Y58684419D01*
X25513492Y58677011D01*
X25517150Y58651570D01*
X25524689Y58626994D01*
X25522775Y58612445D01*
X25523436Y58607853D01*
X25521008Y58599007D01*
X25520088Y58592002D01*
X25518090Y58584885D01*
X25496614Y58533035D01*
X25480675Y58452900D01*
X25479741Y58448209D01*
X25479738Y58448195D01*
X25472500Y58411806D01*
X25472500Y56124500D01*
X25452815Y56057461D01*
X25400011Y56011706D01*
X25348502Y56000500D01*
X25302131Y56000500D01*
X25302123Y56000499D01*
X25242516Y55994092D01*
X25107671Y55943798D01*
X25107664Y55943794D01*
X24992455Y55857548D01*
X24992452Y55857545D01*
X24906206Y55742336D01*
X24906202Y55742329D01*
X24855908Y55607483D01*
X24849501Y55547884D01*
X24849501Y55547877D01*
X24849500Y55547865D01*
X24849500Y54438282D01*
X24829815Y54371243D01*
X24813181Y54350601D01*
X24626400Y54163819D01*
X24565077Y54130334D01*
X24538719Y54127500D01*
X18188194Y54127500D01*
X18066970Y54103387D01*
X18066960Y54103384D01*
X17952773Y54056087D01*
X17952760Y54056080D01*
X17849991Y53987411D01*
X17849987Y53987408D01*
X15209821Y51347240D01*
X14349992Y50487411D01*
X14306289Y50443708D01*
X14262586Y50400006D01*
X14262585Y50400004D01*
X14193734Y50296961D01*
X14193482Y50296184D01*
X14146614Y50183035D01*
X14131568Y50107390D01*
X14130160Y50100314D01*
X14130156Y50100300D01*
X14122500Y50061808D01*
X14122500Y49589500D01*
X14102815Y49522461D01*
X14050011Y49476706D01*
X13998500Y49465500D01*
X12602129Y49465500D01*
X12602123Y49465499D01*
X12542516Y49459092D01*
X12407671Y49408798D01*
X12407664Y49408794D01*
X12292455Y49322548D01*
X12292452Y49322545D01*
X12206206Y49207336D01*
X12206202Y49207329D01*
X12155908Y49072483D01*
X12149501Y49012884D01*
X12149500Y49012865D01*
X12149500Y47217130D01*
X12149501Y47217124D01*
X12155908Y47157517D01*
X12206202Y47022672D01*
X12206206Y47022665D01*
X12292452Y46907456D01*
X12292455Y46907453D01*
X12407664Y46821207D01*
X12407671Y46821203D01*
X12452618Y46804439D01*
X12542517Y46770909D01*
X12570126Y46767941D01*
X12634674Y46741204D01*
X12674523Y46683812D01*
X12677017Y46613987D01*
X12644550Y46556971D01*
X12349399Y46261819D01*
X12322471Y46247116D01*
X12296653Y46230523D01*
X12290452Y46229632D01*
X12288076Y46228334D01*
X12261718Y46225500D01*
X12188281Y46225500D01*
X12121242Y46245185D01*
X12100600Y46261819D01*
X11375013Y46987407D01*
X11375009Y46987410D01*
X11375008Y46987411D01*
X11344619Y47007716D01*
X11344617Y47007718D01*
X11272235Y47056082D01*
X11272236Y47056082D01*
X11227782Y47074495D01*
X11225129Y47075594D01*
X11158035Y47103386D01*
X11158032Y47103387D01*
X11158028Y47103388D01*
X11036807Y47127500D01*
X11036803Y47127500D01*
X9061281Y47127500D01*
X8994242Y47147185D01*
X8973600Y47163819D01*
X8625300Y47512119D01*
X8591815Y47573442D01*
X8595049Y47638115D01*
X8647246Y47798757D01*
X8680500Y48008713D01*
X8680500Y48221287D01*
X8647246Y48431243D01*
X8581557Y48633412D01*
X8485051Y48822816D01*
X8485049Y48822819D01*
X8485048Y48822821D01*
X8360109Y48994787D01*
X8209786Y49145110D01*
X8037820Y49270049D01*
X7848414Y49366556D01*
X7848413Y49366557D01*
X7848412Y49366557D01*
X7646243Y49432246D01*
X7646241Y49432247D01*
X7646240Y49432247D01*
X7484957Y49457792D01*
X7436287Y49465500D01*
X7223713Y49465500D01*
X7175042Y49457792D01*
X7013760Y49432247D01*
X6934719Y49406565D01*
X6846834Y49378009D01*
X6811585Y49366556D01*
X6622179Y49270049D01*
X6450213Y49145110D01*
X6299890Y48994787D01*
X6174949Y48822818D01*
X6170484Y48814054D01*
X6122509Y48763258D01*
X6054688Y48746464D01*
X5988553Y48769002D01*
X5949516Y48814054D01*
X5945050Y48822818D01*
X5820109Y48994787D01*
X5669786Y49145110D01*
X5497820Y49270049D01*
X5308414Y49366556D01*
X5308413Y49366557D01*
X5308412Y49366557D01*
X5106243Y49432246D01*
X5106241Y49432247D01*
X5106240Y49432247D01*
X4944957Y49457792D01*
X4896287Y49465500D01*
X4683713Y49465500D01*
X4635042Y49457792D01*
X4473760Y49432247D01*
X4394719Y49406565D01*
X4306834Y49378009D01*
X4271585Y49366556D01*
X4082179Y49270049D01*
X3910215Y49145111D01*
X3796673Y49031569D01*
X3735350Y48998085D01*
X3665658Y49003069D01*
X3609725Y49044941D01*
X3592810Y49075918D01*
X3543797Y49207329D01*
X3543793Y49207336D01*
X3457547Y49322545D01*
X3457544Y49322548D01*
X3342335Y49408794D01*
X3342328Y49408798D01*
X3207482Y49459092D01*
X3207483Y49459092D01*
X3147883Y49465499D01*
X3147881Y49465500D01*
X3147873Y49465500D01*
X3147864Y49465500D01*
X1352129Y49465500D01*
X1352123Y49465499D01*
X1292516Y49459092D01*
X1157671Y49408798D01*
X1157664Y49408794D01*
X1042455Y49322548D01*
X1042452Y49322545D01*
X956206Y49207336D01*
X956202Y49207329D01*
X905908Y49072483D01*
X899501Y49012884D01*
X899500Y49012865D01*
X899500Y47217130D01*
X899501Y47217124D01*
X905908Y47157517D01*
X956202Y47022672D01*
X956206Y47022665D01*
X1042452Y46907456D01*
X1042455Y46907453D01*
X1157664Y46821207D01*
X1157671Y46821203D01*
X1292517Y46770909D01*
X1292516Y46770909D01*
X1299444Y46770165D01*
X1352127Y46764500D01*
X3147872Y46764501D01*
X3207483Y46770909D01*
X3342331Y46821204D01*
X3457546Y46907454D01*
X3543796Y47022669D01*
X3592810Y47154084D01*
X3634681Y47210016D01*
X3700145Y47234434D01*
X3768418Y47219583D01*
X3796673Y47198431D01*
X3910213Y47084891D01*
X4082179Y46959952D01*
X4082181Y46959951D01*
X4082184Y46959949D01*
X4271588Y46863443D01*
X4473757Y46797754D01*
X4683713Y46764500D01*
X4683714Y46764500D01*
X4896286Y46764500D01*
X4896287Y46764500D01*
X5106243Y46797754D01*
X5308412Y46863443D01*
X5497816Y46959949D01*
X5535609Y46987407D01*
X5669786Y47084891D01*
X5669788Y47084894D01*
X5669792Y47084896D01*
X5820104Y47235208D01*
X5820106Y47235212D01*
X5820109Y47235214D01*
X5945048Y47407180D01*
X5945047Y47407180D01*
X5945051Y47407184D01*
X5949514Y47415946D01*
X5997488Y47466741D01*
X6065308Y47483537D01*
X6131444Y47461001D01*
X6170486Y47415944D01*
X6174951Y47407180D01*
X6299890Y47235214D01*
X6450213Y47084891D01*
X6622179Y46959952D01*
X6622181Y46959951D01*
X6622184Y46959949D01*
X6811588Y46863443D01*
X7013757Y46797754D01*
X7223713Y46764500D01*
X7223714Y46764500D01*
X7436286Y46764500D01*
X7436287Y46764500D01*
X7513555Y46776739D01*
X7582847Y46767785D01*
X7620634Y46741947D01*
X8086181Y46276400D01*
X8119666Y46215077D01*
X8122500Y46188719D01*
X8122500Y44338193D01*
X8146612Y44216973D01*
X8146614Y44216965D01*
X8179736Y44137002D01*
X8193915Y44102770D01*
X8193916Y44102768D01*
X8193917Y44102767D01*
X8198376Y44096093D01*
X8234543Y44041967D01*
X8234543Y44041966D01*
X8262590Y43999990D01*
X8262593Y43999987D01*
X8683454Y43579127D01*
X8716939Y43517804D01*
X8717390Y43515637D01*
X8724493Y43479928D01*
X8724495Y43479920D01*
X8781371Y43342609D01*
X8863939Y43219036D01*
X8863945Y43219029D01*
X8969028Y43113946D01*
X8969035Y43113940D01*
X9092608Y43031372D01*
X9092609Y43031372D01*
X9092610Y43031371D01*
X9229920Y42974495D01*
X9335530Y42953488D01*
X9375683Y42945501D01*
X9375687Y42945500D01*
X9375688Y42945500D01*
X9524313Y42945500D01*
X9524314Y42945501D01*
X9670080Y42974495D01*
X9689961Y42982731D01*
X9759427Y42990200D01*
X9821907Y42958927D01*
X9842952Y42933267D01*
X9900729Y42839597D01*
X9919170Y42772205D01*
X9898248Y42705542D01*
X9844606Y42660772D01*
X9795191Y42650500D01*
X8252129Y42650500D01*
X8252123Y42650499D01*
X8192516Y42644092D01*
X8057671Y42593798D01*
X8057664Y42593794D01*
X7942455Y42507548D01*
X7942452Y42507545D01*
X7856206Y42392336D01*
X7856202Y42392329D01*
X7811493Y42272455D01*
X7805909Y42257483D01*
X7799500Y42197873D01*
X7799500Y42197866D01*
X7799500Y42197865D01*
X7799500Y41702130D01*
X7799501Y41702124D01*
X7805908Y41642517D01*
X7856202Y41507672D01*
X7856206Y41507665D01*
X7942452Y41392456D01*
X7942455Y41392453D01*
X8057664Y41306207D01*
X8057671Y41306203D01*
X8192517Y41255909D01*
X8192516Y41255909D01*
X8199444Y41255165D01*
X8252127Y41249500D01*
X9998500Y41249501D01*
X10065539Y41229816D01*
X10111294Y41177013D01*
X10122500Y41125501D01*
X10122500Y40374500D01*
X10102815Y40307461D01*
X10050011Y40261706D01*
X9998500Y40250500D01*
X8252129Y40250500D01*
X8252123Y40250499D01*
X8192516Y40244092D01*
X8057671Y40193798D01*
X8057664Y40193794D01*
X7942455Y40107548D01*
X7942452Y40107545D01*
X7856206Y39992336D01*
X7856202Y39992329D01*
X7805910Y39857487D01*
X7805909Y39857483D01*
X7799500Y39797873D01*
X7799500Y39797866D01*
X7799500Y39797865D01*
X7799500Y39302130D01*
X7799501Y39302124D01*
X7805908Y39242517D01*
X7856202Y39107672D01*
X7856206Y39107665D01*
X7942452Y38992456D01*
X7942455Y38992453D01*
X8057664Y38906207D01*
X8057671Y38906203D01*
X8192517Y38855909D01*
X8192516Y38855909D01*
X8199444Y38855165D01*
X8252127Y38849500D01*
X9120192Y38849501D01*
X9187231Y38829817D01*
X9232986Y38777013D01*
X9242930Y38707854D01*
X9225731Y38660404D01*
X9162998Y38558700D01*
X9162996Y38558695D01*
X9109651Y38397710D01*
X9099500Y38298353D01*
X9099500Y37701663D01*
X9099501Y37701645D01*
X9109650Y37602293D01*
X9109651Y37602290D01*
X9143120Y37501288D01*
X9162997Y37441303D01*
X9194286Y37390576D01*
X9212727Y37323185D01*
X9191805Y37256521D01*
X9176430Y37237798D01*
X9057287Y37118655D01*
X8965187Y36969337D01*
X8965186Y36969334D01*
X8910001Y36802797D01*
X8910001Y36802796D01*
X8910000Y36802796D01*
X8899500Y36700017D01*
X8899500Y35863282D01*
X8879815Y35796243D01*
X8863181Y35775601D01*
X8451400Y35363819D01*
X8390077Y35330334D01*
X8363719Y35327500D01*
X5111281Y35327500D01*
X5044242Y35347185D01*
X5023600Y35363819D01*
X4590819Y35796600D01*
X4557334Y35857923D01*
X4554500Y35884281D01*
X4554500Y35924313D01*
X4554499Y35924317D01*
X4532272Y36036059D01*
X4525505Y36070080D01*
X4468629Y36207390D01*
X4461931Y36217414D01*
X4386060Y36330965D01*
X4386054Y36330972D01*
X4280971Y36436055D01*
X4280964Y36436061D01*
X4157391Y36518629D01*
X4020080Y36575505D01*
X4020072Y36575507D01*
X3874316Y36604500D01*
X3874312Y36604500D01*
X3725688Y36604500D01*
X3725683Y36604500D01*
X3579927Y36575507D01*
X3579919Y36575505D01*
X3442608Y36518629D01*
X3319035Y36436061D01*
X3319028Y36436055D01*
X3213945Y36330972D01*
X3213939Y36330965D01*
X3131371Y36207392D01*
X3074495Y36070081D01*
X3074493Y36070073D01*
X3045500Y35924317D01*
X3045500Y35775684D01*
X3074493Y35629928D01*
X3074495Y35629920D01*
X3131371Y35492609D01*
X3213939Y35369036D01*
X3213945Y35369029D01*
X3319031Y35263943D01*
X3398102Y35211110D01*
X3416892Y35195689D01*
X4312589Y34299992D01*
X4399992Y34212589D01*
X4399993Y34212588D01*
X4502763Y34143919D01*
X4502765Y34143918D01*
X4502767Y34143917D01*
X4533054Y34131372D01*
X4533055Y34131371D01*
X4533056Y34131371D01*
X4616966Y34096614D01*
X4738192Y34072501D01*
X4738196Y34072500D01*
X4738197Y34072500D01*
X4861804Y34072500D01*
X6296940Y34072500D01*
X6363979Y34052815D01*
X6409734Y34000011D01*
X6419678Y33930853D01*
X6390653Y33867297D01*
X6384621Y33860819D01*
X5923819Y33400019D01*
X5887073Y33359113D01*
X5870180Y33338149D01*
X5838019Y33293552D01*
X5838013Y33293541D01*
X5777303Y33160606D01*
X5774697Y33151728D01*
X5736920Y33092951D01*
X5673364Y33063929D01*
X5604206Y33073874D01*
X5568040Y33098986D01*
X5530971Y33136055D01*
X5530964Y33136061D01*
X5407391Y33218629D01*
X5270080Y33275505D01*
X5270072Y33275507D01*
X5124316Y33304500D01*
X5124312Y33304500D01*
X4975688Y33304500D01*
X4975683Y33304500D01*
X4829927Y33275507D01*
X4829919Y33275505D01*
X4692608Y33218629D01*
X4569035Y33136061D01*
X4569028Y33136055D01*
X4487681Y33054707D01*
X4426358Y33021222D01*
X4356666Y33026206D01*
X4312319Y33054707D01*
X4230971Y33136055D01*
X4230964Y33136061D01*
X4107391Y33218629D01*
X3970080Y33275505D01*
X3970072Y33275507D01*
X3824316Y33304500D01*
X3824312Y33304500D01*
X3675688Y33304500D01*
X3675683Y33304500D01*
X3529927Y33275507D01*
X3529919Y33275505D01*
X3392608Y33218629D01*
X3269035Y33136061D01*
X3269028Y33136055D01*
X3163945Y33030972D01*
X3163939Y33030965D01*
X3081371Y32907392D01*
X3024495Y32770081D01*
X3024493Y32770075D01*
X3017390Y32734364D01*
X2998467Y32689058D01*
X2991826Y32679247D01*
X2975089Y32662508D01*
X2906417Y32559733D01*
X2906417Y32559732D01*
X2899274Y32542489D01*
X2899270Y32542482D01*
X2856949Y32440310D01*
X2813107Y32385906D01*
X2807488Y32382227D01*
X2794613Y32374286D01*
X2794612Y32374285D01*
X2675716Y32255388D01*
X2587455Y32112296D01*
X2587451Y32112287D01*
X2534564Y31952685D01*
X2534564Y31952684D01*
X2534563Y31952684D01*
X2524500Y31854182D01*
X2524500Y31245819D01*
X2534563Y31147317D01*
X2587450Y30987716D01*
X2587455Y30987705D01*
X2675716Y30844613D01*
X2675719Y30844609D01*
X2794609Y30725719D01*
X2837971Y30698973D01*
X2884695Y30647026D01*
X2896792Y30588921D01*
X2896430Y30578989D01*
X2895500Y30574312D01*
X2895500Y30553456D01*
X2895418Y30551205D01*
X2885042Y30520107D01*
X2875815Y30488680D01*
X2873946Y30486846D01*
X2873306Y30484926D01*
X2866015Y30479060D01*
X2836599Y30450181D01*
X2794607Y30424280D01*
X2675719Y30305392D01*
X2675716Y30305388D01*
X2587455Y30162296D01*
X2587451Y30162287D01*
X2534564Y30002685D01*
X2534564Y30002684D01*
X2534563Y30002684D01*
X2524500Y29904182D01*
X2524500Y29295819D01*
X2534563Y29197317D01*
X2587450Y29037716D01*
X2587455Y29037705D01*
X2675716Y28894613D01*
X2675717Y28894612D01*
X2675719Y28894609D01*
X2779004Y28791324D01*
X2781901Y28788427D01*
X2782813Y28786756D01*
X2784455Y28785795D01*
X2799482Y28756229D01*
X2815385Y28727104D01*
X2815523Y28724668D01*
X2816112Y28723509D01*
X2816062Y28715140D01*
X2817587Y28688245D01*
X2816989Y28682347D01*
X2795500Y28574312D01*
X2795500Y28470271D01*
X2794868Y28464033D01*
X2783962Y28437243D01*
X2775815Y28409495D01*
X2769455Y28401603D01*
X2768526Y28399320D01*
X2766424Y28397842D01*
X2759181Y28388853D01*
X2675719Y28305392D01*
X2675716Y28305388D01*
X2587455Y28162296D01*
X2587451Y28162287D01*
X2534564Y28002685D01*
X2534564Y28002684D01*
X2534563Y28002684D01*
X2524500Y27904182D01*
X2524500Y27295819D01*
X2534563Y27197317D01*
X2587450Y27037716D01*
X2587455Y27037705D01*
X2675716Y26894613D01*
X2675719Y26894609D01*
X2794608Y26775720D01*
X2794612Y26775717D01*
X2937704Y26687456D01*
X2937707Y26687455D01*
X2937713Y26687451D01*
X3097315Y26634564D01*
X3195826Y26624500D01*
X3195831Y26624500D01*
X3729169Y26624500D01*
X3729174Y26624500D01*
X3827685Y26634564D01*
X3987287Y26687451D01*
X4130391Y26775719D01*
X4162319Y26807647D01*
X4223642Y26841132D01*
X4293334Y26836148D01*
X4337681Y26807647D01*
X4369608Y26775720D01*
X4369612Y26775717D01*
X4512704Y26687456D01*
X4512707Y26687455D01*
X4512713Y26687451D01*
X4672315Y26634564D01*
X4770826Y26624500D01*
X4770831Y26624500D01*
X5304169Y26624500D01*
X5304174Y26624500D01*
X5402685Y26634564D01*
X5562287Y26687451D01*
X5562288Y26687453D01*
X5569142Y26689723D01*
X5569748Y26687893D01*
X5629157Y26696924D01*
X5692944Y26668413D01*
X5731192Y26609941D01*
X5736500Y26574048D01*
X5736500Y26052185D01*
X5739438Y25997334D01*
X5742322Y25970511D01*
X5742322Y25970506D01*
X5751113Y25916259D01*
X5751118Y25916241D01*
X5802188Y25779319D01*
X5802196Y25779302D01*
X5836214Y25717005D01*
X5836216Y25717001D01*
X5836220Y25716995D01*
X5923806Y25599996D01*
X5923810Y25599992D01*
X5923815Y25599986D01*
X6657482Y24866319D01*
X6678450Y24847483D01*
X6715167Y24788038D01*
X6713917Y24718180D01*
X6675098Y24660087D01*
X6611033Y24632203D01*
X6592912Y24631961D01*
X6592912Y24631500D01*
X6413178Y24631500D01*
X6242881Y24597626D01*
X6242871Y24597623D01*
X6082459Y24531179D01*
X6082446Y24531172D01*
X5938077Y24434707D01*
X5938073Y24434704D01*
X5815296Y24311927D01*
X5815293Y24311923D01*
X5718828Y24167554D01*
X5718821Y24167541D01*
X5652377Y24007129D01*
X5652374Y24007119D01*
X5618500Y23836823D01*
X5618500Y23836820D01*
X5618500Y23663180D01*
X5618500Y23663178D01*
X5618499Y23663178D01*
X5652374Y23492882D01*
X5652377Y23492872D01*
X5718821Y23332460D01*
X5718828Y23332447D01*
X5815293Y23188078D01*
X5815296Y23188074D01*
X5938073Y23065297D01*
X5938077Y23065294D01*
X6082446Y22968829D01*
X6082459Y22968822D01*
X6178706Y22928956D01*
X6242876Y22902376D01*
X6253070Y22900349D01*
X6314981Y22867966D01*
X6316509Y22866466D01*
X6380778Y22802197D01*
X6394035Y22788940D01*
X6463807Y22742320D01*
X6517610Y22706370D01*
X6517896Y22706252D01*
X6517955Y22706227D01*
X6518104Y22706107D01*
X6522981Y22703500D01*
X6522486Y22702576D01*
X6572358Y22662385D01*
X6594421Y22596090D01*
X6594500Y22591668D01*
X6594500Y22475000D01*
X6594501Y22474981D01*
X6605000Y22372204D01*
X6605001Y22372200D01*
X6633959Y22284812D01*
X6636361Y22214983D01*
X6600629Y22154942D01*
X6575680Y22136976D01*
X6521425Y22107351D01*
X6521424Y22107350D01*
X6406240Y22021124D01*
X6406228Y22021114D01*
X6178892Y21793777D01*
X6178855Y21793738D01*
X6142728Y21753520D01*
X6142718Y21753508D01*
X6126076Y21732857D01*
X6094433Y21688975D01*
X6034663Y21558101D01*
X6034662Y21558097D01*
X6014977Y21491058D01*
X6014976Y21491054D01*
X5999315Y21382124D01*
X5994500Y21348637D01*
X5994500Y4651360D01*
X5997397Y4597312D01*
X5997397Y4597311D01*
X6000229Y4570978D01*
X6000232Y4570951D01*
X6008885Y4517555D01*
X6008885Y4517553D01*
X6054605Y4394977D01*
X6059168Y4382743D01*
X6092653Y4321420D01*
X6178877Y4206239D01*
X6178881Y4206235D01*
X6178886Y4206229D01*
X6275114Y4110002D01*
X6366239Y4018877D01*
X6366255Y4018863D01*
X6366262Y4018856D01*
X6406480Y3982729D01*
X6406492Y3982719D01*
X6406500Y3982712D01*
X6427142Y3966078D01*
X6471026Y3934433D01*
X6601903Y3874662D01*
X6668942Y3854977D01*
X6668946Y3854976D01*
X6811362Y3834500D01*
X6811365Y3834500D01*
X10538640Y3834500D01*
X10548786Y3835045D01*
X10592678Y3837397D01*
X10592686Y3837398D01*
X10592688Y3837398D01*
X10592689Y3837398D01*
X10599682Y3838151D01*
X10619036Y3840231D01*
X10619046Y3840233D01*
X10619049Y3840233D01*
X10628648Y3841789D01*
X10672448Y3848886D01*
X10807257Y3899168D01*
X10868580Y3932653D01*
X10983761Y4018877D01*
X11221123Y4256239D01*
X11257288Y4296500D01*
X11273922Y4317142D01*
X11305567Y4361026D01*
X11365338Y4491903D01*
X11385023Y4558942D01*
X11385024Y4558946D01*
X11405500Y4701362D01*
X11405500Y9900015D01*
X16699500Y9900015D01*
X16699500Y4800001D01*
X16699501Y4799984D01*
X16710000Y4697205D01*
X16710001Y4697202D01*
X16765185Y4530670D01*
X16765187Y4530665D01*
X16773275Y4517553D01*
X16857289Y4381345D01*
X16981345Y4257289D01*
X17130667Y4165186D01*
X17297204Y4110001D01*
X17399993Y4099500D01*
X21100006Y4099501D01*
X21202796Y4110001D01*
X21369333Y4165186D01*
X21518655Y4257289D01*
X21642711Y4381345D01*
X21734814Y4530667D01*
X21789999Y4697204D01*
X21800500Y4799993D01*
X21800499Y9900006D01*
X21789999Y10002796D01*
X21734814Y10169333D01*
X21642711Y10318655D01*
X21518655Y10442711D01*
X21369333Y10534814D01*
X21202796Y10589999D01*
X21202794Y10590000D01*
X21100008Y10600500D01*
X17400000Y10600500D01*
X17399983Y10600499D01*
X17297204Y10590000D01*
X17297201Y10589999D01*
X17130669Y10534815D01*
X17130664Y10534813D01*
X16981343Y10442710D01*
X16857290Y10318657D01*
X16765187Y10169336D01*
X16765186Y10169333D01*
X16710001Y10002796D01*
X16710001Y10002795D01*
X16710000Y10002795D01*
X16699500Y9900015D01*
X11405500Y9900015D01*
X11405500Y14189255D01*
X11414144Y14218696D01*
X11420668Y14248682D01*
X11424422Y14253698D01*
X11425185Y14256294D01*
X11441819Y14276936D01*
X11573984Y14409101D01*
X11635307Y14442586D01*
X11661665Y14445420D01*
X12849560Y14445420D01*
X12859706Y14445965D01*
X12903598Y14448317D01*
X12903606Y14448318D01*
X12903608Y14448318D01*
X12903609Y14448318D01*
X12910602Y14449071D01*
X12929956Y14451151D01*
X12929966Y14451153D01*
X12929969Y14451153D01*
X12939568Y14452709D01*
X12983368Y14459806D01*
X13118177Y14510088D01*
X13179500Y14543573D01*
X13294681Y14629797D01*
X13621123Y14956239D01*
X13657288Y14996500D01*
X13673922Y15017142D01*
X13705567Y15061026D01*
X13765338Y15191903D01*
X13785023Y15258942D01*
X13785024Y15258946D01*
X13805500Y15401362D01*
X13805500Y17330348D01*
X13802603Y17384388D01*
X13799769Y17410746D01*
X13791114Y17464158D01*
X13740832Y17598967D01*
X13707347Y17660290D01*
X13701909Y17667554D01*
X13621128Y17775466D01*
X13621127Y17775467D01*
X13621125Y17775470D01*
X13621120Y17775475D01*
X13621112Y17775484D01*
X13611819Y17784777D01*
X13597115Y17811705D01*
X13580523Y17837523D01*
X13579631Y17843724D01*
X13578334Y17846100D01*
X13575500Y17872458D01*
X13575500Y17994500D01*
X13595185Y18061539D01*
X13647989Y18107294D01*
X13699500Y18118500D01*
X13836822Y18118500D01*
X13951394Y18141291D01*
X14007124Y18152376D01*
X14167547Y18218825D01*
X14311923Y18315294D01*
X14434706Y18438077D01*
X14531175Y18582453D01*
X14597624Y18742876D01*
X14616159Y18836055D01*
X14631500Y18913178D01*
X14631500Y19086823D01*
X14597625Y19257119D01*
X14597624Y19257120D01*
X14597624Y19257124D01*
X14597622Y19257129D01*
X14531178Y19417541D01*
X14531171Y19417554D01*
X14434706Y19561923D01*
X14434703Y19561927D01*
X14333452Y19663178D01*
X49368499Y19663178D01*
X49402374Y19492882D01*
X49402377Y19492872D01*
X49468821Y19332460D01*
X49468828Y19332447D01*
X49565293Y19188078D01*
X49565296Y19188074D01*
X49688073Y19065297D01*
X49688077Y19065294D01*
X49832446Y18968829D01*
X49832459Y18968822D01*
X49992871Y18902378D01*
X49992876Y18902376D01*
X49992880Y18902376D01*
X49992881Y18902375D01*
X50163177Y18868500D01*
X50163180Y18868500D01*
X50336822Y18868500D01*
X50451394Y18891291D01*
X50507124Y18902376D01*
X50667547Y18968825D01*
X50811923Y19065294D01*
X50934706Y19188077D01*
X51031175Y19332453D01*
X51097624Y19492876D01*
X51108709Y19548606D01*
X51131500Y19663178D01*
X51131500Y19836823D01*
X51097625Y20007119D01*
X51097624Y20007120D01*
X51097624Y20007124D01*
X51097622Y20007129D01*
X51031178Y20167541D01*
X51031171Y20167554D01*
X50934706Y20311923D01*
X50934703Y20311927D01*
X50811926Y20434704D01*
X50811922Y20434707D01*
X50667553Y20531172D01*
X50667540Y20531179D01*
X50507128Y20597623D01*
X50507118Y20597626D01*
X50336822Y20631500D01*
X50336820Y20631500D01*
X50163180Y20631500D01*
X50163178Y20631500D01*
X49992881Y20597626D01*
X49992871Y20597623D01*
X49832459Y20531179D01*
X49832446Y20531172D01*
X49688077Y20434707D01*
X49688073Y20434704D01*
X49565296Y20311927D01*
X49565293Y20311923D01*
X49468828Y20167554D01*
X49468821Y20167541D01*
X49402377Y20007129D01*
X49402374Y20007119D01*
X49368500Y19836823D01*
X49368500Y19836820D01*
X49368500Y19663180D01*
X49368500Y19663178D01*
X49368499Y19663178D01*
X14333452Y19663178D01*
X14311926Y19684704D01*
X14311922Y19684707D01*
X14229455Y19739810D01*
X14167553Y19781172D01*
X14167540Y19781179D01*
X14007128Y19847623D01*
X14007119Y19847625D01*
X13905307Y19867878D01*
X13843397Y19900264D01*
X13808823Y19960980D01*
X13805500Y19989495D01*
X13805500Y21038178D01*
X16993499Y21038178D01*
X17027374Y20867882D01*
X17027377Y20867872D01*
X17093821Y20707460D01*
X17093828Y20707447D01*
X17190293Y20563078D01*
X17190296Y20563074D01*
X17313073Y20440297D01*
X17313077Y20440294D01*
X17457446Y20343829D01*
X17457459Y20343822D01*
X17617871Y20277378D01*
X17617876Y20277376D01*
X17617880Y20277376D01*
X17617881Y20277375D01*
X17788177Y20243500D01*
X17788180Y20243500D01*
X17961822Y20243500D01*
X18076394Y20266291D01*
X18132124Y20277376D01*
X18292547Y20343825D01*
X18436923Y20440294D01*
X18559706Y20563077D01*
X18656175Y20707453D01*
X18722624Y20867876D01*
X18756500Y21038180D01*
X18756500Y21211820D01*
X18756500Y21211823D01*
X18722625Y21382119D01*
X18722624Y21382120D01*
X18722624Y21382124D01*
X18677504Y21491054D01*
X18656178Y21542541D01*
X18656171Y21542554D01*
X18559706Y21686923D01*
X18559703Y21686927D01*
X18436926Y21809704D01*
X18436922Y21809707D01*
X18292553Y21906172D01*
X18292540Y21906179D01*
X18132128Y21972623D01*
X18132118Y21972626D01*
X17961822Y22006500D01*
X17961820Y22006500D01*
X17788180Y22006500D01*
X17788178Y22006500D01*
X17617881Y21972626D01*
X17617871Y21972623D01*
X17457459Y21906179D01*
X17457446Y21906172D01*
X17313077Y21809707D01*
X17313073Y21809704D01*
X17190296Y21686927D01*
X17190293Y21686923D01*
X17093828Y21542554D01*
X17093821Y21542541D01*
X17027377Y21382129D01*
X17027374Y21382119D01*
X16993500Y21211823D01*
X16993500Y21211820D01*
X16993500Y21038180D01*
X16993500Y21038178D01*
X16993499Y21038178D01*
X13805500Y21038178D01*
X13805500Y24198641D01*
X13802602Y24252689D01*
X13802602Y24252690D01*
X13800903Y24268492D01*
X13799769Y24279036D01*
X13799422Y24281175D01*
X13791114Y24332446D01*
X13791114Y24332448D01*
X13740831Y24467259D01*
X13725370Y24495574D01*
X13710518Y24563847D01*
X13734935Y24629311D01*
X13790869Y24671182D01*
X13834202Y24679000D01*
X16263589Y24679000D01*
X16330628Y24659315D01*
X16376383Y24606511D01*
X16385206Y24579192D01*
X16402374Y24492882D01*
X16402377Y24492872D01*
X16468821Y24332460D01*
X16468828Y24332447D01*
X16565293Y24188078D01*
X16565296Y24188074D01*
X16688073Y24065297D01*
X16688077Y24065294D01*
X16832446Y23968829D01*
X16832459Y23968822D01*
X16956264Y23917541D01*
X16992876Y23902376D01*
X16992880Y23902376D01*
X16992881Y23902375D01*
X17163177Y23868500D01*
X17163180Y23868500D01*
X17336822Y23868500D01*
X17451394Y23891291D01*
X17507124Y23902376D01*
X17667547Y23968825D01*
X17811923Y24065294D01*
X17934706Y24188077D01*
X18031175Y24332453D01*
X18034406Y24340252D01*
X18058373Y24398116D01*
X18097624Y24492876D01*
X18107860Y24544334D01*
X18114794Y24579192D01*
X18147179Y24641103D01*
X18207895Y24675677D01*
X18236411Y24679000D01*
X35122811Y24679000D01*
X35126241Y24679184D01*
X35177707Y24681943D01*
X35204492Y24684823D01*
X35204497Y24684824D01*
X35204506Y24684825D01*
X35258754Y24693616D01*
X35258755Y24693617D01*
X35258758Y24693617D01*
X35352762Y24728681D01*
X35396098Y24736500D01*
X42985940Y24736500D01*
X43052979Y24716815D01*
X43073621Y24700181D01*
X43375685Y24398116D01*
X43375702Y24398100D01*
X43420318Y24358394D01*
X43430701Y24350185D01*
X43443264Y24340252D01*
X43492171Y24306007D01*
X43540657Y24276101D01*
X43563239Y24258244D01*
X43583239Y24238244D01*
X43601096Y24215660D01*
X43630989Y24167196D01*
X43631004Y24167173D01*
X43665249Y24118267D01*
X43665261Y24118250D01*
X43665263Y24118248D01*
X43683409Y24095300D01*
X43723082Y24050722D01*
X43723102Y24050700D01*
X44849981Y22923820D01*
X44849990Y22923812D01*
X44849996Y22923806D01*
X44876109Y22900349D01*
X44890887Y22887074D01*
X44901050Y22878885D01*
X44911851Y22870180D01*
X44956451Y22838018D01*
X44956455Y22838017D01*
X44956459Y22838014D01*
X45089394Y22777304D01*
X45089398Y22777303D01*
X45089400Y22777302D01*
X45157521Y22757300D01*
X45302190Y22736500D01*
X45302193Y22736500D01*
X48697815Y22736500D01*
X48752666Y22739439D01*
X48752677Y22739441D01*
X48752692Y22739441D01*
X48779475Y22742320D01*
X48779494Y22742323D01*
X48833741Y22751114D01*
X48833742Y22751115D01*
X48833752Y22751116D01*
X48903957Y22777302D01*
X48970681Y22802189D01*
X48970686Y22802192D01*
X48970693Y22802194D01*
X49033005Y22836220D01*
X49150004Y22923806D01*
X50576194Y24349996D01*
X50612917Y24390877D01*
X50629820Y24411851D01*
X50661982Y24456451D01*
X50696106Y24531172D01*
X50722696Y24589395D01*
X50722696Y24589397D01*
X50722698Y24589400D01*
X50742700Y24657521D01*
X50763500Y24802190D01*
X50763500Y33447810D01*
X50763500Y33447816D01*
X50760561Y33502665D01*
X50760559Y33502676D01*
X50760559Y33502692D01*
X50757796Y33528392D01*
X50758203Y33530649D01*
X50757402Y33532798D01*
X50764377Y33564863D01*
X50770203Y33597149D01*
X50771918Y33599528D01*
X50772254Y33601071D01*
X50793405Y33629325D01*
X50864263Y33700182D01*
X50925587Y33733666D01*
X50951944Y33736500D01*
X53748361Y33736500D01*
X53748378Y33736500D01*
X53773586Y33737119D01*
X53785936Y33737726D01*
X53811063Y33739580D01*
X53889917Y33747347D01*
X53902072Y33747944D01*
X54203815Y33747944D01*
X54215969Y33747347D01*
X54294828Y33739580D01*
X54319952Y33737726D01*
X54332302Y33737119D01*
X54357510Y33736500D01*
X54357527Y33736500D01*
X56947815Y33736500D01*
X57002666Y33739439D01*
X57002677Y33739441D01*
X57002692Y33739441D01*
X57029475Y33742320D01*
X57029494Y33742323D01*
X57083741Y33751114D01*
X57083742Y33751115D01*
X57083752Y33751116D01*
X57142095Y33772878D01*
X57220681Y33802189D01*
X57220686Y33802192D01*
X57220693Y33802194D01*
X57283005Y33836220D01*
X57301189Y33849833D01*
X57366651Y33874251D01*
X57434924Y33859401D01*
X57484331Y33809997D01*
X57499500Y33750567D01*
X57499500Y624500D01*
X57479815Y557461D01*
X57427011Y511706D01*
X57375500Y500500D01*
X50514746Y500500D01*
X50447707Y520185D01*
X50401952Y572989D01*
X50392008Y642147D01*
X50421033Y705703D01*
X50427065Y712181D01*
X50571123Y856239D01*
X50607288Y896500D01*
X50623922Y917142D01*
X50655567Y961026D01*
X50715338Y1091903D01*
X50735023Y1158942D01*
X50735024Y1158946D01*
X50755500Y1301362D01*
X50755500Y12698638D01*
X50752603Y12752678D01*
X50749769Y12779036D01*
X50741114Y12832448D01*
X50690832Y12967257D01*
X50657347Y13028580D01*
X50571123Y13143761D01*
X50571118Y13143766D01*
X50571113Y13143772D01*
X49743776Y13971108D01*
X49743770Y13971114D01*
X49743761Y13971123D01*
X49743737Y13971145D01*
X49703519Y14007272D01*
X49703507Y14007282D01*
X49682856Y14023924D01*
X49638974Y14055567D01*
X49508100Y14115337D01*
X49441055Y14135024D01*
X49393582Y14141850D01*
X49298638Y14155500D01*
X43401362Y14155500D01*
X43401360Y14155500D01*
X43347311Y14152603D01*
X43347310Y14152603D01*
X43320977Y14149771D01*
X43320950Y14149768D01*
X43267554Y14141115D01*
X43267552Y14141115D01*
X43132747Y14090834D01*
X43071422Y14057349D01*
X42956240Y13971124D01*
X42956228Y13971114D01*
X41176935Y12191819D01*
X41115612Y12158334D01*
X41089254Y12155500D01*
X38858889Y12155500D01*
X38823953Y12160523D01*
X38766057Y12177524D01*
X38666628Y12191819D01*
X38623638Y12198000D01*
X38623636Y12198000D01*
X25668246Y12198000D01*
X25601207Y12217685D01*
X25580565Y12234319D01*
X21330028Y16484856D01*
X21330022Y16484862D01*
X21330013Y16484871D01*
X21329989Y16484893D01*
X21289771Y16521020D01*
X21289759Y16521030D01*
X21269108Y16537672D01*
X21225226Y16569315D01*
X21094352Y16629085D01*
X21027307Y16648772D01*
X20979834Y16655598D01*
X20884890Y16669248D01*
X18841362Y16669248D01*
X18841360Y16669248D01*
X18787311Y16666351D01*
X18787310Y16666351D01*
X18760977Y16663519D01*
X18760950Y16663516D01*
X18707554Y16654863D01*
X18707552Y16654863D01*
X18572747Y16604582D01*
X18511422Y16571097D01*
X18396240Y16484872D01*
X18396228Y16484862D01*
X18155144Y16243777D01*
X18155107Y16243738D01*
X18118980Y16203520D01*
X18118970Y16203508D01*
X18102328Y16182857D01*
X18070685Y16138975D01*
X18012293Y16011117D01*
X17966537Y15958314D01*
X17899497Y15938630D01*
X17832458Y15958315D01*
X17786704Y16011120D01*
X17775499Y16062630D01*
X17775499Y16145002D01*
X17775498Y16145020D01*
X17764999Y16247797D01*
X17764998Y16247800D01*
X17709814Y16414334D01*
X17617712Y16563656D01*
X17493656Y16687712D01*
X17344334Y16779814D01*
X17177797Y16834999D01*
X17177796Y16835000D01*
X17176176Y16835536D01*
X17118731Y16875309D01*
X17091908Y16939825D01*
X17096523Y16989248D01*
X17097622Y16992872D01*
X17097624Y16992876D01*
X17115444Y17082460D01*
X17131500Y17163178D01*
X17131500Y17336823D01*
X17097625Y17507119D01*
X17097624Y17507120D01*
X17097624Y17507124D01*
X17064612Y17586823D01*
X17031178Y17667541D01*
X17031171Y17667554D01*
X16985094Y17736513D01*
X16943129Y17799317D01*
X48770500Y17799317D01*
X48770500Y17650684D01*
X48799493Y17504928D01*
X48799495Y17504920D01*
X48856371Y17367609D01*
X48938939Y17244036D01*
X48938945Y17244029D01*
X49044028Y17138946D01*
X49044035Y17138940D01*
X49167608Y17056372D01*
X49167609Y17056372D01*
X49167610Y17056371D01*
X49304920Y16999495D01*
X49450683Y16970501D01*
X49450687Y16970500D01*
X49450688Y16970500D01*
X49599313Y16970500D01*
X49599314Y16970501D01*
X49745080Y16999495D01*
X49882390Y17056371D01*
X50005966Y17138941D01*
X50111059Y17244034D01*
X50193629Y17367610D01*
X50212504Y17413178D01*
X50618499Y17413178D01*
X50652374Y17242882D01*
X50652377Y17242872D01*
X50718821Y17082460D01*
X50718828Y17082447D01*
X50815293Y16938078D01*
X50815296Y16938074D01*
X50938073Y16815297D01*
X50938077Y16815294D01*
X51082446Y16718829D01*
X51082459Y16718822D01*
X51236872Y16654863D01*
X51242876Y16652376D01*
X51242880Y16652376D01*
X51242881Y16652375D01*
X51413177Y16618500D01*
X51413180Y16618500D01*
X51586822Y16618500D01*
X51701394Y16641291D01*
X51757124Y16652376D01*
X51917547Y16718825D01*
X52061923Y16815294D01*
X52184706Y16938077D01*
X52281175Y17082453D01*
X52347624Y17242876D01*
X52358709Y17298606D01*
X52381500Y17413178D01*
X52381500Y17586823D01*
X52347625Y17757119D01*
X52347624Y17757120D01*
X52347624Y17757124D01*
X52324924Y17811927D01*
X52281178Y17917541D01*
X52281171Y17917554D01*
X52184706Y18061923D01*
X52184703Y18061927D01*
X52061926Y18184704D01*
X52061922Y18184707D01*
X51917553Y18281172D01*
X51917540Y18281179D01*
X51757128Y18347623D01*
X51757118Y18347626D01*
X51586822Y18381500D01*
X51586820Y18381500D01*
X51413180Y18381500D01*
X51413178Y18381500D01*
X51242881Y18347626D01*
X51242871Y18347623D01*
X51082459Y18281179D01*
X51082446Y18281172D01*
X50938077Y18184707D01*
X50938073Y18184704D01*
X50815296Y18061927D01*
X50815293Y18061923D01*
X50718828Y17917554D01*
X50718821Y17917541D01*
X50652377Y17757129D01*
X50652374Y17757119D01*
X50618500Y17586823D01*
X50618500Y17586820D01*
X50618500Y17413180D01*
X50618500Y17413178D01*
X50618499Y17413178D01*
X50212504Y17413178D01*
X50250505Y17504920D01*
X50266796Y17586820D01*
X50272820Y17617103D01*
X50279499Y17650685D01*
X50279500Y17650687D01*
X50279500Y17799313D01*
X50279499Y17799317D01*
X50277035Y17811705D01*
X50250505Y17945080D01*
X50193629Y18082390D01*
X50169501Y18118500D01*
X50111060Y18205965D01*
X50111054Y18205972D01*
X50005971Y18311055D01*
X50005964Y18311061D01*
X49882391Y18393629D01*
X49745080Y18450505D01*
X49745072Y18450507D01*
X49599316Y18479500D01*
X49599312Y18479500D01*
X49450688Y18479500D01*
X49450683Y18479500D01*
X49304927Y18450507D01*
X49304919Y18450505D01*
X49167608Y18393629D01*
X49044035Y18311061D01*
X49044028Y18311055D01*
X48938945Y18205972D01*
X48938939Y18205965D01*
X48856371Y18082392D01*
X48799495Y17945081D01*
X48799493Y17945073D01*
X48770500Y17799317D01*
X16943129Y17799317D01*
X16934706Y17811923D01*
X16934703Y17811927D01*
X16811926Y17934704D01*
X16811922Y17934707D01*
X16667553Y18031172D01*
X16667540Y18031179D01*
X16507128Y18097623D01*
X16507118Y18097626D01*
X16336822Y18131500D01*
X16336820Y18131500D01*
X16163180Y18131500D01*
X16163178Y18131500D01*
X15992881Y18097626D01*
X15992871Y18097623D01*
X15832459Y18031179D01*
X15832446Y18031172D01*
X15688077Y17934707D01*
X15688073Y17934704D01*
X15565296Y17811927D01*
X15565293Y17811923D01*
X15468828Y17667554D01*
X15468821Y17667541D01*
X15402377Y17507129D01*
X15402374Y17507119D01*
X15368500Y17336823D01*
X15368500Y17163176D01*
X15402213Y16993691D01*
X15395986Y16924100D01*
X15353123Y16868922D01*
X15287233Y16845678D01*
X15280610Y16845500D01*
X15275005Y16845500D01*
X15274980Y16845499D01*
X15172203Y16835000D01*
X15172200Y16834999D01*
X15005668Y16779815D01*
X15005663Y16779813D01*
X14856342Y16687711D01*
X14732289Y16563658D01*
X14640187Y16414337D01*
X14640186Y16414334D01*
X14585001Y16247797D01*
X14585001Y16247796D01*
X14585000Y16247796D01*
X14574500Y16145017D01*
X14574500Y15344999D01*
X14574501Y15344981D01*
X14585000Y15242204D01*
X14585001Y15242201D01*
X14620953Y15133706D01*
X14640186Y15075666D01*
X14732288Y14926344D01*
X14856344Y14802288D01*
X15005666Y14710186D01*
X15172203Y14655001D01*
X15274991Y14644500D01*
X17075008Y14644501D01*
X17177797Y14655001D01*
X17344334Y14710186D01*
X17493656Y14802288D01*
X17617712Y14926344D01*
X17709814Y15075666D01*
X17729047Y15133708D01*
X17768818Y15191151D01*
X17833334Y15217974D01*
X17902110Y15205659D01*
X17953310Y15158116D01*
X17970752Y15094702D01*
X17970752Y14625108D01*
X17973649Y14571060D01*
X17973649Y14571059D01*
X17976481Y14544726D01*
X17976484Y14544699D01*
X17985137Y14491303D01*
X17985137Y14491301D01*
X18015797Y14409101D01*
X18035420Y14356491D01*
X18068905Y14295168D01*
X18155129Y14179987D01*
X18155133Y14179983D01*
X18155138Y14179977D01*
X18311192Y14023924D01*
X18406239Y13928877D01*
X18406255Y13928863D01*
X18406262Y13928856D01*
X18446480Y13892729D01*
X18446492Y13892719D01*
X18446500Y13892712D01*
X18467142Y13876078D01*
X18511026Y13844433D01*
X18641903Y13784662D01*
X18708942Y13764977D01*
X18708946Y13764976D01*
X18851362Y13744500D01*
X21189254Y13744500D01*
X21256293Y13724815D01*
X21276935Y13708181D01*
X25413181Y9571935D01*
X25446666Y9510612D01*
X25449500Y9484254D01*
X25449500Y5892499D01*
X25449501Y5892482D01*
X25460000Y5789704D01*
X25460001Y5789701D01*
X25515185Y5623169D01*
X25515187Y5623164D01*
X25607289Y5473843D01*
X25621554Y5459578D01*
X25639975Y5434972D01*
X25640255Y5435151D01*
X25642650Y5431425D01*
X25642653Y5431420D01*
X25728877Y5316239D01*
X25728881Y5316235D01*
X25728886Y5316229D01*
X26245115Y4800001D01*
X26486239Y4558877D01*
X26486255Y4558863D01*
X26486262Y4558856D01*
X26526480Y4522729D01*
X26526492Y4522719D01*
X26526500Y4522712D01*
X26547142Y4506078D01*
X26591026Y4474433D01*
X26721903Y4414662D01*
X26788942Y4394977D01*
X26788946Y4394976D01*
X26931362Y4374500D01*
X42059254Y4374500D01*
X42126293Y4354815D01*
X42146935Y4338181D01*
X42658181Y3826935D01*
X42691666Y3765612D01*
X42694500Y3739254D01*
X42694500Y1301360D01*
X42697397Y1247312D01*
X42697397Y1247311D01*
X42700229Y1220978D01*
X42700232Y1220951D01*
X42708885Y1167555D01*
X42708885Y1167553D01*
X42712096Y1158945D01*
X42759168Y1032743D01*
X42792653Y971420D01*
X42878877Y856239D01*
X42878881Y856235D01*
X42878886Y856229D01*
X43022934Y712181D01*
X43056419Y650858D01*
X43051435Y581166D01*
X43009563Y525233D01*
X42944099Y500816D01*
X42935253Y500500D01*
X624500Y500500D01*
X557461Y520185D01*
X511706Y572989D01*
X500500Y624500D01*
X500500Y17947302D01*
X520185Y18014341D01*
X572989Y18060096D01*
X642147Y18070040D01*
X705703Y18041015D01*
X739061Y17994755D01*
X781371Y17892609D01*
X863939Y17769036D01*
X863945Y17769029D01*
X969028Y17663946D01*
X969035Y17663940D01*
X1092608Y17581372D01*
X1092609Y17581372D01*
X1092610Y17581371D01*
X1229920Y17524495D01*
X1375683Y17495501D01*
X1375687Y17495500D01*
X1375688Y17495500D01*
X1524313Y17495500D01*
X1524314Y17495501D01*
X1670080Y17524495D01*
X1807390Y17581371D01*
X1930966Y17663941D01*
X2036059Y17769034D01*
X2118629Y17892610D01*
X2175505Y18029920D01*
X2204500Y18175688D01*
X2204500Y18324312D01*
X2175505Y18470080D01*
X2118629Y18607390D01*
X2036059Y18730966D01*
X2036054Y18730972D01*
X1930971Y18836055D01*
X1930964Y18836061D01*
X1807391Y18918629D01*
X1670080Y18975505D01*
X1670072Y18975507D01*
X1524316Y19004500D01*
X1524312Y19004500D01*
X1375688Y19004500D01*
X1375683Y19004500D01*
X1229927Y18975507D01*
X1229919Y18975505D01*
X1092608Y18918629D01*
X969035Y18836061D01*
X969028Y18836055D01*
X863945Y18730972D01*
X863939Y18730965D01*
X781371Y18607392D01*
X739061Y18505246D01*
X695220Y18450843D01*
X628925Y18428778D01*
X561226Y18446057D01*
X513616Y18497195D01*
X500500Y18552699D01*
X500500Y43654529D01*
X520185Y43721568D01*
X572989Y43767323D01*
X642147Y43777267D01*
X705703Y43748242D01*
X727602Y43723419D01*
X763939Y43669036D01*
X763945Y43669029D01*
X869028Y43563946D01*
X869035Y43563940D01*
X992608Y43481372D01*
X992609Y43481372D01*
X992610Y43481371D01*
X1129920Y43424495D01*
X1182954Y43413946D01*
X1275645Y43395508D01*
X1337556Y43363123D01*
X1350720Y43348203D01*
X1392455Y43292453D01*
X1507664Y43206207D01*
X1507671Y43206203D01*
X1642517Y43155909D01*
X1642516Y43155909D01*
X1649444Y43155165D01*
X1702127Y43149500D01*
X3297872Y43149501D01*
X3357483Y43155909D01*
X3492331Y43206204D01*
X3607546Y43292454D01*
X3693796Y43407669D01*
X3744091Y43542517D01*
X3750500Y43602127D01*
X3750500Y44029054D01*
X3770185Y44096093D01*
X3822989Y44141848D01*
X3850309Y44150671D01*
X3869734Y44154536D01*
X3970080Y44174495D01*
X4107390Y44231371D01*
X4230966Y44313941D01*
X4336059Y44419034D01*
X4418629Y44542610D01*
X4475505Y44679920D01*
X4504500Y44825688D01*
X4504500Y44974312D01*
X4504500Y44974317D01*
X4475506Y45120073D01*
X4475505Y45120080D01*
X4418629Y45257390D01*
X4415736Y45261719D01*
X4336060Y45380965D01*
X4336054Y45380972D01*
X4230971Y45486055D01*
X4230964Y45486061D01*
X4107391Y45568629D01*
X3970080Y45625505D01*
X3970072Y45625507D01*
X3824316Y45654500D01*
X3824312Y45654500D01*
X3675688Y45654500D01*
X3675683Y45654500D01*
X3529927Y45625508D01*
X3529915Y45625504D01*
X3516895Y45620111D01*
X3447425Y45612647D01*
X3426118Y45618493D01*
X3357485Y45644091D01*
X3357483Y45644092D01*
X3297883Y45650499D01*
X3297881Y45650500D01*
X3297873Y45650500D01*
X3297864Y45650500D01*
X1702129Y45650500D01*
X1702123Y45650499D01*
X1642516Y45644092D01*
X1507671Y45593798D01*
X1507664Y45593794D01*
X1392455Y45507548D01*
X1392452Y45507545D01*
X1306206Y45392336D01*
X1306202Y45392329D01*
X1255908Y45257483D01*
X1249501Y45197884D01*
X1249500Y45197865D01*
X1249500Y45001056D01*
X1229815Y44934017D01*
X1177011Y44888262D01*
X1149695Y44879439D01*
X1129921Y44875506D01*
X1129919Y44875505D01*
X992608Y44818629D01*
X869035Y44736061D01*
X869028Y44736055D01*
X763942Y44630969D01*
X727602Y44576581D01*
X673989Y44531776D01*
X604664Y44523069D01*
X541637Y44553224D01*
X504918Y44612667D01*
X500500Y44645472D01*
X500500Y58625500D01*
X520185Y58692539D01*
X572989Y58738294D01*
X624500Y58749500D01*
X25400698Y58749500D01*
X25425360Y58742259D01*
G37*
%TD.AperFunction*%
%TA.AperFunction,Conductor*%
G36*
X23201655Y40024500D02*
G01*
X23362500Y40024501D01*
X23429539Y40004817D01*
X23475294Y39952013D01*
X23486500Y39900501D01*
X23486500Y35628500D01*
X23466815Y35561461D01*
X23414011Y35515706D01*
X23362500Y35504500D01*
X23325683Y35504500D01*
X23179927Y35475507D01*
X23179919Y35475505D01*
X23042608Y35418629D01*
X22919035Y35336061D01*
X22919028Y35336055D01*
X22813945Y35230972D01*
X22813939Y35230965D01*
X22731371Y35107392D01*
X22674495Y34970081D01*
X22674493Y34970073D01*
X22654659Y34870361D01*
X22622274Y34808450D01*
X22601933Y34791450D01*
X22519031Y34736058D01*
X22413942Y34630969D01*
X22362837Y34554484D01*
X22309224Y34509679D01*
X22242090Y34500637D01*
X22152620Y34513500D01*
X22152617Y34513500D01*
X21793591Y34513500D01*
X21726552Y34533185D01*
X21680797Y34585989D01*
X21670233Y34650103D01*
X21675500Y34701655D01*
X21675499Y35298344D01*
X21671646Y35336059D01*
X21665349Y35397708D01*
X21665348Y35397711D01*
X21612003Y35558697D01*
X21611999Y35558703D01*
X21611998Y35558706D01*
X21522970Y35703041D01*
X21522967Y35703045D01*
X21490819Y35735193D01*
X21457334Y35796516D01*
X21454500Y35822874D01*
X21454500Y35924313D01*
X21454499Y35924317D01*
X21432272Y36036059D01*
X21425505Y36070080D01*
X21382860Y36173034D01*
X21375391Y36242504D01*
X21382859Y36267939D01*
X21385687Y36274764D01*
X21400500Y36387280D01*
X21400500Y36612720D01*
X21385687Y36725236D01*
X21385686Y36725238D01*
X21384982Y36730589D01*
X21384939Y36730680D01*
X21384948Y36730850D01*
X21384626Y36733295D01*
X21385081Y36733355D01*
X21385774Y36746336D01*
X21384458Y36765971D01*
X21385560Y36774459D01*
X21385687Y36774764D01*
X21400500Y36887280D01*
X21400500Y36889486D01*
X21401299Y36895637D01*
X21413844Y36924131D01*
X21424542Y36953362D01*
X21428287Y36956935D01*
X21429454Y36959583D01*
X21434722Y36963072D01*
X21455370Y36982764D01*
X21475173Y36995996D01*
X21519867Y37014507D01*
X21542104Y37018931D01*
X21570080Y37024495D01*
X21707390Y37081371D01*
X21830966Y37163941D01*
X21936059Y37269034D01*
X22018629Y37392610D01*
X22072619Y37522954D01*
X22116460Y37577356D01*
X22182754Y37599421D01*
X22187180Y37599500D01*
X22304169Y37599500D01*
X22304174Y37599500D01*
X22402685Y37609564D01*
X22562287Y37662451D01*
X22705391Y37750719D01*
X22824281Y37869609D01*
X22912549Y38012713D01*
X22965436Y38172315D01*
X22975500Y38270826D01*
X22975500Y38804174D01*
X22965436Y38902685D01*
X22912549Y39062287D01*
X22912545Y39062293D01*
X22912544Y39062296D01*
X22824283Y39205388D01*
X22824280Y39205392D01*
X22747845Y39281827D01*
X22714360Y39343150D01*
X22719344Y39412842D01*
X22747844Y39457188D01*
X22830472Y39539815D01*
X22918478Y39685394D01*
X22969086Y39847804D01*
X22975500Y39918384D01*
X22975500Y39918388D01*
X22975754Y39921182D01*
X22977160Y39921055D01*
X22979467Y39927779D01*
X22978952Y39940347D01*
X22990592Y39960205D01*
X22998061Y39981971D01*
X23007925Y39989772D01*
X23014287Y40000623D01*
X23034814Y40011035D01*
X23052866Y40025309D01*
X23066874Y40027296D01*
X23076600Y40032228D01*
X23111858Y40033674D01*
X23201655Y40024500D01*
G37*
%TD.AperFunction*%
%TA.AperFunction,Conductor*%
G36*
X39144192Y47885804D02*
G01*
X39179300Y47838056D01*
X39193915Y47802772D01*
X39193919Y47802764D01*
X39248885Y47720500D01*
X39256239Y47709495D01*
X39256240Y47709493D01*
X39256239Y47709493D01*
X39262583Y47699999D01*
X39262591Y47699990D01*
X39988181Y46974400D01*
X40021666Y46913077D01*
X40024500Y46886719D01*
X40024500Y46593387D01*
X40030913Y46522808D01*
X40030913Y46522806D01*
X40030914Y46522804D01*
X40081522Y46360394D01*
X40161355Y46228334D01*
X40169530Y46214812D01*
X40209180Y46175163D01*
X40223884Y46148235D01*
X40240477Y46122416D01*
X40241368Y46116217D01*
X40242666Y46113840D01*
X40245500Y46087481D01*
X40245500Y46047874D01*
X40225815Y45980835D01*
X40209181Y45960193D01*
X40177032Y45928045D01*
X40177029Y45928041D01*
X40088001Y45783706D01*
X40087996Y45783695D01*
X40034651Y45622710D01*
X40024500Y45523353D01*
X40024500Y44976663D01*
X40024501Y44976645D01*
X40034650Y44877293D01*
X40034651Y44877290D01*
X40087996Y44716306D01*
X40088001Y44716295D01*
X40177029Y44571960D01*
X40177032Y44571956D01*
X40186307Y44562681D01*
X40219792Y44501358D01*
X40214808Y44431666D01*
X40186307Y44387319D01*
X40177032Y44378045D01*
X40177029Y44378041D01*
X40088001Y44233706D01*
X40087996Y44233695D01*
X40034651Y44072710D01*
X40024500Y43973353D01*
X40024500Y43426663D01*
X40024501Y43426645D01*
X40034650Y43327293D01*
X40034651Y43327290D01*
X40087996Y43166306D01*
X40088001Y43166295D01*
X40177029Y43021960D01*
X40177032Y43021956D01*
X40209181Y42989807D01*
X40223884Y42962880D01*
X40240477Y42937061D01*
X40241368Y42930861D01*
X40242666Y42928484D01*
X40245500Y42902126D01*
X40245500Y42773061D01*
X40225815Y42706022D01*
X40209181Y42685380D01*
X40173819Y42650019D01*
X40137073Y42609113D01*
X40120180Y42588149D01*
X40088019Y42543552D01*
X40088013Y42543541D01*
X40027303Y42410606D01*
X40007301Y42342484D01*
X40007298Y42342472D01*
X39986500Y42197811D01*
X39986500Y39873334D01*
X39966815Y39806295D01*
X39914011Y39760540D01*
X39844853Y39750596D01*
X39838313Y39751716D01*
X39824315Y39754500D01*
X39824312Y39754500D01*
X39675688Y39754500D01*
X39675683Y39754500D01*
X39529927Y39725507D01*
X39529919Y39725505D01*
X39392608Y39668629D01*
X39269035Y39586061D01*
X39269028Y39586055D01*
X39163945Y39480972D01*
X39163939Y39480965D01*
X39081371Y39357392D01*
X39024495Y39220081D01*
X39024493Y39220073D01*
X38995500Y39074317D01*
X38995500Y38925684D01*
X39024493Y38779928D01*
X39024495Y38779920D01*
X39081371Y38642609D01*
X39163939Y38519036D01*
X39163945Y38519029D01*
X39269028Y38413946D01*
X39269035Y38413940D01*
X39392608Y38331372D01*
X39392609Y38331372D01*
X39392610Y38331371D01*
X39529920Y38274495D01*
X39661692Y38248284D01*
X39675683Y38245501D01*
X39675687Y38245500D01*
X39675688Y38245500D01*
X39824312Y38245500D01*
X39838307Y38248284D01*
X39907899Y38242058D01*
X39963077Y38199195D01*
X39986322Y38133306D01*
X39986500Y38126667D01*
X39986500Y37373334D01*
X39966815Y37306295D01*
X39914011Y37260540D01*
X39844853Y37250596D01*
X39838313Y37251716D01*
X39824315Y37254500D01*
X39824312Y37254500D01*
X39675688Y37254500D01*
X39675683Y37254500D01*
X39529927Y37225507D01*
X39529919Y37225505D01*
X39392608Y37168629D01*
X39269035Y37086061D01*
X39269028Y37086055D01*
X39163945Y36980972D01*
X39163939Y36980965D01*
X39081371Y36857392D01*
X39024495Y36720081D01*
X39024493Y36720073D01*
X38995500Y36574317D01*
X38995500Y36574312D01*
X38995500Y36425688D01*
X39003140Y36387280D01*
X39014780Y36328759D01*
X39008552Y36259168D01*
X38965688Y36203991D01*
X38917355Y36182952D01*
X38879924Y36175507D01*
X38879919Y36175505D01*
X38742608Y36118629D01*
X38619035Y36036061D01*
X38619028Y36036055D01*
X38513945Y35930972D01*
X38513939Y35930965D01*
X38431371Y35807392D01*
X38374495Y35670081D01*
X38374493Y35670075D01*
X38352965Y35561847D01*
X38320580Y35499936D01*
X38259864Y35465362D01*
X38190094Y35469103D01*
X38143667Y35498358D01*
X37799819Y35842206D01*
X37766334Y35903529D01*
X37763500Y35929887D01*
X37763500Y39697816D01*
X37760561Y39752667D01*
X37760559Y39752680D01*
X37760559Y39752692D01*
X37757680Y39779475D01*
X37757677Y39779495D01*
X37748886Y39833742D01*
X37748885Y39833746D01*
X37748884Y39833752D01*
X37740031Y39857487D01*
X37697811Y39970682D01*
X37697806Y39970693D01*
X37694527Y39976698D01*
X37672070Y40017823D01*
X37657218Y40086094D01*
X37681634Y40151559D01*
X37737566Y40193431D01*
X37780902Y40201250D01*
X38316613Y40201250D01*
X38316616Y40201250D01*
X38387196Y40207664D01*
X38549606Y40258272D01*
X38695185Y40346278D01*
X38815472Y40466565D01*
X38903478Y40612144D01*
X38954086Y40774554D01*
X38960500Y40845134D01*
X38960500Y41358366D01*
X38954086Y41428946D01*
X38903478Y41591356D01*
X38815472Y41736935D01*
X38815470Y41736937D01*
X38815469Y41736939D01*
X38695188Y41857220D01*
X38645800Y41887076D01*
X38549606Y41945228D01*
X38387196Y41995836D01*
X38387194Y41995837D01*
X38387192Y41995837D01*
X38337778Y42000327D01*
X38316616Y42002250D01*
X37653384Y42002250D01*
X37634145Y42000502D01*
X37582807Y41995837D01*
X37420393Y41945228D01*
X37388071Y41925688D01*
X37302788Y41874133D01*
X37286534Y41869602D01*
X37273575Y41861273D01*
X37238640Y41856250D01*
X37176908Y41856250D01*
X37109869Y41875935D01*
X37064114Y41928739D01*
X37053290Y41970525D01*
X37052598Y41979317D01*
X37052597Y41979324D01*
X37006745Y42137144D01*
X37006744Y42137147D01*
X37006744Y42137148D01*
X36923081Y42278615D01*
X36923079Y42278617D01*
X36923076Y42278621D01*
X36806870Y42394827D01*
X36806862Y42394833D01*
X36665396Y42478495D01*
X36665393Y42478496D01*
X36507573Y42524348D01*
X36507567Y42524349D01*
X36470701Y42527250D01*
X36470694Y42527250D01*
X36039306Y42527250D01*
X36039298Y42527250D01*
X36002432Y42524349D01*
X36002426Y42524348D01*
X35844606Y42478496D01*
X35844603Y42478495D01*
X35703137Y42394833D01*
X35696969Y42390048D01*
X35695072Y42392494D01*
X35646358Y42365893D01*
X35576666Y42370877D01*
X35544296Y42391681D01*
X35543031Y42390048D01*
X35536862Y42394833D01*
X35395396Y42478495D01*
X35395393Y42478496D01*
X35237573Y42524348D01*
X35237567Y42524349D01*
X35200701Y42527250D01*
X35200694Y42527250D01*
X34769306Y42527250D01*
X34769298Y42527250D01*
X34732432Y42524349D01*
X34732429Y42524348D01*
X34723736Y42521822D01*
X34712040Y42518424D01*
X34677445Y42513500D01*
X34022555Y42513500D01*
X33987959Y42518424D01*
X33976264Y42521822D01*
X33967570Y42524348D01*
X33967567Y42524349D01*
X33930701Y42527250D01*
X33930694Y42527250D01*
X33499306Y42527250D01*
X33499298Y42527250D01*
X33462432Y42524349D01*
X33462426Y42524348D01*
X33304606Y42478496D01*
X33304603Y42478495D01*
X33163137Y42394833D01*
X33163129Y42394827D01*
X33046917Y42278615D01*
X33042138Y42272453D01*
X33042135Y42272455D01*
X33027887Y42254088D01*
X32927320Y42153520D01*
X32890573Y42112613D01*
X32873681Y42091651D01*
X32873675Y42091643D01*
X32841599Y42047178D01*
X32841593Y42047168D01*
X32840507Y42044790D01*
X32836832Y42036751D01*
X32818231Y42007802D01*
X32794388Y41943885D01*
X32792531Y41939821D01*
X32792530Y41939816D01*
X32780847Y41914253D01*
X32780841Y41914236D01*
X32772857Y41887077D01*
X32772858Y41887076D01*
X32771603Y41882801D01*
X32767150Y41870861D01*
X32764421Y41858324D01*
X32763176Y41854079D01*
X32763175Y41854074D01*
X32760795Y41845966D01*
X32760795Y41845965D01*
X32740000Y41701313D01*
X32740000Y40535294D01*
X32739618Y40525568D01*
X32738473Y40511017D01*
X32737285Y40490890D01*
X32736897Y40481018D01*
X32736500Y40460832D01*
X32736500Y40139511D01*
X32739438Y40084660D01*
X32742322Y40057837D01*
X32742322Y40057832D01*
X32751113Y40003585D01*
X32751118Y40003567D01*
X32802188Y39866645D01*
X32802196Y39866628D01*
X32836219Y39804321D01*
X32836223Y39804315D01*
X32923792Y39687339D01*
X32923797Y39687333D01*
X32923804Y39687324D01*
X32923811Y39687317D01*
X32963495Y39647632D01*
X32981350Y39625051D01*
X32993134Y39605947D01*
X33005303Y39579851D01*
X33013706Y39554492D01*
X33020000Y39515489D01*
X33020000Y38984512D01*
X33013705Y38945506D01*
X33005302Y38920149D01*
X32993137Y38894060D01*
X32979938Y38872660D01*
X32966263Y38854468D01*
X32939052Y38824455D01*
X32923414Y38805412D01*
X32893487Y38765100D01*
X32830323Y38633301D01*
X32830322Y38633297D01*
X32813874Y38580886D01*
X32809062Y38565554D01*
X32809062Y38565552D01*
X32785590Y38421308D01*
X32785590Y38421307D01*
X32785590Y38421304D01*
X32786510Y38413941D01*
X32803707Y38276277D01*
X32819126Y38219922D01*
X32819128Y38219917D01*
X32822445Y38207796D01*
X32822446Y38207792D01*
X32880691Y38073742D01*
X32919376Y38011024D01*
X32922202Y38005136D01*
X32922696Y38002110D01*
X32928116Y37990487D01*
X32938489Y37959181D01*
X32944134Y37932842D01*
X32944351Y37930728D01*
X32944999Y37918066D01*
X32944999Y36581937D01*
X32944351Y36569281D01*
X32944134Y36567166D01*
X32938488Y36540820D01*
X32928115Y36509515D01*
X32915948Y36483420D01*
X32890709Y36442501D01*
X32881725Y36429797D01*
X32870194Y36415487D01*
X32870161Y36415445D01*
X32838016Y36370865D01*
X32838014Y36370861D01*
X32777303Y36237924D01*
X32757301Y36169802D01*
X32757298Y36169790D01*
X32736500Y36025129D01*
X32736500Y35302185D01*
X32739438Y35247334D01*
X32739441Y35247308D01*
X32741893Y35224496D01*
X32742322Y35220511D01*
X32742322Y35220506D01*
X32751113Y35166259D01*
X32751118Y35166241D01*
X32802188Y35029319D01*
X32802196Y35029302D01*
X32836214Y34967005D01*
X32836216Y34967001D01*
X32836220Y34966995D01*
X32923806Y34849996D01*
X32923810Y34849992D01*
X32923815Y34849986D01*
X33048620Y34725181D01*
X33082105Y34663858D01*
X33077121Y34594166D01*
X33035249Y34538233D01*
X32969785Y34513816D01*
X32960939Y34513500D01*
X29422692Y34513500D01*
X29409772Y34517294D01*
X29396343Y34516332D01*
X29376901Y34526946D01*
X29355653Y34533185D01*
X29346837Y34543359D01*
X29335017Y34549812D01*
X29324399Y34569254D01*
X29309898Y34585989D01*
X29307251Y34600653D01*
X29301528Y34611133D01*
X29299007Y34646337D01*
X29299259Y34649866D01*
X29299260Y34649870D01*
X29299331Y34650879D01*
X29301855Y34668416D01*
X29301867Y34668473D01*
X29302058Y34669349D01*
X29303973Y34696134D01*
X29303972Y34696135D01*
X29306461Y34730935D01*
X29306462Y34730934D01*
X29307119Y34740110D01*
X29307123Y34740165D01*
X29307049Y34741184D01*
X29307048Y34758876D01*
X29309677Y34795656D01*
X29301842Y34831660D01*
X29299323Y34849173D01*
X29297807Y34870361D01*
X29296692Y34885950D01*
X29283790Y34920538D01*
X29282331Y34924673D01*
X29280228Y34930986D01*
X29278600Y34938471D01*
X29275385Y34947089D01*
X29274923Y34946918D01*
X29269852Y34962146D01*
X29269673Y34967110D01*
X29263500Y35001324D01*
X29263500Y39735942D01*
X29283185Y39802981D01*
X29299815Y39823619D01*
X29531971Y40055776D01*
X29580644Y40085798D01*
X29669334Y40115186D01*
X29818656Y40207288D01*
X29942712Y40331344D01*
X30034814Y40480666D01*
X30065133Y40572167D01*
X30090592Y40616025D01*
X30100537Y40627096D01*
X30112917Y40640878D01*
X30129820Y40661852D01*
X30161982Y40706452D01*
X30192465Y40773200D01*
X30222696Y40839396D01*
X30222696Y40839398D01*
X30222698Y40839401D01*
X30242700Y40907522D01*
X30263500Y41052191D01*
X30263500Y42697810D01*
X30262509Y42716303D01*
X30260561Y42752667D01*
X30260559Y42752680D01*
X30260559Y42752692D01*
X30257680Y42779475D01*
X30257677Y42779495D01*
X30248886Y42833742D01*
X30248885Y42833746D01*
X30248884Y42833752D01*
X30225029Y42897708D01*
X30197811Y42970682D01*
X30197803Y42970699D01*
X30163785Y43032996D01*
X30163784Y43032997D01*
X30163780Y43033005D01*
X30076194Y43150004D01*
X30076189Y43150009D01*
X30076184Y43150015D01*
X29900018Y43326181D01*
X29898783Y43327290D01*
X29859123Y43362917D01*
X29859112Y43362927D01*
X29844872Y43374402D01*
X29838149Y43379820D01*
X29799526Y43407672D01*
X29793551Y43411981D01*
X29793540Y43411987D01*
X29660605Y43472697D01*
X29592483Y43492699D01*
X29592471Y43492702D01*
X29447810Y43513500D01*
X25002190Y43513500D01*
X25002185Y43513500D01*
X24947333Y43510562D01*
X24935356Y43509275D01*
X24920525Y43507680D01*
X24920517Y43507679D01*
X24920510Y43507678D01*
X24920505Y43507678D01*
X24866258Y43498887D01*
X24866240Y43498882D01*
X24729318Y43447812D01*
X24729301Y43447804D01*
X24667004Y43413786D01*
X24666993Y43413779D01*
X24640740Y43394126D01*
X24575276Y43369710D01*
X24507003Y43384562D01*
X24457598Y43433968D01*
X24442747Y43502241D01*
X24448046Y43530284D01*
X24451858Y43542517D01*
X24469086Y43597804D01*
X24475500Y43668384D01*
X24475500Y44181616D01*
X24469086Y44252196D01*
X24446613Y44324317D01*
X38245500Y44324317D01*
X38245500Y44175684D01*
X38274493Y44029928D01*
X38274495Y44029920D01*
X38331371Y43892609D01*
X38413939Y43769036D01*
X38413945Y43769029D01*
X38519028Y43663946D01*
X38519035Y43663940D01*
X38642608Y43581372D01*
X38642609Y43581372D01*
X38642610Y43581371D01*
X38779920Y43524495D01*
X38908686Y43498882D01*
X38925683Y43495501D01*
X38925687Y43495500D01*
X38925688Y43495500D01*
X39074313Y43495500D01*
X39074314Y43495501D01*
X39220080Y43524495D01*
X39357390Y43581371D01*
X39480966Y43663941D01*
X39586059Y43769034D01*
X39668629Y43892610D01*
X39725505Y44029920D01*
X39754500Y44175688D01*
X39754500Y44324312D01*
X39725505Y44470080D01*
X39668629Y44607390D01*
X39661093Y44618668D01*
X39586060Y44730965D01*
X39586054Y44730972D01*
X39480971Y44836055D01*
X39480964Y44836061D01*
X39357391Y44918629D01*
X39220080Y44975505D01*
X39220072Y44975507D01*
X39074316Y45004500D01*
X39074312Y45004500D01*
X38925688Y45004500D01*
X38925683Y45004500D01*
X38779927Y44975507D01*
X38779919Y44975505D01*
X38642608Y44918629D01*
X38519035Y44836061D01*
X38519028Y44836055D01*
X38413945Y44730972D01*
X38413939Y44730965D01*
X38331371Y44607392D01*
X38274495Y44470081D01*
X38274493Y44470073D01*
X38245500Y44324317D01*
X24446613Y44324317D01*
X24418478Y44414606D01*
X24330472Y44560185D01*
X24330470Y44560187D01*
X24330469Y44560189D01*
X24228339Y44662319D01*
X24194854Y44723642D01*
X24199838Y44793334D01*
X24228339Y44837681D01*
X24330468Y44939811D01*
X24330469Y44939812D01*
X24330472Y44939815D01*
X24418478Y45085394D01*
X24469086Y45247804D01*
X24475500Y45318384D01*
X24475500Y45432115D01*
X24495185Y45499154D01*
X24511814Y45519792D01*
X25495238Y46503216D01*
X25503195Y46507561D01*
X25508634Y46514821D01*
X25533384Y46524045D01*
X25556559Y46536699D01*
X25565604Y46536053D01*
X25574105Y46539220D01*
X25599911Y46533599D01*
X25626250Y46531715D01*
X25635317Y46525887D01*
X25642374Y46524349D01*
X25661128Y46509294D01*
X25670623Y46503190D01*
X25673778Y46500033D01*
X25673806Y46499996D01*
X25690451Y46483351D01*
X25690464Y46483327D01*
X25708283Y46460792D01*
X25757287Y46381345D01*
X25757288Y46381344D01*
X25881344Y46257288D01*
X26030666Y46165186D01*
X26197203Y46110001D01*
X26299991Y46099500D01*
X29400008Y46099501D01*
X29502797Y46110001D01*
X29563772Y46130206D01*
X29602776Y46136500D01*
X30585940Y46136500D01*
X30652979Y46116815D01*
X30673621Y46100181D01*
X31449979Y45323821D01*
X31449988Y45323813D01*
X31449995Y45323806D01*
X31490877Y45287083D01*
X31511851Y45270180D01*
X31511858Y45270175D01*
X31554477Y45239441D01*
X31556451Y45238018D01*
X31556455Y45238017D01*
X31556459Y45238014D01*
X31689394Y45177304D01*
X31689398Y45177303D01*
X31689400Y45177302D01*
X31757521Y45157300D01*
X31902190Y45136500D01*
X31902193Y45136500D01*
X32597815Y45136500D01*
X32652666Y45139439D01*
X32652677Y45139441D01*
X32652692Y45139441D01*
X32679475Y45142320D01*
X32679494Y45142323D01*
X32733741Y45151114D01*
X32733742Y45151115D01*
X32733752Y45151116D01*
X32803957Y45177302D01*
X32870681Y45202189D01*
X32870686Y45202192D01*
X32870693Y45202194D01*
X32933005Y45236220D01*
X33050004Y45323806D01*
X33050014Y45323817D01*
X33052326Y45325819D01*
X33053266Y45326249D01*
X33053549Y45326460D01*
X33053594Y45326399D01*
X33115880Y45354849D01*
X33185039Y45344910D01*
X33196657Y45338844D01*
X33222060Y45323821D01*
X33304602Y45275006D01*
X33346224Y45262914D01*
X33462426Y45229153D01*
X33462429Y45229153D01*
X33462431Y45229152D01*
X33499306Y45226250D01*
X33499314Y45226250D01*
X33930686Y45226250D01*
X33930694Y45226250D01*
X33967569Y45229152D01*
X33967571Y45229153D01*
X33967573Y45229153D01*
X34031769Y45247804D01*
X34125398Y45275006D01*
X34266865Y45358669D01*
X34266870Y45358675D01*
X34273031Y45363452D01*
X34274933Y45361000D01*
X34323579Y45387595D01*
X34393274Y45382646D01*
X34425695Y45361810D01*
X34426969Y45363452D01*
X34433132Y45358672D01*
X34433135Y45358669D01*
X34574602Y45275006D01*
X34616224Y45262914D01*
X34732426Y45229153D01*
X34732429Y45229153D01*
X34732431Y45229152D01*
X34769306Y45226250D01*
X34769314Y45226250D01*
X35200686Y45226250D01*
X35200694Y45226250D01*
X35237569Y45229152D01*
X35237571Y45229153D01*
X35237573Y45229153D01*
X35301769Y45247804D01*
X35395398Y45275006D01*
X35536865Y45358669D01*
X35536870Y45358675D01*
X35543031Y45363452D01*
X35544933Y45361000D01*
X35593579Y45387595D01*
X35663274Y45382646D01*
X35695695Y45361810D01*
X35696969Y45363452D01*
X35703132Y45358672D01*
X35703135Y45358669D01*
X35844602Y45275006D01*
X35886224Y45262914D01*
X36002426Y45229153D01*
X36002429Y45229153D01*
X36002431Y45229152D01*
X36039306Y45226250D01*
X36039314Y45226250D01*
X36470686Y45226250D01*
X36470694Y45226250D01*
X36507569Y45229152D01*
X36507571Y45229153D01*
X36507573Y45229153D01*
X36571769Y45247804D01*
X36665398Y45275006D01*
X36806865Y45358669D01*
X36923081Y45474885D01*
X37006744Y45616352D01*
X37045137Y45748500D01*
X37052597Y45774177D01*
X37052598Y45774183D01*
X37053347Y45783697D01*
X37055500Y45811056D01*
X37055500Y45871500D01*
X37058050Y45880186D01*
X37056762Y45889147D01*
X37067740Y45913188D01*
X37075185Y45938539D01*
X37082025Y45944467D01*
X37085787Y45952703D01*
X37108021Y45966993D01*
X37127989Y45984294D01*
X37138503Y45986582D01*
X37144565Y45990477D01*
X37179500Y45995500D01*
X37377718Y45995500D01*
X37428608Y45984576D01*
X37435389Y45981525D01*
X37435394Y45981522D01*
X37597804Y45930914D01*
X37668384Y45924500D01*
X37668387Y45924500D01*
X38331613Y45924500D01*
X38331616Y45924500D01*
X38402196Y45930914D01*
X38564606Y45981522D01*
X38710185Y46069528D01*
X38830472Y46189815D01*
X38918478Y46335394D01*
X38969086Y46497804D01*
X38975500Y46568384D01*
X38975500Y47081616D01*
X38969086Y47152196D01*
X38918478Y47314606D01*
X38830472Y47460185D01*
X38830470Y47460187D01*
X38830469Y47460189D01*
X38795791Y47494867D01*
X38762306Y47556190D01*
X38767290Y47625882D01*
X38799608Y47670254D01*
X38797937Y47671925D01*
X38851827Y47725815D01*
X38922968Y47796956D01*
X38959201Y47855700D01*
X39011147Y47902424D01*
X39080109Y47913647D01*
X39144192Y47885804D01*
G37*
%TD.AperFunction*%
%TA.AperFunction,Conductor*%
G36*
X57442539Y58729815D02*
G01*
X57488294Y58677011D01*
X57499500Y58625500D01*
X57499500Y40276061D01*
X57479815Y40209022D01*
X57427011Y40163267D01*
X57357853Y40153323D01*
X57294297Y40182348D01*
X57287819Y40188380D01*
X57150018Y40326181D01*
X57144270Y40331344D01*
X57109123Y40362917D01*
X57109112Y40362927D01*
X57094750Y40374500D01*
X57088149Y40379820D01*
X57060504Y40399756D01*
X57043551Y40411981D01*
X57043540Y40411987D01*
X56910605Y40472697D01*
X56842483Y40492699D01*
X56842471Y40492702D01*
X56697810Y40513500D01*
X56619309Y40513500D01*
X56552270Y40533185D01*
X56506515Y40585989D01*
X56496571Y40655147D01*
X56513191Y40701648D01*
X56513755Y40702583D01*
X56518478Y40710394D01*
X56569086Y40872804D01*
X56575500Y40943384D01*
X56575500Y41456616D01*
X56569086Y41527196D01*
X56518478Y41689606D01*
X56430472Y41835185D01*
X56430470Y41835187D01*
X56430469Y41835189D01*
X56310188Y41955470D01*
X56298031Y41962819D01*
X56164606Y42043478D01*
X56002196Y42094086D01*
X56002194Y42094087D01*
X56002192Y42094087D01*
X55952778Y42098577D01*
X55931616Y42100500D01*
X55268384Y42100500D01*
X55215449Y42095690D01*
X55197803Y42094086D01*
X55185057Y42090114D01*
X55148169Y42084500D01*
X54595139Y42084500D01*
X54528100Y42104185D01*
X54482345Y42156989D01*
X54476063Y42173905D01*
X54456746Y42240394D01*
X54456744Y42240397D01*
X54456744Y42240398D01*
X54373081Y42381865D01*
X54373079Y42381867D01*
X54373076Y42381871D01*
X54256870Y42498077D01*
X54256862Y42498083D01*
X54178681Y42544319D01*
X54115398Y42581744D01*
X54115397Y42581745D01*
X54115396Y42581745D01*
X54115393Y42581746D01*
X53957573Y42627598D01*
X53957567Y42627599D01*
X53920701Y42630500D01*
X53920694Y42630500D01*
X53489306Y42630500D01*
X53489298Y42630500D01*
X53452432Y42627599D01*
X53452426Y42627598D01*
X53294606Y42581746D01*
X53294603Y42581745D01*
X53153137Y42498083D01*
X53146969Y42493298D01*
X53145072Y42495744D01*
X53096358Y42469143D01*
X53026666Y42474127D01*
X52999793Y42488099D01*
X52990384Y42494562D01*
X52986865Y42498081D01*
X52975324Y42504907D01*
X52971851Y42507292D01*
X52969697Y42509937D01*
X52954376Y42521822D01*
X52900018Y42576181D01*
X52900002Y42576195D01*
X52859123Y42612917D01*
X52859112Y42612927D01*
X52846852Y42622806D01*
X52838149Y42629820D01*
X52795227Y42660772D01*
X52793551Y42661981D01*
X52793540Y42661987D01*
X52660605Y42722697D01*
X52592483Y42742699D01*
X52592471Y42742702D01*
X52447810Y42763500D01*
X51052190Y42763500D01*
X51052185Y42763500D01*
X50997333Y42760562D01*
X50986172Y42759362D01*
X50970525Y42757680D01*
X50970517Y42757679D01*
X50970510Y42757678D01*
X50970505Y42757678D01*
X50916258Y42748887D01*
X50916240Y42748882D01*
X50779318Y42697812D01*
X50779301Y42697804D01*
X50717004Y42663786D01*
X50716998Y42663782D01*
X50716996Y42663781D01*
X50716995Y42663780D01*
X50690694Y42644091D01*
X50599997Y42576195D01*
X50599985Y42576185D01*
X50377319Y42353519D01*
X50340573Y42312613D01*
X50323680Y42291649D01*
X50291519Y42247052D01*
X50291513Y42247041D01*
X50230803Y42114106D01*
X50210801Y42045984D01*
X50210798Y42045972D01*
X50190000Y41901311D01*
X50190000Y40677011D01*
X50185070Y40642394D01*
X50183496Y40636980D01*
X50171158Y40608475D01*
X50154436Y40580200D01*
X50144258Y40565519D01*
X50111403Y40524747D01*
X50111402Y40524745D01*
X50083075Y40480666D01*
X50082437Y40479674D01*
X50033304Y40381519D01*
X50033304Y40381517D01*
X50030338Y40367884D01*
X50004694Y40250000D01*
X50002235Y40238698D01*
X50002234Y40238694D01*
X49997170Y40167885D01*
X49997170Y40167877D01*
X50007599Y40022089D01*
X50058673Y39885158D01*
X50058679Y39885145D01*
X50092702Y39822838D01*
X50092706Y39822832D01*
X50180275Y39705856D01*
X50180280Y39705850D01*
X50180287Y39705841D01*
X50180294Y39705834D01*
X50213495Y39672632D01*
X50231350Y39650051D01*
X50243134Y39630947D01*
X50255303Y39604851D01*
X50263706Y39579492D01*
X50270000Y39540489D01*
X50270000Y39009512D01*
X50263705Y38970505D01*
X50255301Y38945146D01*
X50243139Y38919064D01*
X50235575Y38906800D01*
X50235546Y38906750D01*
X50211307Y38862777D01*
X50200489Y38840657D01*
X50180660Y38794519D01*
X50149591Y38651702D01*
X50149590Y38651695D01*
X50146115Y38603103D01*
X50144526Y38580885D01*
X50144526Y38580877D01*
X50146113Y38558697D01*
X50154955Y38435090D01*
X50206029Y38298159D01*
X50206035Y38298146D01*
X50240057Y38235841D01*
X50303966Y38150469D01*
X50327642Y38118842D01*
X50327645Y38118839D01*
X50327651Y38118832D01*
X50358240Y38088243D01*
X50376095Y38065663D01*
X50390948Y38041582D01*
X50403113Y38015494D01*
X50413488Y37984186D01*
X50419141Y37957784D01*
X50419357Y37955670D01*
X50419999Y37943066D01*
X50419999Y36606937D01*
X50419351Y36594281D01*
X50419134Y36592166D01*
X50413488Y36565820D01*
X50403115Y36534515D01*
X50390948Y36508421D01*
X50376095Y36484340D01*
X50358237Y36461755D01*
X50338242Y36441760D01*
X50315662Y36423905D01*
X50290279Y36408248D01*
X50290270Y36408242D01*
X50200129Y36337643D01*
X50160276Y36298521D01*
X50160272Y36298516D01*
X50088018Y36209698D01*
X50027303Y36076751D01*
X50007301Y36008632D01*
X50007298Y36008620D01*
X49986500Y35863959D01*
X49986500Y35007831D01*
X49966815Y34940792D01*
X49950181Y34920150D01*
X49579850Y34549819D01*
X49518527Y34516334D01*
X49492169Y34513500D01*
X46765138Y34513500D01*
X46698099Y34533185D01*
X46652344Y34585989D01*
X46642400Y34655147D01*
X46660601Y34700210D01*
X46658921Y34701186D01*
X46661975Y34706443D01*
X46661982Y34706451D01*
X46713212Y34818629D01*
X46722696Y34839395D01*
X46722696Y34839397D01*
X46722698Y34839400D01*
X46742700Y34907521D01*
X46763500Y35052190D01*
X46763500Y39485941D01*
X46783185Y39552980D01*
X46799819Y39573622D01*
X47178211Y39952013D01*
X47576194Y40349996D01*
X47612917Y40390878D01*
X47629820Y40411852D01*
X47661982Y40456452D01*
X47688035Y40513500D01*
X47722696Y40589396D01*
X47722696Y40589398D01*
X47722698Y40589401D01*
X47742700Y40657522D01*
X47763500Y40802191D01*
X47763500Y42697810D01*
X47762509Y42716303D01*
X47760561Y42752667D01*
X47760559Y42752680D01*
X47760559Y42752692D01*
X47757680Y42779475D01*
X47757677Y42779495D01*
X47748886Y42833742D01*
X47748885Y42833746D01*
X47748884Y42833752D01*
X47725029Y42897708D01*
X47697811Y42970682D01*
X47697803Y42970699D01*
X47663785Y43032996D01*
X47663784Y43032997D01*
X47663780Y43033005D01*
X47576194Y43150004D01*
X47576189Y43150009D01*
X47576184Y43150015D01*
X47400018Y43326181D01*
X47398783Y43327290D01*
X47359123Y43362917D01*
X47359112Y43362927D01*
X47344872Y43374402D01*
X47338149Y43379820D01*
X47299526Y43407672D01*
X47293551Y43411981D01*
X47293540Y43411987D01*
X47160605Y43472697D01*
X47092483Y43492699D01*
X47092471Y43492702D01*
X46947810Y43513500D01*
X42099500Y43513500D01*
X42032461Y43533185D01*
X41986706Y43585989D01*
X41975500Y43637500D01*
X41975499Y43973337D01*
X41975498Y43973356D01*
X41965349Y44072708D01*
X41965348Y44072711D01*
X41957600Y44096093D01*
X41912003Y44233697D01*
X41911999Y44233703D01*
X41911998Y44233706D01*
X41822970Y44378041D01*
X41822967Y44378045D01*
X41813693Y44387319D01*
X41780208Y44448642D01*
X41785192Y44518334D01*
X41813693Y44562681D01*
X41822968Y44571956D01*
X41912003Y44716303D01*
X41965349Y44877292D01*
X41975500Y44976655D01*
X41975499Y45523344D01*
X41975381Y45524495D01*
X41965349Y45622708D01*
X41965348Y45622711D01*
X41912003Y45783697D01*
X41911999Y45783703D01*
X41911998Y45783706D01*
X41822970Y45928041D01*
X41822967Y45928045D01*
X41790819Y45960193D01*
X41776115Y45987121D01*
X41759523Y46012939D01*
X41758631Y46019140D01*
X41757334Y46021516D01*
X41754500Y46047874D01*
X41754500Y46087481D01*
X41774185Y46154520D01*
X41790820Y46175163D01*
X41805472Y46189815D01*
X41830472Y46214815D01*
X41918478Y46360394D01*
X41969086Y46522804D01*
X41975500Y46593384D01*
X41975500Y47106616D01*
X41969086Y47177196D01*
X41918478Y47339606D01*
X41830472Y47485185D01*
X41830470Y47485187D01*
X41830469Y47485189D01*
X41781839Y47533819D01*
X41748354Y47595142D01*
X41753338Y47664834D01*
X41795210Y47720767D01*
X41860674Y47745184D01*
X41869520Y47745500D01*
X42862500Y47745500D01*
X42929539Y47725815D01*
X42975294Y47673011D01*
X42986500Y47621500D01*
X42986500Y46802185D01*
X42989438Y46747334D01*
X42992322Y46720511D01*
X42992322Y46720506D01*
X43001113Y46666259D01*
X43001118Y46666241D01*
X43052188Y46529319D01*
X43052196Y46529302D01*
X43086214Y46467005D01*
X43086216Y46467001D01*
X43086220Y46466995D01*
X43173806Y46349996D01*
X43173810Y46349992D01*
X43173815Y46349986D01*
X43349981Y46173820D01*
X43349990Y46173812D01*
X43349996Y46173806D01*
X43390877Y46137083D01*
X43390882Y46137079D01*
X43390892Y46137070D01*
X43411828Y46120197D01*
X43411834Y46120193D01*
X43411842Y46120188D01*
X43411851Y46120180D01*
X43456476Y46088001D01*
X43466892Y46083245D01*
X43495712Y46064723D01*
X43559833Y46040808D01*
X43589429Y46027294D01*
X43589433Y46027293D01*
X43589435Y46027292D01*
X43616349Y46019391D01*
X43616360Y46019388D01*
X43620602Y46018143D01*
X43632655Y46013647D01*
X43645199Y46010919D01*
X43657522Y46007300D01*
X43802190Y45986500D01*
X47985940Y45986500D01*
X48052979Y45966815D01*
X48073621Y45950181D01*
X48599985Y45423816D01*
X48599994Y45423808D01*
X48600000Y45423802D01*
X48621547Y45404447D01*
X48640892Y45387069D01*
X48661851Y45370179D01*
X48661860Y45370172D01*
X48705306Y45338844D01*
X48706457Y45338014D01*
X48839394Y45277304D01*
X48839398Y45277303D01*
X48839400Y45277302D01*
X48907521Y45257300D01*
X49052190Y45236500D01*
X49052193Y45236500D01*
X49947815Y45236500D01*
X50002666Y45239439D01*
X50002677Y45239441D01*
X50002692Y45239441D01*
X50029475Y45242320D01*
X50029494Y45242323D01*
X50083741Y45251114D01*
X50083742Y45251115D01*
X50083752Y45251116D01*
X50153957Y45277302D01*
X50220681Y45302189D01*
X50220686Y45302192D01*
X50220693Y45302194D01*
X50283005Y45336220D01*
X50400004Y45423806D01*
X50414383Y45438187D01*
X50431851Y45452710D01*
X50435308Y45455085D01*
X50446865Y45461919D01*
X50450391Y45465446D01*
X50459791Y45471902D01*
X50482558Y45479354D01*
X50503578Y45490845D01*
X50515159Y45490023D01*
X50526195Y45493634D01*
X50549377Y45487593D01*
X50573273Y45485896D01*
X50585140Y45478274D01*
X50593807Y45476015D01*
X50601280Y45467907D01*
X50605700Y45465068D01*
X50606969Y45466702D01*
X50613132Y45461922D01*
X50613135Y45461919D01*
X50754602Y45378256D01*
X50782403Y45370179D01*
X50912426Y45332403D01*
X50912429Y45332403D01*
X50912431Y45332402D01*
X50949306Y45329500D01*
X50949314Y45329500D01*
X51380686Y45329500D01*
X51380694Y45329500D01*
X51417569Y45332402D01*
X51417571Y45332403D01*
X51417573Y45332403D01*
X51507976Y45358668D01*
X51575398Y45378256D01*
X51716865Y45461919D01*
X51716870Y45461925D01*
X51723031Y45466702D01*
X51724933Y45464250D01*
X51773579Y45490845D01*
X51843274Y45485896D01*
X51875695Y45465060D01*
X51876969Y45466702D01*
X51883132Y45461922D01*
X51883135Y45461919D01*
X52024602Y45378256D01*
X52052403Y45370179D01*
X52182426Y45332403D01*
X52182429Y45332403D01*
X52182431Y45332402D01*
X52219306Y45329500D01*
X52219314Y45329500D01*
X52650686Y45329500D01*
X52650694Y45329500D01*
X52687569Y45332402D01*
X52687571Y45332403D01*
X52687573Y45332403D01*
X52777976Y45358668D01*
X52845398Y45378256D01*
X52986865Y45461919D01*
X52986870Y45461925D01*
X52993031Y45466702D01*
X52994933Y45464250D01*
X53043579Y45490845D01*
X53113274Y45485896D01*
X53145695Y45465060D01*
X53146969Y45466702D01*
X53153132Y45461922D01*
X53153135Y45461919D01*
X53294602Y45378256D01*
X53322403Y45370179D01*
X53452426Y45332403D01*
X53452429Y45332403D01*
X53452431Y45332402D01*
X53489306Y45329500D01*
X53489314Y45329500D01*
X53920686Y45329500D01*
X53920694Y45329500D01*
X53957569Y45332402D01*
X53957571Y45332403D01*
X53957573Y45332403D01*
X54047976Y45358668D01*
X54115398Y45378256D01*
X54256865Y45461919D01*
X54373081Y45578135D01*
X54456744Y45719602D01*
X54500875Y45871500D01*
X54502597Y45877427D01*
X54502598Y45877433D01*
X54502897Y45881229D01*
X54503654Y45883218D01*
X54503737Y45883667D01*
X54503820Y45883652D01*
X54527781Y45946517D01*
X54584012Y45987988D01*
X54626515Y45995500D01*
X55051893Y45995500D01*
X55088782Y45989886D01*
X55197804Y45955914D01*
X55268384Y45949500D01*
X55268387Y45949500D01*
X55931613Y45949500D01*
X55931616Y45949500D01*
X56002196Y45955914D01*
X56164606Y46006522D01*
X56310185Y46094528D01*
X56430472Y46214815D01*
X56518478Y46360394D01*
X56569086Y46522804D01*
X56575500Y46593384D01*
X56575500Y47106616D01*
X56569086Y47177196D01*
X56518478Y47339606D01*
X56430472Y47485185D01*
X56430470Y47485187D01*
X56430469Y47485189D01*
X56346016Y47569642D01*
X56312531Y47630965D01*
X56317515Y47700657D01*
X56346016Y47745004D01*
X56346512Y47745500D01*
X56422968Y47821956D01*
X56512003Y47966303D01*
X56565349Y48127292D01*
X56575500Y48226655D01*
X56575499Y48773344D01*
X56573544Y48792479D01*
X56565349Y48872708D01*
X56565348Y48872711D01*
X56512003Y49033697D01*
X56511999Y49033703D01*
X56511998Y49033706D01*
X56422970Y49178041D01*
X56422967Y49178045D01*
X56413693Y49187319D01*
X56380208Y49248642D01*
X56385192Y49318334D01*
X56413693Y49362681D01*
X56417569Y49366557D01*
X56422968Y49371956D01*
X56512003Y49516303D01*
X56565349Y49677292D01*
X56575500Y49776655D01*
X56575499Y50323344D01*
X56574903Y50329174D01*
X56565349Y50422708D01*
X56565348Y50422711D01*
X56543909Y50487410D01*
X56512003Y50583697D01*
X56511999Y50583703D01*
X56511998Y50583706D01*
X56422970Y50728041D01*
X56422969Y50728042D01*
X56422968Y50728044D01*
X56303044Y50847968D01*
X56303043Y50847969D01*
X56303042Y50847970D01*
X56288326Y50857047D01*
X56241602Y50908996D01*
X56231808Y50938390D01*
X56225505Y50970080D01*
X56168629Y51107390D01*
X56165680Y51111803D01*
X56086060Y51230965D01*
X56086054Y51230972D01*
X55980971Y51336055D01*
X55980964Y51336061D01*
X55857391Y51418629D01*
X55720080Y51475505D01*
X55720072Y51475507D01*
X55574316Y51504500D01*
X55574312Y51504500D01*
X55425688Y51504500D01*
X55425683Y51504500D01*
X55279927Y51475507D01*
X55279919Y51475505D01*
X55142608Y51418629D01*
X55019035Y51336061D01*
X55019028Y51336055D01*
X54913945Y51230972D01*
X54913939Y51230965D01*
X54831371Y51107392D01*
X54774495Y50970081D01*
X54774493Y50970075D01*
X54752738Y50860707D01*
X54720353Y50798796D01*
X54659637Y50764222D01*
X54589867Y50767963D01*
X54543440Y50797218D01*
X54485188Y50855470D01*
X54482804Y50856911D01*
X54339606Y50943478D01*
X54177196Y50994086D01*
X54177194Y50994087D01*
X54177192Y50994087D01*
X54127778Y50998577D01*
X54106616Y51000500D01*
X53443384Y51000500D01*
X53424145Y50998752D01*
X53372807Y50994087D01*
X53210393Y50943478D01*
X53193119Y50933035D01*
X53092788Y50872383D01*
X53076534Y50867852D01*
X53063575Y50859523D01*
X53028640Y50854500D01*
X52846360Y50854500D01*
X52782211Y50872383D01*
X52664606Y50943478D01*
X52502196Y50994086D01*
X52502194Y50994087D01*
X52502192Y50994087D01*
X52452778Y50998577D01*
X52431616Y51000500D01*
X51918384Y51000500D01*
X51899145Y50998752D01*
X51847807Y50994087D01*
X51685393Y50943478D01*
X51539811Y50855470D01*
X51539810Y50855469D01*
X51437681Y50753339D01*
X51376358Y50719854D01*
X51306666Y50724838D01*
X51262319Y50753339D01*
X51160188Y50855470D01*
X51160185Y50855472D01*
X51014606Y50943478D01*
X51014603Y50943479D01*
X50941131Y50966374D01*
X50890341Y50997078D01*
X50266545Y51620874D01*
X50233060Y51682197D01*
X50232622Y51684298D01*
X50225505Y51720080D01*
X50168629Y51857390D01*
X50135220Y51907390D01*
X50086060Y51980965D01*
X50086054Y51980972D01*
X49980971Y52086055D01*
X49980964Y52086061D01*
X49857391Y52168629D01*
X49720080Y52225505D01*
X49720072Y52225507D01*
X49574316Y52254500D01*
X49574312Y52254500D01*
X49425688Y52254500D01*
X49425683Y52254500D01*
X49279927Y52225507D01*
X49279919Y52225505D01*
X49142608Y52168629D01*
X49019035Y52086061D01*
X49019028Y52086055D01*
X48913945Y51980972D01*
X48913939Y51980965D01*
X48831371Y51857392D01*
X48774495Y51720081D01*
X48774493Y51720073D01*
X48745500Y51574317D01*
X48745500Y51425684D01*
X48764549Y51329920D01*
X48774495Y51279920D01*
X48793913Y51233040D01*
X48819217Y51171953D01*
X48826686Y51102484D01*
X48795411Y51040004D01*
X48735322Y51004352D01*
X48704656Y51000500D01*
X48668384Y51000500D01*
X48649145Y50998752D01*
X48597807Y50994087D01*
X48435393Y50943478D01*
X48289811Y50855470D01*
X48289810Y50855469D01*
X48187681Y50753339D01*
X48126358Y50719854D01*
X48056666Y50724838D01*
X48012319Y50753339D01*
X47910188Y50855470D01*
X47907804Y50856911D01*
X47764606Y50943478D01*
X47602196Y50994086D01*
X47602194Y50994087D01*
X47602192Y50994087D01*
X47552778Y50998577D01*
X47531616Y51000500D01*
X47018384Y51000500D01*
X46999145Y50998752D01*
X46947807Y50994087D01*
X46785393Y50943478D01*
X46639811Y50855470D01*
X46639811Y50855469D01*
X46600163Y50815820D01*
X46573234Y50801116D01*
X46547416Y50784523D01*
X46541216Y50783632D01*
X46538840Y50782334D01*
X46512481Y50779500D01*
X46426534Y50779500D01*
X46359495Y50799185D01*
X46338853Y50815819D01*
X46305391Y50849281D01*
X46305387Y50849284D01*
X46162295Y50937545D01*
X46162289Y50937548D01*
X46162287Y50937549D01*
X46002685Y50990436D01*
X46002683Y50990437D01*
X45904181Y51000500D01*
X45904174Y51000500D01*
X45370826Y51000500D01*
X45370818Y51000500D01*
X45272316Y50990437D01*
X45272315Y50990436D01*
X45227139Y50975466D01*
X45112715Y50937550D01*
X45112704Y50937545D01*
X44969612Y50849284D01*
X44969608Y50849281D01*
X44850719Y50730392D01*
X44850716Y50730388D01*
X44762455Y50587296D01*
X44762450Y50587285D01*
X44735773Y50506781D01*
X44709564Y50427685D01*
X44709564Y50427684D01*
X44709563Y50427684D01*
X44699500Y50329182D01*
X44699500Y49720817D01*
X44706725Y49650102D01*
X44693956Y49581409D01*
X44646075Y49530525D01*
X44583367Y49513500D01*
X43802185Y49513500D01*
X43747333Y49510562D01*
X43735356Y49509275D01*
X43720525Y49507680D01*
X43720517Y49507679D01*
X43720510Y49507678D01*
X43720505Y49507678D01*
X43666258Y49498887D01*
X43666240Y49498882D01*
X43529318Y49447812D01*
X43529301Y49447804D01*
X43467004Y49413786D01*
X43466998Y49413782D01*
X43466996Y49413781D01*
X43466995Y49413780D01*
X43440128Y49393667D01*
X43349997Y49326195D01*
X43349986Y49326186D01*
X43314622Y49290820D01*
X43253300Y49257334D01*
X43226940Y49254500D01*
X42797001Y49254500D01*
X42729962Y49274185D01*
X42684207Y49326989D01*
X42674263Y49396147D01*
X42682440Y49425953D01*
X42691492Y49447806D01*
X42725505Y49529920D01*
X42754500Y49675688D01*
X42754500Y49824312D01*
X42725505Y49970080D01*
X42668629Y50107390D01*
X42668628Y50107392D01*
X42648397Y50137671D01*
X42627520Y50204349D01*
X42627500Y50206560D01*
X42627500Y51111806D01*
X42603386Y51233030D01*
X42603385Y51233031D01*
X42603385Y51233035D01*
X42601573Y51237410D01*
X42556086Y51347227D01*
X42556079Y51347240D01*
X42501042Y51429609D01*
X42480164Y51496287D01*
X42498649Y51563667D01*
X42550628Y51610357D01*
X42604144Y51622500D01*
X46967804Y51622500D01*
X46967805Y51622501D01*
X47089035Y51646614D01*
X47176961Y51683035D01*
X47203233Y51693917D01*
X47306008Y51762589D01*
X47393411Y51849992D01*
X49387411Y53843992D01*
X49419834Y53892517D01*
X49456083Y53946767D01*
X49501363Y54056083D01*
X49503386Y54060966D01*
X49527500Y54182197D01*
X49527500Y54305803D01*
X49527500Y56960481D01*
X49536144Y56989922D01*
X49542667Y57019906D01*
X49546422Y57024923D01*
X49547185Y57027520D01*
X49563817Y57048160D01*
X49573142Y57057485D01*
X49587318Y57071662D01*
X49648638Y57105147D01*
X49718330Y57100164D01*
X49762680Y57071662D01*
X49864811Y56969531D01*
X49864813Y56969530D01*
X49864815Y56969528D01*
X50010394Y56881522D01*
X50172804Y56830914D01*
X50243384Y56824500D01*
X50243387Y56824500D01*
X50756613Y56824500D01*
X50756616Y56824500D01*
X50827196Y56830914D01*
X50989606Y56881522D01*
X51135185Y56969528D01*
X51157139Y56991483D01*
X51218459Y57024969D01*
X51288151Y57019987D01*
X51332503Y56991485D01*
X51396955Y56927033D01*
X51396959Y56927030D01*
X51541294Y56838002D01*
X51541297Y56838001D01*
X51541303Y56837997D01*
X51702292Y56784651D01*
X51801655Y56774500D01*
X52348344Y56774501D01*
X52348352Y56774502D01*
X52348355Y56774502D01*
X52411124Y56780914D01*
X52447708Y56784651D01*
X52608697Y56837997D01*
X52753044Y56927032D01*
X52872968Y57046956D01*
X52962003Y57191303D01*
X53015349Y57352292D01*
X53025500Y57451655D01*
X53025499Y58048344D01*
X53015349Y58147708D01*
X52962003Y58308697D01*
X52961999Y58308703D01*
X52961998Y58308706D01*
X52872970Y58453041D01*
X52872967Y58453045D01*
X52788193Y58537819D01*
X52754708Y58599142D01*
X52759692Y58668834D01*
X52801564Y58724767D01*
X52867028Y58749184D01*
X52875874Y58749500D01*
X57375500Y58749500D01*
X57442539Y58729815D01*
G37*
%TD.AperFunction*%
%TA.AperFunction,Conductor*%
G36*
X13712316Y42209054D02*
G01*
X13747968Y42148965D01*
X13749437Y42094110D01*
X13749434Y42094087D01*
X13745500Y42074311D01*
X13745500Y41925684D01*
X13774493Y41779928D01*
X13774495Y41779920D01*
X13831371Y41642609D01*
X13913939Y41519036D01*
X13913945Y41519029D01*
X14019028Y41413946D01*
X14019035Y41413940D01*
X14142608Y41331372D01*
X14142609Y41331372D01*
X14142610Y41331371D01*
X14279920Y41274495D01*
X14403065Y41250000D01*
X14425683Y41245501D01*
X14425687Y41245500D01*
X14425688Y41245500D01*
X14574313Y41245500D01*
X14574314Y41245501D01*
X14720080Y41274495D01*
X14857390Y41331371D01*
X14980966Y41413941D01*
X15034434Y41467410D01*
X15095754Y41500894D01*
X15146303Y41501345D01*
X15175688Y41495500D01*
X15175689Y41495500D01*
X15324313Y41495500D01*
X15324314Y41495501D01*
X15470080Y41524495D01*
X15526751Y41547970D01*
X15596217Y41555439D01*
X15658697Y41524165D01*
X15661884Y41521090D01*
X15769028Y41413946D01*
X15769035Y41413940D01*
X15892608Y41331372D01*
X15892609Y41331372D01*
X15892610Y41331371D01*
X16029920Y41274495D01*
X16065635Y41267391D01*
X16082393Y41258626D01*
X16100872Y41254606D01*
X16125904Y41235867D01*
X16127546Y41235008D01*
X16129126Y41233455D01*
X16241134Y41121447D01*
X16274619Y41060124D01*
X16269635Y40990432D01*
X16227763Y40934499D01*
X16162299Y40910082D01*
X16106000Y40919205D01*
X15970080Y40975505D01*
X15970072Y40975507D01*
X15824316Y41004500D01*
X15824312Y41004500D01*
X15675688Y41004500D01*
X15675683Y41004500D01*
X15529927Y40975507D01*
X15529919Y40975505D01*
X15392608Y40918629D01*
X15269035Y40836061D01*
X15269028Y40836055D01*
X15163945Y40730972D01*
X15163939Y40730965D01*
X15081371Y40607392D01*
X15024495Y40470081D01*
X15024493Y40470073D01*
X14995500Y40324317D01*
X14995500Y40175684D01*
X15024493Y40029928D01*
X15024495Y40029920D01*
X15081371Y39892609D01*
X15163939Y39769036D01*
X15163945Y39769029D01*
X15269028Y39663946D01*
X15269035Y39663940D01*
X15392608Y39581372D01*
X15392609Y39581372D01*
X15392610Y39581371D01*
X15529920Y39524495D01*
X15675683Y39495501D01*
X15675687Y39495500D01*
X15675688Y39495500D01*
X15824313Y39495500D01*
X15824314Y39495501D01*
X15970080Y39524495D01*
X16107390Y39581371D01*
X16230966Y39663941D01*
X16336059Y39769034D01*
X16418629Y39892610D01*
X16475505Y40029920D01*
X16504500Y40175688D01*
X16504500Y40324312D01*
X16475505Y40470080D01*
X16419203Y40606003D01*
X16417999Y40617207D01*
X16412599Y40627096D01*
X16414331Y40651321D01*
X16411735Y40675470D01*
X16416779Y40685547D01*
X16417583Y40696788D01*
X16432138Y40716232D01*
X16443010Y40737950D01*
X16452702Y40743701D01*
X16459455Y40752721D01*
X16482210Y40761209D01*
X16503099Y40773602D01*
X16514360Y40773200D01*
X16524919Y40777138D01*
X16548649Y40771976D01*
X16572924Y40771109D01*
X16583953Y40764296D01*
X16593192Y40762286D01*
X16621446Y40741135D01*
X16762589Y40599992D01*
X16827287Y40535294D01*
X16849994Y40512587D01*
X16849996Y40512586D01*
X16952756Y40443924D01*
X16952758Y40443923D01*
X16952767Y40443917D01*
X16977772Y40433560D01*
X17000071Y40424323D01*
X17030160Y40411860D01*
X17066966Y40396614D01*
X17178142Y40374500D01*
X17188192Y40372501D01*
X17188196Y40372500D01*
X17188197Y40372500D01*
X17311804Y40372500D01*
X18817306Y40372500D01*
X18833719Y40367681D01*
X18850823Y40367884D01*
X18866547Y40358042D01*
X18884345Y40352815D01*
X18895545Y40339889D01*
X18910046Y40330812D01*
X18917953Y40314030D01*
X18930100Y40300011D01*
X18932685Y40282761D01*
X18939825Y40267606D01*
X18940245Y40232314D01*
X18924446Y40112314D01*
X18896179Y40048418D01*
X18837854Y40009947D01*
X18801507Y40004500D01*
X18675683Y40004500D01*
X18529927Y39975507D01*
X18529919Y39975505D01*
X18392608Y39918629D01*
X18269035Y39836061D01*
X18269028Y39836055D01*
X18163945Y39730972D01*
X18163939Y39730965D01*
X18081371Y39607392D01*
X18024495Y39470081D01*
X18024493Y39470073D01*
X17995500Y39324317D01*
X17995500Y39175684D01*
X18024493Y39029928D01*
X18024495Y39029920D01*
X18075740Y38906203D01*
X18081371Y38892610D01*
X18126910Y38824455D01*
X18130629Y38818890D01*
X18151506Y38752213D01*
X18133021Y38684833D01*
X18130638Y38681125D01*
X18110979Y38651702D01*
X18081370Y38607389D01*
X18024495Y38470081D01*
X18024493Y38470073D01*
X17995500Y38324317D01*
X17995500Y38217508D01*
X17993263Y38209891D01*
X17994533Y38202054D01*
X17983560Y38176847D01*
X17975815Y38150469D01*
X17969105Y38143639D01*
X17966647Y38137991D01*
X17940390Y38114405D01*
X17923571Y38103167D01*
X17856894Y38082290D01*
X17789514Y38100775D01*
X17742824Y38152754D01*
X17733064Y38182076D01*
X17725505Y38220080D01*
X17668629Y38357390D01*
X17641688Y38397710D01*
X17586060Y38480965D01*
X17586054Y38480972D01*
X17480971Y38586055D01*
X17480964Y38586061D01*
X17357391Y38668629D01*
X17220080Y38725505D01*
X17220072Y38725507D01*
X17074316Y38754500D01*
X17074312Y38754500D01*
X16925688Y38754500D01*
X16925683Y38754500D01*
X16779927Y38725507D01*
X16779919Y38725505D01*
X16642608Y38668629D01*
X16519035Y38586061D01*
X16519028Y38586055D01*
X16413945Y38480972D01*
X16413939Y38480965D01*
X16331371Y38357392D01*
X16274495Y38220081D01*
X16274494Y38220076D01*
X16273241Y38213779D01*
X16240851Y38151870D01*
X16180133Y38117300D01*
X16110363Y38121045D01*
X16082734Y38134877D01*
X16080967Y38136058D01*
X16080966Y38136059D01*
X15986475Y38199195D01*
X15957389Y38218630D01*
X15820080Y38275505D01*
X15820072Y38275507D01*
X15674316Y38304500D01*
X15674312Y38304500D01*
X15525688Y38304500D01*
X15525683Y38304500D01*
X15379927Y38275507D01*
X15379919Y38275505D01*
X15242608Y38218629D01*
X15119035Y38136061D01*
X15119028Y38136055D01*
X15013945Y38030972D01*
X15013939Y38030965D01*
X14931371Y37907392D01*
X14889590Y37806523D01*
X14845749Y37752120D01*
X14779455Y37730055D01*
X14711755Y37747334D01*
X14664145Y37798472D01*
X14653412Y37829785D01*
X14634593Y37924389D01*
X14625505Y37970080D01*
X14568629Y38107390D01*
X14562007Y38117300D01*
X14486060Y38230965D01*
X14486054Y38230972D01*
X14380970Y38336056D01*
X14380966Y38336059D01*
X14289911Y38396900D01*
X14245108Y38450509D01*
X14236400Y38519834D01*
X14266554Y38582862D01*
X14289907Y38603099D01*
X14380966Y38663941D01*
X14486059Y38769034D01*
X14568629Y38892610D01*
X14625505Y39029920D01*
X14654500Y39175688D01*
X14654500Y39324312D01*
X14625505Y39470080D01*
X14568629Y39607390D01*
X14556828Y39625051D01*
X14486060Y39730965D01*
X14486054Y39730972D01*
X14380971Y39836055D01*
X14380964Y39836061D01*
X14257391Y39918629D01*
X14120080Y39975505D01*
X14120072Y39975507D01*
X13974316Y40004500D01*
X13974312Y40004500D01*
X13825688Y40004500D01*
X13825683Y40004500D01*
X13679927Y39975507D01*
X13679919Y39975505D01*
X13542608Y39918629D01*
X13419035Y39836061D01*
X13419028Y39836055D01*
X13313945Y39730972D01*
X13286818Y39690373D01*
X13233205Y39645569D01*
X13163880Y39636862D01*
X13100853Y39667017D01*
X13064134Y39726461D01*
X13060777Y39775451D01*
X13061310Y39779495D01*
X13075500Y39887280D01*
X13075500Y40112720D01*
X13060687Y40225236D01*
X13060686Y40225237D01*
X13059626Y40233295D01*
X13062689Y40233699D01*
X13062689Y40266302D01*
X13059626Y40266705D01*
X13064011Y40300011D01*
X13075500Y40387280D01*
X13075500Y40612720D01*
X13060687Y40725236D01*
X13060686Y40725237D01*
X13059626Y40733295D01*
X13062689Y40733699D01*
X13062689Y40766302D01*
X13059626Y40766705D01*
X13060687Y40774764D01*
X13075500Y40887280D01*
X13075500Y41112720D01*
X13060687Y41225236D01*
X13060686Y41225237D01*
X13059626Y41233295D01*
X13062689Y41233699D01*
X13062689Y41266302D01*
X13059626Y41266705D01*
X13064826Y41306204D01*
X13075500Y41387280D01*
X13075500Y41612720D01*
X13060687Y41725236D01*
X13060686Y41725237D01*
X13059626Y41733295D01*
X13062689Y41733699D01*
X13062689Y41766302D01*
X13059626Y41766705D01*
X13061367Y41779928D01*
X13075500Y41887280D01*
X13075500Y42050500D01*
X13095185Y42117539D01*
X13147989Y42163294D01*
X13199500Y42174500D01*
X13362713Y42174500D01*
X13362720Y42174500D01*
X13475236Y42189313D01*
X13580367Y42232861D01*
X13649837Y42240329D01*
X13712316Y42209054D01*
G37*
%TD.AperFunction*%
%TA.AperFunction,Conductor*%
G36*
X17509278Y42187311D02*
G01*
X17516302Y42187311D01*
X17516705Y42190374D01*
X17524763Y42189314D01*
X17524764Y42189313D01*
X17637280Y42174500D01*
X17637287Y42174500D01*
X17862713Y42174500D01*
X17862720Y42174500D01*
X17975236Y42189313D01*
X17975236Y42189314D01*
X17983295Y42190374D01*
X17983698Y42187311D01*
X18016302Y42187311D01*
X18016705Y42190374D01*
X18024763Y42189314D01*
X18024764Y42189313D01*
X18137280Y42174500D01*
X18137287Y42174500D01*
X18362713Y42174500D01*
X18362720Y42174500D01*
X18475236Y42189313D01*
X18475236Y42189314D01*
X18483295Y42190374D01*
X18483698Y42187311D01*
X18516302Y42187311D01*
X18516705Y42190374D01*
X18524763Y42189314D01*
X18524764Y42189313D01*
X18637280Y42174500D01*
X18637287Y42174500D01*
X18800500Y42174500D01*
X18867539Y42154815D01*
X18913294Y42102011D01*
X18924500Y42050500D01*
X18924500Y41887287D01*
X18924501Y41887271D01*
X18940245Y41767685D01*
X18929480Y41698650D01*
X18883100Y41646394D01*
X18817306Y41627500D01*
X17561281Y41627500D01*
X17494242Y41647185D01*
X17473600Y41663819D01*
X17174600Y41962819D01*
X17166064Y41978450D01*
X17153467Y41991040D01*
X17149667Y42008479D01*
X17141115Y42024142D01*
X17142385Y42041906D01*
X17138594Y42059308D01*
X17144825Y42076032D01*
X17146099Y42093834D01*
X17156772Y42108092D01*
X17162991Y42124780D01*
X17177276Y42135481D01*
X17187971Y42149767D01*
X17204663Y42155996D01*
X17218912Y42166669D01*
X17246723Y42171691D01*
X17253397Y42174181D01*
X17257838Y42174500D01*
X17362720Y42174500D01*
X17475236Y42189313D01*
X17477579Y42190284D01*
X17491116Y42191256D01*
X17509278Y42187311D01*
G37*
%TD.AperFunction*%
%TA.AperFunction,Conductor*%
G36*
X11699323Y44331799D02*
G01*
X11703488Y44332319D01*
X11722567Y44327638D01*
X11852292Y44284651D01*
X11951655Y44274500D01*
X12261718Y44274501D01*
X12328757Y44254817D01*
X12349399Y44238182D01*
X12563181Y44024400D01*
X12596666Y43963077D01*
X12599500Y43936719D01*
X12599500Y42785331D01*
X12591874Y42759362D01*
X12587737Y42732617D01*
X12582177Y42726338D01*
X12579815Y42718292D01*
X12559364Y42700572D01*
X12541421Y42680305D01*
X12533347Y42678028D01*
X12527011Y42672537D01*
X12500225Y42668686D01*
X12474175Y42661338D01*
X12466154Y42663787D01*
X12457853Y42662593D01*
X12433232Y42673837D01*
X12407350Y42681738D01*
X12400040Y42688995D01*
X12394297Y42691618D01*
X12380925Y42705134D01*
X12376333Y42710549D01*
X12324911Y42787508D01*
X12237508Y42874911D01*
X11761818Y43350601D01*
X11728333Y43411924D01*
X11725499Y43438282D01*
X11725499Y43748338D01*
X11725498Y43748356D01*
X11715349Y43847708D01*
X11715348Y43847711D01*
X11662003Y44008697D01*
X11661999Y44008703D01*
X11661998Y44008706D01*
X11578034Y44144832D01*
X11570809Y44171235D01*
X11560300Y44196512D01*
X11561720Y44204448D01*
X11559593Y44212224D01*
X11567790Y44238343D01*
X11572615Y44265288D01*
X11578100Y44271196D01*
X11580515Y44278888D01*
X11601531Y44296429D01*
X11620158Y44316487D01*
X11627967Y44318492D01*
X11634157Y44323657D01*
X11661317Y44327051D01*
X11687835Y44333856D01*
X11699323Y44331799D01*
G37*
%TD.AperFunction*%
%TA.AperFunction,Conductor*%
G36*
X21681159Y52352815D02*
G01*
X21726914Y52300011D01*
X21736858Y52230853D01*
X21707833Y52167297D01*
X21683011Y52145398D01*
X21669032Y52136058D01*
X21669028Y52136055D01*
X21563945Y52030972D01*
X21563939Y52030965D01*
X21481371Y51907392D01*
X21424495Y51770081D01*
X21424493Y51770073D01*
X21395500Y51624317D01*
X21395500Y51475684D01*
X21424493Y51329928D01*
X21424495Y51329920D01*
X21481371Y51192609D01*
X21563939Y51069036D01*
X21563945Y51069029D01*
X21669028Y50963946D01*
X21669035Y50963940D01*
X21792608Y50881372D01*
X21792609Y50881372D01*
X21792610Y50881371D01*
X21825248Y50867852D01*
X21845952Y50859276D01*
X21900356Y50815436D01*
X21922421Y50749142D01*
X21922500Y50744715D01*
X21922500Y45961281D01*
X21902815Y45894242D01*
X21886181Y45873600D01*
X21349992Y45337411D01*
X21300658Y45288077D01*
X21262589Y45250008D01*
X21193920Y45147238D01*
X21193916Y45147231D01*
X21189673Y45136988D01*
X21183672Y45122500D01*
X21146614Y45033035D01*
X21130427Y44951656D01*
X21122500Y44911803D01*
X21122500Y44807408D01*
X21122257Y44803529D01*
X21111607Y44774186D01*
X21102815Y44744243D01*
X21099039Y44739558D01*
X21098420Y44737851D01*
X21096459Y44736357D01*
X21086181Y44723601D01*
X20599398Y44236819D01*
X20538075Y44203334D01*
X20511717Y44200500D01*
X20201663Y44200500D01*
X20201644Y44200499D01*
X20102292Y44190350D01*
X20102289Y44190349D01*
X19941305Y44137004D01*
X19941294Y44136999D01*
X19796959Y44047971D01*
X19796955Y44047968D01*
X19677031Y43928044D01*
X19630038Y43851856D01*
X19578090Y43805132D01*
X19509127Y43793911D01*
X19445045Y43821754D01*
X19406190Y43879824D01*
X19400500Y43916954D01*
X19400500Y44112714D01*
X19400499Y44112728D01*
X19392367Y44174496D01*
X19385687Y44225236D01*
X19385686Y44225238D01*
X19385686Y44225241D01*
X19383583Y44233091D01*
X19384713Y44233394D01*
X19377500Y44269668D01*
X19377500Y46961927D01*
X19397185Y47028966D01*
X19428614Y47062245D01*
X19459792Y47084896D01*
X19610104Y47235208D01*
X19610106Y47235212D01*
X19610109Y47235214D01*
X19735048Y47407180D01*
X19735047Y47407180D01*
X19735051Y47407184D01*
X19831557Y47596588D01*
X19897246Y47798757D01*
X19930500Y48008713D01*
X19930500Y48221287D01*
X19897246Y48431243D01*
X19831557Y48633412D01*
X19735051Y48822816D01*
X19735049Y48822819D01*
X19735048Y48822821D01*
X19610109Y48994787D01*
X19459786Y49145110D01*
X19287820Y49270049D01*
X19098414Y49366556D01*
X19098413Y49366557D01*
X19098412Y49366557D01*
X18896243Y49432246D01*
X18896241Y49432247D01*
X18896240Y49432247D01*
X18734957Y49457792D01*
X18686287Y49465500D01*
X18473713Y49465500D01*
X18425042Y49457792D01*
X18263760Y49432247D01*
X18061581Y49366555D01*
X18057790Y49364623D01*
X17989120Y49351730D01*
X17924381Y49378009D01*
X17884126Y49435117D01*
X17877500Y49475110D01*
X17877500Y51438719D01*
X17897185Y51505758D01*
X17913819Y51526400D01*
X18723600Y52336181D01*
X18784923Y52369666D01*
X18811281Y52372500D01*
X21614120Y52372500D01*
X21681159Y52352815D01*
G37*
%TD.AperFunction*%
%TA.AperFunction,Conductor*%
G36*
X10730758Y45852815D02*
G01*
X10751400Y45836181D01*
X11238181Y45349400D01*
X11271666Y45288077D01*
X11274500Y45261719D01*
X11274500Y44951664D01*
X11274501Y44951657D01*
X11284650Y44852293D01*
X11284651Y44852290D01*
X11337996Y44691306D01*
X11337998Y44691301D01*
X11421966Y44555169D01*
X11440406Y44487777D01*
X11419484Y44421113D01*
X11365842Y44376343D01*
X11296511Y44367682D01*
X11277423Y44372366D01*
X11147709Y44415349D01*
X11048346Y44425500D01*
X10451662Y44425500D01*
X10451644Y44425499D01*
X10352292Y44415350D01*
X10352289Y44415349D01*
X10191305Y44362004D01*
X10191296Y44362000D01*
X10165294Y44345961D01*
X10148736Y44341266D01*
X10135133Y44332523D01*
X10100198Y44327500D01*
X9906560Y44327500D01*
X9839521Y44347185D01*
X9837671Y44348397D01*
X9807391Y44368629D01*
X9670080Y44425505D01*
X9670072Y44425507D01*
X9634363Y44432610D01*
X9617606Y44441375D01*
X9599127Y44445395D01*
X9574088Y44464140D01*
X9572452Y44464995D01*
X9570873Y44466546D01*
X9413819Y44623600D01*
X9380334Y44684923D01*
X9377500Y44711281D01*
X9377500Y45748500D01*
X9397185Y45815539D01*
X9449989Y45861294D01*
X9501500Y45872500D01*
X10663719Y45872500D01*
X10730758Y45852815D01*
G37*
%TD.AperFunction*%
%TA.AperFunction,Conductor*%
G36*
X13691029Y45726099D02*
G01*
X13735378Y45697597D01*
X13769029Y45663945D01*
X13769035Y45663940D01*
X13892608Y45581372D01*
X13892609Y45581372D01*
X13892610Y45581371D01*
X14029920Y45524495D01*
X14029931Y45524493D01*
X14034492Y45523109D01*
X14092932Y45484813D01*
X14121390Y45421001D01*
X14122500Y45404447D01*
X14122500Y45061281D01*
X14102815Y44994242D01*
X14086181Y44973600D01*
X13825181Y44712600D01*
X13763858Y44679115D01*
X13694166Y44684099D01*
X13649819Y44712600D01*
X13211818Y45150601D01*
X13197114Y45177529D01*
X13180522Y45203347D01*
X13179630Y45209548D01*
X13178333Y45211924D01*
X13175499Y45238282D01*
X13175499Y45261719D01*
X13195184Y45328758D01*
X13211818Y45349400D01*
X13385774Y45523356D01*
X13560017Y45697600D01*
X13621338Y45731083D01*
X13691029Y45726099D01*
G37*
%TD.AperFunction*%
%TA.AperFunction,Conductor*%
G36*
X33188539Y51602815D02*
G01*
X33234294Y51550011D01*
X33245500Y51498500D01*
X33245500Y51425684D01*
X33274493Y51279928D01*
X33274495Y51279920D01*
X33329572Y51146953D01*
X33337041Y51077483D01*
X33305766Y51015004D01*
X33245677Y50979352D01*
X33215011Y50975500D01*
X32843384Y50975500D01*
X32824145Y50973752D01*
X32772807Y50969087D01*
X32610393Y50918478D01*
X32464811Y50830470D01*
X32464811Y50830469D01*
X32425163Y50790820D01*
X32398234Y50776116D01*
X32372416Y50759523D01*
X32366216Y50758632D01*
X32363840Y50757334D01*
X32337481Y50754500D01*
X32289034Y50754500D01*
X32221995Y50774185D01*
X32201353Y50790819D01*
X32167891Y50824281D01*
X32167887Y50824284D01*
X32024795Y50912545D01*
X32024789Y50912548D01*
X32024787Y50912549D01*
X31865185Y50965436D01*
X31865183Y50965437D01*
X31766681Y50975500D01*
X31766674Y50975500D01*
X31233326Y50975500D01*
X31233318Y50975500D01*
X31134816Y50965437D01*
X31134815Y50965436D01*
X31068553Y50943479D01*
X30975215Y50912550D01*
X30975204Y50912545D01*
X30832112Y50824284D01*
X30832108Y50824281D01*
X30713219Y50705392D01*
X30713216Y50705388D01*
X30624955Y50562296D01*
X30624950Y50562285D01*
X30600139Y50487411D01*
X30572064Y50402685D01*
X30572064Y50402684D01*
X30572063Y50402684D01*
X30562000Y50304182D01*
X30562000Y49695817D01*
X30571779Y49600102D01*
X30559010Y49531409D01*
X30511129Y49480525D01*
X30448421Y49463500D01*
X26302185Y49463500D01*
X26247333Y49460562D01*
X26235356Y49459275D01*
X26220525Y49457680D01*
X26220517Y49457679D01*
X26220510Y49457678D01*
X26220505Y49457678D01*
X26166258Y49448887D01*
X26166240Y49448882D01*
X26029318Y49397812D01*
X26029301Y49397804D01*
X25967004Y49363786D01*
X25966998Y49363782D01*
X25966996Y49363781D01*
X25966995Y49363780D01*
X25927085Y49333903D01*
X25849997Y49276195D01*
X25849985Y49276185D01*
X25673819Y49100019D01*
X25637073Y49059113D01*
X25620180Y49038149D01*
X25588019Y48993552D01*
X25588013Y48993541D01*
X25527303Y48860606D01*
X25507301Y48792484D01*
X25507298Y48792472D01*
X25486500Y48647811D01*
X25486500Y48586085D01*
X25466815Y48519046D01*
X25414011Y48473291D01*
X25409953Y48471524D01*
X25342609Y48443630D01*
X25219033Y48361059D01*
X25189031Y48331056D01*
X25113941Y48255966D01*
X23389181Y46531206D01*
X23327858Y46497721D01*
X23258166Y46502705D01*
X23202233Y46544577D01*
X23177816Y46610041D01*
X23177500Y46618887D01*
X23177500Y50888719D01*
X23197185Y50955758D01*
X23213819Y50976400D01*
X23823600Y51586181D01*
X23884923Y51619666D01*
X23911281Y51622500D01*
X33121500Y51622500D01*
X33188539Y51602815D01*
G37*
%TD.AperFunction*%
%TA.AperFunction,Conductor*%
G36*
X46602880Y58740259D02*
G01*
X46634686Y58732140D01*
X46636249Y58730461D01*
X46638448Y58729815D01*
X46659920Y58705035D01*
X46682295Y58681001D01*
X46682702Y58678743D01*
X46684203Y58677011D01*
X46688871Y58644540D01*
X46694698Y58612241D01*
X46693941Y58609280D01*
X46694147Y58607853D01*
X46685968Y58578043D01*
X46683865Y58572969D01*
X46683866Y58572968D01*
X46646614Y58483036D01*
X46646612Y58483028D01*
X46625621Y58377504D01*
X46625622Y58377503D01*
X46622500Y58361807D01*
X46622500Y56124500D01*
X46602815Y56057461D01*
X46550011Y56011706D01*
X46498502Y56000500D01*
X46452131Y56000500D01*
X46452123Y56000499D01*
X46392516Y55994092D01*
X46257671Y55943798D01*
X46257664Y55943794D01*
X46142455Y55857548D01*
X46142452Y55857545D01*
X46056206Y55742336D01*
X46056202Y55742329D01*
X46005908Y55607483D01*
X45999501Y55547884D01*
X45999501Y55547877D01*
X45999500Y55547865D01*
X45999500Y53952130D01*
X45999501Y53952124D01*
X46005908Y53892517D01*
X46056202Y53757672D01*
X46056206Y53757665D01*
X46142452Y53642456D01*
X46142455Y53642453D01*
X46257664Y53556207D01*
X46257671Y53556203D01*
X46392517Y53505909D01*
X46400062Y53504126D01*
X46399663Y53502438D01*
X46455397Y53479359D01*
X46495251Y53421971D01*
X46499218Y53406991D01*
X46524493Y53279926D01*
X46524495Y53279920D01*
X46581370Y53142611D01*
X46629626Y53070391D01*
X46650504Y53003713D01*
X46632019Y52936333D01*
X46580040Y52889643D01*
X46526524Y52877500D01*
X38876500Y52877500D01*
X38809461Y52897185D01*
X38763706Y52949989D01*
X38752500Y53001500D01*
X38752500Y56860480D01*
X38761144Y56889921D01*
X38767668Y56919907D01*
X38771422Y56924923D01*
X38772185Y56927519D01*
X38788819Y56948161D01*
X38862319Y57021661D01*
X38923642Y57055146D01*
X38993334Y57050162D01*
X39037681Y57021661D01*
X39139811Y56919531D01*
X39139813Y56919530D01*
X39139815Y56919528D01*
X39285394Y56831522D01*
X39447804Y56780914D01*
X39518384Y56774500D01*
X39518387Y56774500D01*
X40031613Y56774500D01*
X40031616Y56774500D01*
X40102196Y56780914D01*
X40264606Y56831522D01*
X40410185Y56919528D01*
X40460188Y56969531D01*
X40519642Y57028984D01*
X40580965Y57062469D01*
X40650657Y57057485D01*
X40695004Y57028984D01*
X40796955Y56927033D01*
X40796959Y56927030D01*
X40941294Y56838002D01*
X40941297Y56838001D01*
X40941303Y56837997D01*
X41102292Y56784651D01*
X41201655Y56774500D01*
X41748344Y56774501D01*
X41748352Y56774502D01*
X41748355Y56774502D01*
X41811124Y56780914D01*
X41847708Y56784651D01*
X42008697Y56837997D01*
X42153044Y56927032D01*
X42272968Y57046956D01*
X42362003Y57191303D01*
X42415349Y57352292D01*
X42425500Y57451655D01*
X42425499Y58048344D01*
X42415349Y58147708D01*
X42362003Y58308697D01*
X42361999Y58308703D01*
X42361998Y58308706D01*
X42272970Y58453041D01*
X42272967Y58453045D01*
X42188193Y58537819D01*
X42154708Y58599142D01*
X42159692Y58668834D01*
X42201564Y58724767D01*
X42267028Y58749184D01*
X42275874Y58749500D01*
X46571409Y58749500D01*
X46602880Y58740259D01*
G37*
%TD.AperFunction*%
%TA.AperFunction,Conductor*%
G36*
X36479758Y58729815D02*
G01*
X36525513Y58677011D01*
X36535457Y58607853D01*
X36506432Y58544297D01*
X36500400Y58537819D01*
X36299992Y58337411D01*
X36271287Y58308706D01*
X36212586Y58250006D01*
X36212585Y58250004D01*
X36143767Y58147011D01*
X36143571Y58146398D01*
X36096614Y58033035D01*
X36080096Y57949992D01*
X36078735Y57943152D01*
X36078733Y57943144D01*
X36072500Y57911805D01*
X36072500Y56124500D01*
X36052815Y56057461D01*
X36000011Y56011706D01*
X35948502Y56000500D01*
X35902131Y56000500D01*
X35902123Y56000499D01*
X35842516Y55994092D01*
X35707671Y55943798D01*
X35707664Y55943794D01*
X35592455Y55857548D01*
X35592452Y55857545D01*
X35506206Y55742336D01*
X35506202Y55742329D01*
X35455908Y55607483D01*
X35449501Y55547884D01*
X35449501Y55547877D01*
X35449500Y55547865D01*
X35449500Y53952130D01*
X35449501Y53952121D01*
X35454342Y53907087D01*
X35453934Y53904831D01*
X35454736Y53902682D01*
X35447762Y53870623D01*
X35441935Y53838328D01*
X35440220Y53835951D01*
X35439885Y53834409D01*
X35418733Y53806154D01*
X35276398Y53663818D01*
X35215078Y53630334D01*
X35188719Y53627500D01*
X27423840Y53627500D01*
X27356801Y53647185D01*
X27311046Y53699989D01*
X27301102Y53769147D01*
X27307658Y53794833D01*
X27344091Y53892517D01*
X27345415Y53904831D01*
X27350500Y53952127D01*
X27350499Y55547872D01*
X27344091Y55607483D01*
X27293796Y55742331D01*
X27293795Y55742332D01*
X27293793Y55742336D01*
X27207547Y55857545D01*
X27207544Y55857548D01*
X27092335Y55943794D01*
X27092328Y55943798D01*
X26957482Y55994092D01*
X26957483Y55994092D01*
X26897883Y56000499D01*
X26897881Y56000500D01*
X26897873Y56000500D01*
X26897865Y56000500D01*
X26851500Y56000500D01*
X26784461Y56020185D01*
X26738706Y56072989D01*
X26727500Y56124500D01*
X26727500Y56924479D01*
X26736444Y56954941D01*
X26743746Y56985839D01*
X26746217Y56988225D01*
X26747185Y56991518D01*
X26771167Y57012300D01*
X26794025Y57034355D01*
X26798404Y57035900D01*
X26799989Y57037273D01*
X26827309Y57046096D01*
X26938244Y57068162D01*
X27007836Y57061935D01*
X27050116Y57034226D01*
X27164811Y56919531D01*
X27164813Y56919530D01*
X27164815Y56919528D01*
X27310394Y56831522D01*
X27472804Y56780914D01*
X27543384Y56774500D01*
X27543387Y56774500D01*
X28056613Y56774500D01*
X28056616Y56774500D01*
X28127196Y56780914D01*
X28289606Y56831522D01*
X28435185Y56919528D01*
X28485188Y56969531D01*
X28537319Y57021661D01*
X28598642Y57055146D01*
X28668334Y57050162D01*
X28712681Y57021661D01*
X28814811Y56919531D01*
X28814813Y56919530D01*
X28814815Y56919528D01*
X28960394Y56831522D01*
X29122804Y56780914D01*
X29193384Y56774500D01*
X29193387Y56774500D01*
X29706613Y56774500D01*
X29706616Y56774500D01*
X29777196Y56780914D01*
X29939606Y56831522D01*
X30085185Y56919528D01*
X30132140Y56966483D01*
X30193463Y56999969D01*
X30263154Y56994985D01*
X30307502Y56966485D01*
X30346955Y56927033D01*
X30346959Y56927030D01*
X30491294Y56838002D01*
X30491297Y56838001D01*
X30491303Y56837997D01*
X30652292Y56784651D01*
X30751655Y56774500D01*
X31298344Y56774501D01*
X31298352Y56774502D01*
X31298355Y56774502D01*
X31361124Y56780914D01*
X31397708Y56784651D01*
X31558697Y56837997D01*
X31703044Y56927032D01*
X31822968Y57046956D01*
X31912003Y57191303D01*
X31965349Y57352292D01*
X31975500Y57451655D01*
X31975499Y58048344D01*
X31965349Y58147708D01*
X31912003Y58308697D01*
X31911999Y58308703D01*
X31911998Y58308706D01*
X31822970Y58453041D01*
X31822967Y58453045D01*
X31738193Y58537819D01*
X31704708Y58599142D01*
X31709692Y58668834D01*
X31751564Y58724767D01*
X31817028Y58749184D01*
X31825874Y58749500D01*
X36412719Y58749500D01*
X36479758Y58729815D01*
G37*
%TD.AperFunction*%
%TD*%
M02*
