M48
; DRILL file {KiCad 9.0.1} date 2025-08-23T16:55:37+0800
; FORMAT={-:-/ absolute / metric / decimal}
; #@! TF.CreationDate,2025-08-23T16:55:37+08:00
; #@! TF.GenerationSoftware,Kicad,Pcbnew,9.0.1
; #@! TF.FileFunction,Plated,1,4,PTH
FMAT,2
METRIC
; #@! TA.AperFunction,Plated,PTH,ComponentDrill
T1C0.300
; #@! TA.AperFunction,Plated,PTH,ViaDrill
T2C0.305
; #@! TA.AperFunction,Plated,PTH,ComponentDrill
T3C0.500
; #@! TA.AperFunction,Plated,PTH,ViaDrill
T4C0.508
; #@! TA.AperFunction,Plated,PTH,ComponentDrill
T5C1.000
; #@! TA.AperFunction,Plated,PTH,ComponentDrill
T6C3.200
%
G90
G05
T1
X33.05Y44.832
X33.05Y42.922
X34.35Y44.832
X34.35Y42.922
X35.65Y44.832
X35.65Y42.922
X50.5Y44.935
X50.5Y43.025
X51.8Y44.935
X51.8Y43.025
X53.1Y44.935
X53.1Y43.025
T2
X1.35Y44.15
X1.4Y40.2
X1.45Y18.25
X2.0Y38.45
X2.05Y34.9
X2.55Y41.35
X3.55Y28.5
X3.65Y30.5
X3.75Y44.9
X3.75Y32.55
X3.8Y35.85
X5.05Y32.55
X5.05Y30.5
X5.05Y28.5
X6.7Y38.25
X6.7Y37.45
X7.4Y38.25
X7.4Y37.45
X7.5Y18.1
X7.75Y40.75
X9.45Y43.7
X11.25Y48.25
X11.3Y34.8
X11.75Y44.25
X11.8Y36.05
X13.2Y36.75
X13.45Y40.25
X13.749Y18.0
X13.75Y42.25
X13.9Y39.25
X13.9Y37.75
X13.95Y36.85
X14.15Y38.5
X14.25Y46.25
X14.5Y42.0
X15.25Y42.25
X15.6Y37.55
X15.75Y40.25
X15.8Y36.75
X16.25Y42.0
X16.7Y36.4
X17.0Y38.0
X17.25Y46.25
X18.6Y36.35
X18.75Y39.25
X18.75Y38.25
X18.999Y41.75
X19.5Y44.85
X19.55Y46.1
X20.7Y35.85
X21.0Y49.75
X21.35Y37.75
X22.0Y36.15
X22.15Y51.55
X22.25Y2.2
X22.35Y44.0
X22.75Y44.75
X22.85Y36.2
X23.0Y34.15
X23.044Y5.15
X23.4Y34.75
X26.75Y57.8
X30.7Y3.2
X31.7Y1.8
X33.75Y50.0
X34.0Y56.25
X34.0Y51.5
X38.0Y50.75
X39.0Y44.25
X39.1Y35.45
X39.15Y34.6
X39.75Y48.75
X39.75Y39.0
X39.75Y36.5
X40.35Y35.4
X40.5Y34.6
X42.0Y49.75
X44.5Y56.25
X45.35Y17.95
X47.25Y53.5
X48.0Y49.75
X49.5Y51.5
X49.525Y17.725
X55.0Y56.25
X55.5Y50.75
T3
X44.25Y30.553
X44.25Y4.0
X44.953Y32.25
X44.953Y28.856
X44.953Y5.697
X44.953Y2.303
X46.65Y32.953
X46.65Y28.153
X46.65Y6.4
X46.65Y1.6
X48.347Y32.25
X48.347Y28.856
X48.347Y5.697
X48.347Y2.303
X49.05Y30.553
X49.05Y4.0
X51.653Y30.553
X51.653Y4.0
X52.356Y32.25
X52.356Y28.856
X52.356Y5.697
X52.356Y2.303
X54.053Y32.953
X54.053Y28.153
X54.053Y6.4
X54.053Y1.6
X55.75Y32.25
X55.75Y28.856
X55.75Y5.697
X55.75Y2.303
X56.453Y30.553
X56.453Y4.0
T4
X6.5Y23.75
X11.0Y23.5
X13.75Y32.5
X13.75Y31.25
X13.75Y30.0
X13.75Y28.75
X13.75Y19.0
X15.0Y32.5
X15.0Y31.25
X15.0Y30.0
X15.0Y28.75
X15.75Y21.5
X16.25Y32.5
X16.25Y31.25
X16.25Y30.0
X16.25Y28.75
X16.25Y17.25
X17.25Y24.75
X17.875Y21.125
X18.0Y19.5
X19.25Y24.0
X19.25Y22.25
X20.7Y8.7
X20.7Y7.75
X20.7Y6.8
X22.75Y33.0
X22.75Y32.0
X22.75Y26.5
X22.75Y23.75
X22.75Y18.5
X23.75Y33.0
X23.75Y32.0
X23.75Y26.5
X23.75Y23.75
X23.75Y18.5
X24.75Y39.5
X24.75Y38.5
X24.75Y37.5
X24.75Y36.5
X24.75Y35.5
X24.75Y33.0
X24.75Y32.0
X24.75Y26.5
X24.75Y23.75
X24.75Y18.5
X25.75Y39.5
X25.75Y38.5
X25.75Y37.5
X25.75Y36.5
X25.75Y35.5
X26.25Y18.5
X26.25Y13.0
X26.25Y10.5
X26.55Y6.75
X26.6Y8.75
X26.6Y7.75
X27.25Y18.5
X27.25Y13.0
X27.25Y10.5
X28.25Y18.5
X28.25Y13.0
X28.25Y10.5
X28.9Y49.9
X33.75Y35.5
X34.25Y33.0
X34.25Y32.0
X34.25Y26.5
X34.25Y23.75
X34.25Y18.5
X34.75Y35.5
X35.0Y48.5
X35.25Y33.0
X35.25Y32.0
X35.25Y26.5
X35.25Y23.75
X35.25Y18.5
X35.75Y39.0
X35.75Y35.5
X36.25Y33.0
X36.25Y32.0
X36.25Y26.5
X36.25Y23.75
X36.25Y18.5
X36.75Y39.0
X36.75Y38.0
X36.75Y37.0
X37.75Y18.5
X37.75Y13.0
X37.75Y10.5
X38.0Y44.25
X38.75Y18.5
X38.75Y13.0
X38.75Y10.5
X39.75Y18.5
X39.75Y13.0
X39.75Y10.5
X42.25Y39.25
X42.25Y38.25
X42.25Y37.25
X42.25Y36.25
X42.25Y35.25
X43.0Y49.75
X43.25Y39.25
X43.25Y38.25
X43.25Y37.25
X43.25Y36.25
X43.25Y35.25
X50.25Y19.75
X51.5Y17.5
X52.5Y48.5
X54.25Y39.5
X54.25Y38.5
X54.25Y37.5
X54.25Y36.5
X54.25Y35.5
X55.25Y39.5
X55.25Y38.5
X55.25Y37.5
X55.25Y36.5
X55.25Y35.5
X55.5Y44.0
T5
X2.25Y48.115
X4.79Y48.115
X7.33Y48.115
X9.87Y48.115
X13.5Y48.115
X16.04Y48.115
X18.58Y48.115
X21.12Y48.115
T6
X46.65Y30.553
X46.65Y4.0
X54.053Y30.553
X54.053Y4.0
M30
