%TF.GenerationSoftware,KiCad,Pcbnew,9.0.1*%
%TF.CreationDate,2025-08-23T17:21:42+08:00*%
%TF.ProjectId,dcdc,64636463-2e6b-4696-9361-645f70636258,rev?*%
%TF.SameCoordinates,PX71a15b0PY7e1f990*%
%TF.FileFunction,Legend,Top*%
%TF.FilePolarity,Positive*%
%FSLAX46Y46*%
G04 Gerber Fmt 4.6, Leading zero omitted, Abs format (unit mm)*
G04 Created by KiCad (PCBNEW 9.0.1) date 2025-08-23 17:21:42*
%MOMM*%
%LPD*%
G01*
G04 APERTURE LIST*
%ADD10C,0.150000*%
%ADD11C,0.120000*%
G04 APERTURE END LIST*
D10*
X20357142Y33140420D02*
X20309523Y33092800D01*
X20309523Y33092800D02*
X20166666Y33045181D01*
X20166666Y33045181D02*
X20071428Y33045181D01*
X20071428Y33045181D02*
X19928571Y33092800D01*
X19928571Y33092800D02*
X19833333Y33188039D01*
X19833333Y33188039D02*
X19785714Y33283277D01*
X19785714Y33283277D02*
X19738095Y33473753D01*
X19738095Y33473753D02*
X19738095Y33616610D01*
X19738095Y33616610D02*
X19785714Y33807086D01*
X19785714Y33807086D02*
X19833333Y33902324D01*
X19833333Y33902324D02*
X19928571Y33997562D01*
X19928571Y33997562D02*
X20071428Y34045181D01*
X20071428Y34045181D02*
X20166666Y34045181D01*
X20166666Y34045181D02*
X20309523Y33997562D01*
X20309523Y33997562D02*
X20357142Y33949943D01*
X21214285Y33711848D02*
X21214285Y33045181D01*
X20976190Y34092800D02*
X20738095Y33378515D01*
X20738095Y33378515D02*
X21357142Y33378515D01*
X21642857Y34045181D02*
X22261904Y34045181D01*
X22261904Y34045181D02*
X21928571Y33664229D01*
X21928571Y33664229D02*
X22071428Y33664229D01*
X22071428Y33664229D02*
X22166666Y33616610D01*
X22166666Y33616610D02*
X22214285Y33568991D01*
X22214285Y33568991D02*
X22261904Y33473753D01*
X22261904Y33473753D02*
X22261904Y33235658D01*
X22261904Y33235658D02*
X22214285Y33140420D01*
X22214285Y33140420D02*
X22166666Y33092800D01*
X22166666Y33092800D02*
X22071428Y33045181D01*
X22071428Y33045181D02*
X21785714Y33045181D01*
X21785714Y33045181D02*
X21690476Y33092800D01*
X21690476Y33092800D02*
X21642857Y33140420D01*
X285714Y30795181D02*
X285714Y31795181D01*
X285714Y31795181D02*
X523809Y31795181D01*
X523809Y31795181D02*
X666666Y31747562D01*
X666666Y31747562D02*
X761904Y31652324D01*
X761904Y31652324D02*
X809523Y31557086D01*
X809523Y31557086D02*
X857142Y31366610D01*
X857142Y31366610D02*
X857142Y31223753D01*
X857142Y31223753D02*
X809523Y31033277D01*
X809523Y31033277D02*
X761904Y30938039D01*
X761904Y30938039D02*
X666666Y30842800D01*
X666666Y30842800D02*
X523809Y30795181D01*
X523809Y30795181D02*
X285714Y30795181D01*
X1809523Y30795181D02*
X1238095Y30795181D01*
X1523809Y30795181D02*
X1523809Y31795181D01*
X1523809Y31795181D02*
X1428571Y31652324D01*
X1428571Y31652324D02*
X1333333Y31557086D01*
X1333333Y31557086D02*
X1238095Y31509467D01*
X2666666Y31795181D02*
X2476190Y31795181D01*
X2476190Y31795181D02*
X2380952Y31747562D01*
X2380952Y31747562D02*
X2333333Y31699943D01*
X2333333Y31699943D02*
X2238095Y31557086D01*
X2238095Y31557086D02*
X2190476Y31366610D01*
X2190476Y31366610D02*
X2190476Y30985658D01*
X2190476Y30985658D02*
X2238095Y30890420D01*
X2238095Y30890420D02*
X2285714Y30842800D01*
X2285714Y30842800D02*
X2380952Y30795181D01*
X2380952Y30795181D02*
X2571428Y30795181D01*
X2571428Y30795181D02*
X2666666Y30842800D01*
X2666666Y30842800D02*
X2714285Y30890420D01*
X2714285Y30890420D02*
X2761904Y30985658D01*
X2761904Y30985658D02*
X2761904Y31223753D01*
X2761904Y31223753D02*
X2714285Y31318991D01*
X2714285Y31318991D02*
X2666666Y31366610D01*
X2666666Y31366610D02*
X2571428Y31414229D01*
X2571428Y31414229D02*
X2380952Y31414229D01*
X2380952Y31414229D02*
X2285714Y31366610D01*
X2285714Y31366610D02*
X2238095Y31318991D01*
X2238095Y31318991D02*
X2190476Y31223753D01*
X5857142Y38890420D02*
X5809523Y38842800D01*
X5809523Y38842800D02*
X5666666Y38795181D01*
X5666666Y38795181D02*
X5571428Y38795181D01*
X5571428Y38795181D02*
X5428571Y38842800D01*
X5428571Y38842800D02*
X5333333Y38938039D01*
X5333333Y38938039D02*
X5285714Y39033277D01*
X5285714Y39033277D02*
X5238095Y39223753D01*
X5238095Y39223753D02*
X5238095Y39366610D01*
X5238095Y39366610D02*
X5285714Y39557086D01*
X5285714Y39557086D02*
X5333333Y39652324D01*
X5333333Y39652324D02*
X5428571Y39747562D01*
X5428571Y39747562D02*
X5571428Y39795181D01*
X5571428Y39795181D02*
X5666666Y39795181D01*
X5666666Y39795181D02*
X5809523Y39747562D01*
X5809523Y39747562D02*
X5857142Y39699943D01*
X6714285Y39461848D02*
X6714285Y38795181D01*
X6476190Y39842800D02*
X6238095Y39128515D01*
X6238095Y39128515D02*
X6857142Y39128515D01*
X7761904Y38795181D02*
X7190476Y38795181D01*
X7476190Y38795181D02*
X7476190Y39795181D01*
X7476190Y39795181D02*
X7380952Y39652324D01*
X7380952Y39652324D02*
X7285714Y39557086D01*
X7285714Y39557086D02*
X7190476Y39509467D01*
X50707142Y51095181D02*
X50373809Y51571372D01*
X50135714Y51095181D02*
X50135714Y52095181D01*
X50135714Y52095181D02*
X50516666Y52095181D01*
X50516666Y52095181D02*
X50611904Y52047562D01*
X50611904Y52047562D02*
X50659523Y51999943D01*
X50659523Y51999943D02*
X50707142Y51904705D01*
X50707142Y51904705D02*
X50707142Y51761848D01*
X50707142Y51761848D02*
X50659523Y51666610D01*
X50659523Y51666610D02*
X50611904Y51618991D01*
X50611904Y51618991D02*
X50516666Y51571372D01*
X50516666Y51571372D02*
X50135714Y51571372D01*
X51659523Y51095181D02*
X51088095Y51095181D01*
X51373809Y51095181D02*
X51373809Y52095181D01*
X51373809Y52095181D02*
X51278571Y51952324D01*
X51278571Y51952324D02*
X51183333Y51857086D01*
X51183333Y51857086D02*
X51088095Y51809467D01*
X51992857Y52095181D02*
X52611904Y52095181D01*
X52611904Y52095181D02*
X52278571Y51714229D01*
X52278571Y51714229D02*
X52421428Y51714229D01*
X52421428Y51714229D02*
X52516666Y51666610D01*
X52516666Y51666610D02*
X52564285Y51618991D01*
X52564285Y51618991D02*
X52611904Y51523753D01*
X52611904Y51523753D02*
X52611904Y51285658D01*
X52611904Y51285658D02*
X52564285Y51190420D01*
X52564285Y51190420D02*
X52516666Y51142800D01*
X52516666Y51142800D02*
X52421428Y51095181D01*
X52421428Y51095181D02*
X52135714Y51095181D01*
X52135714Y51095181D02*
X52040476Y51142800D01*
X52040476Y51142800D02*
X51992857Y51190420D01*
X285714Y26795181D02*
X285714Y27795181D01*
X285714Y27795181D02*
X523809Y27795181D01*
X523809Y27795181D02*
X666666Y27747562D01*
X666666Y27747562D02*
X761904Y27652324D01*
X761904Y27652324D02*
X809523Y27557086D01*
X809523Y27557086D02*
X857142Y27366610D01*
X857142Y27366610D02*
X857142Y27223753D01*
X857142Y27223753D02*
X809523Y27033277D01*
X809523Y27033277D02*
X761904Y26938039D01*
X761904Y26938039D02*
X666666Y26842800D01*
X666666Y26842800D02*
X523809Y26795181D01*
X523809Y26795181D02*
X285714Y26795181D01*
X1809523Y26795181D02*
X1238095Y26795181D01*
X1523809Y26795181D02*
X1523809Y27795181D01*
X1523809Y27795181D02*
X1428571Y27652324D01*
X1428571Y27652324D02*
X1333333Y27557086D01*
X1333333Y27557086D02*
X1238095Y27509467D01*
X2666666Y27461848D02*
X2666666Y26795181D01*
X2428571Y27842800D02*
X2190476Y27128515D01*
X2190476Y27128515D02*
X2809523Y27128515D01*
X38033333Y43545181D02*
X37700000Y44021372D01*
X37461905Y43545181D02*
X37461905Y44545181D01*
X37461905Y44545181D02*
X37842857Y44545181D01*
X37842857Y44545181D02*
X37938095Y44497562D01*
X37938095Y44497562D02*
X37985714Y44449943D01*
X37985714Y44449943D02*
X38033333Y44354705D01*
X38033333Y44354705D02*
X38033333Y44211848D01*
X38033333Y44211848D02*
X37985714Y44116610D01*
X37985714Y44116610D02*
X37938095Y44068991D01*
X37938095Y44068991D02*
X37842857Y44021372D01*
X37842857Y44021372D02*
X37461905Y44021372D01*
X38890476Y44545181D02*
X38700000Y44545181D01*
X38700000Y44545181D02*
X38604762Y44497562D01*
X38604762Y44497562D02*
X38557143Y44449943D01*
X38557143Y44449943D02*
X38461905Y44307086D01*
X38461905Y44307086D02*
X38414286Y44116610D01*
X38414286Y44116610D02*
X38414286Y43735658D01*
X38414286Y43735658D02*
X38461905Y43640420D01*
X38461905Y43640420D02*
X38509524Y43592800D01*
X38509524Y43592800D02*
X38604762Y43545181D01*
X38604762Y43545181D02*
X38795238Y43545181D01*
X38795238Y43545181D02*
X38890476Y43592800D01*
X38890476Y43592800D02*
X38938095Y43640420D01*
X38938095Y43640420D02*
X38985714Y43735658D01*
X38985714Y43735658D02*
X38985714Y43973753D01*
X38985714Y43973753D02*
X38938095Y44068991D01*
X38938095Y44068991D02*
X38890476Y44116610D01*
X38890476Y44116610D02*
X38795238Y44164229D01*
X38795238Y44164229D02*
X38604762Y44164229D01*
X38604762Y44164229D02*
X38509524Y44116610D01*
X38509524Y44116610D02*
X38461905Y44068991D01*
X38461905Y44068991D02*
X38414286Y43973753D01*
X25459580Y42007143D02*
X25507200Y41959524D01*
X25507200Y41959524D02*
X25554819Y41816667D01*
X25554819Y41816667D02*
X25554819Y41721429D01*
X25554819Y41721429D02*
X25507200Y41578572D01*
X25507200Y41578572D02*
X25411961Y41483334D01*
X25411961Y41483334D02*
X25316723Y41435715D01*
X25316723Y41435715D02*
X25126247Y41388096D01*
X25126247Y41388096D02*
X24983390Y41388096D01*
X24983390Y41388096D02*
X24792914Y41435715D01*
X24792914Y41435715D02*
X24697676Y41483334D01*
X24697676Y41483334D02*
X24602438Y41578572D01*
X24602438Y41578572D02*
X24554819Y41721429D01*
X24554819Y41721429D02*
X24554819Y41816667D01*
X24554819Y41816667D02*
X24602438Y41959524D01*
X24602438Y41959524D02*
X24650057Y42007143D01*
X25554819Y42959524D02*
X25554819Y42388096D01*
X25554819Y42673810D02*
X24554819Y42673810D01*
X24554819Y42673810D02*
X24697676Y42578572D01*
X24697676Y42578572D02*
X24792914Y42483334D01*
X24792914Y42483334D02*
X24840533Y42388096D01*
X25554819Y43435715D02*
X25554819Y43626191D01*
X25554819Y43626191D02*
X25507200Y43721429D01*
X25507200Y43721429D02*
X25459580Y43769048D01*
X25459580Y43769048D02*
X25316723Y43864286D01*
X25316723Y43864286D02*
X25126247Y43911905D01*
X25126247Y43911905D02*
X24745295Y43911905D01*
X24745295Y43911905D02*
X24650057Y43864286D01*
X24650057Y43864286D02*
X24602438Y43816667D01*
X24602438Y43816667D02*
X24554819Y43721429D01*
X24554819Y43721429D02*
X24554819Y43530953D01*
X24554819Y43530953D02*
X24602438Y43435715D01*
X24602438Y43435715D02*
X24650057Y43388096D01*
X24650057Y43388096D02*
X24745295Y43340477D01*
X24745295Y43340477D02*
X24983390Y43340477D01*
X24983390Y43340477D02*
X25078628Y43388096D01*
X25078628Y43388096D02*
X25126247Y43435715D01*
X25126247Y43435715D02*
X25173866Y43530953D01*
X25173866Y43530953D02*
X25173866Y43721429D01*
X25173866Y43721429D02*
X25126247Y43816667D01*
X25126247Y43816667D02*
X25078628Y43864286D01*
X25078628Y43864286D02*
X24983390Y43911905D01*
X48459580Y46207143D02*
X48507200Y46159524D01*
X48507200Y46159524D02*
X48554819Y46016667D01*
X48554819Y46016667D02*
X48554819Y45921429D01*
X48554819Y45921429D02*
X48507200Y45778572D01*
X48507200Y45778572D02*
X48411961Y45683334D01*
X48411961Y45683334D02*
X48316723Y45635715D01*
X48316723Y45635715D02*
X48126247Y45588096D01*
X48126247Y45588096D02*
X47983390Y45588096D01*
X47983390Y45588096D02*
X47792914Y45635715D01*
X47792914Y45635715D02*
X47697676Y45683334D01*
X47697676Y45683334D02*
X47602438Y45778572D01*
X47602438Y45778572D02*
X47554819Y45921429D01*
X47554819Y45921429D02*
X47554819Y46016667D01*
X47554819Y46016667D02*
X47602438Y46159524D01*
X47602438Y46159524D02*
X47650057Y46207143D01*
X48554819Y47159524D02*
X48554819Y46588096D01*
X48554819Y46873810D02*
X47554819Y46873810D01*
X47554819Y46873810D02*
X47697676Y46778572D01*
X47697676Y46778572D02*
X47792914Y46683334D01*
X47792914Y46683334D02*
X47840533Y46588096D01*
X47554819Y47492858D02*
X47554819Y48111905D01*
X47554819Y48111905D02*
X47935771Y47778572D01*
X47935771Y47778572D02*
X47935771Y47921429D01*
X47935771Y47921429D02*
X47983390Y48016667D01*
X47983390Y48016667D02*
X48031009Y48064286D01*
X48031009Y48064286D02*
X48126247Y48111905D01*
X48126247Y48111905D02*
X48364342Y48111905D01*
X48364342Y48111905D02*
X48459580Y48064286D01*
X48459580Y48064286D02*
X48507200Y48016667D01*
X48507200Y48016667D02*
X48554819Y47921429D01*
X48554819Y47921429D02*
X48554819Y47635715D01*
X48554819Y47635715D02*
X48507200Y47540477D01*
X48507200Y47540477D02*
X48459580Y47492858D01*
X29461905Y50995181D02*
X29461905Y51995181D01*
X29461905Y51995181D02*
X29700000Y51995181D01*
X29700000Y51995181D02*
X29842857Y51947562D01*
X29842857Y51947562D02*
X29938095Y51852324D01*
X29938095Y51852324D02*
X29985714Y51757086D01*
X29985714Y51757086D02*
X30033333Y51566610D01*
X30033333Y51566610D02*
X30033333Y51423753D01*
X30033333Y51423753D02*
X29985714Y51233277D01*
X29985714Y51233277D02*
X29938095Y51138039D01*
X29938095Y51138039D02*
X29842857Y51042800D01*
X29842857Y51042800D02*
X29700000Y50995181D01*
X29700000Y50995181D02*
X29461905Y50995181D01*
X30414286Y51899943D02*
X30461905Y51947562D01*
X30461905Y51947562D02*
X30557143Y51995181D01*
X30557143Y51995181D02*
X30795238Y51995181D01*
X30795238Y51995181D02*
X30890476Y51947562D01*
X30890476Y51947562D02*
X30938095Y51899943D01*
X30938095Y51899943D02*
X30985714Y51804705D01*
X30985714Y51804705D02*
X30985714Y51709467D01*
X30985714Y51709467D02*
X30938095Y51566610D01*
X30938095Y51566610D02*
X30366667Y50995181D01*
X30366667Y50995181D02*
X30985714Y50995181D01*
X39657142Y41990420D02*
X39609523Y41942800D01*
X39609523Y41942800D02*
X39466666Y41895181D01*
X39466666Y41895181D02*
X39371428Y41895181D01*
X39371428Y41895181D02*
X39228571Y41942800D01*
X39228571Y41942800D02*
X39133333Y42038039D01*
X39133333Y42038039D02*
X39085714Y42133277D01*
X39085714Y42133277D02*
X39038095Y42323753D01*
X39038095Y42323753D02*
X39038095Y42466610D01*
X39038095Y42466610D02*
X39085714Y42657086D01*
X39085714Y42657086D02*
X39133333Y42752324D01*
X39133333Y42752324D02*
X39228571Y42847562D01*
X39228571Y42847562D02*
X39371428Y42895181D01*
X39371428Y42895181D02*
X39466666Y42895181D01*
X39466666Y42895181D02*
X39609523Y42847562D01*
X39609523Y42847562D02*
X39657142Y42799943D01*
X40609523Y41895181D02*
X40038095Y41895181D01*
X40323809Y41895181D02*
X40323809Y42895181D01*
X40323809Y42895181D02*
X40228571Y42752324D01*
X40228571Y42752324D02*
X40133333Y42657086D01*
X40133333Y42657086D02*
X40038095Y42609467D01*
X41180952Y42466610D02*
X41085714Y42514229D01*
X41085714Y42514229D02*
X41038095Y42561848D01*
X41038095Y42561848D02*
X40990476Y42657086D01*
X40990476Y42657086D02*
X40990476Y42704705D01*
X40990476Y42704705D02*
X41038095Y42799943D01*
X41038095Y42799943D02*
X41085714Y42847562D01*
X41085714Y42847562D02*
X41180952Y42895181D01*
X41180952Y42895181D02*
X41371428Y42895181D01*
X41371428Y42895181D02*
X41466666Y42847562D01*
X41466666Y42847562D02*
X41514285Y42799943D01*
X41514285Y42799943D02*
X41561904Y42704705D01*
X41561904Y42704705D02*
X41561904Y42657086D01*
X41561904Y42657086D02*
X41514285Y42561848D01*
X41514285Y42561848D02*
X41466666Y42514229D01*
X41466666Y42514229D02*
X41371428Y42466610D01*
X41371428Y42466610D02*
X41180952Y42466610D01*
X41180952Y42466610D02*
X41085714Y42418991D01*
X41085714Y42418991D02*
X41038095Y42371372D01*
X41038095Y42371372D02*
X40990476Y42276134D01*
X40990476Y42276134D02*
X40990476Y42085658D01*
X40990476Y42085658D02*
X41038095Y41990420D01*
X41038095Y41990420D02*
X41085714Y41942800D01*
X41085714Y41942800D02*
X41180952Y41895181D01*
X41180952Y41895181D02*
X41371428Y41895181D01*
X41371428Y41895181D02*
X41466666Y41942800D01*
X41466666Y41942800D02*
X41514285Y41990420D01*
X41514285Y41990420D02*
X41561904Y42085658D01*
X41561904Y42085658D02*
X41561904Y42276134D01*
X41561904Y42276134D02*
X41514285Y42371372D01*
X41514285Y42371372D02*
X41466666Y42418991D01*
X41466666Y42418991D02*
X41371428Y42466610D01*
X55238095Y25795181D02*
X55238095Y26795181D01*
X55238095Y26318991D02*
X55809523Y26318991D01*
X55809523Y25795181D02*
X55809523Y26795181D01*
X56714285Y26461848D02*
X56714285Y25795181D01*
X56476190Y26842800D02*
X56238095Y26128515D01*
X56238095Y26128515D02*
X56857142Y26128515D01*
X47933333Y50995181D02*
X47600000Y51471372D01*
X47361905Y50995181D02*
X47361905Y51995181D01*
X47361905Y51995181D02*
X47742857Y51995181D01*
X47742857Y51995181D02*
X47838095Y51947562D01*
X47838095Y51947562D02*
X47885714Y51899943D01*
X47885714Y51899943D02*
X47933333Y51804705D01*
X47933333Y51804705D02*
X47933333Y51661848D01*
X47933333Y51661848D02*
X47885714Y51566610D01*
X47885714Y51566610D02*
X47838095Y51518991D01*
X47838095Y51518991D02*
X47742857Y51471372D01*
X47742857Y51471372D02*
X47361905Y51471372D01*
X48790476Y51661848D02*
X48790476Y50995181D01*
X48552381Y52042800D02*
X48314286Y51328515D01*
X48314286Y51328515D02*
X48933333Y51328515D01*
X55238095Y7795181D02*
X55238095Y8795181D01*
X55238095Y8318991D02*
X55809523Y8318991D01*
X55809523Y7795181D02*
X55809523Y8795181D01*
X56238095Y8699943D02*
X56285714Y8747562D01*
X56285714Y8747562D02*
X56380952Y8795181D01*
X56380952Y8795181D02*
X56619047Y8795181D01*
X56619047Y8795181D02*
X56714285Y8747562D01*
X56714285Y8747562D02*
X56761904Y8699943D01*
X56761904Y8699943D02*
X56809523Y8604705D01*
X56809523Y8604705D02*
X56809523Y8509467D01*
X56809523Y8509467D02*
X56761904Y8366610D01*
X56761904Y8366610D02*
X56190476Y7795181D01*
X56190476Y7795181D02*
X56809523Y7795181D01*
X41357142Y4890420D02*
X41309523Y4842800D01*
X41309523Y4842800D02*
X41166666Y4795181D01*
X41166666Y4795181D02*
X41071428Y4795181D01*
X41071428Y4795181D02*
X40928571Y4842800D01*
X40928571Y4842800D02*
X40833333Y4938039D01*
X40833333Y4938039D02*
X40785714Y5033277D01*
X40785714Y5033277D02*
X40738095Y5223753D01*
X40738095Y5223753D02*
X40738095Y5366610D01*
X40738095Y5366610D02*
X40785714Y5557086D01*
X40785714Y5557086D02*
X40833333Y5652324D01*
X40833333Y5652324D02*
X40928571Y5747562D01*
X40928571Y5747562D02*
X41071428Y5795181D01*
X41071428Y5795181D02*
X41166666Y5795181D01*
X41166666Y5795181D02*
X41309523Y5747562D01*
X41309523Y5747562D02*
X41357142Y5699943D01*
X41738095Y5699943D02*
X41785714Y5747562D01*
X41785714Y5747562D02*
X41880952Y5795181D01*
X41880952Y5795181D02*
X42119047Y5795181D01*
X42119047Y5795181D02*
X42214285Y5747562D01*
X42214285Y5747562D02*
X42261904Y5699943D01*
X42261904Y5699943D02*
X42309523Y5604705D01*
X42309523Y5604705D02*
X42309523Y5509467D01*
X42309523Y5509467D02*
X42261904Y5366610D01*
X42261904Y5366610D02*
X41690476Y4795181D01*
X41690476Y4795181D02*
X42309523Y4795181D01*
X42785714Y4795181D02*
X42976190Y4795181D01*
X42976190Y4795181D02*
X43071428Y4842800D01*
X43071428Y4842800D02*
X43119047Y4890420D01*
X43119047Y4890420D02*
X43214285Y5033277D01*
X43214285Y5033277D02*
X43261904Y5223753D01*
X43261904Y5223753D02*
X43261904Y5604705D01*
X43261904Y5604705D02*
X43214285Y5699943D01*
X43214285Y5699943D02*
X43166666Y5747562D01*
X43166666Y5747562D02*
X43071428Y5795181D01*
X43071428Y5795181D02*
X42880952Y5795181D01*
X42880952Y5795181D02*
X42785714Y5747562D01*
X42785714Y5747562D02*
X42738095Y5699943D01*
X42738095Y5699943D02*
X42690476Y5604705D01*
X42690476Y5604705D02*
X42690476Y5366610D01*
X42690476Y5366610D02*
X42738095Y5271372D01*
X42738095Y5271372D02*
X42785714Y5223753D01*
X42785714Y5223753D02*
X42880952Y5176134D01*
X42880952Y5176134D02*
X43071428Y5176134D01*
X43071428Y5176134D02*
X43166666Y5223753D01*
X43166666Y5223753D02*
X43214285Y5271372D01*
X43214285Y5271372D02*
X43261904Y5366610D01*
X31357142Y30890420D02*
X31309523Y30842800D01*
X31309523Y30842800D02*
X31166666Y30795181D01*
X31166666Y30795181D02*
X31071428Y30795181D01*
X31071428Y30795181D02*
X30928571Y30842800D01*
X30928571Y30842800D02*
X30833333Y30938039D01*
X30833333Y30938039D02*
X30785714Y31033277D01*
X30785714Y31033277D02*
X30738095Y31223753D01*
X30738095Y31223753D02*
X30738095Y31366610D01*
X30738095Y31366610D02*
X30785714Y31557086D01*
X30785714Y31557086D02*
X30833333Y31652324D01*
X30833333Y31652324D02*
X30928571Y31747562D01*
X30928571Y31747562D02*
X31071428Y31795181D01*
X31071428Y31795181D02*
X31166666Y31795181D01*
X31166666Y31795181D02*
X31309523Y31747562D01*
X31309523Y31747562D02*
X31357142Y31699943D01*
X32309523Y30795181D02*
X31738095Y30795181D01*
X32023809Y30795181D02*
X32023809Y31795181D01*
X32023809Y31795181D02*
X31928571Y31652324D01*
X31928571Y31652324D02*
X31833333Y31557086D01*
X31833333Y31557086D02*
X31738095Y31509467D01*
X32928571Y31795181D02*
X33023809Y31795181D01*
X33023809Y31795181D02*
X33119047Y31747562D01*
X33119047Y31747562D02*
X33166666Y31699943D01*
X33166666Y31699943D02*
X33214285Y31604705D01*
X33214285Y31604705D02*
X33261904Y31414229D01*
X33261904Y31414229D02*
X33261904Y31176134D01*
X33261904Y31176134D02*
X33214285Y30985658D01*
X33214285Y30985658D02*
X33166666Y30890420D01*
X33166666Y30890420D02*
X33119047Y30842800D01*
X33119047Y30842800D02*
X33023809Y30795181D01*
X33023809Y30795181D02*
X32928571Y30795181D01*
X32928571Y30795181D02*
X32833333Y30842800D01*
X32833333Y30842800D02*
X32785714Y30890420D01*
X32785714Y30890420D02*
X32738095Y30985658D01*
X32738095Y30985658D02*
X32690476Y31176134D01*
X32690476Y31176134D02*
X32690476Y31414229D01*
X32690476Y31414229D02*
X32738095Y31604705D01*
X32738095Y31604705D02*
X32785714Y31699943D01*
X32785714Y31699943D02*
X32833333Y31747562D01*
X32833333Y31747562D02*
X32928571Y31795181D01*
X24154819Y36335715D02*
X23154819Y36335715D01*
X23154819Y36335715D02*
X23154819Y36573810D01*
X23154819Y36573810D02*
X23202438Y36716667D01*
X23202438Y36716667D02*
X23297676Y36811905D01*
X23297676Y36811905D02*
X23392914Y36859524D01*
X23392914Y36859524D02*
X23583390Y36907143D01*
X23583390Y36907143D02*
X23726247Y36907143D01*
X23726247Y36907143D02*
X23916723Y36859524D01*
X23916723Y36859524D02*
X24011961Y36811905D01*
X24011961Y36811905D02*
X24107200Y36716667D01*
X24107200Y36716667D02*
X24154819Y36573810D01*
X24154819Y36573810D02*
X24154819Y36335715D01*
X24154819Y37859524D02*
X24154819Y37288096D01*
X24154819Y37573810D02*
X23154819Y37573810D01*
X23154819Y37573810D02*
X23297676Y37478572D01*
X23297676Y37478572D02*
X23392914Y37383334D01*
X23392914Y37383334D02*
X23440533Y37288096D01*
X23154819Y38192858D02*
X23154819Y38859524D01*
X23154819Y38859524D02*
X24154819Y38430953D01*
X6978628Y40773810D02*
X7454819Y40773810D01*
X6454819Y40440477D02*
X6978628Y40773810D01*
X6978628Y40773810D02*
X6454819Y41107143D01*
X7454819Y41964286D02*
X7454819Y41392858D01*
X7454819Y41678572D02*
X6454819Y41678572D01*
X6454819Y41678572D02*
X6597676Y41583334D01*
X6597676Y41583334D02*
X6692914Y41488096D01*
X6692914Y41488096D02*
X6740533Y41392858D01*
X53633333Y51095181D02*
X53300000Y51571372D01*
X53061905Y51095181D02*
X53061905Y52095181D01*
X53061905Y52095181D02*
X53442857Y52095181D01*
X53442857Y52095181D02*
X53538095Y52047562D01*
X53538095Y52047562D02*
X53585714Y51999943D01*
X53585714Y51999943D02*
X53633333Y51904705D01*
X53633333Y51904705D02*
X53633333Y51761848D01*
X53633333Y51761848D02*
X53585714Y51666610D01*
X53585714Y51666610D02*
X53538095Y51618991D01*
X53538095Y51618991D02*
X53442857Y51571372D01*
X53442857Y51571372D02*
X53061905Y51571372D01*
X53966667Y52095181D02*
X54633333Y52095181D01*
X54633333Y52095181D02*
X54204762Y51095181D01*
X29857142Y4890420D02*
X29809523Y4842800D01*
X29809523Y4842800D02*
X29666666Y4795181D01*
X29666666Y4795181D02*
X29571428Y4795181D01*
X29571428Y4795181D02*
X29428571Y4842800D01*
X29428571Y4842800D02*
X29333333Y4938039D01*
X29333333Y4938039D02*
X29285714Y5033277D01*
X29285714Y5033277D02*
X29238095Y5223753D01*
X29238095Y5223753D02*
X29238095Y5366610D01*
X29238095Y5366610D02*
X29285714Y5557086D01*
X29285714Y5557086D02*
X29333333Y5652324D01*
X29333333Y5652324D02*
X29428571Y5747562D01*
X29428571Y5747562D02*
X29571428Y5795181D01*
X29571428Y5795181D02*
X29666666Y5795181D01*
X29666666Y5795181D02*
X29809523Y5747562D01*
X29809523Y5747562D02*
X29857142Y5699943D01*
X30238095Y5699943D02*
X30285714Y5747562D01*
X30285714Y5747562D02*
X30380952Y5795181D01*
X30380952Y5795181D02*
X30619047Y5795181D01*
X30619047Y5795181D02*
X30714285Y5747562D01*
X30714285Y5747562D02*
X30761904Y5699943D01*
X30761904Y5699943D02*
X30809523Y5604705D01*
X30809523Y5604705D02*
X30809523Y5509467D01*
X30809523Y5509467D02*
X30761904Y5366610D01*
X30761904Y5366610D02*
X30190476Y4795181D01*
X30190476Y4795181D02*
X30809523Y4795181D01*
X31142857Y5795181D02*
X31809523Y5795181D01*
X31809523Y5795181D02*
X31380952Y4795181D01*
X48661905Y34895181D02*
X48661905Y35895181D01*
X48661905Y35895181D02*
X48900000Y35895181D01*
X48900000Y35895181D02*
X49042857Y35847562D01*
X49042857Y35847562D02*
X49138095Y35752324D01*
X49138095Y35752324D02*
X49185714Y35657086D01*
X49185714Y35657086D02*
X49233333Y35466610D01*
X49233333Y35466610D02*
X49233333Y35323753D01*
X49233333Y35323753D02*
X49185714Y35133277D01*
X49185714Y35133277D02*
X49138095Y35038039D01*
X49138095Y35038039D02*
X49042857Y34942800D01*
X49042857Y34942800D02*
X48900000Y34895181D01*
X48900000Y34895181D02*
X48661905Y34895181D01*
X50090476Y35895181D02*
X49900000Y35895181D01*
X49900000Y35895181D02*
X49804762Y35847562D01*
X49804762Y35847562D02*
X49757143Y35799943D01*
X49757143Y35799943D02*
X49661905Y35657086D01*
X49661905Y35657086D02*
X49614286Y35466610D01*
X49614286Y35466610D02*
X49614286Y35085658D01*
X49614286Y35085658D02*
X49661905Y34990420D01*
X49661905Y34990420D02*
X49709524Y34942800D01*
X49709524Y34942800D02*
X49804762Y34895181D01*
X49804762Y34895181D02*
X49995238Y34895181D01*
X49995238Y34895181D02*
X50090476Y34942800D01*
X50090476Y34942800D02*
X50138095Y34990420D01*
X50138095Y34990420D02*
X50185714Y35085658D01*
X50185714Y35085658D02*
X50185714Y35323753D01*
X50185714Y35323753D02*
X50138095Y35418991D01*
X50138095Y35418991D02*
X50090476Y35466610D01*
X50090476Y35466610D02*
X49995238Y35514229D01*
X49995238Y35514229D02*
X49804762Y35514229D01*
X49804762Y35514229D02*
X49709524Y35466610D01*
X49709524Y35466610D02*
X49661905Y35418991D01*
X49661905Y35418991D02*
X49614286Y35323753D01*
X44785714Y8795181D02*
X44785714Y9795181D01*
X44785714Y9795181D02*
X45023809Y9795181D01*
X45023809Y9795181D02*
X45166666Y9747562D01*
X45166666Y9747562D02*
X45261904Y9652324D01*
X45261904Y9652324D02*
X45309523Y9557086D01*
X45309523Y9557086D02*
X45357142Y9366610D01*
X45357142Y9366610D02*
X45357142Y9223753D01*
X45357142Y9223753D02*
X45309523Y9033277D01*
X45309523Y9033277D02*
X45261904Y8938039D01*
X45261904Y8938039D02*
X45166666Y8842800D01*
X45166666Y8842800D02*
X45023809Y8795181D01*
X45023809Y8795181D02*
X44785714Y8795181D01*
X46309523Y8795181D02*
X45738095Y8795181D01*
X46023809Y8795181D02*
X46023809Y9795181D01*
X46023809Y9795181D02*
X45928571Y9652324D01*
X45928571Y9652324D02*
X45833333Y9557086D01*
X45833333Y9557086D02*
X45738095Y9509467D01*
X46690476Y9699943D02*
X46738095Y9747562D01*
X46738095Y9747562D02*
X46833333Y9795181D01*
X46833333Y9795181D02*
X47071428Y9795181D01*
X47071428Y9795181D02*
X47166666Y9747562D01*
X47166666Y9747562D02*
X47214285Y9699943D01*
X47214285Y9699943D02*
X47261904Y9604705D01*
X47261904Y9604705D02*
X47261904Y9509467D01*
X47261904Y9509467D02*
X47214285Y9366610D01*
X47214285Y9366610D02*
X46642857Y8795181D01*
X46642857Y8795181D02*
X47261904Y8795181D01*
X33857142Y57390420D02*
X33809523Y57342800D01*
X33809523Y57342800D02*
X33666666Y57295181D01*
X33666666Y57295181D02*
X33571428Y57295181D01*
X33571428Y57295181D02*
X33428571Y57342800D01*
X33428571Y57342800D02*
X33333333Y57438039D01*
X33333333Y57438039D02*
X33285714Y57533277D01*
X33285714Y57533277D02*
X33238095Y57723753D01*
X33238095Y57723753D02*
X33238095Y57866610D01*
X33238095Y57866610D02*
X33285714Y58057086D01*
X33285714Y58057086D02*
X33333333Y58152324D01*
X33333333Y58152324D02*
X33428571Y58247562D01*
X33428571Y58247562D02*
X33571428Y58295181D01*
X33571428Y58295181D02*
X33666666Y58295181D01*
X33666666Y58295181D02*
X33809523Y58247562D01*
X33809523Y58247562D02*
X33857142Y58199943D01*
X34190476Y58295181D02*
X34809523Y58295181D01*
X34809523Y58295181D02*
X34476190Y57914229D01*
X34476190Y57914229D02*
X34619047Y57914229D01*
X34619047Y57914229D02*
X34714285Y57866610D01*
X34714285Y57866610D02*
X34761904Y57818991D01*
X34761904Y57818991D02*
X34809523Y57723753D01*
X34809523Y57723753D02*
X34809523Y57485658D01*
X34809523Y57485658D02*
X34761904Y57390420D01*
X34761904Y57390420D02*
X34714285Y57342800D01*
X34714285Y57342800D02*
X34619047Y57295181D01*
X34619047Y57295181D02*
X34333333Y57295181D01*
X34333333Y57295181D02*
X34238095Y57342800D01*
X34238095Y57342800D02*
X34190476Y57390420D01*
X35380952Y57866610D02*
X35285714Y57914229D01*
X35285714Y57914229D02*
X35238095Y57961848D01*
X35238095Y57961848D02*
X35190476Y58057086D01*
X35190476Y58057086D02*
X35190476Y58104705D01*
X35190476Y58104705D02*
X35238095Y58199943D01*
X35238095Y58199943D02*
X35285714Y58247562D01*
X35285714Y58247562D02*
X35380952Y58295181D01*
X35380952Y58295181D02*
X35571428Y58295181D01*
X35571428Y58295181D02*
X35666666Y58247562D01*
X35666666Y58247562D02*
X35714285Y58199943D01*
X35714285Y58199943D02*
X35761904Y58104705D01*
X35761904Y58104705D02*
X35761904Y58057086D01*
X35761904Y58057086D02*
X35714285Y57961848D01*
X35714285Y57961848D02*
X35666666Y57914229D01*
X35666666Y57914229D02*
X35571428Y57866610D01*
X35571428Y57866610D02*
X35380952Y57866610D01*
X35380952Y57866610D02*
X35285714Y57818991D01*
X35285714Y57818991D02*
X35238095Y57771372D01*
X35238095Y57771372D02*
X35190476Y57676134D01*
X35190476Y57676134D02*
X35190476Y57485658D01*
X35190476Y57485658D02*
X35238095Y57390420D01*
X35238095Y57390420D02*
X35285714Y57342800D01*
X35285714Y57342800D02*
X35380952Y57295181D01*
X35380952Y57295181D02*
X35571428Y57295181D01*
X35571428Y57295181D02*
X35666666Y57342800D01*
X35666666Y57342800D02*
X35714285Y57390420D01*
X35714285Y57390420D02*
X35761904Y57485658D01*
X35761904Y57485658D02*
X35761904Y57676134D01*
X35761904Y57676134D02*
X35714285Y57771372D01*
X35714285Y57771372D02*
X35666666Y57818991D01*
X35666666Y57818991D02*
X35571428Y57866610D01*
X29159580Y37907143D02*
X29207200Y37859524D01*
X29207200Y37859524D02*
X29254819Y37716667D01*
X29254819Y37716667D02*
X29254819Y37621429D01*
X29254819Y37621429D02*
X29207200Y37478572D01*
X29207200Y37478572D02*
X29111961Y37383334D01*
X29111961Y37383334D02*
X29016723Y37335715D01*
X29016723Y37335715D02*
X28826247Y37288096D01*
X28826247Y37288096D02*
X28683390Y37288096D01*
X28683390Y37288096D02*
X28492914Y37335715D01*
X28492914Y37335715D02*
X28397676Y37383334D01*
X28397676Y37383334D02*
X28302438Y37478572D01*
X28302438Y37478572D02*
X28254819Y37621429D01*
X28254819Y37621429D02*
X28254819Y37716667D01*
X28254819Y37716667D02*
X28302438Y37859524D01*
X28302438Y37859524D02*
X28350057Y37907143D01*
X28350057Y38288096D02*
X28302438Y38335715D01*
X28302438Y38335715D02*
X28254819Y38430953D01*
X28254819Y38430953D02*
X28254819Y38669048D01*
X28254819Y38669048D02*
X28302438Y38764286D01*
X28302438Y38764286D02*
X28350057Y38811905D01*
X28350057Y38811905D02*
X28445295Y38859524D01*
X28445295Y38859524D02*
X28540533Y38859524D01*
X28540533Y38859524D02*
X28683390Y38811905D01*
X28683390Y38811905D02*
X29254819Y38240477D01*
X29254819Y38240477D02*
X29254819Y38859524D01*
X29254819Y39811905D02*
X29254819Y39240477D01*
X29254819Y39526191D02*
X28254819Y39526191D01*
X28254819Y39526191D02*
X28397676Y39430953D01*
X28397676Y39430953D02*
X28492914Y39335715D01*
X28492914Y39335715D02*
X28540533Y39240477D01*
X42333333Y21890420D02*
X42285714Y21842800D01*
X42285714Y21842800D02*
X42142857Y21795181D01*
X42142857Y21795181D02*
X42047619Y21795181D01*
X42047619Y21795181D02*
X41904762Y21842800D01*
X41904762Y21842800D02*
X41809524Y21938039D01*
X41809524Y21938039D02*
X41761905Y22033277D01*
X41761905Y22033277D02*
X41714286Y22223753D01*
X41714286Y22223753D02*
X41714286Y22366610D01*
X41714286Y22366610D02*
X41761905Y22557086D01*
X41761905Y22557086D02*
X41809524Y22652324D01*
X41809524Y22652324D02*
X41904762Y22747562D01*
X41904762Y22747562D02*
X42047619Y22795181D01*
X42047619Y22795181D02*
X42142857Y22795181D01*
X42142857Y22795181D02*
X42285714Y22747562D01*
X42285714Y22747562D02*
X42333333Y22699943D01*
X42809524Y21795181D02*
X43000000Y21795181D01*
X43000000Y21795181D02*
X43095238Y21842800D01*
X43095238Y21842800D02*
X43142857Y21890420D01*
X43142857Y21890420D02*
X43238095Y22033277D01*
X43238095Y22033277D02*
X43285714Y22223753D01*
X43285714Y22223753D02*
X43285714Y22604705D01*
X43285714Y22604705D02*
X43238095Y22699943D01*
X43238095Y22699943D02*
X43190476Y22747562D01*
X43190476Y22747562D02*
X43095238Y22795181D01*
X43095238Y22795181D02*
X42904762Y22795181D01*
X42904762Y22795181D02*
X42809524Y22747562D01*
X42809524Y22747562D02*
X42761905Y22699943D01*
X42761905Y22699943D02*
X42714286Y22604705D01*
X42714286Y22604705D02*
X42714286Y22366610D01*
X42714286Y22366610D02*
X42761905Y22271372D01*
X42761905Y22271372D02*
X42809524Y22223753D01*
X42809524Y22223753D02*
X42904762Y22176134D01*
X42904762Y22176134D02*
X43095238Y22176134D01*
X43095238Y22176134D02*
X43190476Y22223753D01*
X43190476Y22223753D02*
X43238095Y22271372D01*
X43238095Y22271372D02*
X43285714Y22366610D01*
X19857142Y30890420D02*
X19809523Y30842800D01*
X19809523Y30842800D02*
X19666666Y30795181D01*
X19666666Y30795181D02*
X19571428Y30795181D01*
X19571428Y30795181D02*
X19428571Y30842800D01*
X19428571Y30842800D02*
X19333333Y30938039D01*
X19333333Y30938039D02*
X19285714Y31033277D01*
X19285714Y31033277D02*
X19238095Y31223753D01*
X19238095Y31223753D02*
X19238095Y31366610D01*
X19238095Y31366610D02*
X19285714Y31557086D01*
X19285714Y31557086D02*
X19333333Y31652324D01*
X19333333Y31652324D02*
X19428571Y31747562D01*
X19428571Y31747562D02*
X19571428Y31795181D01*
X19571428Y31795181D02*
X19666666Y31795181D01*
X19666666Y31795181D02*
X19809523Y31747562D01*
X19809523Y31747562D02*
X19857142Y31699943D01*
X20809523Y30795181D02*
X20238095Y30795181D01*
X20523809Y30795181D02*
X20523809Y31795181D01*
X20523809Y31795181D02*
X20428571Y31652324D01*
X20428571Y31652324D02*
X20333333Y31557086D01*
X20333333Y31557086D02*
X20238095Y31509467D01*
X21190476Y31699943D02*
X21238095Y31747562D01*
X21238095Y31747562D02*
X21333333Y31795181D01*
X21333333Y31795181D02*
X21571428Y31795181D01*
X21571428Y31795181D02*
X21666666Y31747562D01*
X21666666Y31747562D02*
X21714285Y31699943D01*
X21714285Y31699943D02*
X21761904Y31604705D01*
X21761904Y31604705D02*
X21761904Y31509467D01*
X21761904Y31509467D02*
X21714285Y31366610D01*
X21714285Y31366610D02*
X21142857Y30795181D01*
X21142857Y30795181D02*
X21761904Y30795181D01*
X51833333Y35065420D02*
X51785714Y35017800D01*
X51785714Y35017800D02*
X51642857Y34970181D01*
X51642857Y34970181D02*
X51547619Y34970181D01*
X51547619Y34970181D02*
X51404762Y35017800D01*
X51404762Y35017800D02*
X51309524Y35113039D01*
X51309524Y35113039D02*
X51261905Y35208277D01*
X51261905Y35208277D02*
X51214286Y35398753D01*
X51214286Y35398753D02*
X51214286Y35541610D01*
X51214286Y35541610D02*
X51261905Y35732086D01*
X51261905Y35732086D02*
X51309524Y35827324D01*
X51309524Y35827324D02*
X51404762Y35922562D01*
X51404762Y35922562D02*
X51547619Y35970181D01*
X51547619Y35970181D02*
X51642857Y35970181D01*
X51642857Y35970181D02*
X51785714Y35922562D01*
X51785714Y35922562D02*
X51833333Y35874943D01*
X52738095Y35970181D02*
X52261905Y35970181D01*
X52261905Y35970181D02*
X52214286Y35493991D01*
X52214286Y35493991D02*
X52261905Y35541610D01*
X52261905Y35541610D02*
X52357143Y35589229D01*
X52357143Y35589229D02*
X52595238Y35589229D01*
X52595238Y35589229D02*
X52690476Y35541610D01*
X52690476Y35541610D02*
X52738095Y35493991D01*
X52738095Y35493991D02*
X52785714Y35398753D01*
X52785714Y35398753D02*
X52785714Y35160658D01*
X52785714Y35160658D02*
X52738095Y35065420D01*
X52738095Y35065420D02*
X52690476Y35017800D01*
X52690476Y35017800D02*
X52595238Y34970181D01*
X52595238Y34970181D02*
X52357143Y34970181D01*
X52357143Y34970181D02*
X52261905Y35017800D01*
X52261905Y35017800D02*
X52214286Y35065420D01*
X9679580Y43607143D02*
X9727200Y43559524D01*
X9727200Y43559524D02*
X9774819Y43416667D01*
X9774819Y43416667D02*
X9774819Y43321429D01*
X9774819Y43321429D02*
X9727200Y43178572D01*
X9727200Y43178572D02*
X9631961Y43083334D01*
X9631961Y43083334D02*
X9536723Y43035715D01*
X9536723Y43035715D02*
X9346247Y42988096D01*
X9346247Y42988096D02*
X9203390Y42988096D01*
X9203390Y42988096D02*
X9012914Y43035715D01*
X9012914Y43035715D02*
X8917676Y43083334D01*
X8917676Y43083334D02*
X8822438Y43178572D01*
X8822438Y43178572D02*
X8774819Y43321429D01*
X8774819Y43321429D02*
X8774819Y43416667D01*
X8774819Y43416667D02*
X8822438Y43559524D01*
X8822438Y43559524D02*
X8870057Y43607143D01*
X9108152Y44464286D02*
X9774819Y44464286D01*
X8727200Y44226191D02*
X9441485Y43988096D01*
X9441485Y43988096D02*
X9441485Y44607143D01*
X9108152Y45416667D02*
X9774819Y45416667D01*
X8727200Y45178572D02*
X9441485Y44940477D01*
X9441485Y44940477D02*
X9441485Y45559524D01*
X17709580Y26083334D02*
X17757200Y26035715D01*
X17757200Y26035715D02*
X17804819Y25892858D01*
X17804819Y25892858D02*
X17804819Y25797620D01*
X17804819Y25797620D02*
X17757200Y25654763D01*
X17757200Y25654763D02*
X17661961Y25559525D01*
X17661961Y25559525D02*
X17566723Y25511906D01*
X17566723Y25511906D02*
X17376247Y25464287D01*
X17376247Y25464287D02*
X17233390Y25464287D01*
X17233390Y25464287D02*
X17042914Y25511906D01*
X17042914Y25511906D02*
X16947676Y25559525D01*
X16947676Y25559525D02*
X16852438Y25654763D01*
X16852438Y25654763D02*
X16804819Y25797620D01*
X16804819Y25797620D02*
X16804819Y25892858D01*
X16804819Y25892858D02*
X16852438Y26035715D01*
X16852438Y26035715D02*
X16900057Y26083334D01*
X17233390Y26654763D02*
X17185771Y26559525D01*
X17185771Y26559525D02*
X17138152Y26511906D01*
X17138152Y26511906D02*
X17042914Y26464287D01*
X17042914Y26464287D02*
X16995295Y26464287D01*
X16995295Y26464287D02*
X16900057Y26511906D01*
X16900057Y26511906D02*
X16852438Y26559525D01*
X16852438Y26559525D02*
X16804819Y26654763D01*
X16804819Y26654763D02*
X16804819Y26845239D01*
X16804819Y26845239D02*
X16852438Y26940477D01*
X16852438Y26940477D02*
X16900057Y26988096D01*
X16900057Y26988096D02*
X16995295Y27035715D01*
X16995295Y27035715D02*
X17042914Y27035715D01*
X17042914Y27035715D02*
X17138152Y26988096D01*
X17138152Y26988096D02*
X17185771Y26940477D01*
X17185771Y26940477D02*
X17233390Y26845239D01*
X17233390Y26845239D02*
X17233390Y26654763D01*
X17233390Y26654763D02*
X17281009Y26559525D01*
X17281009Y26559525D02*
X17328628Y26511906D01*
X17328628Y26511906D02*
X17423866Y26464287D01*
X17423866Y26464287D02*
X17614342Y26464287D01*
X17614342Y26464287D02*
X17709580Y26511906D01*
X17709580Y26511906D02*
X17757200Y26559525D01*
X17757200Y26559525D02*
X17804819Y26654763D01*
X17804819Y26654763D02*
X17804819Y26845239D01*
X17804819Y26845239D02*
X17757200Y26940477D01*
X17757200Y26940477D02*
X17709580Y26988096D01*
X17709580Y26988096D02*
X17614342Y27035715D01*
X17614342Y27035715D02*
X17423866Y27035715D01*
X17423866Y27035715D02*
X17328628Y26988096D01*
X17328628Y26988096D02*
X17281009Y26940477D01*
X17281009Y26940477D02*
X17233390Y26845239D01*
X32333333Y34890420D02*
X32285714Y34842800D01*
X32285714Y34842800D02*
X32142857Y34795181D01*
X32142857Y34795181D02*
X32047619Y34795181D01*
X32047619Y34795181D02*
X31904762Y34842800D01*
X31904762Y34842800D02*
X31809524Y34938039D01*
X31809524Y34938039D02*
X31761905Y35033277D01*
X31761905Y35033277D02*
X31714286Y35223753D01*
X31714286Y35223753D02*
X31714286Y35366610D01*
X31714286Y35366610D02*
X31761905Y35557086D01*
X31761905Y35557086D02*
X31809524Y35652324D01*
X31809524Y35652324D02*
X31904762Y35747562D01*
X31904762Y35747562D02*
X32047619Y35795181D01*
X32047619Y35795181D02*
X32142857Y35795181D01*
X32142857Y35795181D02*
X32285714Y35747562D01*
X32285714Y35747562D02*
X32333333Y35699943D01*
X33190476Y35461848D02*
X33190476Y34795181D01*
X32952381Y35842800D02*
X32714286Y35128515D01*
X32714286Y35128515D02*
X33333333Y35128515D01*
X5907200Y41416668D02*
X5954819Y41559525D01*
X5954819Y41559525D02*
X5954819Y41797620D01*
X5954819Y41797620D02*
X5907200Y41892858D01*
X5907200Y41892858D02*
X5859580Y41940477D01*
X5859580Y41940477D02*
X5764342Y41988096D01*
X5764342Y41988096D02*
X5669104Y41988096D01*
X5669104Y41988096D02*
X5573866Y41940477D01*
X5573866Y41940477D02*
X5526247Y41892858D01*
X5526247Y41892858D02*
X5478628Y41797620D01*
X5478628Y41797620D02*
X5431009Y41607144D01*
X5431009Y41607144D02*
X5383390Y41511906D01*
X5383390Y41511906D02*
X5335771Y41464287D01*
X5335771Y41464287D02*
X5240533Y41416668D01*
X5240533Y41416668D02*
X5145295Y41416668D01*
X5145295Y41416668D02*
X5050057Y41464287D01*
X5050057Y41464287D02*
X5002438Y41511906D01*
X5002438Y41511906D02*
X4954819Y41607144D01*
X4954819Y41607144D02*
X4954819Y41845239D01*
X4954819Y41845239D02*
X5002438Y41988096D01*
X4954819Y42321430D02*
X5954819Y42559525D01*
X5954819Y42559525D02*
X5240533Y42750001D01*
X5240533Y42750001D02*
X5954819Y42940477D01*
X5954819Y42940477D02*
X4954819Y43178572D01*
X5288152Y43988096D02*
X5954819Y43988096D01*
X4907200Y43750001D02*
X5621485Y43511906D01*
X5621485Y43511906D02*
X5621485Y44130953D01*
X32633333Y50995181D02*
X32300000Y51471372D01*
X32061905Y50995181D02*
X32061905Y51995181D01*
X32061905Y51995181D02*
X32442857Y51995181D01*
X32442857Y51995181D02*
X32538095Y51947562D01*
X32538095Y51947562D02*
X32585714Y51899943D01*
X32585714Y51899943D02*
X32633333Y51804705D01*
X32633333Y51804705D02*
X32633333Y51661848D01*
X32633333Y51661848D02*
X32585714Y51566610D01*
X32585714Y51566610D02*
X32538095Y51518991D01*
X32538095Y51518991D02*
X32442857Y51471372D01*
X32442857Y51471372D02*
X32061905Y51471372D01*
X32966667Y51995181D02*
X33585714Y51995181D01*
X33585714Y51995181D02*
X33252381Y51614229D01*
X33252381Y51614229D02*
X33395238Y51614229D01*
X33395238Y51614229D02*
X33490476Y51566610D01*
X33490476Y51566610D02*
X33538095Y51518991D01*
X33538095Y51518991D02*
X33585714Y51423753D01*
X33585714Y51423753D02*
X33585714Y51185658D01*
X33585714Y51185658D02*
X33538095Y51090420D01*
X33538095Y51090420D02*
X33490476Y51042800D01*
X33490476Y51042800D02*
X33395238Y50995181D01*
X33395238Y50995181D02*
X33109524Y50995181D01*
X33109524Y50995181D02*
X33014286Y51042800D01*
X33014286Y51042800D02*
X32966667Y51090420D01*
X55557142Y51290420D02*
X55509523Y51242800D01*
X55509523Y51242800D02*
X55366666Y51195181D01*
X55366666Y51195181D02*
X55271428Y51195181D01*
X55271428Y51195181D02*
X55128571Y51242800D01*
X55128571Y51242800D02*
X55033333Y51338039D01*
X55033333Y51338039D02*
X54985714Y51433277D01*
X54985714Y51433277D02*
X54938095Y51623753D01*
X54938095Y51623753D02*
X54938095Y51766610D01*
X54938095Y51766610D02*
X54985714Y51957086D01*
X54985714Y51957086D02*
X55033333Y52052324D01*
X55033333Y52052324D02*
X55128571Y52147562D01*
X55128571Y52147562D02*
X55271428Y52195181D01*
X55271428Y52195181D02*
X55366666Y52195181D01*
X55366666Y52195181D02*
X55509523Y52147562D01*
X55509523Y52147562D02*
X55557142Y52099943D01*
X56509523Y51195181D02*
X55938095Y51195181D01*
X56223809Y51195181D02*
X56223809Y52195181D01*
X56223809Y52195181D02*
X56128571Y52052324D01*
X56128571Y52052324D02*
X56033333Y51957086D01*
X56033333Y51957086D02*
X55938095Y51909467D01*
X57366666Y52195181D02*
X57176190Y52195181D01*
X57176190Y52195181D02*
X57080952Y52147562D01*
X57080952Y52147562D02*
X57033333Y52099943D01*
X57033333Y52099943D02*
X56938095Y51957086D01*
X56938095Y51957086D02*
X56890476Y51766610D01*
X56890476Y51766610D02*
X56890476Y51385658D01*
X56890476Y51385658D02*
X56938095Y51290420D01*
X56938095Y51290420D02*
X56985714Y51242800D01*
X56985714Y51242800D02*
X57080952Y51195181D01*
X57080952Y51195181D02*
X57271428Y51195181D01*
X57271428Y51195181D02*
X57366666Y51242800D01*
X57366666Y51242800D02*
X57414285Y51290420D01*
X57414285Y51290420D02*
X57461904Y51385658D01*
X57461904Y51385658D02*
X57461904Y51623753D01*
X57461904Y51623753D02*
X57414285Y51718991D01*
X57414285Y51718991D02*
X57366666Y51766610D01*
X57366666Y51766610D02*
X57271428Y51814229D01*
X57271428Y51814229D02*
X57080952Y51814229D01*
X57080952Y51814229D02*
X56985714Y51766610D01*
X56985714Y51766610D02*
X56938095Y51718991D01*
X56938095Y51718991D02*
X56890476Y51623753D01*
X23257142Y39195181D02*
X22923809Y39671372D01*
X22685714Y39195181D02*
X22685714Y40195181D01*
X22685714Y40195181D02*
X23066666Y40195181D01*
X23066666Y40195181D02*
X23161904Y40147562D01*
X23161904Y40147562D02*
X23209523Y40099943D01*
X23209523Y40099943D02*
X23257142Y40004705D01*
X23257142Y40004705D02*
X23257142Y39861848D01*
X23257142Y39861848D02*
X23209523Y39766610D01*
X23209523Y39766610D02*
X23161904Y39718991D01*
X23161904Y39718991D02*
X23066666Y39671372D01*
X23066666Y39671372D02*
X22685714Y39671372D01*
X23590476Y40195181D02*
X24209523Y40195181D01*
X24209523Y40195181D02*
X23876190Y39814229D01*
X23876190Y39814229D02*
X24019047Y39814229D01*
X24019047Y39814229D02*
X24114285Y39766610D01*
X24114285Y39766610D02*
X24161904Y39718991D01*
X24161904Y39718991D02*
X24209523Y39623753D01*
X24209523Y39623753D02*
X24209523Y39385658D01*
X24209523Y39385658D02*
X24161904Y39290420D01*
X24161904Y39290420D02*
X24114285Y39242800D01*
X24114285Y39242800D02*
X24019047Y39195181D01*
X24019047Y39195181D02*
X23733333Y39195181D01*
X23733333Y39195181D02*
X23638095Y39242800D01*
X23638095Y39242800D02*
X23590476Y39290420D01*
X24590476Y40099943D02*
X24638095Y40147562D01*
X24638095Y40147562D02*
X24733333Y40195181D01*
X24733333Y40195181D02*
X24971428Y40195181D01*
X24971428Y40195181D02*
X25066666Y40147562D01*
X25066666Y40147562D02*
X25114285Y40099943D01*
X25114285Y40099943D02*
X25161904Y40004705D01*
X25161904Y40004705D02*
X25161904Y39909467D01*
X25161904Y39909467D02*
X25114285Y39766610D01*
X25114285Y39766610D02*
X24542857Y39195181D01*
X24542857Y39195181D02*
X25161904Y39195181D01*
X39057142Y55395181D02*
X38723809Y55871372D01*
X38485714Y55395181D02*
X38485714Y56395181D01*
X38485714Y56395181D02*
X38866666Y56395181D01*
X38866666Y56395181D02*
X38961904Y56347562D01*
X38961904Y56347562D02*
X39009523Y56299943D01*
X39009523Y56299943D02*
X39057142Y56204705D01*
X39057142Y56204705D02*
X39057142Y56061848D01*
X39057142Y56061848D02*
X39009523Y55966610D01*
X39009523Y55966610D02*
X38961904Y55918991D01*
X38961904Y55918991D02*
X38866666Y55871372D01*
X38866666Y55871372D02*
X38485714Y55871372D01*
X39390476Y56395181D02*
X40009523Y56395181D01*
X40009523Y56395181D02*
X39676190Y56014229D01*
X39676190Y56014229D02*
X39819047Y56014229D01*
X39819047Y56014229D02*
X39914285Y55966610D01*
X39914285Y55966610D02*
X39961904Y55918991D01*
X39961904Y55918991D02*
X40009523Y55823753D01*
X40009523Y55823753D02*
X40009523Y55585658D01*
X40009523Y55585658D02*
X39961904Y55490420D01*
X39961904Y55490420D02*
X39914285Y55442800D01*
X39914285Y55442800D02*
X39819047Y55395181D01*
X39819047Y55395181D02*
X39533333Y55395181D01*
X39533333Y55395181D02*
X39438095Y55442800D01*
X39438095Y55442800D02*
X39390476Y55490420D01*
X40866666Y56061848D02*
X40866666Y55395181D01*
X40628571Y56442800D02*
X40390476Y55728515D01*
X40390476Y55728515D02*
X41009523Y55728515D01*
X18209580Y17107143D02*
X18257200Y17059524D01*
X18257200Y17059524D02*
X18304819Y16916667D01*
X18304819Y16916667D02*
X18304819Y16821429D01*
X18304819Y16821429D02*
X18257200Y16678572D01*
X18257200Y16678572D02*
X18161961Y16583334D01*
X18161961Y16583334D02*
X18066723Y16535715D01*
X18066723Y16535715D02*
X17876247Y16488096D01*
X17876247Y16488096D02*
X17733390Y16488096D01*
X17733390Y16488096D02*
X17542914Y16535715D01*
X17542914Y16535715D02*
X17447676Y16583334D01*
X17447676Y16583334D02*
X17352438Y16678572D01*
X17352438Y16678572D02*
X17304819Y16821429D01*
X17304819Y16821429D02*
X17304819Y16916667D01*
X17304819Y16916667D02*
X17352438Y17059524D01*
X17352438Y17059524D02*
X17400057Y17107143D01*
X17304819Y17440477D02*
X17304819Y18059524D01*
X17304819Y18059524D02*
X17685771Y17726191D01*
X17685771Y17726191D02*
X17685771Y17869048D01*
X17685771Y17869048D02*
X17733390Y17964286D01*
X17733390Y17964286D02*
X17781009Y18011905D01*
X17781009Y18011905D02*
X17876247Y18059524D01*
X17876247Y18059524D02*
X18114342Y18059524D01*
X18114342Y18059524D02*
X18209580Y18011905D01*
X18209580Y18011905D02*
X18257200Y17964286D01*
X18257200Y17964286D02*
X18304819Y17869048D01*
X18304819Y17869048D02*
X18304819Y17583334D01*
X18304819Y17583334D02*
X18257200Y17488096D01*
X18257200Y17488096D02*
X18209580Y17440477D01*
X17304819Y18392858D02*
X17304819Y19011905D01*
X17304819Y19011905D02*
X17685771Y18678572D01*
X17685771Y18678572D02*
X17685771Y18821429D01*
X17685771Y18821429D02*
X17733390Y18916667D01*
X17733390Y18916667D02*
X17781009Y18964286D01*
X17781009Y18964286D02*
X17876247Y19011905D01*
X17876247Y19011905D02*
X18114342Y19011905D01*
X18114342Y19011905D02*
X18209580Y18964286D01*
X18209580Y18964286D02*
X18257200Y18916667D01*
X18257200Y18916667D02*
X18304819Y18821429D01*
X18304819Y18821429D02*
X18304819Y18535715D01*
X18304819Y18535715D02*
X18257200Y18440477D01*
X18257200Y18440477D02*
X18209580Y18392858D01*
X56533333Y39295181D02*
X56200000Y39771372D01*
X55961905Y39295181D02*
X55961905Y40295181D01*
X55961905Y40295181D02*
X56342857Y40295181D01*
X56342857Y40295181D02*
X56438095Y40247562D01*
X56438095Y40247562D02*
X56485714Y40199943D01*
X56485714Y40199943D02*
X56533333Y40104705D01*
X56533333Y40104705D02*
X56533333Y39961848D01*
X56533333Y39961848D02*
X56485714Y39866610D01*
X56485714Y39866610D02*
X56438095Y39818991D01*
X56438095Y39818991D02*
X56342857Y39771372D01*
X56342857Y39771372D02*
X55961905Y39771372D01*
X56914286Y40199943D02*
X56961905Y40247562D01*
X56961905Y40247562D02*
X57057143Y40295181D01*
X57057143Y40295181D02*
X57295238Y40295181D01*
X57295238Y40295181D02*
X57390476Y40247562D01*
X57390476Y40247562D02*
X57438095Y40199943D01*
X57438095Y40199943D02*
X57485714Y40104705D01*
X57485714Y40104705D02*
X57485714Y40009467D01*
X57485714Y40009467D02*
X57438095Y39866610D01*
X57438095Y39866610D02*
X56866667Y39295181D01*
X56866667Y39295181D02*
X57485714Y39295181D01*
X49757142Y55245181D02*
X49423809Y55721372D01*
X49185714Y55245181D02*
X49185714Y56245181D01*
X49185714Y56245181D02*
X49566666Y56245181D01*
X49566666Y56245181D02*
X49661904Y56197562D01*
X49661904Y56197562D02*
X49709523Y56149943D01*
X49709523Y56149943D02*
X49757142Y56054705D01*
X49757142Y56054705D02*
X49757142Y55911848D01*
X49757142Y55911848D02*
X49709523Y55816610D01*
X49709523Y55816610D02*
X49661904Y55768991D01*
X49661904Y55768991D02*
X49566666Y55721372D01*
X49566666Y55721372D02*
X49185714Y55721372D01*
X50090476Y56245181D02*
X50709523Y56245181D01*
X50709523Y56245181D02*
X50376190Y55864229D01*
X50376190Y55864229D02*
X50519047Y55864229D01*
X50519047Y55864229D02*
X50614285Y55816610D01*
X50614285Y55816610D02*
X50661904Y55768991D01*
X50661904Y55768991D02*
X50709523Y55673753D01*
X50709523Y55673753D02*
X50709523Y55435658D01*
X50709523Y55435658D02*
X50661904Y55340420D01*
X50661904Y55340420D02*
X50614285Y55292800D01*
X50614285Y55292800D02*
X50519047Y55245181D01*
X50519047Y55245181D02*
X50233333Y55245181D01*
X50233333Y55245181D02*
X50138095Y55292800D01*
X50138095Y55292800D02*
X50090476Y55340420D01*
X51042857Y56245181D02*
X51661904Y56245181D01*
X51661904Y56245181D02*
X51328571Y55864229D01*
X51328571Y55864229D02*
X51471428Y55864229D01*
X51471428Y55864229D02*
X51566666Y55816610D01*
X51566666Y55816610D02*
X51614285Y55768991D01*
X51614285Y55768991D02*
X51661904Y55673753D01*
X51661904Y55673753D02*
X51661904Y55435658D01*
X51661904Y55435658D02*
X51614285Y55340420D01*
X51614285Y55340420D02*
X51566666Y55292800D01*
X51566666Y55292800D02*
X51471428Y55245181D01*
X51471428Y55245181D02*
X51185714Y55245181D01*
X51185714Y55245181D02*
X51090476Y55292800D01*
X51090476Y55292800D02*
X51042857Y55340420D01*
X35583333Y38640420D02*
X35535714Y38592800D01*
X35535714Y38592800D02*
X35392857Y38545181D01*
X35392857Y38545181D02*
X35297619Y38545181D01*
X35297619Y38545181D02*
X35154762Y38592800D01*
X35154762Y38592800D02*
X35059524Y38688039D01*
X35059524Y38688039D02*
X35011905Y38783277D01*
X35011905Y38783277D02*
X34964286Y38973753D01*
X34964286Y38973753D02*
X34964286Y39116610D01*
X34964286Y39116610D02*
X35011905Y39307086D01*
X35011905Y39307086D02*
X35059524Y39402324D01*
X35059524Y39402324D02*
X35154762Y39497562D01*
X35154762Y39497562D02*
X35297619Y39545181D01*
X35297619Y39545181D02*
X35392857Y39545181D01*
X35392857Y39545181D02*
X35535714Y39497562D01*
X35535714Y39497562D02*
X35583333Y39449943D01*
X36535714Y38545181D02*
X35964286Y38545181D01*
X36250000Y38545181D02*
X36250000Y39545181D01*
X36250000Y39545181D02*
X36154762Y39402324D01*
X36154762Y39402324D02*
X36059524Y39307086D01*
X36059524Y39307086D02*
X35964286Y39259467D01*
X7857142Y33790420D02*
X7809523Y33742800D01*
X7809523Y33742800D02*
X7666666Y33695181D01*
X7666666Y33695181D02*
X7571428Y33695181D01*
X7571428Y33695181D02*
X7428571Y33742800D01*
X7428571Y33742800D02*
X7333333Y33838039D01*
X7333333Y33838039D02*
X7285714Y33933277D01*
X7285714Y33933277D02*
X7238095Y34123753D01*
X7238095Y34123753D02*
X7238095Y34266610D01*
X7238095Y34266610D02*
X7285714Y34457086D01*
X7285714Y34457086D02*
X7333333Y34552324D01*
X7333333Y34552324D02*
X7428571Y34647562D01*
X7428571Y34647562D02*
X7571428Y34695181D01*
X7571428Y34695181D02*
X7666666Y34695181D01*
X7666666Y34695181D02*
X7809523Y34647562D01*
X7809523Y34647562D02*
X7857142Y34599943D01*
X8714285Y34361848D02*
X8714285Y33695181D01*
X8476190Y34742800D02*
X8238095Y34028515D01*
X8238095Y34028515D02*
X8857142Y34028515D01*
X9142857Y34695181D02*
X9809523Y34695181D01*
X9809523Y34695181D02*
X9380952Y33695181D01*
X41738095Y32295181D02*
X41738095Y33295181D01*
X41738095Y32818991D02*
X42309523Y32818991D01*
X42309523Y32295181D02*
X42309523Y33295181D01*
X43309523Y32295181D02*
X42738095Y32295181D01*
X43023809Y32295181D02*
X43023809Y33295181D01*
X43023809Y33295181D02*
X42928571Y33152324D01*
X42928571Y33152324D02*
X42833333Y33057086D01*
X42833333Y33057086D02*
X42738095Y33009467D01*
X56733333Y43895181D02*
X56400000Y44371372D01*
X56161905Y43895181D02*
X56161905Y44895181D01*
X56161905Y44895181D02*
X56542857Y44895181D01*
X56542857Y44895181D02*
X56638095Y44847562D01*
X56638095Y44847562D02*
X56685714Y44799943D01*
X56685714Y44799943D02*
X56733333Y44704705D01*
X56733333Y44704705D02*
X56733333Y44561848D01*
X56733333Y44561848D02*
X56685714Y44466610D01*
X56685714Y44466610D02*
X56638095Y44418991D01*
X56638095Y44418991D02*
X56542857Y44371372D01*
X56542857Y44371372D02*
X56161905Y44371372D01*
X57638095Y44895181D02*
X57161905Y44895181D01*
X57161905Y44895181D02*
X57114286Y44418991D01*
X57114286Y44418991D02*
X57161905Y44466610D01*
X57161905Y44466610D02*
X57257143Y44514229D01*
X57257143Y44514229D02*
X57495238Y44514229D01*
X57495238Y44514229D02*
X57590476Y44466610D01*
X57590476Y44466610D02*
X57638095Y44418991D01*
X57638095Y44418991D02*
X57685714Y44323753D01*
X57685714Y44323753D02*
X57685714Y44085658D01*
X57685714Y44085658D02*
X57638095Y43990420D01*
X57638095Y43990420D02*
X57590476Y43942800D01*
X57590476Y43942800D02*
X57495238Y43895181D01*
X57495238Y43895181D02*
X57257143Y43895181D01*
X57257143Y43895181D02*
X57161905Y43942800D01*
X57161905Y43942800D02*
X57114286Y43990420D01*
X37933333Y39495181D02*
X37600000Y39971372D01*
X37361905Y39495181D02*
X37361905Y40495181D01*
X37361905Y40495181D02*
X37742857Y40495181D01*
X37742857Y40495181D02*
X37838095Y40447562D01*
X37838095Y40447562D02*
X37885714Y40399943D01*
X37885714Y40399943D02*
X37933333Y40304705D01*
X37933333Y40304705D02*
X37933333Y40161848D01*
X37933333Y40161848D02*
X37885714Y40066610D01*
X37885714Y40066610D02*
X37838095Y40018991D01*
X37838095Y40018991D02*
X37742857Y39971372D01*
X37742857Y39971372D02*
X37361905Y39971372D01*
X38885714Y39495181D02*
X38314286Y39495181D01*
X38600000Y39495181D02*
X38600000Y40495181D01*
X38600000Y40495181D02*
X38504762Y40352324D01*
X38504762Y40352324D02*
X38409524Y40257086D01*
X38409524Y40257086D02*
X38314286Y40209467D01*
X38557142Y51140420D02*
X38509523Y51092800D01*
X38509523Y51092800D02*
X38366666Y51045181D01*
X38366666Y51045181D02*
X38271428Y51045181D01*
X38271428Y51045181D02*
X38128571Y51092800D01*
X38128571Y51092800D02*
X38033333Y51188039D01*
X38033333Y51188039D02*
X37985714Y51283277D01*
X37985714Y51283277D02*
X37938095Y51473753D01*
X37938095Y51473753D02*
X37938095Y51616610D01*
X37938095Y51616610D02*
X37985714Y51807086D01*
X37985714Y51807086D02*
X38033333Y51902324D01*
X38033333Y51902324D02*
X38128571Y51997562D01*
X38128571Y51997562D02*
X38271428Y52045181D01*
X38271428Y52045181D02*
X38366666Y52045181D01*
X38366666Y52045181D02*
X38509523Y51997562D01*
X38509523Y51997562D02*
X38557142Y51949943D01*
X39509523Y51045181D02*
X38938095Y51045181D01*
X39223809Y51045181D02*
X39223809Y52045181D01*
X39223809Y52045181D02*
X39128571Y51902324D01*
X39128571Y51902324D02*
X39033333Y51807086D01*
X39033333Y51807086D02*
X38938095Y51759467D01*
X39842857Y52045181D02*
X40509523Y52045181D01*
X40509523Y52045181D02*
X40080952Y51045181D01*
X44607142Y57390420D02*
X44559523Y57342800D01*
X44559523Y57342800D02*
X44416666Y57295181D01*
X44416666Y57295181D02*
X44321428Y57295181D01*
X44321428Y57295181D02*
X44178571Y57342800D01*
X44178571Y57342800D02*
X44083333Y57438039D01*
X44083333Y57438039D02*
X44035714Y57533277D01*
X44035714Y57533277D02*
X43988095Y57723753D01*
X43988095Y57723753D02*
X43988095Y57866610D01*
X43988095Y57866610D02*
X44035714Y58057086D01*
X44035714Y58057086D02*
X44083333Y58152324D01*
X44083333Y58152324D02*
X44178571Y58247562D01*
X44178571Y58247562D02*
X44321428Y58295181D01*
X44321428Y58295181D02*
X44416666Y58295181D01*
X44416666Y58295181D02*
X44559523Y58247562D01*
X44559523Y58247562D02*
X44607142Y58199943D01*
X45464285Y57961848D02*
X45464285Y57295181D01*
X45226190Y58342800D02*
X44988095Y57628515D01*
X44988095Y57628515D02*
X45607142Y57628515D01*
X46178571Y58295181D02*
X46273809Y58295181D01*
X46273809Y58295181D02*
X46369047Y58247562D01*
X46369047Y58247562D02*
X46416666Y58199943D01*
X46416666Y58199943D02*
X46464285Y58104705D01*
X46464285Y58104705D02*
X46511904Y57914229D01*
X46511904Y57914229D02*
X46511904Y57676134D01*
X46511904Y57676134D02*
X46464285Y57485658D01*
X46464285Y57485658D02*
X46416666Y57390420D01*
X46416666Y57390420D02*
X46369047Y57342800D01*
X46369047Y57342800D02*
X46273809Y57295181D01*
X46273809Y57295181D02*
X46178571Y57295181D01*
X46178571Y57295181D02*
X46083333Y57342800D01*
X46083333Y57342800D02*
X46035714Y57390420D01*
X46035714Y57390420D02*
X45988095Y57485658D01*
X45988095Y57485658D02*
X45940476Y57676134D01*
X45940476Y57676134D02*
X45940476Y57914229D01*
X45940476Y57914229D02*
X45988095Y58104705D01*
X45988095Y58104705D02*
X46035714Y58199943D01*
X46035714Y58199943D02*
X46083333Y58247562D01*
X46083333Y58247562D02*
X46178571Y58295181D01*
X29511905Y33045181D02*
X29511905Y34045181D01*
X29511905Y34045181D02*
X29750000Y34045181D01*
X29750000Y34045181D02*
X29892857Y33997562D01*
X29892857Y33997562D02*
X29988095Y33902324D01*
X29988095Y33902324D02*
X30035714Y33807086D01*
X30035714Y33807086D02*
X30083333Y33616610D01*
X30083333Y33616610D02*
X30083333Y33473753D01*
X30083333Y33473753D02*
X30035714Y33283277D01*
X30035714Y33283277D02*
X29988095Y33188039D01*
X29988095Y33188039D02*
X29892857Y33092800D01*
X29892857Y33092800D02*
X29750000Y33045181D01*
X29750000Y33045181D02*
X29511905Y33045181D01*
X30416667Y34045181D02*
X31083333Y34045181D01*
X31083333Y34045181D02*
X30654762Y33045181D01*
X55107142Y57390420D02*
X55059523Y57342800D01*
X55059523Y57342800D02*
X54916666Y57295181D01*
X54916666Y57295181D02*
X54821428Y57295181D01*
X54821428Y57295181D02*
X54678571Y57342800D01*
X54678571Y57342800D02*
X54583333Y57438039D01*
X54583333Y57438039D02*
X54535714Y57533277D01*
X54535714Y57533277D02*
X54488095Y57723753D01*
X54488095Y57723753D02*
X54488095Y57866610D01*
X54488095Y57866610D02*
X54535714Y58057086D01*
X54535714Y58057086D02*
X54583333Y58152324D01*
X54583333Y58152324D02*
X54678571Y58247562D01*
X54678571Y58247562D02*
X54821428Y58295181D01*
X54821428Y58295181D02*
X54916666Y58295181D01*
X54916666Y58295181D02*
X55059523Y58247562D01*
X55059523Y58247562D02*
X55107142Y58199943D01*
X55440476Y58295181D02*
X56059523Y58295181D01*
X56059523Y58295181D02*
X55726190Y57914229D01*
X55726190Y57914229D02*
X55869047Y57914229D01*
X55869047Y57914229D02*
X55964285Y57866610D01*
X55964285Y57866610D02*
X56011904Y57818991D01*
X56011904Y57818991D02*
X56059523Y57723753D01*
X56059523Y57723753D02*
X56059523Y57485658D01*
X56059523Y57485658D02*
X56011904Y57390420D01*
X56011904Y57390420D02*
X55964285Y57342800D01*
X55964285Y57342800D02*
X55869047Y57295181D01*
X55869047Y57295181D02*
X55583333Y57295181D01*
X55583333Y57295181D02*
X55488095Y57342800D01*
X55488095Y57342800D02*
X55440476Y57390420D01*
X56535714Y57295181D02*
X56726190Y57295181D01*
X56726190Y57295181D02*
X56821428Y57342800D01*
X56821428Y57342800D02*
X56869047Y57390420D01*
X56869047Y57390420D02*
X56964285Y57533277D01*
X56964285Y57533277D02*
X57011904Y57723753D01*
X57011904Y57723753D02*
X57011904Y58104705D01*
X57011904Y58104705D02*
X56964285Y58199943D01*
X56964285Y58199943D02*
X56916666Y58247562D01*
X56916666Y58247562D02*
X56821428Y58295181D01*
X56821428Y58295181D02*
X56630952Y58295181D01*
X56630952Y58295181D02*
X56535714Y58247562D01*
X56535714Y58247562D02*
X56488095Y58199943D01*
X56488095Y58199943D02*
X56440476Y58104705D01*
X56440476Y58104705D02*
X56440476Y57866610D01*
X56440476Y57866610D02*
X56488095Y57771372D01*
X56488095Y57771372D02*
X56535714Y57723753D01*
X56535714Y57723753D02*
X56630952Y57676134D01*
X56630952Y57676134D02*
X56821428Y57676134D01*
X56821428Y57676134D02*
X56916666Y57723753D01*
X56916666Y57723753D02*
X56964285Y57771372D01*
X56964285Y57771372D02*
X57011904Y57866610D01*
X44111905Y51000181D02*
X44111905Y52000181D01*
X44111905Y52000181D02*
X44350000Y52000181D01*
X44350000Y52000181D02*
X44492857Y51952562D01*
X44492857Y51952562D02*
X44588095Y51857324D01*
X44588095Y51857324D02*
X44635714Y51762086D01*
X44635714Y51762086D02*
X44683333Y51571610D01*
X44683333Y51571610D02*
X44683333Y51428753D01*
X44683333Y51428753D02*
X44635714Y51238277D01*
X44635714Y51238277D02*
X44588095Y51143039D01*
X44588095Y51143039D02*
X44492857Y51047800D01*
X44492857Y51047800D02*
X44350000Y51000181D01*
X44350000Y51000181D02*
X44111905Y51000181D01*
X45016667Y52000181D02*
X45635714Y52000181D01*
X45635714Y52000181D02*
X45302381Y51619229D01*
X45302381Y51619229D02*
X45445238Y51619229D01*
X45445238Y51619229D02*
X45540476Y51571610D01*
X45540476Y51571610D02*
X45588095Y51523991D01*
X45588095Y51523991D02*
X45635714Y51428753D01*
X45635714Y51428753D02*
X45635714Y51190658D01*
X45635714Y51190658D02*
X45588095Y51095420D01*
X45588095Y51095420D02*
X45540476Y51047800D01*
X45540476Y51047800D02*
X45445238Y51000181D01*
X45445238Y51000181D02*
X45159524Y51000181D01*
X45159524Y51000181D02*
X45064286Y51047800D01*
X45064286Y51047800D02*
X45016667Y51095420D01*
X44761905Y18295181D02*
X44761905Y19295181D01*
X44761905Y19295181D02*
X45000000Y19295181D01*
X45000000Y19295181D02*
X45142857Y19247562D01*
X45142857Y19247562D02*
X45238095Y19152324D01*
X45238095Y19152324D02*
X45285714Y19057086D01*
X45285714Y19057086D02*
X45333333Y18866610D01*
X45333333Y18866610D02*
X45333333Y18723753D01*
X45333333Y18723753D02*
X45285714Y18533277D01*
X45285714Y18533277D02*
X45238095Y18438039D01*
X45238095Y18438039D02*
X45142857Y18342800D01*
X45142857Y18342800D02*
X45000000Y18295181D01*
X45000000Y18295181D02*
X44761905Y18295181D01*
X46285714Y18295181D02*
X45714286Y18295181D01*
X46000000Y18295181D02*
X46000000Y19295181D01*
X46000000Y19295181D02*
X45904762Y19152324D01*
X45904762Y19152324D02*
X45809524Y19057086D01*
X45809524Y19057086D02*
X45714286Y19009467D01*
X52833333Y38890420D02*
X52785714Y38842800D01*
X52785714Y38842800D02*
X52642857Y38795181D01*
X52642857Y38795181D02*
X52547619Y38795181D01*
X52547619Y38795181D02*
X52404762Y38842800D01*
X52404762Y38842800D02*
X52309524Y38938039D01*
X52309524Y38938039D02*
X52261905Y39033277D01*
X52261905Y39033277D02*
X52214286Y39223753D01*
X52214286Y39223753D02*
X52214286Y39366610D01*
X52214286Y39366610D02*
X52261905Y39557086D01*
X52261905Y39557086D02*
X52309524Y39652324D01*
X52309524Y39652324D02*
X52404762Y39747562D01*
X52404762Y39747562D02*
X52547619Y39795181D01*
X52547619Y39795181D02*
X52642857Y39795181D01*
X52642857Y39795181D02*
X52785714Y39747562D01*
X52785714Y39747562D02*
X52833333Y39699943D01*
X53214286Y39699943D02*
X53261905Y39747562D01*
X53261905Y39747562D02*
X53357143Y39795181D01*
X53357143Y39795181D02*
X53595238Y39795181D01*
X53595238Y39795181D02*
X53690476Y39747562D01*
X53690476Y39747562D02*
X53738095Y39699943D01*
X53738095Y39699943D02*
X53785714Y39604705D01*
X53785714Y39604705D02*
X53785714Y39509467D01*
X53785714Y39509467D02*
X53738095Y39366610D01*
X53738095Y39366610D02*
X53166667Y38795181D01*
X53166667Y38795181D02*
X53785714Y38795181D01*
X17957142Y44890420D02*
X17909523Y44842800D01*
X17909523Y44842800D02*
X17766666Y44795181D01*
X17766666Y44795181D02*
X17671428Y44795181D01*
X17671428Y44795181D02*
X17528571Y44842800D01*
X17528571Y44842800D02*
X17433333Y44938039D01*
X17433333Y44938039D02*
X17385714Y45033277D01*
X17385714Y45033277D02*
X17338095Y45223753D01*
X17338095Y45223753D02*
X17338095Y45366610D01*
X17338095Y45366610D02*
X17385714Y45557086D01*
X17385714Y45557086D02*
X17433333Y45652324D01*
X17433333Y45652324D02*
X17528571Y45747562D01*
X17528571Y45747562D02*
X17671428Y45795181D01*
X17671428Y45795181D02*
X17766666Y45795181D01*
X17766666Y45795181D02*
X17909523Y45747562D01*
X17909523Y45747562D02*
X17957142Y45699943D01*
X18814285Y45461848D02*
X18814285Y44795181D01*
X18576190Y45842800D02*
X18338095Y45128515D01*
X18338095Y45128515D02*
X18957142Y45128515D01*
X19766666Y45795181D02*
X19576190Y45795181D01*
X19576190Y45795181D02*
X19480952Y45747562D01*
X19480952Y45747562D02*
X19433333Y45699943D01*
X19433333Y45699943D02*
X19338095Y45557086D01*
X19338095Y45557086D02*
X19290476Y45366610D01*
X19290476Y45366610D02*
X19290476Y44985658D01*
X19290476Y44985658D02*
X19338095Y44890420D01*
X19338095Y44890420D02*
X19385714Y44842800D01*
X19385714Y44842800D02*
X19480952Y44795181D01*
X19480952Y44795181D02*
X19671428Y44795181D01*
X19671428Y44795181D02*
X19766666Y44842800D01*
X19766666Y44842800D02*
X19814285Y44890420D01*
X19814285Y44890420D02*
X19861904Y44985658D01*
X19861904Y44985658D02*
X19861904Y45223753D01*
X19861904Y45223753D02*
X19814285Y45318991D01*
X19814285Y45318991D02*
X19766666Y45366610D01*
X19766666Y45366610D02*
X19671428Y45414229D01*
X19671428Y45414229D02*
X19480952Y45414229D01*
X19480952Y45414229D02*
X19385714Y45366610D01*
X19385714Y45366610D02*
X19338095Y45318991D01*
X19338095Y45318991D02*
X19290476Y45223753D01*
X28057142Y55295181D02*
X27723809Y55771372D01*
X27485714Y55295181D02*
X27485714Y56295181D01*
X27485714Y56295181D02*
X27866666Y56295181D01*
X27866666Y56295181D02*
X27961904Y56247562D01*
X27961904Y56247562D02*
X28009523Y56199943D01*
X28009523Y56199943D02*
X28057142Y56104705D01*
X28057142Y56104705D02*
X28057142Y55961848D01*
X28057142Y55961848D02*
X28009523Y55866610D01*
X28009523Y55866610D02*
X27961904Y55818991D01*
X27961904Y55818991D02*
X27866666Y55771372D01*
X27866666Y55771372D02*
X27485714Y55771372D01*
X28438095Y56199943D02*
X28485714Y56247562D01*
X28485714Y56247562D02*
X28580952Y56295181D01*
X28580952Y56295181D02*
X28819047Y56295181D01*
X28819047Y56295181D02*
X28914285Y56247562D01*
X28914285Y56247562D02*
X28961904Y56199943D01*
X28961904Y56199943D02*
X29009523Y56104705D01*
X29009523Y56104705D02*
X29009523Y56009467D01*
X29009523Y56009467D02*
X28961904Y55866610D01*
X28961904Y55866610D02*
X28390476Y55295181D01*
X28390476Y55295181D02*
X29009523Y55295181D01*
X29580952Y55866610D02*
X29485714Y55914229D01*
X29485714Y55914229D02*
X29438095Y55961848D01*
X29438095Y55961848D02*
X29390476Y56057086D01*
X29390476Y56057086D02*
X29390476Y56104705D01*
X29390476Y56104705D02*
X29438095Y56199943D01*
X29438095Y56199943D02*
X29485714Y56247562D01*
X29485714Y56247562D02*
X29580952Y56295181D01*
X29580952Y56295181D02*
X29771428Y56295181D01*
X29771428Y56295181D02*
X29866666Y56247562D01*
X29866666Y56247562D02*
X29914285Y56199943D01*
X29914285Y56199943D02*
X29961904Y56104705D01*
X29961904Y56104705D02*
X29961904Y56057086D01*
X29961904Y56057086D02*
X29914285Y55961848D01*
X29914285Y55961848D02*
X29866666Y55914229D01*
X29866666Y55914229D02*
X29771428Y55866610D01*
X29771428Y55866610D02*
X29580952Y55866610D01*
X29580952Y55866610D02*
X29485714Y55818991D01*
X29485714Y55818991D02*
X29438095Y55771372D01*
X29438095Y55771372D02*
X29390476Y55676134D01*
X29390476Y55676134D02*
X29390476Y55485658D01*
X29390476Y55485658D02*
X29438095Y55390420D01*
X29438095Y55390420D02*
X29485714Y55342800D01*
X29485714Y55342800D02*
X29580952Y55295181D01*
X29580952Y55295181D02*
X29771428Y55295181D01*
X29771428Y55295181D02*
X29866666Y55342800D01*
X29866666Y55342800D02*
X29914285Y55390420D01*
X29914285Y55390420D02*
X29961904Y55485658D01*
X29961904Y55485658D02*
X29961904Y55676134D01*
X29961904Y55676134D02*
X29914285Y55771372D01*
X29914285Y55771372D02*
X29866666Y55818991D01*
X29866666Y55818991D02*
X29771428Y55866610D01*
X285714Y28795181D02*
X285714Y29795181D01*
X285714Y29795181D02*
X523809Y29795181D01*
X523809Y29795181D02*
X666666Y29747562D01*
X666666Y29747562D02*
X761904Y29652324D01*
X761904Y29652324D02*
X809523Y29557086D01*
X809523Y29557086D02*
X857142Y29366610D01*
X857142Y29366610D02*
X857142Y29223753D01*
X857142Y29223753D02*
X809523Y29033277D01*
X809523Y29033277D02*
X761904Y28938039D01*
X761904Y28938039D02*
X666666Y28842800D01*
X666666Y28842800D02*
X523809Y28795181D01*
X523809Y28795181D02*
X285714Y28795181D01*
X1809523Y28795181D02*
X1238095Y28795181D01*
X1523809Y28795181D02*
X1523809Y29795181D01*
X1523809Y29795181D02*
X1428571Y29652324D01*
X1428571Y29652324D02*
X1333333Y29557086D01*
X1333333Y29557086D02*
X1238095Y29509467D01*
X2714285Y29795181D02*
X2238095Y29795181D01*
X2238095Y29795181D02*
X2190476Y29318991D01*
X2190476Y29318991D02*
X2238095Y29366610D01*
X2238095Y29366610D02*
X2333333Y29414229D01*
X2333333Y29414229D02*
X2571428Y29414229D01*
X2571428Y29414229D02*
X2666666Y29366610D01*
X2666666Y29366610D02*
X2714285Y29318991D01*
X2714285Y29318991D02*
X2761904Y29223753D01*
X2761904Y29223753D02*
X2761904Y28985658D01*
X2761904Y28985658D02*
X2714285Y28890420D01*
X2714285Y28890420D02*
X2666666Y28842800D01*
X2666666Y28842800D02*
X2571428Y28795181D01*
X2571428Y28795181D02*
X2333333Y28795181D01*
X2333333Y28795181D02*
X2238095Y28842800D01*
X2238095Y28842800D02*
X2190476Y28890420D01*
X41238095Y795181D02*
X41238095Y1795181D01*
X41238095Y1318991D02*
X41809523Y1318991D01*
X41809523Y795181D02*
X41809523Y1795181D01*
X42190476Y1795181D02*
X42809523Y1795181D01*
X42809523Y1795181D02*
X42476190Y1414229D01*
X42476190Y1414229D02*
X42619047Y1414229D01*
X42619047Y1414229D02*
X42714285Y1366610D01*
X42714285Y1366610D02*
X42761904Y1318991D01*
X42761904Y1318991D02*
X42809523Y1223753D01*
X42809523Y1223753D02*
X42809523Y985658D01*
X42809523Y985658D02*
X42761904Y890420D01*
X42761904Y890420D02*
X42714285Y842800D01*
X42714285Y842800D02*
X42619047Y795181D01*
X42619047Y795181D02*
X42333333Y795181D01*
X42333333Y795181D02*
X42238095Y842800D01*
X42238095Y842800D02*
X42190476Y890420D01*
X22524819Y44107143D02*
X22048628Y43773810D01*
X22524819Y43535715D02*
X21524819Y43535715D01*
X21524819Y43535715D02*
X21524819Y43916667D01*
X21524819Y43916667D02*
X21572438Y44011905D01*
X21572438Y44011905D02*
X21620057Y44059524D01*
X21620057Y44059524D02*
X21715295Y44107143D01*
X21715295Y44107143D02*
X21858152Y44107143D01*
X21858152Y44107143D02*
X21953390Y44059524D01*
X21953390Y44059524D02*
X22001009Y44011905D01*
X22001009Y44011905D02*
X22048628Y43916667D01*
X22048628Y43916667D02*
X22048628Y43535715D01*
X22524819Y45059524D02*
X22524819Y44488096D01*
X22524819Y44773810D02*
X21524819Y44773810D01*
X21524819Y44773810D02*
X21667676Y44678572D01*
X21667676Y44678572D02*
X21762914Y44583334D01*
X21762914Y44583334D02*
X21810533Y44488096D01*
X22524819Y46011905D02*
X22524819Y45440477D01*
X22524819Y45726191D02*
X21524819Y45726191D01*
X21524819Y45726191D02*
X21667676Y45630953D01*
X21667676Y45630953D02*
X21762914Y45535715D01*
X21762914Y45535715D02*
X21810533Y45440477D01*
X35257142Y51045181D02*
X34923809Y51521372D01*
X34685714Y51045181D02*
X34685714Y52045181D01*
X34685714Y52045181D02*
X35066666Y52045181D01*
X35066666Y52045181D02*
X35161904Y51997562D01*
X35161904Y51997562D02*
X35209523Y51949943D01*
X35209523Y51949943D02*
X35257142Y51854705D01*
X35257142Y51854705D02*
X35257142Y51711848D01*
X35257142Y51711848D02*
X35209523Y51616610D01*
X35209523Y51616610D02*
X35161904Y51568991D01*
X35161904Y51568991D02*
X35066666Y51521372D01*
X35066666Y51521372D02*
X34685714Y51521372D01*
X36209523Y51045181D02*
X35638095Y51045181D01*
X35923809Y51045181D02*
X35923809Y52045181D01*
X35923809Y52045181D02*
X35828571Y51902324D01*
X35828571Y51902324D02*
X35733333Y51807086D01*
X35733333Y51807086D02*
X35638095Y51759467D01*
X36590476Y51949943D02*
X36638095Y51997562D01*
X36638095Y51997562D02*
X36733333Y52045181D01*
X36733333Y52045181D02*
X36971428Y52045181D01*
X36971428Y52045181D02*
X37066666Y51997562D01*
X37066666Y51997562D02*
X37114285Y51949943D01*
X37114285Y51949943D02*
X37161904Y51854705D01*
X37161904Y51854705D02*
X37161904Y51759467D01*
X37161904Y51759467D02*
X37114285Y51616610D01*
X37114285Y51616610D02*
X36542857Y51045181D01*
X36542857Y51045181D02*
X37161904Y51045181D01*
X15107142Y44890420D02*
X15059523Y44842800D01*
X15059523Y44842800D02*
X14916666Y44795181D01*
X14916666Y44795181D02*
X14821428Y44795181D01*
X14821428Y44795181D02*
X14678571Y44842800D01*
X14678571Y44842800D02*
X14583333Y44938039D01*
X14583333Y44938039D02*
X14535714Y45033277D01*
X14535714Y45033277D02*
X14488095Y45223753D01*
X14488095Y45223753D02*
X14488095Y45366610D01*
X14488095Y45366610D02*
X14535714Y45557086D01*
X14535714Y45557086D02*
X14583333Y45652324D01*
X14583333Y45652324D02*
X14678571Y45747562D01*
X14678571Y45747562D02*
X14821428Y45795181D01*
X14821428Y45795181D02*
X14916666Y45795181D01*
X14916666Y45795181D02*
X15059523Y45747562D01*
X15059523Y45747562D02*
X15107142Y45699943D01*
X15964285Y45461848D02*
X15964285Y44795181D01*
X15726190Y45842800D02*
X15488095Y45128515D01*
X15488095Y45128515D02*
X16107142Y45128515D01*
X16964285Y45795181D02*
X16488095Y45795181D01*
X16488095Y45795181D02*
X16440476Y45318991D01*
X16440476Y45318991D02*
X16488095Y45366610D01*
X16488095Y45366610D02*
X16583333Y45414229D01*
X16583333Y45414229D02*
X16821428Y45414229D01*
X16821428Y45414229D02*
X16916666Y45366610D01*
X16916666Y45366610D02*
X16964285Y45318991D01*
X16964285Y45318991D02*
X17011904Y45223753D01*
X17011904Y45223753D02*
X17011904Y44985658D01*
X17011904Y44985658D02*
X16964285Y44890420D01*
X16964285Y44890420D02*
X16916666Y44842800D01*
X16916666Y44842800D02*
X16821428Y44795181D01*
X16821428Y44795181D02*
X16583333Y44795181D01*
X16583333Y44795181D02*
X16488095Y44842800D01*
X16488095Y44842800D02*
X16440476Y44890420D01*
X50357142Y9890420D02*
X50309523Y9842800D01*
X50309523Y9842800D02*
X50166666Y9795181D01*
X50166666Y9795181D02*
X50071428Y9795181D01*
X50071428Y9795181D02*
X49928571Y9842800D01*
X49928571Y9842800D02*
X49833333Y9938039D01*
X49833333Y9938039D02*
X49785714Y10033277D01*
X49785714Y10033277D02*
X49738095Y10223753D01*
X49738095Y10223753D02*
X49738095Y10366610D01*
X49738095Y10366610D02*
X49785714Y10557086D01*
X49785714Y10557086D02*
X49833333Y10652324D01*
X49833333Y10652324D02*
X49928571Y10747562D01*
X49928571Y10747562D02*
X50071428Y10795181D01*
X50071428Y10795181D02*
X50166666Y10795181D01*
X50166666Y10795181D02*
X50309523Y10747562D01*
X50309523Y10747562D02*
X50357142Y10699943D01*
X50690476Y10795181D02*
X51309523Y10795181D01*
X51309523Y10795181D02*
X50976190Y10414229D01*
X50976190Y10414229D02*
X51119047Y10414229D01*
X51119047Y10414229D02*
X51214285Y10366610D01*
X51214285Y10366610D02*
X51261904Y10318991D01*
X51261904Y10318991D02*
X51309523Y10223753D01*
X51309523Y10223753D02*
X51309523Y9985658D01*
X51309523Y9985658D02*
X51261904Y9890420D01*
X51261904Y9890420D02*
X51214285Y9842800D01*
X51214285Y9842800D02*
X51119047Y9795181D01*
X51119047Y9795181D02*
X50833333Y9795181D01*
X50833333Y9795181D02*
X50738095Y9842800D01*
X50738095Y9842800D02*
X50690476Y9890420D01*
X52261904Y9795181D02*
X51690476Y9795181D01*
X51976190Y9795181D02*
X51976190Y10795181D01*
X51976190Y10795181D02*
X51880952Y10652324D01*
X51880952Y10652324D02*
X51785714Y10557086D01*
X51785714Y10557086D02*
X51690476Y10509467D01*
X30959580Y46307143D02*
X31007200Y46259524D01*
X31007200Y46259524D02*
X31054819Y46116667D01*
X31054819Y46116667D02*
X31054819Y46021429D01*
X31054819Y46021429D02*
X31007200Y45878572D01*
X31007200Y45878572D02*
X30911961Y45783334D01*
X30911961Y45783334D02*
X30816723Y45735715D01*
X30816723Y45735715D02*
X30626247Y45688096D01*
X30626247Y45688096D02*
X30483390Y45688096D01*
X30483390Y45688096D02*
X30292914Y45735715D01*
X30292914Y45735715D02*
X30197676Y45783334D01*
X30197676Y45783334D02*
X30102438Y45878572D01*
X30102438Y45878572D02*
X30054819Y46021429D01*
X30054819Y46021429D02*
X30054819Y46116667D01*
X30054819Y46116667D02*
X30102438Y46259524D01*
X30102438Y46259524D02*
X30150057Y46307143D01*
X31054819Y47259524D02*
X31054819Y46688096D01*
X31054819Y46973810D02*
X30054819Y46973810D01*
X30054819Y46973810D02*
X30197676Y46878572D01*
X30197676Y46878572D02*
X30292914Y46783334D01*
X30292914Y46783334D02*
X30340533Y46688096D01*
X30054819Y48164286D02*
X30054819Y47688096D01*
X30054819Y47688096D02*
X30531009Y47640477D01*
X30531009Y47640477D02*
X30483390Y47688096D01*
X30483390Y47688096D02*
X30435771Y47783334D01*
X30435771Y47783334D02*
X30435771Y48021429D01*
X30435771Y48021429D02*
X30483390Y48116667D01*
X30483390Y48116667D02*
X30531009Y48164286D01*
X30531009Y48164286D02*
X30626247Y48211905D01*
X30626247Y48211905D02*
X30864342Y48211905D01*
X30864342Y48211905D02*
X30959580Y48164286D01*
X30959580Y48164286D02*
X31007200Y48116667D01*
X31007200Y48116667D02*
X31054819Y48021429D01*
X31054819Y48021429D02*
X31054819Y47783334D01*
X31054819Y47783334D02*
X31007200Y47688096D01*
X31007200Y47688096D02*
X30959580Y47640477D01*
X40433333Y49395181D02*
X40100000Y49871372D01*
X39861905Y49395181D02*
X39861905Y50395181D01*
X39861905Y50395181D02*
X40242857Y50395181D01*
X40242857Y50395181D02*
X40338095Y50347562D01*
X40338095Y50347562D02*
X40385714Y50299943D01*
X40385714Y50299943D02*
X40433333Y50204705D01*
X40433333Y50204705D02*
X40433333Y50061848D01*
X40433333Y50061848D02*
X40385714Y49966610D01*
X40385714Y49966610D02*
X40338095Y49918991D01*
X40338095Y49918991D02*
X40242857Y49871372D01*
X40242857Y49871372D02*
X39861905Y49871372D01*
X41004762Y49966610D02*
X40909524Y50014229D01*
X40909524Y50014229D02*
X40861905Y50061848D01*
X40861905Y50061848D02*
X40814286Y50157086D01*
X40814286Y50157086D02*
X40814286Y50204705D01*
X40814286Y50204705D02*
X40861905Y50299943D01*
X40861905Y50299943D02*
X40909524Y50347562D01*
X40909524Y50347562D02*
X41004762Y50395181D01*
X41004762Y50395181D02*
X41195238Y50395181D01*
X41195238Y50395181D02*
X41290476Y50347562D01*
X41290476Y50347562D02*
X41338095Y50299943D01*
X41338095Y50299943D02*
X41385714Y50204705D01*
X41385714Y50204705D02*
X41385714Y50157086D01*
X41385714Y50157086D02*
X41338095Y50061848D01*
X41338095Y50061848D02*
X41290476Y50014229D01*
X41290476Y50014229D02*
X41195238Y49966610D01*
X41195238Y49966610D02*
X41004762Y49966610D01*
X41004762Y49966610D02*
X40909524Y49918991D01*
X40909524Y49918991D02*
X40861905Y49871372D01*
X40861905Y49871372D02*
X40814286Y49776134D01*
X40814286Y49776134D02*
X40814286Y49585658D01*
X40814286Y49585658D02*
X40861905Y49490420D01*
X40861905Y49490420D02*
X40909524Y49442800D01*
X40909524Y49442800D02*
X41004762Y49395181D01*
X41004762Y49395181D02*
X41195238Y49395181D01*
X41195238Y49395181D02*
X41290476Y49442800D01*
X41290476Y49442800D02*
X41338095Y49490420D01*
X41338095Y49490420D02*
X41385714Y49585658D01*
X41385714Y49585658D02*
X41385714Y49776134D01*
X41385714Y49776134D02*
X41338095Y49871372D01*
X41338095Y49871372D02*
X41290476Y49918991D01*
X41290476Y49918991D02*
X41195238Y49966610D01*
X46759580Y37907143D02*
X46807200Y37859524D01*
X46807200Y37859524D02*
X46854819Y37716667D01*
X46854819Y37716667D02*
X46854819Y37621429D01*
X46854819Y37621429D02*
X46807200Y37478572D01*
X46807200Y37478572D02*
X46711961Y37383334D01*
X46711961Y37383334D02*
X46616723Y37335715D01*
X46616723Y37335715D02*
X46426247Y37288096D01*
X46426247Y37288096D02*
X46283390Y37288096D01*
X46283390Y37288096D02*
X46092914Y37335715D01*
X46092914Y37335715D02*
X45997676Y37383334D01*
X45997676Y37383334D02*
X45902438Y37478572D01*
X45902438Y37478572D02*
X45854819Y37621429D01*
X45854819Y37621429D02*
X45854819Y37716667D01*
X45854819Y37716667D02*
X45902438Y37859524D01*
X45902438Y37859524D02*
X45950057Y37907143D01*
X45950057Y38288096D02*
X45902438Y38335715D01*
X45902438Y38335715D02*
X45854819Y38430953D01*
X45854819Y38430953D02*
X45854819Y38669048D01*
X45854819Y38669048D02*
X45902438Y38764286D01*
X45902438Y38764286D02*
X45950057Y38811905D01*
X45950057Y38811905D02*
X46045295Y38859524D01*
X46045295Y38859524D02*
X46140533Y38859524D01*
X46140533Y38859524D02*
X46283390Y38811905D01*
X46283390Y38811905D02*
X46854819Y38240477D01*
X46854819Y38240477D02*
X46854819Y38859524D01*
X45854819Y39478572D02*
X45854819Y39573810D01*
X45854819Y39573810D02*
X45902438Y39669048D01*
X45902438Y39669048D02*
X45950057Y39716667D01*
X45950057Y39716667D02*
X46045295Y39764286D01*
X46045295Y39764286D02*
X46235771Y39811905D01*
X46235771Y39811905D02*
X46473866Y39811905D01*
X46473866Y39811905D02*
X46664342Y39764286D01*
X46664342Y39764286D02*
X46759580Y39716667D01*
X46759580Y39716667D02*
X46807200Y39669048D01*
X46807200Y39669048D02*
X46854819Y39573810D01*
X46854819Y39573810D02*
X46854819Y39478572D01*
X46854819Y39478572D02*
X46807200Y39383334D01*
X46807200Y39383334D02*
X46759580Y39335715D01*
X46759580Y39335715D02*
X46664342Y39288096D01*
X46664342Y39288096D02*
X46473866Y39240477D01*
X46473866Y39240477D02*
X46235771Y39240477D01*
X46235771Y39240477D02*
X46045295Y39288096D01*
X46045295Y39288096D02*
X45950057Y39335715D01*
X45950057Y39335715D02*
X45902438Y39383334D01*
X45902438Y39383334D02*
X45854819Y39478572D01*
D11*
%TO.C,L3*%
X20835000Y690000D02*
X20835000Y4340000D01*
X20835000Y14010000D02*
X20835000Y10360000D01*
X7065000Y690000D02*
X20835000Y690000D01*
X7065000Y690000D02*
X7065000Y4340000D01*
X7065000Y14010000D02*
X20835000Y14010000D01*
X7065000Y14010000D02*
X7065000Y10360000D01*
%TO.C,C43*%
X21359420Y35510000D02*
X21640580Y35510000D01*
X21359420Y34490000D02*
X21640580Y34490000D01*
%TO.C,D16*%
X3450000Y30815000D02*
X5735000Y30815000D01*
X5735000Y32285000D02*
X3450000Y32285000D01*
X5735000Y30815000D02*
X5735000Y32285000D01*
%TO.C,C41*%
X9415580Y38510000D02*
X9134420Y38510000D01*
X9415580Y37490000D02*
X9134420Y37490000D01*
%TO.C,R13*%
X51587258Y50547500D02*
X51112742Y50547500D01*
X51587258Y49502500D02*
X51112742Y49502500D01*
%TO.C,D14*%
X3450000Y26865000D02*
X5735000Y26865000D01*
X5735000Y28335000D02*
X3450000Y28335000D01*
X5735000Y26865000D02*
X5735000Y28335000D01*
%TO.C,U3*%
X49240000Y43980000D02*
X49240000Y45930000D01*
X49240000Y43980000D02*
X49240000Y42030000D01*
X54360000Y43980000D02*
X54360000Y45930000D01*
X54360000Y43980000D02*
X54360000Y42030000D01*
X49335000Y41280000D02*
X49005000Y41040000D01*
X49005000Y41520000D01*
X49335000Y41280000D01*
G36*
X49335000Y41280000D02*
G01*
X49005000Y41040000D01*
X49005000Y41520000D01*
X49335000Y41280000D01*
G37*
%TO.C,R6*%
X37477500Y46237258D02*
X37477500Y45762742D01*
X38522500Y46237258D02*
X38522500Y45762742D01*
%TO.C,C19*%
X22990000Y41890580D02*
X22990000Y41609420D01*
X24010000Y41890580D02*
X24010000Y41609420D01*
%TO.C,C13*%
X50740580Y49035000D02*
X50459420Y49035000D01*
X50740580Y48015000D02*
X50459420Y48015000D01*
%TO.C,D2*%
X29227500Y50735000D02*
X29227500Y49265000D01*
X29227500Y49265000D02*
X31512500Y49265000D01*
X31512500Y50735000D02*
X29227500Y50735000D01*
%TO.C,C18*%
X40490000Y44615580D02*
X40490000Y44334420D01*
X41510000Y44615580D02*
X41510000Y44334420D01*
%TO.C,R4*%
X48337258Y50547500D02*
X47862742Y50547500D01*
X48337258Y49502500D02*
X47862742Y49502500D01*
%TO.C,L1*%
X41790000Y48435000D02*
X41790000Y41115000D01*
X41790000Y48435000D02*
X43340000Y48435000D01*
X41790000Y41115000D02*
X43340000Y41115000D01*
X48910000Y48435000D02*
X47360000Y48435000D01*
X48910000Y48435000D02*
X48910000Y41115000D01*
X48910000Y41115000D02*
X47360000Y41115000D01*
%TO.C,C29*%
X33415000Y16952500D02*
X37165000Y16952500D01*
X33415000Y7496937D02*
X33415000Y16952500D01*
X34479437Y6432500D02*
X33415000Y7496937D01*
X34479437Y6432500D02*
X37165000Y6432500D01*
X35290000Y5567500D02*
X36540000Y5567500D01*
X35915000Y4942500D02*
X35915000Y6192500D01*
X42870563Y6432500D02*
X40185000Y6432500D01*
X42870563Y6432500D02*
X43935000Y7496937D01*
X43935000Y16952500D02*
X40185000Y16952500D01*
X43935000Y7496937D02*
X43935000Y16952500D01*
%TO.C,C10*%
X29915000Y29388063D02*
X29915000Y19932500D01*
X29915000Y19932500D02*
X33665000Y19932500D01*
X30979437Y30452500D02*
X29915000Y29388063D01*
X30979437Y30452500D02*
X33665000Y30452500D01*
X37935000Y31942500D02*
X37935000Y30692500D01*
X38560000Y31317500D02*
X37310000Y31317500D01*
X39370563Y30452500D02*
X36685000Y30452500D01*
X39370563Y30452500D02*
X40435000Y29388063D01*
X40435000Y29388063D02*
X40435000Y19932500D01*
X40435000Y19932500D02*
X36685000Y19932500D01*
%TO.C,D17*%
X21265000Y38550000D02*
X21265000Y36265000D01*
X21265000Y36265000D02*
X22735000Y36265000D01*
X22735000Y36265000D02*
X22735000Y38550000D01*
%TO.C,Y1*%
X8050000Y41550000D02*
X7650000Y41550000D01*
X8050000Y41550000D02*
X8050000Y42550000D01*
X8050000Y38950000D02*
X8050000Y39750000D01*
X8450000Y42750000D02*
X8050000Y42750000D01*
X8450000Y42550000D02*
X8050000Y42550000D01*
X8450000Y42550000D02*
X10450000Y42550000D01*
X8450000Y38950000D02*
X8050000Y38950000D01*
X10450000Y42750000D02*
X8450000Y42750000D01*
X10450000Y42550000D02*
X10450000Y41550000D01*
X10450000Y39750000D02*
X10450000Y38950000D01*
X10450000Y38950000D02*
X8450000Y38950000D01*
%TO.C,R7*%
X53252500Y49037742D02*
X53252500Y49512258D01*
X54297500Y49037742D02*
X54297500Y49512258D01*
%TO.C,U2*%
X31790000Y43876750D02*
X31790000Y45826750D01*
X31790000Y43876750D02*
X31790000Y41926750D01*
X36910000Y43876750D02*
X36910000Y45826750D01*
X36910000Y43876750D02*
X36910000Y41926750D01*
X31885000Y41176750D02*
X31555000Y40936750D01*
X31555000Y41416750D01*
X31885000Y41176750D01*
G36*
X31885000Y41176750D02*
G01*
X31555000Y40936750D01*
X31555000Y41416750D01*
X31885000Y41176750D01*
G37*
%TO.C,SW2*%
X48090000Y56600000D02*
X54210000Y56600000D01*
X48090000Y52900000D02*
X48090000Y56600000D01*
X54210000Y56600000D02*
X54210000Y52900000D01*
X54210000Y52900000D02*
X48090000Y52900000D01*
%TO.C,C27*%
X21940000Y16952500D02*
X25690000Y16952500D01*
X21940000Y7496937D02*
X21940000Y16952500D01*
X23004437Y6432500D02*
X21940000Y7496937D01*
X23004437Y6432500D02*
X25690000Y6432500D01*
X23815000Y5567500D02*
X25065000Y5567500D01*
X24440000Y4942500D02*
X24440000Y6192500D01*
X31395563Y6432500D02*
X28710000Y6432500D01*
X31395563Y6432500D02*
X32460000Y7496937D01*
X32460000Y16952500D02*
X28710000Y16952500D01*
X32460000Y7496937D02*
X32460000Y16952500D01*
%TO.C,D6*%
X43990000Y36535000D02*
X43990000Y34515000D01*
X43990000Y36535000D02*
X47750000Y36535000D01*
X43990000Y34515000D02*
X47750000Y34515000D01*
%TO.C,D12*%
X44850000Y9990000D02*
X44850000Y15800000D01*
X44850000Y9990000D02*
X49150000Y9990000D01*
X49150000Y9990000D02*
X49150000Y15800000D01*
%TO.C,C38*%
X31659420Y58260000D02*
X31940580Y58260000D01*
X31659420Y57240000D02*
X31940580Y57240000D01*
%TO.C,C21*%
X26380000Y40010000D02*
X26380000Y36990000D01*
X26380000Y36990000D02*
X30600000Y36990000D01*
X30600000Y40010000D02*
X26380000Y40010000D01*
%TO.C,C9*%
X41840000Y25936252D02*
X41840000Y24513748D01*
X43660000Y25936252D02*
X43660000Y24513748D01*
%TO.C,C12*%
X18415000Y29388063D02*
X18415000Y19932500D01*
X18415000Y19932500D02*
X22165000Y19932500D01*
X19479437Y30452500D02*
X18415000Y29388063D01*
X19479437Y30452500D02*
X22165000Y30452500D01*
X26435000Y31942500D02*
X26435000Y30692500D01*
X27060000Y31317500D02*
X25810000Y31317500D01*
X27870563Y30452500D02*
X25185000Y30452500D01*
X27870563Y30452500D02*
X28935000Y29388063D01*
X28935000Y29388063D02*
X28935000Y19932500D01*
X28935000Y19932500D02*
X25185000Y19932500D01*
%TO.C,C5*%
X52036252Y38185000D02*
X50613748Y38185000D01*
X52036252Y36365000D02*
X50613748Y36365000D01*
%TO.C,SW1*%
X26940000Y56600000D02*
X33060000Y56600000D01*
X26940000Y52900000D02*
X26940000Y56600000D01*
X33060000Y56600000D02*
X33060000Y52900000D01*
X33060000Y52900000D02*
X26940000Y52900000D01*
%TO.C,C44*%
X10240000Y44109420D02*
X10240000Y44390580D01*
X11260000Y44109420D02*
X11260000Y44390580D01*
%TO.C,C8*%
X14590000Y25986252D02*
X14590000Y24563748D01*
X16410000Y25986252D02*
X16410000Y24563748D01*
%TO.C,L2*%
X24290000Y48410000D02*
X24290000Y41090000D01*
X24290000Y48410000D02*
X25840000Y48410000D01*
X24290000Y41090000D02*
X25840000Y41090000D01*
X31410000Y48410000D02*
X29860000Y48410000D01*
X31410000Y48410000D02*
X31410000Y41090000D01*
X31410000Y41090000D02*
X29860000Y41090000D01*
%TO.C,C4*%
X34561252Y38160000D02*
X33138748Y38160000D01*
X34561252Y36340000D02*
X33138748Y36340000D01*
%TO.C,SW4*%
X650000Y43560000D02*
X4350000Y43560000D01*
X650000Y37440000D02*
X650000Y43560000D01*
X4350000Y43560000D02*
X4350000Y37440000D01*
X4350000Y37440000D02*
X650000Y37440000D01*
%TO.C,R3*%
X34162258Y50522500D02*
X33687742Y50522500D01*
X34162258Y49477500D02*
X33687742Y49477500D01*
%TO.C,C16*%
X55090000Y49134420D02*
X55090000Y49415580D01*
X56110000Y49134420D02*
X56110000Y49415580D01*
%TO.C,R32*%
X21477500Y40762742D02*
X21477500Y41237258D01*
X22522500Y40762742D02*
X22522500Y41237258D01*
%TO.C,R34*%
X38712742Y58272500D02*
X39187258Y58272500D01*
X38712742Y57227500D02*
X39187258Y57227500D01*
%TO.C,C33*%
X18790000Y16163748D02*
X18790000Y17586252D01*
X20610000Y16163748D02*
X20610000Y17586252D01*
%TO.C,R2*%
X55077500Y41787742D02*
X55077500Y42262258D01*
X56122500Y41787742D02*
X56122500Y42262258D01*
%TO.C,R33*%
X49437742Y58322500D02*
X49912258Y58322500D01*
X49437742Y57277500D02*
X49912258Y57277500D01*
%TO.C,C1*%
X33490580Y39760000D02*
X33209420Y39760000D01*
X33490580Y38740000D02*
X33209420Y38740000D01*
%TO.C,C47*%
X9211252Y36910000D02*
X7788748Y36910000D01*
X9211252Y35090000D02*
X7788748Y35090000D01*
%TO.C,SW3*%
X37540000Y56600000D02*
X43660000Y56600000D01*
X37540000Y52900000D02*
X37540000Y56600000D01*
X43660000Y56600000D02*
X43660000Y52900000D01*
X43660000Y52900000D02*
X37540000Y52900000D01*
%TO.C,R5*%
X55077500Y46262258D02*
X55077500Y45787742D01*
X56122500Y46262258D02*
X56122500Y45787742D01*
%TO.C,R1*%
X37462500Y41689492D02*
X37462500Y42164008D01*
X38507500Y41689492D02*
X38507500Y42164008D01*
%TO.C,C17*%
X37590000Y49109420D02*
X37590000Y49390580D01*
X38610000Y49109420D02*
X38610000Y49390580D01*
%TO.C,C40*%
X42109420Y58260000D02*
X42390580Y58260000D01*
X42109420Y57240000D02*
X42390580Y57240000D01*
%TO.C,D7*%
X26490000Y36510000D02*
X26490000Y34490000D01*
X26490000Y36510000D02*
X30250000Y36510000D01*
X26490000Y34490000D02*
X30250000Y34490000D01*
%TO.C,C39*%
X52709420Y58260000D02*
X52990580Y58260000D01*
X52709420Y57240000D02*
X52990580Y57240000D01*
%TO.C,J2*%
X870000Y52265000D02*
X870000Y49505000D01*
X870000Y49505000D02*
X11250000Y49505000D01*
X980000Y46845000D02*
X980000Y48115000D01*
X1820000Y49275000D02*
X1820000Y49505000D01*
X2250000Y46845000D02*
X980000Y46845000D01*
X2680000Y49275000D02*
X2680000Y49505000D01*
X3520000Y49505000D02*
X3520000Y52265000D01*
X4360000Y58265000D02*
X5220000Y58265000D01*
X4360000Y52265000D02*
X4360000Y58265000D01*
X4360000Y49192358D02*
X4360000Y49505000D01*
X5220000Y58265000D02*
X5220000Y52265000D01*
X5220000Y49192358D02*
X5220000Y49505000D01*
X6060000Y49505000D02*
X6060000Y52265000D01*
X6900000Y58265000D02*
X7760000Y58265000D01*
X6900000Y52265000D02*
X6900000Y58265000D01*
X6900000Y49192358D02*
X6900000Y49505000D01*
X7760000Y58265000D02*
X7760000Y52265000D01*
X7760000Y49192358D02*
X7760000Y49505000D01*
X8600000Y49505000D02*
X8600000Y52265000D01*
X9440000Y58265000D02*
X10300000Y58265000D01*
X9440000Y52265000D02*
X9440000Y58265000D01*
X9440000Y49192358D02*
X9440000Y49505000D01*
X10300000Y58265000D02*
X10300000Y52265000D01*
X10300000Y49192358D02*
X10300000Y49505000D01*
X11250000Y52265000D02*
X870000Y52265000D01*
X11250000Y49505000D02*
X11250000Y52265000D01*
X1820000Y52265000D02*
X2680000Y52265000D01*
X2680000Y58265000D01*
X1820000Y58265000D01*
X1820000Y52265000D01*
G36*
X1820000Y52265000D02*
G01*
X2680000Y52265000D01*
X2680000Y58265000D01*
X1820000Y58265000D01*
X1820000Y52265000D01*
G37*
%TO.C,Q2*%
X8025000Y21475000D02*
X14445000Y21475000D01*
X8025000Y14575000D02*
X14445000Y14575000D01*
X14445000Y21475000D02*
X14445000Y21205000D01*
X14445000Y14575000D02*
X14445000Y14845000D01*
X16515000Y14415000D02*
X15835000Y14415000D01*
X16175000Y14885000D01*
X16515000Y14415000D01*
G36*
X16515000Y14415000D02*
G01*
X15835000Y14415000D01*
X16175000Y14885000D01*
X16515000Y14415000D01*
G37*
%TO.C,D3*%
X43365000Y50760000D02*
X43365000Y49290000D01*
X43365000Y49290000D02*
X45650000Y49290000D01*
X45650000Y50760000D02*
X43365000Y50760000D01*
%TO.C,D1*%
X44850000Y26910000D02*
X44850000Y21100000D01*
X49150000Y26910000D02*
X44850000Y26910000D01*
X49150000Y26910000D02*
X49150000Y21100000D01*
%TO.C,C2*%
X50740580Y39785000D02*
X50459420Y39785000D01*
X50740580Y38765000D02*
X50459420Y38765000D01*
%TO.C,C46*%
X19990000Y43884420D02*
X19990000Y44165580D01*
X21010000Y43884420D02*
X21010000Y44165580D01*
%TO.C,R28*%
X28387742Y58272500D02*
X28862258Y58272500D01*
X28387742Y57227500D02*
X28862258Y57227500D01*
%TO.C,D15*%
X3450000Y28865000D02*
X5735000Y28865000D01*
X5735000Y30335000D02*
X3450000Y30335000D01*
X5735000Y28865000D02*
X5735000Y30335000D01*
%TO.C,U7*%
X12390000Y42860000D02*
X12390000Y42410000D01*
X12390000Y35640000D02*
X12390000Y36090000D01*
X12840000Y42860000D02*
X12390000Y42860000D01*
X12840000Y35640000D02*
X12390000Y35640000D01*
X19160000Y42860000D02*
X19610000Y42860000D01*
X19160000Y35640000D02*
X19610000Y35640000D01*
X19610000Y42860000D02*
X19610000Y42410000D01*
X19610000Y35640000D02*
X19610000Y36090000D01*
X11800000Y42410000D02*
X11460000Y42880000D01*
X12140000Y42880000D01*
X11800000Y42410000D01*
G36*
X11800000Y42410000D02*
G01*
X11460000Y42880000D01*
X12140000Y42880000D01*
X11800000Y42410000D01*
G37*
%TO.C,Q1*%
X6525000Y31525000D02*
X6525000Y25105000D01*
X6525000Y25105000D02*
X6795000Y25105000D01*
X13425000Y31525000D02*
X13425000Y25105000D01*
X13425000Y25105000D02*
X13155000Y25105000D01*
X6835000Y23375000D02*
X6365000Y23035000D01*
X6365000Y23715000D01*
X6835000Y23375000D01*
G36*
X6835000Y23375000D02*
G01*
X6365000Y23035000D01*
X6365000Y23715000D01*
X6835000Y23375000D01*
G37*
%TO.C,R11*%
X22977500Y44512742D02*
X22977500Y44987258D01*
X24022500Y44512742D02*
X24022500Y44987258D01*
%TO.C,R12*%
X35827500Y49012742D02*
X35827500Y49487258D01*
X36872500Y49012742D02*
X36872500Y49487258D01*
%TO.C,C45*%
X12859420Y45760000D02*
X13140580Y45760000D01*
X12859420Y44740000D02*
X13140580Y44740000D01*
%TO.C,C31*%
X49538748Y9410000D02*
X50961252Y9410000D01*
X49538748Y7590000D02*
X50961252Y7590000D01*
%TO.C,J1*%
X12120000Y52265000D02*
X12120000Y49505000D01*
X12120000Y49505000D02*
X22500000Y49505000D01*
X12230000Y46845000D02*
X12230000Y48115000D01*
X13070000Y49275000D02*
X13070000Y49505000D01*
X13500000Y46845000D02*
X12230000Y46845000D01*
X13930000Y49275000D02*
X13930000Y49505000D01*
X14770000Y49505000D02*
X14770000Y52265000D01*
X15610000Y58265000D02*
X16470000Y58265000D01*
X15610000Y52265000D02*
X15610000Y58265000D01*
X15610000Y49192358D02*
X15610000Y49505000D01*
X16470000Y58265000D02*
X16470000Y52265000D01*
X16470000Y49192358D02*
X16470000Y49505000D01*
X17310000Y49505000D02*
X17310000Y52265000D01*
X18150000Y58265000D02*
X19010000Y58265000D01*
X18150000Y52265000D02*
X18150000Y58265000D01*
X18150000Y49192358D02*
X18150000Y49505000D01*
X19010000Y58265000D02*
X19010000Y52265000D01*
X19010000Y49192358D02*
X19010000Y49505000D01*
X19850000Y49505000D02*
X19850000Y52265000D01*
X20690000Y58265000D02*
X21550000Y58265000D01*
X20690000Y52265000D02*
X20690000Y58265000D01*
X20690000Y49192358D02*
X20690000Y49505000D01*
X21550000Y58265000D02*
X21550000Y52265000D01*
X21550000Y49192358D02*
X21550000Y49505000D01*
X22500000Y52265000D02*
X12120000Y52265000D01*
X22500000Y49505000D02*
X22500000Y52265000D01*
X13070000Y52265000D02*
X13930000Y52265000D01*
X13930000Y58265000D01*
X13070000Y58265000D01*
X13070000Y52265000D01*
G36*
X13070000Y52265000D02*
G01*
X13930000Y52265000D01*
X13930000Y58265000D01*
X13070000Y58265000D01*
X13070000Y52265000D01*
G37*
%TO.C,C15*%
X33240580Y49010000D02*
X32959420Y49010000D01*
X33240580Y47990000D02*
X32959420Y47990000D01*
%TO.C,R8*%
X40477500Y47437742D02*
X40477500Y47912258D01*
X41522500Y47437742D02*
X41522500Y47912258D01*
%TO.C,C20*%
X43880000Y40035000D02*
X43880000Y37015000D01*
X43880000Y37015000D02*
X48100000Y37015000D01*
X48100000Y40035000D02*
X43880000Y40035000D01*
%TD*%
M02*
