%TF.GenerationSoftware,KiCad,Pcbnew,9.0.1*%
%TF.CreationDate,2025-08-23T17:21:42+08:00*%
%TF.ProjectId,dcdc,64636463-2e6b-4696-9361-645f70636258,rev?*%
%TF.SameCoordinates,PX71a15b0PY7e1f990*%
%TF.FileFunction,Copper,L3,Inr*%
%TF.FilePolarity,Positive*%
%FSLAX46Y46*%
G04 Gerber Fmt 4.6, Leading zero omitted, Abs format (unit mm)*
G04 Created by KiCad (PCBNEW 9.0.1) date 2025-08-23 17:21:42*
%MOMM*%
%LPD*%
G01*
G04 APERTURE LIST*
%TA.AperFunction,HeatsinkPad*%
%ADD10C,0.500000*%
%TD*%
%TA.AperFunction,ComponentPad*%
%ADD11C,0.800000*%
%TD*%
%TA.AperFunction,ComponentPad*%
%ADD12C,6.400000*%
%TD*%
%TA.AperFunction,ComponentPad*%
%ADD13R,1.700000X1.700000*%
%TD*%
%TA.AperFunction,ComponentPad*%
%ADD14C,1.700000*%
%TD*%
%TA.AperFunction,ViaPad*%
%ADD15C,0.762000*%
%TD*%
%TA.AperFunction,ViaPad*%
%ADD16C,0.508000*%
%TD*%
%TA.AperFunction,Conductor*%
%ADD17C,0.254000*%
%TD*%
%TA.AperFunction,Conductor*%
%ADD18C,0.508000*%
%TD*%
G04 APERTURE END LIST*
D10*
%TO.N,GND*%
%TO.C,U3*%
X50500000Y43025000D03*
X51800000Y43025000D03*
X53100000Y43025000D03*
X50500000Y44935000D03*
X51800000Y44935000D03*
X53100000Y44935000D03*
%TD*%
D11*
%TO.N,GND*%
%TO.C,H4*%
X51652944Y30552944D03*
X52355888Y32250000D03*
X52355888Y28855888D03*
X54052944Y32952944D03*
D12*
X54052944Y30552944D03*
D11*
X54052944Y28152944D03*
X55750000Y32250000D03*
X55750000Y28855888D03*
X56452944Y30552944D03*
%TD*%
%TO.N,GND*%
%TO.C,H2*%
X54052944Y1600000D03*
X52355888Y2302944D03*
X55750000Y2302944D03*
X51652944Y4000000D03*
D12*
X54052944Y4000000D03*
D11*
X56452944Y4000000D03*
X52355888Y5697056D03*
X55750000Y5697056D03*
X54052944Y6400000D03*
%TD*%
D10*
%TO.N,GND*%
%TO.C,U2*%
X33050000Y42921750D03*
X34350000Y42921750D03*
X35650000Y42921750D03*
X33050000Y44831750D03*
X34350000Y44831750D03*
X35650000Y44831750D03*
%TD*%
D11*
%TO.N,VIN*%
%TO.C,H1*%
X46650000Y28152944D03*
X44952944Y28855888D03*
X48347056Y28855888D03*
X44250000Y30552944D03*
D12*
X46650000Y30552944D03*
D11*
X49050000Y30552944D03*
X44952944Y32250000D03*
X48347056Y32250000D03*
X46650000Y32952944D03*
%TD*%
D13*
%TO.N,SDA*%
%TO.C,J2*%
X2250000Y48115000D03*
D14*
%TO.N,SCL*%
X4790000Y48115000D03*
%TO.N,+3V3*%
X7330000Y48115000D03*
%TO.N,GND*%
X9870000Y48115000D03*
%TD*%
D11*
%TO.N,I-*%
%TO.C,H3*%
X49050000Y4000000D03*
X48347056Y2302944D03*
X48347056Y5697056D03*
X46650000Y1600000D03*
D12*
X46650000Y4000000D03*
D11*
X46650000Y6400000D03*
X44952944Y2302944D03*
X44952944Y5697056D03*
X44250000Y4000000D03*
%TD*%
D13*
%TO.N,+3V3*%
%TO.C,J1*%
X13500000Y48115000D03*
D14*
%TO.N,DIO*%
X16040000Y48115000D03*
%TO.N,CLK*%
X18580000Y48115000D03*
%TO.N,GND*%
X21120000Y48115000D03*
%TD*%
D15*
%TO.N,SW*%
X8850000Y16500000D03*
X7600000Y16500000D03*
X7600000Y5750000D03*
X7600000Y6750000D03*
X7600000Y7750000D03*
X7600000Y8750000D03*
X9600000Y5750000D03*
X8600000Y5750000D03*
X8600000Y6750000D03*
X9600000Y6750000D03*
X9600000Y7750000D03*
X8600000Y7750000D03*
X8600000Y8750000D03*
X9600000Y8750000D03*
%TO.N,I+*%
X18600000Y8750000D03*
X18600000Y7750000D03*
X18600000Y6750000D03*
X18600000Y5750000D03*
X19600000Y5750000D03*
X19600000Y6750000D03*
X19600000Y7750000D03*
X19600000Y8750000D03*
D16*
%TO.N,I-*%
X39450000Y5350000D03*
X38650000Y5350000D03*
X37850000Y5350000D03*
X27900000Y5350000D03*
X27150000Y5350000D03*
%TO.N,+3V3*%
X26750000Y57800000D03*
X22150000Y51550000D03*
%TO.N,SW*%
X7500000Y18100000D03*
%TO.N,GND*%
X45350000Y17950000D03*
%TO.N,+3V3*%
X49525000Y17725000D03*
%TO.N,GND*%
X22250000Y2200000D03*
X23044500Y5150000D03*
X31700000Y1800000D03*
X30700000Y3200000D03*
X13748736Y18000000D03*
D15*
%TO.N,I-*%
X26550000Y6750000D03*
X26600000Y7750000D03*
X26600000Y8750000D03*
%TO.N,I+*%
X20700000Y6800000D03*
X20700000Y7750000D03*
X20700000Y8700000D03*
%TO.N,GND*%
X37750000Y18500000D03*
X39750000Y13000000D03*
X18000000Y19500000D03*
D16*
X2050000Y34900000D03*
X6700000Y38250000D03*
X18999443Y41749811D03*
D15*
X38750000Y18500000D03*
X22750000Y23750000D03*
D16*
X14150000Y38500000D03*
X13750000Y42250000D03*
X7750000Y40750000D03*
X19500000Y44850000D03*
D15*
X15750000Y21500000D03*
X39750000Y18500000D03*
D16*
X22000000Y36150000D03*
X19550000Y46100000D03*
D15*
X55500000Y44000000D03*
X28250000Y13000000D03*
D16*
X2000000Y38450000D03*
X55000000Y56250000D03*
X18600000Y36350000D03*
D15*
X27250000Y18500000D03*
D16*
X21000000Y49750000D03*
X11250000Y48250000D03*
X7400000Y38250000D03*
D15*
X43000000Y49750000D03*
D16*
X6700000Y37450000D03*
X2550000Y41350000D03*
D15*
X37750000Y13000000D03*
X35250000Y18500000D03*
X28250000Y18500000D03*
X36250000Y23750000D03*
D16*
X1400000Y40200000D03*
D15*
X34250000Y23750000D03*
D16*
X13450000Y40250000D03*
D15*
X19250000Y24000000D03*
X23750000Y23750000D03*
X38750000Y13000000D03*
X38000000Y44250000D03*
X19250000Y22250000D03*
X26250000Y18500000D03*
X24750000Y18500000D03*
D16*
X7400000Y37450000D03*
D15*
X35250000Y23750000D03*
X26250000Y13000000D03*
X36250000Y18500000D03*
X27250000Y13000000D03*
X22750000Y18500000D03*
D16*
X22850000Y36200000D03*
D15*
X34250000Y18500000D03*
X28900000Y49900000D03*
X24750000Y23750000D03*
D16*
X44500000Y56250000D03*
D15*
X23750000Y18500000D03*
D16*
X11750000Y44250000D03*
X34000000Y56250000D03*
D15*
%TO.N,VIN*%
X13750000Y32500000D03*
X36750000Y38000000D03*
X15000000Y31250000D03*
X35750000Y35500000D03*
X35750000Y39000000D03*
X15000000Y32500000D03*
X15000000Y30000000D03*
X54250000Y37500000D03*
X36250000Y33000000D03*
X15000000Y28750000D03*
X23750000Y33000000D03*
X34250000Y33000000D03*
X22750000Y33000000D03*
X54250000Y36500000D03*
X16250000Y30000000D03*
X55250000Y36500000D03*
X23750000Y26500000D03*
X13750000Y28750000D03*
X16250000Y28750000D03*
X16250000Y32500000D03*
X55250000Y39500000D03*
X36750000Y39000000D03*
X22750000Y32000000D03*
X36250000Y26500000D03*
X55250000Y38500000D03*
X35250000Y33000000D03*
X24750000Y26500000D03*
X54250000Y38500000D03*
X24750000Y32000000D03*
X34250000Y32000000D03*
X33750000Y35500000D03*
X22750000Y26500000D03*
X23750000Y32000000D03*
X54250000Y35500000D03*
X34250000Y26500000D03*
X36750000Y37000000D03*
X34750000Y35500000D03*
X54250000Y39500000D03*
X35250000Y26500000D03*
X55250000Y35500000D03*
X35250000Y32000000D03*
X55250000Y37500000D03*
X13750000Y30000000D03*
X16250000Y31250000D03*
X36250000Y32000000D03*
X24750000Y33000000D03*
X13750000Y31250000D03*
%TO.N,+12V*%
X25750000Y37500000D03*
X25750000Y36500000D03*
X24750000Y38500000D03*
X24750000Y39500000D03*
X24750000Y36500000D03*
X25750000Y35500000D03*
X25750000Y39500000D03*
X13750000Y19000000D03*
D16*
X34000000Y51500000D03*
D15*
X25750000Y38500000D03*
X24750000Y35500000D03*
X24750000Y37500000D03*
%TO.N,SW*%
X11000000Y23500000D03*
D16*
%TO.N,IS*%
X11800000Y36050000D03*
%TO.N,+3V3*%
X22350000Y44000000D03*
X9450000Y43700000D03*
X42000000Y49750000D03*
X20700000Y35850000D03*
X39750000Y36500000D03*
X39750000Y39000000D03*
X13900000Y37750000D03*
X3800000Y35850000D03*
%TO.N,Net-(C16-Pad2)*%
X55500000Y50750000D03*
X39750000Y48750000D03*
D15*
%TO.N,+5V*%
X43250000Y35250000D03*
X42250000Y38250000D03*
X43250000Y39250000D03*
D16*
X39000000Y44250000D03*
D15*
X43250000Y38250000D03*
X42250000Y39250000D03*
D16*
X49500000Y51500000D03*
D15*
X43250000Y37250000D03*
X42250000Y37250000D03*
X42250000Y35250000D03*
X42250000Y36250000D03*
X43250000Y36250000D03*
D16*
%TO.N,Net-(C17-Pad2)*%
X38000000Y50750000D03*
X22750000Y44750000D03*
%TO.N,VHS*%
X13950000Y36850000D03*
%TO.N,VLS*%
X13200000Y36750000D03*
%TO.N,RS*%
X13900000Y39250000D03*
X3750000Y44900000D03*
X1350000Y44150000D03*
D15*
%TO.N,LO*%
X16250000Y17250000D03*
%TO.N,Net-(D2-A)*%
X35000000Y48500000D03*
D16*
X33750000Y50000000D03*
D15*
%TO.N,HO*%
X6500000Y23750000D03*
D16*
%TO.N,Net-(D3-A)*%
X48000000Y49750000D03*
D15*
X52500000Y48500000D03*
D16*
%TO.N,PB13*%
X16700000Y36400000D03*
X5050000Y28500000D03*
%TO.N,Net-(D16-A)*%
X3750000Y32550000D03*
%TO.N,PB14*%
X5050000Y30500000D03*
X15800000Y36750000D03*
X21350000Y37750000D03*
%TO.N,PB15*%
X5050000Y32550000D03*
X15600000Y37550000D03*
%TO.N,Net-(D14-A)*%
X3550000Y28500000D03*
%TO.N,Net-(D15-A)*%
X3650000Y30500000D03*
%TO.N,DIO*%
X16250000Y42000000D03*
%TO.N,SDA*%
X14500000Y42000000D03*
%TO.N,SCL*%
X14250000Y46250000D03*
D15*
%TO.N,I-*%
X37750000Y10500000D03*
X26250000Y10500000D03*
X27250000Y10500000D03*
X39750000Y10500000D03*
X38750000Y10500000D03*
X28250000Y10500000D03*
D16*
%TO.N,HI*%
X18750000Y38250000D03*
D15*
%TO.N,Net-(U5-HI)*%
X17250000Y24750000D03*
D16*
X17000000Y38000000D03*
%TO.N,LI*%
X18750000Y39250000D03*
D15*
%TO.N,Net-(U5-LI)*%
X17875000Y21125000D03*
D16*
X15750000Y40250000D03*
D15*
%TO.N,Net-(U6B--)*%
X51500000Y17500000D03*
D16*
X40500000Y34600000D03*
X39150000Y34600000D03*
X23000000Y34150000D03*
%TO.N,Net-(R22-Pad2)*%
X1450000Y18250000D03*
X11300000Y34800000D03*
D15*
%TO.N,Net-(U6A--)*%
X50250000Y19750000D03*
D16*
X23400000Y34750000D03*
X39100000Y35450000D03*
X40350000Y35400000D03*
%TO.N,Net-(U7-BOOT0)*%
X15250000Y42250000D03*
%TO.N,PB5*%
X17250000Y46250000D03*
X47250000Y53500000D03*
%TD*%
D17*
%TO.N,+3V3*%
X23000000Y57800000D02*
X26750000Y57800000D01*
X22150000Y56950000D02*
X23000000Y57800000D01*
X22150000Y51550000D02*
X22150000Y56950000D01*
D18*
%TO.N,+12V*%
X18500000Y18250000D02*
X20500000Y20250000D01*
X23000000Y35500000D02*
X24750000Y35500000D01*
X14500000Y18250000D02*
X18500000Y18250000D01*
X13750000Y19000000D02*
X14500000Y18250000D01*
D17*
X24750000Y35500000D02*
X24250000Y35500000D01*
X23500000Y48750000D02*
X25500000Y50750000D01*
D18*
X20500000Y20250000D02*
X20500000Y33000000D01*
X20500000Y33000000D02*
X23000000Y35500000D01*
D17*
X24250000Y35500000D02*
X23500000Y36250000D01*
X25500000Y50750000D02*
X33250000Y50750000D01*
X23500000Y36250000D02*
X23500000Y48750000D01*
X33250000Y50750000D02*
X34000000Y51500000D01*
%TO.N,+3V3*%
X40500000Y39000000D02*
X41000000Y39500000D01*
X39750000Y39000000D02*
X40500000Y39000000D01*
X13535000Y48115000D02*
X13500000Y48115000D01*
X22350000Y44000000D02*
X17650000Y44000000D01*
X41500000Y49750000D02*
X42000000Y49750000D01*
X41000000Y39500000D02*
X41000000Y49250000D01*
X41000000Y49250000D02*
X41500000Y49750000D01*
X17650000Y44000000D02*
X13535000Y48115000D01*
X39750000Y27500000D02*
X49500000Y17750000D01*
X39750000Y36500000D02*
X39750000Y27500000D01*
%TO.N,+5V*%
X39500000Y50750000D02*
X39000000Y50250000D01*
X49500000Y51500000D02*
X48750000Y50750000D01*
X39000000Y50250000D02*
X39000000Y44250000D01*
X39000000Y38500000D02*
X39000000Y44250000D01*
X42250000Y35250000D02*
X39000000Y38500000D01*
X48750000Y50750000D02*
X39500000Y50750000D01*
%TO.N,RS*%
X13600000Y39250000D02*
X12450000Y40400000D01*
X12450000Y42050000D02*
X11800000Y42700000D01*
X11800000Y42700000D02*
X9600000Y42700000D01*
X7400000Y44900000D02*
X3750000Y44900000D01*
X9600000Y42700000D02*
X7400000Y44900000D01*
X12450000Y40400000D02*
X12450000Y42050000D01*
X13600000Y39250000D02*
X13900000Y39250000D01*
%TO.N,Net-(D2-A)*%
X35000000Y48500000D02*
X35000000Y48750000D01*
X35000000Y48750000D02*
X33750000Y50000000D01*
%TO.N,PB13*%
X5050000Y29350000D02*
X7850000Y32150000D01*
X11850000Y32150000D02*
X15450000Y35750000D01*
X5050000Y28500000D02*
X5050000Y29350000D01*
X7850000Y32150000D02*
X11850000Y32150000D01*
X16050000Y35750000D02*
X16700000Y36400000D01*
X15450000Y35750000D02*
X16050000Y35750000D01*
%TO.N,PB14*%
X5050000Y30900000D02*
X6800000Y32650000D01*
X11500000Y32650000D02*
X15600000Y36750000D01*
X6800000Y32650000D02*
X11500000Y32650000D01*
X15600000Y36750000D02*
X15800000Y36750000D01*
X5050000Y30500000D02*
X5050000Y30900000D01*
%TO.N,PB15*%
X5650000Y33150000D02*
X11100000Y33150000D01*
X11100000Y33150000D02*
X15500000Y37550000D01*
X5050000Y32550000D02*
X5650000Y33150000D01*
X15500000Y37550000D02*
X15600000Y37550000D01*
%TO.N,SDA*%
X13250000Y46000000D02*
X4250000Y46000000D01*
X4250000Y46000000D02*
X2250000Y48000000D01*
X14500000Y42000000D02*
X14500000Y44750000D01*
X2250000Y48000000D02*
X2250000Y48115000D01*
X14500000Y44750000D02*
X13250000Y46000000D01*
%TO.N,Net-(U5-HI)*%
X18000000Y37000000D02*
X18000000Y25500000D01*
X17000000Y38000000D02*
X18000000Y37000000D01*
X18000000Y25500000D02*
X17250000Y24750000D01*
%TO.N,Net-(U5-LI)*%
X15750000Y40250000D02*
X16000000Y40000000D01*
X17500000Y26250000D02*
X16250000Y25000000D01*
X16250000Y25000000D02*
X16250000Y22750000D01*
X16250000Y22750000D02*
X17875000Y21125000D01*
X16000000Y40000000D02*
X16000000Y38100000D01*
X17500000Y36600000D02*
X17500000Y26250000D01*
X16000000Y38100000D02*
X17500000Y36600000D01*
%TO.N,Net-(U6B--)*%
X23000000Y34150000D02*
X38700000Y34150000D01*
X38700000Y34150000D02*
X39150000Y34600000D01*
X40500000Y34600000D02*
X40500000Y27750000D01*
X40500000Y27750000D02*
X50750000Y17500000D01*
X50750000Y17500000D02*
X51500000Y17500000D01*
%TO.N,Net-(R22-Pad2)*%
X10150000Y33650000D02*
X2350000Y33650000D01*
X1450000Y32750000D02*
X1450000Y18250000D01*
X2350000Y33650000D02*
X1625000Y32925000D01*
X11300000Y34800000D02*
X10150000Y33650000D01*
X1625000Y32925000D02*
X1450000Y32750000D01*
%TO.N,Net-(U6A--)*%
X40650000Y35400000D02*
X41200000Y34850000D01*
X41200000Y28200000D02*
X49650000Y19750000D01*
X23400000Y34750000D02*
X38400000Y34750000D01*
X40350000Y35400000D02*
X40650000Y35400000D01*
X38400000Y34750000D02*
X39100000Y35450000D01*
X41200000Y34850000D02*
X41200000Y28200000D01*
X49650000Y19750000D02*
X50250000Y19750000D01*
%TD*%
%TA.AperFunction,Conductor*%
%TO.N,GND*%
G36*
X26454795Y58747300D02*
G01*
X26462504Y58748565D01*
X26487851Y58737594D01*
X26514341Y58729815D01*
X26519454Y58723914D01*
X26526625Y58720810D01*
X26542018Y58697874D01*
X26560096Y58677011D01*
X26561207Y58669283D01*
X26565561Y58662795D01*
X26566110Y58635183D01*
X26570040Y58607853D01*
X26566795Y58600749D01*
X26566951Y58592939D01*
X26552486Y58569416D01*
X26541015Y58544297D01*
X26533874Y58539149D01*
X26530353Y58533421D01*
X26501047Y58513753D01*
X26497935Y58512257D01*
X26392610Y58468629D01*
X26355066Y58443544D01*
X26347185Y58439753D01*
X26301338Y58429301D01*
X26295651Y58427520D01*
X26294687Y58427785D01*
X26293440Y58427500D01*
X22938192Y58427500D01*
X22816973Y58403388D01*
X22816965Y58403386D01*
X22757109Y58378592D01*
X22757108Y58378592D01*
X22702773Y58356087D01*
X22702761Y58356080D01*
X22629520Y58307141D01*
X22599990Y58287410D01*
X22599986Y58287407D01*
X21892509Y57579928D01*
X21749992Y57437411D01*
X21706289Y57393709D01*
X21662587Y57350007D01*
X21593920Y57247240D01*
X21593915Y57247230D01*
X21583220Y57221409D01*
X21546614Y57133036D01*
X21546612Y57133030D01*
X21534969Y57074497D01*
X21534970Y57074496D01*
X21522500Y57011802D01*
X21522500Y52006560D01*
X21502815Y51939521D01*
X21501603Y51937671D01*
X21481371Y51907392D01*
X21424495Y51770081D01*
X21424493Y51770073D01*
X21395500Y51624317D01*
X21395500Y51475684D01*
X21424493Y51329928D01*
X21424495Y51329920D01*
X21481371Y51192609D01*
X21563939Y51069036D01*
X21563945Y51069029D01*
X21669028Y50963946D01*
X21669035Y50963940D01*
X21792608Y50881372D01*
X21792609Y50881372D01*
X21792610Y50881371D01*
X21929920Y50824495D01*
X22075683Y50795501D01*
X22075687Y50795500D01*
X22075688Y50795500D01*
X22224313Y50795500D01*
X22224314Y50795501D01*
X22370080Y50824495D01*
X22507390Y50881371D01*
X22630966Y50963941D01*
X22736059Y51069034D01*
X22818629Y51192610D01*
X22875505Y51329920D01*
X22904500Y51475688D01*
X22904500Y51624312D01*
X22875505Y51770080D01*
X22818629Y51907390D01*
X22818628Y51907392D01*
X22798397Y51937671D01*
X22777520Y52004349D01*
X22777500Y52006560D01*
X22777500Y53574317D01*
X46495500Y53574317D01*
X46495500Y53425684D01*
X46524493Y53279928D01*
X46524495Y53279920D01*
X46581371Y53142609D01*
X46663939Y53019036D01*
X46663945Y53019029D01*
X46769028Y52913946D01*
X46769035Y52913940D01*
X46892608Y52831372D01*
X46892609Y52831372D01*
X46892610Y52831371D01*
X47029920Y52774495D01*
X47175683Y52745501D01*
X47175687Y52745500D01*
X47175688Y52745500D01*
X47324313Y52745500D01*
X47324314Y52745501D01*
X47470080Y52774495D01*
X47607390Y52831371D01*
X47730966Y52913941D01*
X47836059Y53019034D01*
X47918629Y53142610D01*
X47975505Y53279920D01*
X48004500Y53425688D01*
X48004500Y53574312D01*
X47975505Y53720080D01*
X47918629Y53857390D01*
X47836059Y53980966D01*
X47836054Y53980972D01*
X47730971Y54086055D01*
X47730964Y54086061D01*
X47607391Y54168629D01*
X47470080Y54225505D01*
X47470072Y54225507D01*
X47324316Y54254500D01*
X47324312Y54254500D01*
X47175688Y54254500D01*
X47175683Y54254500D01*
X47029927Y54225507D01*
X47029919Y54225505D01*
X46892608Y54168629D01*
X46769035Y54086061D01*
X46769028Y54086055D01*
X46663945Y53980972D01*
X46663939Y53980965D01*
X46581371Y53857392D01*
X46524495Y53720081D01*
X46524493Y53720073D01*
X46495500Y53574317D01*
X22777500Y53574317D01*
X22777500Y56638719D01*
X22797185Y56705758D01*
X22813819Y56726400D01*
X23223600Y57136181D01*
X23284923Y57169666D01*
X23311281Y57172500D01*
X26293440Y57172500D01*
X26360479Y57152815D01*
X26362329Y57151603D01*
X26392608Y57131372D01*
X26392609Y57131372D01*
X26392610Y57131371D01*
X26529920Y57074495D01*
X26675683Y57045501D01*
X26675687Y57045500D01*
X26675688Y57045500D01*
X26824313Y57045500D01*
X26824314Y57045501D01*
X26970080Y57074495D01*
X27107390Y57131371D01*
X27230966Y57213941D01*
X27336059Y57319034D01*
X27418629Y57442610D01*
X27475505Y57579920D01*
X27504500Y57725688D01*
X27504500Y57874312D01*
X27475505Y58020080D01*
X27418629Y58157390D01*
X27336059Y58280966D01*
X27336054Y58280972D01*
X27230971Y58386055D01*
X27230964Y58386061D01*
X27107391Y58468629D01*
X27005245Y58510939D01*
X26950842Y58554780D01*
X26928777Y58621074D01*
X26946056Y58688773D01*
X26997193Y58736384D01*
X27052698Y58749500D01*
X57375500Y58749500D01*
X57442539Y58729815D01*
X57488294Y58677011D01*
X57499500Y58625500D01*
X57499500Y624500D01*
X57479815Y557461D01*
X57427011Y511706D01*
X57375500Y500500D01*
X48448008Y500500D01*
X48380969Y520185D01*
X48335214Y572989D01*
X48325270Y642147D01*
X48354295Y705703D01*
X48389555Y733858D01*
X48435286Y758302D01*
X48554732Y822147D01*
X48857044Y1024146D01*
X49138101Y1254803D01*
X49395197Y1511899D01*
X49625854Y1792956D01*
X49827853Y2095268D01*
X49999247Y2415924D01*
X50138386Y2751836D01*
X50243930Y3099767D01*
X50243932Y3099777D01*
X50243935Y3099788D01*
X50314862Y3456370D01*
X50350500Y3818210D01*
X50350500Y4181791D01*
X50314862Y4543631D01*
X50243935Y4900213D01*
X50243932Y4900224D01*
X50243931Y4900227D01*
X50243930Y4900233D01*
X50138386Y5248164D01*
X49999247Y5584076D01*
X49933334Y5707390D01*
X49827859Y5904721D01*
X49827858Y5904723D01*
X49827853Y5904732D01*
X49625854Y6207044D01*
X49395197Y6488101D01*
X49395196Y6488102D01*
X49395192Y6488107D01*
X49138106Y6745193D01*
X48857049Y6975850D01*
X48857048Y6975851D01*
X48857044Y6975854D01*
X48554732Y7177853D01*
X48554727Y7177856D01*
X48554720Y7177860D01*
X48234083Y7349244D01*
X48234078Y7349246D01*
X47898165Y7488386D01*
X47550223Y7593933D01*
X47550212Y7593936D01*
X47193630Y7664863D01*
X46921111Y7691704D01*
X46831794Y7700500D01*
X46468206Y7700500D01*
X46385679Y7692372D01*
X46106369Y7664863D01*
X45749787Y7593936D01*
X45749776Y7593933D01*
X45401834Y7488386D01*
X45065921Y7349246D01*
X45065916Y7349244D01*
X44745279Y7177860D01*
X44745261Y7177849D01*
X44442964Y6975860D01*
X44442950Y6975850D01*
X44161893Y6745193D01*
X43904807Y6488107D01*
X43674150Y6207050D01*
X43674140Y6207036D01*
X43472151Y5904739D01*
X43472140Y5904721D01*
X43300756Y5584084D01*
X43300754Y5584079D01*
X43161614Y5248166D01*
X43056067Y4900224D01*
X43056064Y4900213D01*
X42985137Y4543631D01*
X42949500Y4181791D01*
X42949500Y3818210D01*
X42985137Y3456370D01*
X43056064Y3099788D01*
X43056067Y3099777D01*
X43161614Y2751835D01*
X43300754Y2415922D01*
X43300756Y2415917D01*
X43472140Y2095280D01*
X43472151Y2095262D01*
X43674140Y1792965D01*
X43674150Y1792951D01*
X43904807Y1511894D01*
X44161893Y1254808D01*
X44161898Y1254804D01*
X44161899Y1254803D01*
X44442956Y1024146D01*
X44745268Y822147D01*
X44745277Y822142D01*
X44745279Y822141D01*
X44910445Y733858D01*
X44960289Y684896D01*
X44975750Y616758D01*
X44951918Y551079D01*
X44896361Y508710D01*
X44851992Y500500D01*
X624500Y500500D01*
X557461Y520185D01*
X511706Y572989D01*
X500500Y624500D01*
X500500Y8663178D01*
X6718499Y8663178D01*
X6752374Y8492882D01*
X6752377Y8492872D01*
X6818823Y8332455D01*
X6827888Y8318888D01*
X6848764Y8252209D01*
X6830277Y8184830D01*
X6827888Y8181112D01*
X6818823Y8167546D01*
X6752377Y8007129D01*
X6752374Y8007119D01*
X6718500Y7836823D01*
X6718500Y7836820D01*
X6718500Y7663180D01*
X6718500Y7663178D01*
X6718499Y7663178D01*
X6752374Y7492882D01*
X6752377Y7492872D01*
X6818823Y7332455D01*
X6827888Y7318888D01*
X6848764Y7252209D01*
X6830277Y7184830D01*
X6827888Y7181112D01*
X6818823Y7167546D01*
X6752377Y7007129D01*
X6752374Y7007119D01*
X6718500Y6836823D01*
X6718500Y6836820D01*
X6718500Y6663180D01*
X6718500Y6663178D01*
X6718499Y6663178D01*
X6752374Y6492882D01*
X6752377Y6492872D01*
X6818823Y6332455D01*
X6827888Y6318888D01*
X6848764Y6252209D01*
X6830277Y6184830D01*
X6827888Y6181112D01*
X6818823Y6167546D01*
X6752377Y6007129D01*
X6752374Y6007119D01*
X6718500Y5836823D01*
X6718500Y5836820D01*
X6718500Y5663180D01*
X6718500Y5663178D01*
X6718499Y5663178D01*
X6752374Y5492882D01*
X6752377Y5492872D01*
X6818821Y5332460D01*
X6818828Y5332447D01*
X6915293Y5188078D01*
X6915296Y5188074D01*
X7038073Y5065297D01*
X7038077Y5065294D01*
X7182446Y4968829D01*
X7182459Y4968822D01*
X7342871Y4902378D01*
X7342876Y4902376D01*
X7342880Y4902376D01*
X7342881Y4902375D01*
X7513177Y4868500D01*
X7513180Y4868500D01*
X7686822Y4868500D01*
X7801394Y4891291D01*
X7857124Y4902376D01*
X8017547Y4968825D01*
X8031108Y4977887D01*
X8097783Y4998766D01*
X8165164Y4980283D01*
X8168852Y4977913D01*
X8182453Y4968825D01*
X8182455Y4968824D01*
X8182457Y4968823D01*
X8342871Y4902378D01*
X8342876Y4902376D01*
X8342880Y4902376D01*
X8342881Y4902375D01*
X8513177Y4868500D01*
X8513180Y4868500D01*
X8686822Y4868500D01*
X8801394Y4891291D01*
X8857124Y4902376D01*
X9017547Y4968825D01*
X9031108Y4977887D01*
X9097783Y4998766D01*
X9165164Y4980283D01*
X9168852Y4977913D01*
X9182453Y4968825D01*
X9182455Y4968824D01*
X9182457Y4968823D01*
X9342871Y4902378D01*
X9342876Y4902376D01*
X9342880Y4902376D01*
X9342881Y4902375D01*
X9513177Y4868500D01*
X9513180Y4868500D01*
X9686822Y4868500D01*
X9801394Y4891291D01*
X9857124Y4902376D01*
X10017547Y4968825D01*
X10161923Y5065294D01*
X10284706Y5188077D01*
X10381175Y5332453D01*
X10447624Y5492876D01*
X10481500Y5663180D01*
X10481500Y5836820D01*
X10481500Y5836823D01*
X10447625Y6007119D01*
X10447624Y6007120D01*
X10447624Y6007124D01*
X10437738Y6030991D01*
X10381177Y6167543D01*
X10381175Y6167546D01*
X10381175Y6167547D01*
X10372113Y6181109D01*
X10351234Y6247783D01*
X10369717Y6315164D01*
X10372087Y6318853D01*
X10381175Y6332453D01*
X10447624Y6492876D01*
X10481500Y6663180D01*
X10481500Y6836820D01*
X10481500Y6836823D01*
X10447625Y7007119D01*
X10447624Y7007120D01*
X10447624Y7007124D01*
X10426916Y7057119D01*
X10381177Y7167543D01*
X10381175Y7167546D01*
X10381175Y7167547D01*
X10372113Y7181109D01*
X10351234Y7247783D01*
X10369717Y7315164D01*
X10372087Y7318853D01*
X10381175Y7332453D01*
X10447624Y7492876D01*
X10481500Y7663180D01*
X10481500Y7836820D01*
X10481500Y7836823D01*
X10447625Y8007119D01*
X10447624Y8007120D01*
X10447624Y8007124D01*
X10381175Y8167547D01*
X10372113Y8181109D01*
X10351234Y8247783D01*
X10369717Y8315164D01*
X10372087Y8318853D01*
X10381175Y8332453D01*
X10447624Y8492876D01*
X10481500Y8663178D01*
X17718499Y8663178D01*
X17752374Y8492882D01*
X17752377Y8492872D01*
X17818823Y8332455D01*
X17827888Y8318888D01*
X17848764Y8252209D01*
X17830277Y8184830D01*
X17827888Y8181112D01*
X17818823Y8167546D01*
X17752377Y8007129D01*
X17752374Y8007119D01*
X17718500Y7836823D01*
X17718500Y7836820D01*
X17718500Y7663180D01*
X17718500Y7663178D01*
X17718499Y7663178D01*
X17752374Y7492882D01*
X17752377Y7492872D01*
X17818823Y7332455D01*
X17827888Y7318888D01*
X17848764Y7252209D01*
X17830277Y7184830D01*
X17827888Y7181112D01*
X17818823Y7167546D01*
X17752377Y7007129D01*
X17752374Y7007119D01*
X17718500Y6836823D01*
X17718500Y6836820D01*
X17718500Y6663180D01*
X17718500Y6663178D01*
X17718499Y6663178D01*
X17752374Y6492882D01*
X17752377Y6492872D01*
X17818823Y6332455D01*
X17827888Y6318888D01*
X17848764Y6252209D01*
X17830277Y6184830D01*
X17827888Y6181112D01*
X17818823Y6167546D01*
X17752377Y6007129D01*
X17752374Y6007119D01*
X17718500Y5836823D01*
X17718500Y5836820D01*
X17718500Y5663180D01*
X17718500Y5663178D01*
X17718499Y5663178D01*
X17752374Y5492882D01*
X17752377Y5492872D01*
X17818821Y5332460D01*
X17818828Y5332447D01*
X17915293Y5188078D01*
X17915296Y5188074D01*
X18038073Y5065297D01*
X18038077Y5065294D01*
X18182446Y4968829D01*
X18182459Y4968822D01*
X18342871Y4902378D01*
X18342876Y4902376D01*
X18342880Y4902376D01*
X18342881Y4902375D01*
X18513177Y4868500D01*
X18513180Y4868500D01*
X18686822Y4868500D01*
X18801394Y4891291D01*
X18857124Y4902376D01*
X19017547Y4968825D01*
X19031108Y4977887D01*
X19097783Y4998766D01*
X19165164Y4980283D01*
X19168852Y4977913D01*
X19182453Y4968825D01*
X19182455Y4968824D01*
X19182457Y4968823D01*
X19342871Y4902378D01*
X19342876Y4902376D01*
X19342880Y4902376D01*
X19342881Y4902375D01*
X19513177Y4868500D01*
X19513180Y4868500D01*
X19686822Y4868500D01*
X19801394Y4891291D01*
X19857124Y4902376D01*
X20017547Y4968825D01*
X20161923Y5065294D01*
X20284706Y5188077D01*
X20381175Y5332453D01*
X20447624Y5492876D01*
X20481500Y5663180D01*
X20481500Y5794657D01*
X20501185Y5861696D01*
X20553989Y5907451D01*
X20607088Y5916289D01*
X20607088Y5918500D01*
X20786822Y5918500D01*
X20901394Y5941291D01*
X20957124Y5952376D01*
X21117547Y6018825D01*
X21261923Y6115294D01*
X21384706Y6238077D01*
X21481175Y6382453D01*
X21547624Y6542876D01*
X21581500Y6713180D01*
X21581500Y6886820D01*
X21581500Y6886823D01*
X21547625Y7057119D01*
X21547624Y7057120D01*
X21547624Y7057124D01*
X21504217Y7161919D01*
X21478844Y7223176D01*
X21480212Y7223743D01*
X21467468Y7284947D01*
X21479664Y7326485D01*
X21478844Y7326824D01*
X21547622Y7492872D01*
X21547624Y7492876D01*
X21581500Y7663180D01*
X21581500Y7836820D01*
X21581500Y7836823D01*
X21547625Y8007119D01*
X21547624Y8007120D01*
X21547624Y8007124D01*
X21481177Y8167543D01*
X21478844Y8173176D01*
X21480212Y8173743D01*
X21467468Y8234947D01*
X21479664Y8276485D01*
X21478844Y8276824D01*
X21547622Y8442872D01*
X21547624Y8442876D01*
X21581500Y8613180D01*
X21581500Y8786820D01*
X21581500Y8786823D01*
X21547625Y8957119D01*
X21547624Y8957120D01*
X21547624Y8957124D01*
X21526916Y9007119D01*
X21481178Y9117541D01*
X21481171Y9117554D01*
X21384706Y9261923D01*
X21384703Y9261927D01*
X21261926Y9384704D01*
X21261922Y9384707D01*
X21117553Y9481172D01*
X21117540Y9481179D01*
X20957128Y9547623D01*
X20957118Y9547626D01*
X20786822Y9581500D01*
X20786820Y9581500D01*
X20613180Y9581500D01*
X20613178Y9581500D01*
X20442881Y9547626D01*
X20442875Y9547624D01*
X20282456Y9481177D01*
X20282451Y9481174D01*
X20256304Y9463703D01*
X20189626Y9442827D01*
X20122246Y9461313D01*
X20118524Y9463705D01*
X20017553Y9531172D01*
X20017540Y9531179D01*
X19857128Y9597623D01*
X19857118Y9597626D01*
X19686822Y9631500D01*
X19686820Y9631500D01*
X19513180Y9631500D01*
X19513178Y9631500D01*
X19342881Y9597626D01*
X19342871Y9597623D01*
X19182454Y9531177D01*
X19168888Y9522112D01*
X19102209Y9501236D01*
X19034830Y9519723D01*
X19031112Y9522112D01*
X19017545Y9531177D01*
X18857128Y9597623D01*
X18857118Y9597626D01*
X18686822Y9631500D01*
X18686820Y9631500D01*
X18513180Y9631500D01*
X18513178Y9631500D01*
X18342881Y9597626D01*
X18342871Y9597623D01*
X18182459Y9531179D01*
X18182446Y9531172D01*
X18038077Y9434707D01*
X18038073Y9434704D01*
X17915296Y9311927D01*
X17915293Y9311923D01*
X17818828Y9167554D01*
X17818821Y9167541D01*
X17752377Y9007129D01*
X17752374Y9007119D01*
X17718500Y8836823D01*
X17718500Y8836820D01*
X17718500Y8663180D01*
X17718500Y8663178D01*
X17718499Y8663178D01*
X10481500Y8663178D01*
X10481500Y8663180D01*
X10481500Y8836820D01*
X10481500Y8836823D01*
X10447625Y9007119D01*
X10447624Y9007120D01*
X10447624Y9007124D01*
X10401883Y9117554D01*
X10381178Y9167541D01*
X10381171Y9167554D01*
X10284706Y9311923D01*
X10284703Y9311927D01*
X10161926Y9434704D01*
X10161922Y9434707D01*
X10017553Y9531172D01*
X10017540Y9531179D01*
X9857128Y9597623D01*
X9857118Y9597626D01*
X9686822Y9631500D01*
X9686820Y9631500D01*
X9513180Y9631500D01*
X9513178Y9631500D01*
X9342881Y9597626D01*
X9342871Y9597623D01*
X9182454Y9531177D01*
X9168888Y9522112D01*
X9102209Y9501236D01*
X9034830Y9519723D01*
X9031112Y9522112D01*
X9017545Y9531177D01*
X8857128Y9597623D01*
X8857118Y9597626D01*
X8686822Y9631500D01*
X8686820Y9631500D01*
X8513180Y9631500D01*
X8513178Y9631500D01*
X8342881Y9597626D01*
X8342871Y9597623D01*
X8182454Y9531177D01*
X8168888Y9522112D01*
X8102209Y9501236D01*
X8034830Y9519723D01*
X8031112Y9522112D01*
X8017545Y9531177D01*
X7857128Y9597623D01*
X7857118Y9597626D01*
X7686822Y9631500D01*
X7686820Y9631500D01*
X7513180Y9631500D01*
X7513178Y9631500D01*
X7342881Y9597626D01*
X7342871Y9597623D01*
X7182459Y9531179D01*
X7182446Y9531172D01*
X7038077Y9434707D01*
X7038073Y9434704D01*
X6915296Y9311927D01*
X6915293Y9311923D01*
X6818828Y9167554D01*
X6818821Y9167541D01*
X6752377Y9007129D01*
X6752374Y9007119D01*
X6718500Y8836823D01*
X6718500Y8836820D01*
X6718500Y8663180D01*
X6718500Y8663178D01*
X6718499Y8663178D01*
X500500Y8663178D01*
X500500Y10413178D01*
X25368499Y10413178D01*
X25402374Y10242882D01*
X25402377Y10242872D01*
X25468821Y10082460D01*
X25468828Y10082447D01*
X25565293Y9938078D01*
X25565296Y9938074D01*
X25688073Y9815297D01*
X25688077Y9815294D01*
X25832446Y9718829D01*
X25832459Y9718822D01*
X25992873Y9652377D01*
X25997525Y9650966D01*
X26055966Y9612672D01*
X26084426Y9548861D01*
X26073869Y9479794D01*
X26042277Y9439121D01*
X26042384Y9439014D01*
X26041540Y9438171D01*
X26040212Y9436460D01*
X26038079Y9434710D01*
X25915296Y9311927D01*
X25915293Y9311923D01*
X25818828Y9167554D01*
X25818821Y9167541D01*
X25752377Y9007129D01*
X25752374Y9007119D01*
X25718500Y8836823D01*
X25718500Y8836820D01*
X25718500Y8663180D01*
X25718500Y8663178D01*
X25718499Y8663178D01*
X25752374Y8492882D01*
X25752377Y8492872D01*
X25818823Y8332455D01*
X25827888Y8318888D01*
X25848764Y8252209D01*
X25830277Y8184830D01*
X25827888Y8181112D01*
X25818823Y8167546D01*
X25752377Y8007129D01*
X25752374Y8007119D01*
X25718500Y7836823D01*
X25718500Y7836820D01*
X25718500Y7663180D01*
X25718500Y7663178D01*
X25718499Y7663178D01*
X25752374Y7492882D01*
X25752377Y7492872D01*
X25816493Y7338082D01*
X25823962Y7268613D01*
X25805035Y7221740D01*
X25768827Y7167551D01*
X25768823Y7167544D01*
X25702376Y7007125D01*
X25702374Y7007119D01*
X25668500Y6836823D01*
X25668500Y6836820D01*
X25668500Y6663180D01*
X25668500Y6663178D01*
X25668499Y6663178D01*
X25702374Y6492882D01*
X25702377Y6492872D01*
X25768821Y6332460D01*
X25768828Y6332447D01*
X25865293Y6188078D01*
X25865296Y6188074D01*
X25988073Y6065297D01*
X25988077Y6065294D01*
X26132446Y5968829D01*
X26132459Y5968822D01*
X26292871Y5902378D01*
X26292876Y5902376D01*
X26292880Y5902376D01*
X26292881Y5902375D01*
X26393480Y5882364D01*
X26455391Y5849979D01*
X26489965Y5789263D01*
X26486225Y5719494D01*
X26483427Y5713132D01*
X26483702Y5713018D01*
X26424495Y5570081D01*
X26424493Y5570073D01*
X26395500Y5424317D01*
X26395500Y5275684D01*
X26424493Y5129928D01*
X26424495Y5129920D01*
X26481371Y4992609D01*
X26563939Y4869036D01*
X26563945Y4869029D01*
X26669028Y4763946D01*
X26669035Y4763940D01*
X26792608Y4681372D01*
X26792609Y4681372D01*
X26792610Y4681371D01*
X26929920Y4624495D01*
X27075683Y4595501D01*
X27075687Y4595500D01*
X27075688Y4595500D01*
X27224313Y4595500D01*
X27224314Y4595501D01*
X27370080Y4624495D01*
X27477548Y4669011D01*
X27547016Y4676479D01*
X27572449Y4669012D01*
X27679920Y4624495D01*
X27825683Y4595501D01*
X27825687Y4595500D01*
X27825688Y4595500D01*
X27974313Y4595500D01*
X27974314Y4595501D01*
X28120080Y4624495D01*
X28257390Y4681371D01*
X28380966Y4763941D01*
X28486059Y4869034D01*
X28568629Y4992610D01*
X28625505Y5129920D01*
X28654500Y5275688D01*
X28654500Y5424312D01*
X28654499Y5424317D01*
X37095500Y5424317D01*
X37095500Y5275684D01*
X37124493Y5129928D01*
X37124495Y5129920D01*
X37181371Y4992609D01*
X37263939Y4869036D01*
X37263945Y4869029D01*
X37369028Y4763946D01*
X37369035Y4763940D01*
X37492608Y4681372D01*
X37492609Y4681372D01*
X37492610Y4681371D01*
X37629920Y4624495D01*
X37775683Y4595501D01*
X37775687Y4595500D01*
X37775688Y4595500D01*
X37924313Y4595500D01*
X37924314Y4595501D01*
X38070080Y4624495D01*
X38202547Y4679366D01*
X38272016Y4686834D01*
X38297452Y4679366D01*
X38429920Y4624495D01*
X38575683Y4595501D01*
X38575687Y4595500D01*
X38575688Y4595500D01*
X38724313Y4595500D01*
X38724314Y4595501D01*
X38870080Y4624495D01*
X39002547Y4679366D01*
X39072016Y4686834D01*
X39097452Y4679366D01*
X39229920Y4624495D01*
X39375683Y4595501D01*
X39375687Y4595500D01*
X39375688Y4595500D01*
X39524313Y4595500D01*
X39524314Y4595501D01*
X39670080Y4624495D01*
X39807390Y4681371D01*
X39930966Y4763941D01*
X40036059Y4869034D01*
X40118629Y4992610D01*
X40175505Y5129920D01*
X40204500Y5275688D01*
X40204500Y5424312D01*
X40175505Y5570080D01*
X40118629Y5707390D01*
X40114792Y5713132D01*
X40036060Y5830965D01*
X40036054Y5830972D01*
X39930971Y5936055D01*
X39930964Y5936061D01*
X39807391Y6018629D01*
X39670080Y6075505D01*
X39670072Y6075507D01*
X39524316Y6104500D01*
X39524312Y6104500D01*
X39375688Y6104500D01*
X39375683Y6104500D01*
X39229927Y6075507D01*
X39229919Y6075505D01*
X39097453Y6020635D01*
X39027984Y6013166D01*
X39002547Y6020635D01*
X38979981Y6029982D01*
X38870080Y6075505D01*
X38870072Y6075507D01*
X38724316Y6104500D01*
X38724312Y6104500D01*
X38575688Y6104500D01*
X38575683Y6104500D01*
X38429927Y6075507D01*
X38429919Y6075505D01*
X38297453Y6020635D01*
X38227984Y6013166D01*
X38202547Y6020635D01*
X38179981Y6029982D01*
X38070080Y6075505D01*
X38070072Y6075507D01*
X37924316Y6104500D01*
X37924312Y6104500D01*
X37775688Y6104500D01*
X37775683Y6104500D01*
X37629927Y6075507D01*
X37629919Y6075505D01*
X37492608Y6018629D01*
X37369035Y5936061D01*
X37369028Y5936055D01*
X37263945Y5830972D01*
X37263939Y5830965D01*
X37181371Y5707392D01*
X37124495Y5570081D01*
X37124493Y5570073D01*
X37095500Y5424317D01*
X28654499Y5424317D01*
X28625505Y5570080D01*
X28568629Y5707390D01*
X28564792Y5713132D01*
X28486060Y5830965D01*
X28486054Y5830972D01*
X28380971Y5936055D01*
X28380964Y5936061D01*
X28257391Y6018629D01*
X28120080Y6075505D01*
X28120072Y6075507D01*
X27974316Y6104500D01*
X27974312Y6104500D01*
X27825688Y6104500D01*
X27825683Y6104500D01*
X27679927Y6075507D01*
X27679915Y6075504D01*
X27572452Y6030991D01*
X27543240Y6027851D01*
X27514440Y6022002D01*
X27506603Y6023912D01*
X27502983Y6023522D01*
X27480060Y6029982D01*
X27478779Y6030481D01*
X27370080Y6075505D01*
X27355568Y6078392D01*
X27345458Y6082323D01*
X27326026Y6097294D01*
X27304295Y6108662D01*
X27298841Y6118239D01*
X27290110Y6124966D01*
X27281857Y6148065D01*
X27269721Y6169378D01*
X27270311Y6180384D01*
X27266603Y6190763D01*
X27272148Y6214657D01*
X27273462Y6239147D01*
X27281612Y6255431D01*
X27282400Y6258823D01*
X27284174Y6260550D01*
X27287292Y6266779D01*
X27331175Y6332453D01*
X27397624Y6492876D01*
X27431500Y6663180D01*
X27431500Y6836820D01*
X27431500Y6836823D01*
X27397625Y7007119D01*
X27397624Y7007120D01*
X27397624Y7007124D01*
X27333505Y7161920D01*
X27326037Y7231389D01*
X27344964Y7278262D01*
X27381175Y7332453D01*
X27447624Y7492876D01*
X27481500Y7663180D01*
X27481500Y7836820D01*
X27481500Y7836823D01*
X27447625Y8007119D01*
X27447624Y8007120D01*
X27447624Y8007124D01*
X27381175Y8167547D01*
X27372113Y8181109D01*
X27351234Y8247783D01*
X27369717Y8315164D01*
X27372087Y8318853D01*
X27381175Y8332453D01*
X27447624Y8492876D01*
X27481500Y8663180D01*
X27481500Y8836820D01*
X27481500Y8836823D01*
X27447625Y9007119D01*
X27447624Y9007120D01*
X27447624Y9007124D01*
X27401883Y9117554D01*
X27381178Y9167541D01*
X27381171Y9167554D01*
X27284706Y9311923D01*
X27284703Y9311927D01*
X27189811Y9406819D01*
X27156326Y9468142D01*
X27161310Y9537834D01*
X27203182Y9593767D01*
X27268646Y9618184D01*
X27277492Y9618500D01*
X27336822Y9618500D01*
X27451394Y9641291D01*
X27507124Y9652376D01*
X27667547Y9718825D01*
X27681108Y9727887D01*
X27747783Y9748766D01*
X27815164Y9730283D01*
X27818852Y9727913D01*
X27832453Y9718825D01*
X27832455Y9718824D01*
X27832457Y9718823D01*
X27992871Y9652378D01*
X27992876Y9652376D01*
X27992880Y9652376D01*
X27992881Y9652375D01*
X28163177Y9618500D01*
X28163180Y9618500D01*
X28336822Y9618500D01*
X28451394Y9641291D01*
X28507124Y9652376D01*
X28667547Y9718825D01*
X28811923Y9815294D01*
X28934706Y9938077D01*
X29031175Y10082453D01*
X29097624Y10242876D01*
X29131500Y10413178D01*
X36868499Y10413178D01*
X36902374Y10242882D01*
X36902377Y10242872D01*
X36968821Y10082460D01*
X36968828Y10082447D01*
X37065293Y9938078D01*
X37065296Y9938074D01*
X37188073Y9815297D01*
X37188077Y9815294D01*
X37332446Y9718829D01*
X37332459Y9718822D01*
X37492871Y9652378D01*
X37492876Y9652376D01*
X37492880Y9652376D01*
X37492881Y9652375D01*
X37663177Y9618500D01*
X37663180Y9618500D01*
X37836822Y9618500D01*
X37951394Y9641291D01*
X38007124Y9652376D01*
X38167547Y9718825D01*
X38181108Y9727887D01*
X38247783Y9748766D01*
X38315164Y9730283D01*
X38318852Y9727913D01*
X38332453Y9718825D01*
X38332455Y9718824D01*
X38332457Y9718823D01*
X38492871Y9652378D01*
X38492876Y9652376D01*
X38492880Y9652376D01*
X38492881Y9652375D01*
X38663177Y9618500D01*
X38663180Y9618500D01*
X38836822Y9618500D01*
X38951394Y9641291D01*
X39007124Y9652376D01*
X39167547Y9718825D01*
X39181108Y9727887D01*
X39247783Y9748766D01*
X39315164Y9730283D01*
X39318852Y9727913D01*
X39332453Y9718825D01*
X39332455Y9718824D01*
X39332457Y9718823D01*
X39492871Y9652378D01*
X39492876Y9652376D01*
X39492880Y9652376D01*
X39492881Y9652375D01*
X39663177Y9618500D01*
X39663180Y9618500D01*
X39836822Y9618500D01*
X39951394Y9641291D01*
X40007124Y9652376D01*
X40167547Y9718825D01*
X40311923Y9815294D01*
X40434706Y9938077D01*
X40531175Y10082453D01*
X40597624Y10242876D01*
X40631500Y10413180D01*
X40631500Y10586820D01*
X40631500Y10586823D01*
X40597625Y10757119D01*
X40597624Y10757120D01*
X40597624Y10757124D01*
X40597622Y10757129D01*
X40531178Y10917541D01*
X40531171Y10917554D01*
X40434706Y11061923D01*
X40434703Y11061927D01*
X40311926Y11184704D01*
X40311922Y11184707D01*
X40167553Y11281172D01*
X40167540Y11281179D01*
X40007128Y11347623D01*
X40007118Y11347626D01*
X39836822Y11381500D01*
X39836820Y11381500D01*
X39663180Y11381500D01*
X39663178Y11381500D01*
X39492881Y11347626D01*
X39492871Y11347623D01*
X39332454Y11281177D01*
X39318888Y11272112D01*
X39252209Y11251236D01*
X39184830Y11269723D01*
X39181112Y11272112D01*
X39167545Y11281177D01*
X39007128Y11347623D01*
X39007118Y11347626D01*
X38836822Y11381500D01*
X38836820Y11381500D01*
X38663180Y11381500D01*
X38663178Y11381500D01*
X38492881Y11347626D01*
X38492871Y11347623D01*
X38332454Y11281177D01*
X38318888Y11272112D01*
X38252209Y11251236D01*
X38184830Y11269723D01*
X38181112Y11272112D01*
X38167545Y11281177D01*
X38007128Y11347623D01*
X38007118Y11347626D01*
X37836822Y11381500D01*
X37836820Y11381500D01*
X37663180Y11381500D01*
X37663178Y11381500D01*
X37492881Y11347626D01*
X37492871Y11347623D01*
X37332459Y11281179D01*
X37332446Y11281172D01*
X37188077Y11184707D01*
X37188073Y11184704D01*
X37065296Y11061927D01*
X37065293Y11061923D01*
X36968828Y10917554D01*
X36968821Y10917541D01*
X36902377Y10757129D01*
X36902374Y10757119D01*
X36868500Y10586823D01*
X36868500Y10586820D01*
X36868500Y10413180D01*
X36868500Y10413178D01*
X36868499Y10413178D01*
X29131500Y10413178D01*
X29131500Y10413180D01*
X29131500Y10586820D01*
X29131500Y10586823D01*
X29097625Y10757119D01*
X29097624Y10757120D01*
X29097624Y10757124D01*
X29097622Y10757129D01*
X29031178Y10917541D01*
X29031171Y10917554D01*
X28934706Y11061923D01*
X28934703Y11061927D01*
X28811926Y11184704D01*
X28811922Y11184707D01*
X28667553Y11281172D01*
X28667540Y11281179D01*
X28507128Y11347623D01*
X28507118Y11347626D01*
X28336822Y11381500D01*
X28336820Y11381500D01*
X28163180Y11381500D01*
X28163178Y11381500D01*
X27992881Y11347626D01*
X27992871Y11347623D01*
X27832454Y11281177D01*
X27818888Y11272112D01*
X27752209Y11251236D01*
X27684830Y11269723D01*
X27681112Y11272112D01*
X27667545Y11281177D01*
X27507128Y11347623D01*
X27507118Y11347626D01*
X27336822Y11381500D01*
X27336820Y11381500D01*
X27163180Y11381500D01*
X27163178Y11381500D01*
X26992881Y11347626D01*
X26992871Y11347623D01*
X26832454Y11281177D01*
X26818888Y11272112D01*
X26752209Y11251236D01*
X26684830Y11269723D01*
X26681112Y11272112D01*
X26667545Y11281177D01*
X26507128Y11347623D01*
X26507118Y11347626D01*
X26336822Y11381500D01*
X26336820Y11381500D01*
X26163180Y11381500D01*
X26163178Y11381500D01*
X25992881Y11347626D01*
X25992871Y11347623D01*
X25832459Y11281179D01*
X25832446Y11281172D01*
X25688077Y11184707D01*
X25688073Y11184704D01*
X25565296Y11061927D01*
X25565293Y11061923D01*
X25468828Y10917554D01*
X25468821Y10917541D01*
X25402377Y10757129D01*
X25402374Y10757119D01*
X25368500Y10586823D01*
X25368500Y10586820D01*
X25368500Y10413180D01*
X25368500Y10413178D01*
X25368499Y10413178D01*
X500500Y10413178D01*
X500500Y16413178D01*
X6718499Y16413178D01*
X6752374Y16242882D01*
X6752377Y16242872D01*
X6818821Y16082460D01*
X6818828Y16082447D01*
X6915293Y15938078D01*
X6915296Y15938074D01*
X7038073Y15815297D01*
X7038077Y15815294D01*
X7182446Y15718829D01*
X7182459Y15718822D01*
X7342871Y15652378D01*
X7342876Y15652376D01*
X7342880Y15652376D01*
X7342881Y15652375D01*
X7513177Y15618500D01*
X7513180Y15618500D01*
X7686822Y15618500D01*
X7801394Y15641291D01*
X7857124Y15652376D01*
X8017547Y15718825D01*
X8156109Y15811409D01*
X8222786Y15832287D01*
X8290167Y15813803D01*
X8293891Y15811409D01*
X8432446Y15718829D01*
X8432459Y15718822D01*
X8592871Y15652378D01*
X8592876Y15652376D01*
X8592880Y15652376D01*
X8592881Y15652375D01*
X8763177Y15618500D01*
X8763180Y15618500D01*
X8936822Y15618500D01*
X9051394Y15641291D01*
X9107124Y15652376D01*
X9267547Y15718825D01*
X9411923Y15815294D01*
X9534706Y15938077D01*
X9631175Y16082453D01*
X9697624Y16242876D01*
X9708709Y16298606D01*
X9731500Y16413178D01*
X9731500Y16586823D01*
X9697625Y16757119D01*
X9697624Y16757120D01*
X9697624Y16757124D01*
X9697622Y16757129D01*
X9631178Y16917541D01*
X9631171Y16917554D01*
X9534706Y17061923D01*
X9534703Y17061927D01*
X9411926Y17184704D01*
X9411922Y17184707D01*
X9267553Y17281172D01*
X9267540Y17281179D01*
X9107128Y17347623D01*
X9107118Y17347626D01*
X8936822Y17381500D01*
X8936820Y17381500D01*
X8763180Y17381500D01*
X8763178Y17381500D01*
X8592881Y17347626D01*
X8592871Y17347623D01*
X8432459Y17281179D01*
X8432441Y17281169D01*
X8293890Y17188592D01*
X8276771Y17183232D01*
X8261836Y17173292D01*
X8244120Y17173009D01*
X8227213Y17167714D01*
X8209912Y17172461D01*
X8191975Y17172173D01*
X8163586Y17185170D01*
X8159833Y17186199D01*
X8159640Y17186318D01*
X8157834Y17187439D01*
X8017547Y17281175D01*
X7984917Y17294691D01*
X7976338Y17300012D01*
X7959500Y17318826D01*
X7939842Y17334667D01*
X7936596Y17344419D01*
X7929743Y17352076D01*
X7925750Y17377007D01*
X7917777Y17400961D01*
X7920318Y17410919D01*
X7918693Y17421067D01*
X7928812Y17444200D01*
X7935056Y17468661D01*
X7943334Y17477395D01*
X7946696Y17485079D01*
X7957319Y17492150D01*
X7972809Y17508491D01*
X7980966Y17513941D01*
X8086059Y17619034D01*
X8168629Y17742610D01*
X8225505Y17879920D01*
X8254500Y18025688D01*
X8254500Y18174312D01*
X8225505Y18320080D01*
X8168629Y18457390D01*
X8160149Y18470081D01*
X8086060Y18580965D01*
X8086054Y18580972D01*
X7980971Y18686055D01*
X7980964Y18686061D01*
X7857391Y18768629D01*
X7720080Y18825505D01*
X7720072Y18825507D01*
X7574316Y18854500D01*
X7574312Y18854500D01*
X7425688Y18854500D01*
X7425683Y18854500D01*
X7279927Y18825507D01*
X7279919Y18825505D01*
X7142608Y18768629D01*
X7019035Y18686061D01*
X7019028Y18686055D01*
X6913945Y18580972D01*
X6913939Y18580965D01*
X6831371Y18457392D01*
X6774495Y18320081D01*
X6774493Y18320073D01*
X6745500Y18174317D01*
X6745500Y18025684D01*
X6774493Y17879928D01*
X6774495Y17879920D01*
X6831371Y17742609D01*
X6913939Y17619036D01*
X6913945Y17619029D01*
X7019028Y17513946D01*
X7019031Y17513944D01*
X7019034Y17513941D01*
X7120621Y17446064D01*
X7165424Y17392454D01*
X7174132Y17323129D01*
X7143978Y17260101D01*
X7120621Y17239861D01*
X7038073Y17184704D01*
X6915296Y17061927D01*
X6915293Y17061923D01*
X6818828Y16917554D01*
X6818821Y16917541D01*
X6752377Y16757129D01*
X6752374Y16757119D01*
X6718500Y16586823D01*
X6718500Y16586820D01*
X6718500Y16413180D01*
X6718500Y16413178D01*
X6718499Y16413178D01*
X500500Y16413178D01*
X500500Y17947302D01*
X520185Y18014341D01*
X572989Y18060096D01*
X642147Y18070040D01*
X705703Y18041015D01*
X739061Y17994755D01*
X781371Y17892609D01*
X863939Y17769036D01*
X863945Y17769029D01*
X969028Y17663946D01*
X969035Y17663940D01*
X1092608Y17581372D01*
X1092609Y17581372D01*
X1092610Y17581371D01*
X1229920Y17524495D01*
X1375683Y17495501D01*
X1375687Y17495500D01*
X1375688Y17495500D01*
X1524313Y17495500D01*
X1524314Y17495501D01*
X1670080Y17524495D01*
X1807390Y17581371D01*
X1930966Y17663941D01*
X2036059Y17769034D01*
X2118629Y17892610D01*
X2175505Y18029920D01*
X2204500Y18175688D01*
X2204500Y18324312D01*
X2175505Y18470080D01*
X2118629Y18607390D01*
X2118628Y18607392D01*
X2098397Y18637671D01*
X2077520Y18704349D01*
X2077500Y18706560D01*
X2077500Y23663178D01*
X5618499Y23663178D01*
X5652374Y23492882D01*
X5652377Y23492872D01*
X5718821Y23332460D01*
X5718828Y23332447D01*
X5815293Y23188078D01*
X5815296Y23188074D01*
X5938073Y23065297D01*
X5938077Y23065294D01*
X6082446Y22968829D01*
X6082459Y22968822D01*
X6242871Y22902378D01*
X6242876Y22902376D01*
X6242880Y22902376D01*
X6242881Y22902375D01*
X6413177Y22868500D01*
X6413180Y22868500D01*
X6586822Y22868500D01*
X6701394Y22891291D01*
X6757124Y22902376D01*
X6917547Y22968825D01*
X7061923Y23065294D01*
X7184706Y23188077D01*
X7281175Y23332453D01*
X7314612Y23413178D01*
X10118499Y23413178D01*
X10152374Y23242882D01*
X10152377Y23242872D01*
X10218821Y23082460D01*
X10218828Y23082447D01*
X10315293Y22938078D01*
X10315296Y22938074D01*
X10438073Y22815297D01*
X10438077Y22815294D01*
X10582446Y22718829D01*
X10582459Y22718822D01*
X10742871Y22652378D01*
X10742876Y22652376D01*
X10742880Y22652376D01*
X10742881Y22652375D01*
X10913177Y22618500D01*
X10913180Y22618500D01*
X11086822Y22618500D01*
X11201394Y22641291D01*
X11257124Y22652376D01*
X11417547Y22718825D01*
X11561923Y22815294D01*
X11684706Y22938077D01*
X11781175Y23082453D01*
X11847624Y23242876D01*
X11881500Y23413180D01*
X11881500Y23586820D01*
X11881500Y23586823D01*
X11847625Y23757119D01*
X11847624Y23757120D01*
X11847624Y23757124D01*
X11814612Y23836823D01*
X11781178Y23917541D01*
X11781171Y23917554D01*
X11684706Y24061923D01*
X11684703Y24061927D01*
X11561926Y24184704D01*
X11561922Y24184707D01*
X11417553Y24281172D01*
X11417540Y24281179D01*
X11257128Y24347623D01*
X11257118Y24347626D01*
X11086822Y24381500D01*
X11086820Y24381500D01*
X10913180Y24381500D01*
X10913178Y24381500D01*
X10742881Y24347626D01*
X10742871Y24347623D01*
X10582459Y24281179D01*
X10582446Y24281172D01*
X10438077Y24184707D01*
X10438073Y24184704D01*
X10315296Y24061927D01*
X10315293Y24061923D01*
X10218828Y23917554D01*
X10218821Y23917541D01*
X10152377Y23757129D01*
X10152374Y23757119D01*
X10118500Y23586823D01*
X10118500Y23586820D01*
X10118500Y23413180D01*
X10118500Y23413178D01*
X10118499Y23413178D01*
X7314612Y23413178D01*
X7347624Y23492876D01*
X7366311Y23586820D01*
X7372335Y23617103D01*
X7372335Y23617104D01*
X7381500Y23663178D01*
X7381500Y23836823D01*
X7347625Y24007119D01*
X7347624Y24007120D01*
X7347624Y24007124D01*
X7324924Y24061927D01*
X7281178Y24167541D01*
X7281171Y24167554D01*
X7184706Y24311923D01*
X7184703Y24311927D01*
X7061926Y24434704D01*
X7061922Y24434707D01*
X6917553Y24531172D01*
X6917540Y24531179D01*
X6757128Y24597623D01*
X6757118Y24597626D01*
X6586822Y24631500D01*
X6586820Y24631500D01*
X6413180Y24631500D01*
X6413178Y24631500D01*
X6242881Y24597626D01*
X6242871Y24597623D01*
X6082459Y24531179D01*
X6082446Y24531172D01*
X5938077Y24434707D01*
X5938073Y24434704D01*
X5815296Y24311927D01*
X5815293Y24311923D01*
X5718828Y24167554D01*
X5718821Y24167541D01*
X5652377Y24007129D01*
X5652374Y24007119D01*
X5618500Y23836823D01*
X5618500Y23836820D01*
X5618500Y23663180D01*
X5618500Y23663178D01*
X5618499Y23663178D01*
X2077500Y23663178D01*
X2077500Y32438719D01*
X2097185Y32505758D01*
X2113819Y32526400D01*
X2573600Y32986181D01*
X2634923Y33019666D01*
X2661281Y33022500D01*
X2943472Y33022500D01*
X3010511Y33002815D01*
X3056266Y32950011D01*
X3066210Y32880853D01*
X3058033Y32851047D01*
X3024495Y32770081D01*
X3024493Y32770073D01*
X2995500Y32624317D01*
X2995500Y32475684D01*
X3024493Y32329928D01*
X3024495Y32329920D01*
X3081371Y32192609D01*
X3163939Y32069036D01*
X3163945Y32069029D01*
X3269028Y31963946D01*
X3269035Y31963940D01*
X3392608Y31881372D01*
X3392609Y31881372D01*
X3392610Y31881371D01*
X3529920Y31824495D01*
X3647485Y31801110D01*
X3675683Y31795501D01*
X3675687Y31795500D01*
X3675688Y31795500D01*
X3824313Y31795500D01*
X3824314Y31795501D01*
X3970080Y31824495D01*
X4107390Y31881371D01*
X4230966Y31963941D01*
X4230971Y31963946D01*
X4312319Y32045293D01*
X4373642Y32078778D01*
X4443334Y32073794D01*
X4487681Y32045293D01*
X4569028Y31963946D01*
X4569035Y31963940D01*
X4692608Y31881372D01*
X4692609Y31881372D01*
X4692610Y31881371D01*
X4790426Y31840854D01*
X4835548Y31822164D01*
X4835028Y31820910D01*
X4887682Y31786411D01*
X4916145Y31722601D01*
X4905591Y31653533D01*
X4880937Y31618357D01*
X4748762Y31486181D01*
X4649992Y31387411D01*
X4606289Y31343708D01*
X4562586Y31300006D01*
X4562585Y31300004D01*
X4493578Y31196729D01*
X4492791Y31194514D01*
X4446614Y31083035D01*
X4438249Y31040982D01*
X4435233Y31032491D01*
X4419806Y31011197D01*
X4407618Y30987897D01*
X4399632Y30983350D01*
X4394242Y30975909D01*
X4369754Y30966337D01*
X4346902Y30953324D01*
X4337725Y30953817D01*
X4329168Y30950471D01*
X4303391Y30955657D01*
X4277132Y30957065D01*
X4268097Y30962758D01*
X4260671Y30964252D01*
X4251274Y30973360D01*
X4230706Y30986320D01*
X4130971Y31086055D01*
X4130964Y31086061D01*
X4007391Y31168629D01*
X3870080Y31225505D01*
X3870072Y31225507D01*
X3724316Y31254500D01*
X3724312Y31254500D01*
X3575688Y31254500D01*
X3575683Y31254500D01*
X3429927Y31225507D01*
X3429919Y31225505D01*
X3292608Y31168629D01*
X3169035Y31086061D01*
X3169028Y31086055D01*
X3063945Y30980972D01*
X3063939Y30980965D01*
X2981371Y30857392D01*
X2924495Y30720081D01*
X2924493Y30720073D01*
X2895500Y30574317D01*
X2895500Y30425684D01*
X2924493Y30279928D01*
X2924495Y30279920D01*
X2981371Y30142609D01*
X3063939Y30019036D01*
X3063945Y30019029D01*
X3169028Y29913946D01*
X3169035Y29913940D01*
X3292608Y29831372D01*
X3292609Y29831372D01*
X3292610Y29831371D01*
X3429920Y29774495D01*
X3553025Y29750008D01*
X3575683Y29745501D01*
X3575687Y29745500D01*
X3575688Y29745500D01*
X3724313Y29745500D01*
X3724314Y29745501D01*
X3870080Y29774495D01*
X4007390Y29831371D01*
X4130966Y29913941D01*
X4236059Y30019034D01*
X4246897Y30035256D01*
X4300508Y30080061D01*
X4369833Y30088770D01*
X4432861Y30058616D01*
X4440654Y30050970D01*
X4447512Y30043621D01*
X4463941Y30019034D01*
X4561600Y29921375D01*
X4563069Y29919801D01*
X4577822Y29890415D01*
X4593581Y29861555D01*
X4593422Y29859342D01*
X4594418Y29857359D01*
X4590942Y29824664D01*
X4588597Y29791863D01*
X4587230Y29789737D01*
X4587033Y29787881D01*
X4582070Y29781709D01*
X4565321Y29755648D01*
X4566454Y29754718D01*
X4562585Y29750004D01*
X4493233Y29646211D01*
X4491586Y29641607D01*
X4446615Y29533038D01*
X4446612Y29533028D01*
X4435170Y29475506D01*
X4435171Y29475505D01*
X4428883Y29443890D01*
X4422500Y29411802D01*
X4422500Y28961049D01*
X4402815Y28894010D01*
X4350011Y28848255D01*
X4280853Y28838311D01*
X4217297Y28867336D01*
X4195398Y28892158D01*
X4136057Y28980969D01*
X4030971Y29086055D01*
X4030964Y29086061D01*
X3907391Y29168629D01*
X3770080Y29225505D01*
X3770072Y29225507D01*
X3624316Y29254500D01*
X3624312Y29254500D01*
X3475688Y29254500D01*
X3475683Y29254500D01*
X3329927Y29225507D01*
X3329919Y29225505D01*
X3192608Y29168629D01*
X3069035Y29086061D01*
X3069028Y29086055D01*
X2963945Y28980972D01*
X2963939Y28980965D01*
X2881371Y28857392D01*
X2824495Y28720081D01*
X2824493Y28720073D01*
X2795500Y28574317D01*
X2795500Y28425684D01*
X2824493Y28279928D01*
X2824495Y28279920D01*
X2881371Y28142609D01*
X2963939Y28019036D01*
X2963945Y28019029D01*
X3069028Y27913946D01*
X3069035Y27913940D01*
X3192608Y27831372D01*
X3192609Y27831372D01*
X3192610Y27831371D01*
X3329920Y27774495D01*
X3475683Y27745501D01*
X3475687Y27745500D01*
X3475688Y27745500D01*
X3624313Y27745500D01*
X3624314Y27745501D01*
X3770080Y27774495D01*
X3907390Y27831371D01*
X4030966Y27913941D01*
X4136059Y28019034D01*
X4196899Y28110089D01*
X4250509Y28154892D01*
X4319834Y28163600D01*
X4382862Y28133446D01*
X4403098Y28110093D01*
X4463940Y28019036D01*
X4463944Y28019030D01*
X4569028Y27913946D01*
X4569035Y27913940D01*
X4692608Y27831372D01*
X4692609Y27831372D01*
X4692610Y27831371D01*
X4829920Y27774495D01*
X4975683Y27745501D01*
X4975687Y27745500D01*
X4975688Y27745500D01*
X5124313Y27745500D01*
X5124314Y27745501D01*
X5270080Y27774495D01*
X5407390Y27831371D01*
X5530966Y27913941D01*
X5636059Y28019034D01*
X5718629Y28142610D01*
X5775505Y28279920D01*
X5804500Y28425688D01*
X5804500Y28574312D01*
X5775505Y28720080D01*
X5718629Y28857390D01*
X5718628Y28857392D01*
X5698397Y28887671D01*
X5692747Y28905716D01*
X5682523Y28921625D01*
X5678070Y28952590D01*
X5677520Y28954349D01*
X5677500Y28956560D01*
X5677500Y29038719D01*
X5697185Y29105758D01*
X5713819Y29126400D01*
X8073600Y31486181D01*
X8134923Y31519666D01*
X8161281Y31522500D01*
X11911804Y31522500D01*
X11911805Y31522501D01*
X12033035Y31546614D01*
X12091344Y31570768D01*
X12125501Y31584915D01*
X12134069Y31588465D01*
X12147233Y31593917D01*
X12250008Y31662589D01*
X12337411Y31749992D01*
X12750041Y32162624D01*
X12811362Y32196107D01*
X12881053Y32191123D01*
X12936987Y32149252D01*
X12943903Y32138981D01*
X12948716Y32131001D01*
X12968825Y32082453D01*
X13062991Y31941523D01*
X13064489Y31939040D01*
X13072673Y31907912D01*
X13082286Y31877213D01*
X13081499Y31874346D01*
X13082256Y31871467D01*
X13072311Y31840854D01*
X13063801Y31809833D01*
X13061408Y31806110D01*
X12968831Y31667559D01*
X12968821Y31667541D01*
X12902377Y31507129D01*
X12902374Y31507119D01*
X12868500Y31336823D01*
X12868500Y31336820D01*
X12868500Y31163180D01*
X12868500Y31163178D01*
X12868499Y31163178D01*
X12902374Y30992882D01*
X12902377Y30992872D01*
X12968821Y30832460D01*
X12968831Y30832442D01*
X13061408Y30693890D01*
X13082286Y30627213D01*
X13063801Y30559833D01*
X13061408Y30556110D01*
X12968831Y30417559D01*
X12968821Y30417541D01*
X12902377Y30257129D01*
X12902374Y30257119D01*
X12868500Y30086823D01*
X12868500Y30086820D01*
X12868500Y29913180D01*
X12868500Y29913178D01*
X12868499Y29913178D01*
X12902374Y29742882D01*
X12902377Y29742872D01*
X12968821Y29582460D01*
X12968831Y29582442D01*
X13061408Y29443890D01*
X13082286Y29377213D01*
X13063801Y29309833D01*
X13061408Y29306110D01*
X12968831Y29167559D01*
X12968821Y29167541D01*
X12902377Y29007129D01*
X12902374Y29007119D01*
X12868500Y28836823D01*
X12868500Y28836820D01*
X12868500Y28663180D01*
X12868500Y28663178D01*
X12868499Y28663178D01*
X12902374Y28492882D01*
X12902377Y28492872D01*
X12968821Y28332460D01*
X12968828Y28332447D01*
X13065293Y28188078D01*
X13065296Y28188074D01*
X13188073Y28065297D01*
X13188077Y28065294D01*
X13332446Y27968829D01*
X13332459Y27968822D01*
X13432706Y27927299D01*
X13492876Y27902376D01*
X13492880Y27902376D01*
X13492881Y27902375D01*
X13663177Y27868500D01*
X13663180Y27868500D01*
X13836822Y27868500D01*
X13951394Y27891291D01*
X14007124Y27902376D01*
X14167547Y27968825D01*
X14306109Y28061409D01*
X14372786Y28082287D01*
X14440167Y28063803D01*
X14443891Y28061409D01*
X14582446Y27968829D01*
X14582459Y27968822D01*
X14682706Y27927299D01*
X14742876Y27902376D01*
X14742880Y27902376D01*
X14742881Y27902375D01*
X14913177Y27868500D01*
X14913180Y27868500D01*
X15086822Y27868500D01*
X15201394Y27891291D01*
X15257124Y27902376D01*
X15417547Y27968825D01*
X15556109Y28061409D01*
X15622786Y28082287D01*
X15690167Y28063803D01*
X15693891Y28061409D01*
X15832446Y27968829D01*
X15832459Y27968822D01*
X15932706Y27927299D01*
X15992876Y27902376D01*
X15992880Y27902376D01*
X15992881Y27902375D01*
X16163177Y27868500D01*
X16163180Y27868500D01*
X16336822Y27868500D01*
X16451394Y27891291D01*
X16507124Y27902376D01*
X16667547Y27968825D01*
X16667553Y27968829D01*
X16679609Y27976884D01*
X16746286Y27997762D01*
X16813666Y27979278D01*
X16860357Y27927299D01*
X16872500Y27873782D01*
X16872500Y26561281D01*
X16852815Y26494242D01*
X16836181Y26473600D01*
X15849992Y25487411D01*
X15806289Y25443708D01*
X15762586Y25400006D01*
X15762585Y25400004D01*
X15693233Y25296211D01*
X15691586Y25291607D01*
X15646615Y25183038D01*
X15646612Y25183028D01*
X15640044Y25150007D01*
X15622500Y25061808D01*
X15622500Y22688193D01*
X15646612Y22566973D01*
X15646614Y22566965D01*
X15680062Y22486215D01*
X15693915Y22452771D01*
X15693920Y22452761D01*
X15762588Y22349993D01*
X15762591Y22349989D01*
X16957181Y21155400D01*
X16990666Y21094077D01*
X16993500Y21067719D01*
X16993500Y21038180D01*
X16993500Y21038178D01*
X16993499Y21038178D01*
X17027374Y20867882D01*
X17027377Y20867872D01*
X17093821Y20707460D01*
X17093828Y20707447D01*
X17190293Y20563078D01*
X17190296Y20563074D01*
X17313073Y20440297D01*
X17313077Y20440294D01*
X17457446Y20343829D01*
X17457459Y20343822D01*
X17617871Y20277378D01*
X17617876Y20277376D01*
X17617880Y20277376D01*
X17617881Y20277375D01*
X17788177Y20243500D01*
X17788180Y20243500D01*
X17961822Y20243500D01*
X18076394Y20266291D01*
X18132124Y20277376D01*
X18292547Y20343825D01*
X18436923Y20440294D01*
X18559706Y20563077D01*
X18656175Y20707453D01*
X18722624Y20867876D01*
X18756500Y21038180D01*
X18756500Y21211820D01*
X18756500Y21211823D01*
X18722625Y21382119D01*
X18722624Y21382120D01*
X18722624Y21382124D01*
X18722622Y21382129D01*
X18656178Y21542541D01*
X18656171Y21542554D01*
X18559706Y21686923D01*
X18559703Y21686927D01*
X18436926Y21809704D01*
X18436922Y21809707D01*
X18292553Y21906172D01*
X18292540Y21906179D01*
X18132128Y21972623D01*
X18132118Y21972626D01*
X17961822Y22006500D01*
X17961820Y22006500D01*
X17932281Y22006500D01*
X17865242Y22026185D01*
X17844600Y22042819D01*
X16913819Y22973600D01*
X16880334Y23034923D01*
X16877500Y23061281D01*
X16877500Y23774232D01*
X16897185Y23841271D01*
X16949989Y23887026D01*
X17019147Y23896970D01*
X17025670Y23895853D01*
X17107850Y23879506D01*
X17163178Y23868500D01*
X17163180Y23868500D01*
X17336822Y23868500D01*
X17474311Y23895849D01*
X17507124Y23902376D01*
X17667547Y23968825D01*
X17811923Y24065294D01*
X17934706Y24188077D01*
X18031175Y24332453D01*
X18097624Y24492876D01*
X18118460Y24597624D01*
X18131500Y24663178D01*
X18131500Y24692719D01*
X18151185Y24759758D01*
X18167819Y24780400D01*
X18487411Y25099992D01*
X18492354Y25107390D01*
X18556083Y25202767D01*
X18603385Y25316965D01*
X18627500Y25438197D01*
X18627500Y35924317D01*
X19945500Y35924317D01*
X19945500Y35775684D01*
X19974493Y35629928D01*
X19974495Y35629920D01*
X20031371Y35492609D01*
X20113939Y35369036D01*
X20113945Y35369029D01*
X20219028Y35263946D01*
X20219035Y35263940D01*
X20342608Y35181372D01*
X20342609Y35181372D01*
X20342610Y35181371D01*
X20479920Y35124495D01*
X20625683Y35095501D01*
X20625687Y35095500D01*
X20625688Y35095500D01*
X20774313Y35095500D01*
X20774314Y35095501D01*
X20920080Y35124495D01*
X21057390Y35181371D01*
X21180966Y35263941D01*
X21286059Y35369034D01*
X21368629Y35492610D01*
X21425505Y35629920D01*
X21454500Y35775688D01*
X21454500Y35924312D01*
X21425505Y36070080D01*
X21368629Y36207390D01*
X21360990Y36218822D01*
X21286060Y36330965D01*
X21286054Y36330972D01*
X21180971Y36436055D01*
X21180964Y36436061D01*
X21057391Y36518629D01*
X20920080Y36575505D01*
X20920072Y36575507D01*
X20774316Y36604500D01*
X20774312Y36604500D01*
X20625688Y36604500D01*
X20625683Y36604500D01*
X20479927Y36575507D01*
X20479919Y36575505D01*
X20342608Y36518629D01*
X20219035Y36436061D01*
X20219028Y36436055D01*
X20113945Y36330972D01*
X20113939Y36330965D01*
X20031371Y36207392D01*
X19974495Y36070081D01*
X19974493Y36070073D01*
X19945500Y35924317D01*
X18627500Y35924317D01*
X18627500Y37061803D01*
X18626090Y37068894D01*
X18625012Y37074315D01*
X18625012Y37074316D01*
X18610529Y37147123D01*
X18603386Y37183034D01*
X18572690Y37257140D01*
X18556083Y37297233D01*
X18546351Y37311798D01*
X18542522Y37319804D01*
X18538299Y37345881D01*
X18530405Y37371091D01*
X18532802Y37379831D01*
X18531354Y37388776D01*
X18541899Y37412996D01*
X18548888Y37438472D01*
X18555629Y37444529D01*
X18559247Y37452836D01*
X18581210Y37467508D01*
X18600865Y37485164D01*
X18609811Y37486615D01*
X18617346Y37491647D01*
X18643756Y37492116D01*
X18669835Y37496342D01*
X18674016Y37495665D01*
X18675687Y37495500D01*
X18675688Y37495500D01*
X18824313Y37495500D01*
X18824314Y37495501D01*
X18970080Y37524495D01*
X19107390Y37581371D01*
X19230966Y37663941D01*
X19336059Y37769034D01*
X19372998Y37824317D01*
X20595500Y37824317D01*
X20595500Y37675684D01*
X20624493Y37529928D01*
X20624495Y37529920D01*
X20681371Y37392609D01*
X20763939Y37269036D01*
X20763945Y37269029D01*
X20869028Y37163946D01*
X20869035Y37163940D01*
X20992608Y37081372D01*
X20992609Y37081372D01*
X20992610Y37081371D01*
X21129920Y37024495D01*
X21241960Y37002209D01*
X21275683Y36995501D01*
X21275687Y36995500D01*
X21275688Y36995500D01*
X21424313Y36995500D01*
X21424314Y36995501D01*
X21570080Y37024495D01*
X21707390Y37081371D01*
X21830966Y37163941D01*
X21936059Y37269034D01*
X22018629Y37392610D01*
X22075505Y37529920D01*
X22104500Y37675688D01*
X22104500Y37824312D01*
X22075505Y37970080D01*
X22018629Y38107390D01*
X22009619Y38120874D01*
X21936060Y38230965D01*
X21936054Y38230972D01*
X21830971Y38336055D01*
X21830964Y38336061D01*
X21707391Y38418629D01*
X21570080Y38475505D01*
X21570072Y38475507D01*
X21424316Y38504500D01*
X21424312Y38504500D01*
X21275688Y38504500D01*
X21275683Y38504500D01*
X21129927Y38475507D01*
X21129919Y38475505D01*
X20992608Y38418629D01*
X20869035Y38336061D01*
X20869028Y38336055D01*
X20763945Y38230972D01*
X20763939Y38230965D01*
X20681371Y38107392D01*
X20624495Y37970081D01*
X20624493Y37970073D01*
X20595500Y37824317D01*
X19372998Y37824317D01*
X19418629Y37892610D01*
X19475505Y38029920D01*
X19504500Y38175688D01*
X19504500Y38324312D01*
X19475505Y38470080D01*
X19418629Y38607390D01*
X19369370Y38681112D01*
X19348493Y38747786D01*
X19366977Y38815166D01*
X19369344Y38818851D01*
X19418629Y38892610D01*
X19475505Y39029920D01*
X19504500Y39175688D01*
X19504500Y39324312D01*
X19475505Y39470080D01*
X19418629Y39607390D01*
X19402431Y39631632D01*
X19336060Y39730965D01*
X19336054Y39730972D01*
X19230971Y39836055D01*
X19230964Y39836061D01*
X19107391Y39918629D01*
X18970080Y39975505D01*
X18970072Y39975507D01*
X18824316Y40004500D01*
X18824312Y40004500D01*
X18675688Y40004500D01*
X18675683Y40004500D01*
X18529927Y39975507D01*
X18529919Y39975505D01*
X18392608Y39918629D01*
X18269035Y39836061D01*
X18269028Y39836055D01*
X18163945Y39730972D01*
X18163939Y39730965D01*
X18081371Y39607392D01*
X18024495Y39470081D01*
X18024493Y39470073D01*
X17995500Y39324317D01*
X17995500Y39175684D01*
X18024493Y39029928D01*
X18024495Y39029920D01*
X18072850Y38913180D01*
X18081371Y38892610D01*
X18121566Y38832453D01*
X18130629Y38818890D01*
X18151506Y38752213D01*
X18133021Y38684833D01*
X18130638Y38681125D01*
X18119157Y38663941D01*
X18081370Y38607389D01*
X18024495Y38470081D01*
X18024493Y38470073D01*
X17995500Y38324317D01*
X17995500Y38191281D01*
X17989261Y38170036D01*
X17987682Y38147947D01*
X17979609Y38137164D01*
X17975815Y38124242D01*
X17959081Y38109743D01*
X17945810Y38092014D01*
X17933189Y38087307D01*
X17923011Y38078487D01*
X17901093Y38075336D01*
X17880346Y38067597D01*
X17867185Y38070460D01*
X17853853Y38068543D01*
X17833709Y38077743D01*
X17812073Y38082449D01*
X17794347Y38095718D01*
X17790297Y38097568D01*
X17783819Y38103600D01*
X17766545Y38120874D01*
X17733060Y38182197D01*
X17732622Y38184298D01*
X17725505Y38220080D01*
X17668629Y38357390D01*
X17658532Y38372501D01*
X17586060Y38480965D01*
X17586054Y38480972D01*
X17480971Y38586055D01*
X17480964Y38586061D01*
X17357391Y38668629D01*
X17220080Y38725505D01*
X17220072Y38725507D01*
X17074316Y38754500D01*
X17074312Y38754500D01*
X16925688Y38754500D01*
X16925683Y38754500D01*
X16775691Y38724665D01*
X16706099Y38730892D01*
X16650922Y38773756D01*
X16627678Y38839646D01*
X16627500Y38846282D01*
X16627500Y40061804D01*
X16619351Y40102767D01*
X16619351Y40102770D01*
X16603387Y40183028D01*
X16603385Y40183032D01*
X16603385Y40183035D01*
X16589328Y40216972D01*
X16556086Y40297228D01*
X16556078Y40297242D01*
X16504008Y40375168D01*
X16485492Y40419867D01*
X16475505Y40470080D01*
X16418629Y40607390D01*
X16336059Y40730966D01*
X16336054Y40730972D01*
X16230971Y40836055D01*
X16230964Y40836061D01*
X16107391Y40918629D01*
X15970080Y40975505D01*
X15970072Y40975507D01*
X15824316Y41004500D01*
X15824312Y41004500D01*
X15675688Y41004500D01*
X15675683Y41004500D01*
X15529927Y40975507D01*
X15529919Y40975505D01*
X15392608Y40918629D01*
X15269035Y40836061D01*
X15269028Y40836055D01*
X15163945Y40730972D01*
X15163939Y40730965D01*
X15081371Y40607392D01*
X15024495Y40470081D01*
X15024493Y40470073D01*
X14995500Y40324317D01*
X14995500Y40175684D01*
X15024493Y40029928D01*
X15024495Y40029920D01*
X15081371Y39892609D01*
X15163939Y39769036D01*
X15163945Y39769029D01*
X15269028Y39663946D01*
X15269031Y39663944D01*
X15269034Y39663941D01*
X15317392Y39631630D01*
X15362195Y39578020D01*
X15372500Y39528529D01*
X15372500Y38355286D01*
X15352815Y38288247D01*
X15300011Y38242492D01*
X15295953Y38240725D01*
X15242608Y38218629D01*
X15119035Y38136061D01*
X15119028Y38136055D01*
X15013942Y38030969D01*
X14931374Y37907397D01*
X14931369Y37907387D01*
X14913512Y37864279D01*
X14908881Y37857350D01*
X14907785Y37852309D01*
X14886634Y37824055D01*
X14857096Y37794517D01*
X14795773Y37761032D01*
X14726081Y37766016D01*
X14670148Y37807888D01*
X14647798Y37858007D01*
X14633256Y37931112D01*
X14625505Y37970080D01*
X14568629Y38107390D01*
X14559619Y38120874D01*
X14486060Y38230965D01*
X14486054Y38230972D01*
X14380970Y38336056D01*
X14379827Y38336820D01*
X14289911Y38396900D01*
X14245108Y38450509D01*
X14236400Y38519834D01*
X14266554Y38582862D01*
X14289907Y38603099D01*
X14380966Y38663941D01*
X14486059Y38769034D01*
X14568629Y38892610D01*
X14625505Y39029920D01*
X14654500Y39175688D01*
X14654500Y39324312D01*
X14625505Y39470080D01*
X14568629Y39607390D01*
X14552431Y39631632D01*
X14486060Y39730965D01*
X14486054Y39730972D01*
X14380971Y39836055D01*
X14380964Y39836061D01*
X14257391Y39918629D01*
X14120080Y39975505D01*
X14120072Y39975507D01*
X13974316Y40004500D01*
X13974312Y40004500D01*
X13825688Y40004500D01*
X13825683Y40004500D01*
X13813311Y40002039D01*
X13743720Y40008269D01*
X13701443Y40035976D01*
X13113819Y40623600D01*
X13080334Y40684923D01*
X13077500Y40711281D01*
X13077500Y42111805D01*
X13076039Y42119144D01*
X13071112Y42143917D01*
X13053386Y42233034D01*
X13006349Y42346589D01*
X13006202Y42347056D01*
X12937414Y42450004D01*
X12937413Y42450006D01*
X12906447Y42480972D01*
X12850008Y42537411D01*
X12551358Y42836061D01*
X12200011Y43187409D01*
X12200006Y43187413D01*
X12195126Y43190674D01*
X12195115Y43190681D01*
X12191853Y43192860D01*
X12097233Y43256083D01*
X12052782Y43274495D01*
X12045165Y43277650D01*
X12045162Y43277652D01*
X12008404Y43292878D01*
X11983035Y43303386D01*
X11983032Y43303387D01*
X11983028Y43303388D01*
X11861807Y43327500D01*
X11861803Y43327500D01*
X10296281Y43327500D01*
X10229242Y43347185D01*
X10183487Y43399989D01*
X10173543Y43469147D01*
X10174664Y43475691D01*
X10184512Y43525206D01*
X10204500Y43625688D01*
X10204500Y43774312D01*
X10175505Y43920080D01*
X10118629Y44057390D01*
X10106405Y44075684D01*
X10036060Y44180965D01*
X10036054Y44180972D01*
X9930971Y44286055D01*
X9930964Y44286061D01*
X9807391Y44368629D01*
X9670080Y44425505D01*
X9670072Y44425507D01*
X9524316Y44454500D01*
X9524312Y44454500D01*
X9375688Y44454500D01*
X9375683Y44454500D01*
X9229927Y44425507D01*
X9229919Y44425505D01*
X9092611Y44368630D01*
X9013079Y44315489D01*
X8946401Y44294612D01*
X8879021Y44313097D01*
X8856508Y44330911D01*
X8026600Y45160819D01*
X7993115Y45222142D01*
X7998099Y45291834D01*
X8039971Y45347767D01*
X8105435Y45372184D01*
X8114281Y45372500D01*
X12938719Y45372500D01*
X13005758Y45352815D01*
X13026400Y45336181D01*
X13836181Y44526400D01*
X13869666Y44465077D01*
X13872500Y44438719D01*
X13872500Y42456560D01*
X13852815Y42389521D01*
X13851603Y42387671D01*
X13831371Y42357392D01*
X13774495Y42220081D01*
X13774493Y42220073D01*
X13745500Y42074317D01*
X13745500Y41925684D01*
X13774493Y41779928D01*
X13774495Y41779920D01*
X13831371Y41642609D01*
X13913939Y41519036D01*
X13913945Y41519029D01*
X14019028Y41413946D01*
X14019035Y41413940D01*
X14142608Y41331372D01*
X14142609Y41331372D01*
X14142610Y41331371D01*
X14279920Y41274495D01*
X14425683Y41245501D01*
X14425687Y41245500D01*
X14425688Y41245500D01*
X14574313Y41245500D01*
X14574314Y41245501D01*
X14720080Y41274495D01*
X14857390Y41331371D01*
X14980966Y41413941D01*
X15034434Y41467410D01*
X15095754Y41500894D01*
X15146303Y41501345D01*
X15175688Y41495500D01*
X15175689Y41495500D01*
X15324313Y41495500D01*
X15324314Y41495501D01*
X15470080Y41524495D01*
X15526751Y41547970D01*
X15596217Y41555439D01*
X15658697Y41524165D01*
X15661884Y41521090D01*
X15769028Y41413946D01*
X15769035Y41413940D01*
X15892608Y41331372D01*
X15892609Y41331372D01*
X15892610Y41331371D01*
X16029920Y41274495D01*
X16175683Y41245501D01*
X16175687Y41245500D01*
X16175688Y41245500D01*
X16324313Y41245500D01*
X16324314Y41245501D01*
X16470080Y41274495D01*
X16607390Y41331371D01*
X16730966Y41413941D01*
X16836059Y41519034D01*
X16918629Y41642610D01*
X16975505Y41779920D01*
X17004500Y41925688D01*
X17004500Y42074312D01*
X16975505Y42220080D01*
X16918629Y42357390D01*
X16856744Y42450008D01*
X16836060Y42480965D01*
X16836054Y42480972D01*
X16730971Y42586055D01*
X16730964Y42586061D01*
X16607391Y42668629D01*
X16470080Y42725505D01*
X16470072Y42725507D01*
X16324316Y42754500D01*
X16324312Y42754500D01*
X16175688Y42754500D01*
X16175683Y42754500D01*
X16029927Y42725507D01*
X16029919Y42725505D01*
X15973249Y42702031D01*
X15903779Y42694562D01*
X15841300Y42725837D01*
X15838115Y42728911D01*
X15730971Y42836055D01*
X15730964Y42836061D01*
X15607391Y42918629D01*
X15470080Y42975505D01*
X15470072Y42975507D01*
X15324316Y43004500D01*
X15324312Y43004500D01*
X15251500Y43004500D01*
X15184461Y43024185D01*
X15138706Y43076989D01*
X15127500Y43128500D01*
X15127500Y44811805D01*
X15126110Y44818791D01*
X15124739Y44825683D01*
X15124739Y44825687D01*
X15103387Y44933028D01*
X15103386Y44933035D01*
X15058412Y45041608D01*
X15056764Y45046214D01*
X14987414Y45150004D01*
X14987413Y45150006D01*
X14976600Y45160819D01*
X14900008Y45237411D01*
X14683452Y45453967D01*
X14649967Y45515290D01*
X14654951Y45584982D01*
X14687666Y45633350D01*
X14694521Y45639590D01*
X14730966Y45663941D01*
X14829186Y45762162D01*
X14831336Y45764118D01*
X14860229Y45778176D01*
X14888444Y45793582D01*
X14891452Y45793367D01*
X14894164Y45794686D01*
X14926079Y45790891D01*
X14958136Y45788598D01*
X14961037Y45786734D01*
X14963545Y45786435D01*
X14970761Y45780484D01*
X15002484Y45760097D01*
X17162589Y43599992D01*
X17249992Y43512589D01*
X17249993Y43512588D01*
X17352760Y43443921D01*
X17352773Y43443914D01*
X17399655Y43424495D01*
X17399656Y43424495D01*
X17466966Y43396614D01*
X17588192Y43372501D01*
X17588196Y43372500D01*
X17588197Y43372500D01*
X17711803Y43372500D01*
X21893440Y43372500D01*
X21960479Y43352815D01*
X21962329Y43351603D01*
X21992608Y43331372D01*
X21992609Y43331372D01*
X21992610Y43331371D01*
X22129920Y43274495D01*
X22222484Y43256083D01*
X22275683Y43245501D01*
X22275687Y43245500D01*
X22275688Y43245500D01*
X22424313Y43245500D01*
X22424314Y43245501D01*
X22570080Y43274495D01*
X22701048Y43328745D01*
X22770516Y43336213D01*
X22832996Y43304938D01*
X22868648Y43244849D01*
X22872500Y43214183D01*
X22872500Y36345554D01*
X22866558Y36325321D01*
X22865423Y36304263D01*
X22856912Y36292469D01*
X22852815Y36278515D01*
X22836879Y36264707D01*
X22824538Y36247604D01*
X22806188Y36238114D01*
X22800011Y36232760D01*
X22793862Y36230149D01*
X22784226Y36226362D01*
X22779920Y36225505D01*
X22741416Y36209556D01*
X22740404Y36209138D01*
X22740351Y36209116D01*
X22642618Y36168634D01*
X22642608Y36168629D01*
X22634456Y36163181D01*
X22519033Y36086059D01*
X22489653Y36056678D01*
X22413941Y35980966D01*
X22413939Y35980964D01*
X19913943Y33480970D01*
X19913942Y33480969D01*
X19831367Y33357386D01*
X19799133Y33279564D01*
X19799124Y33279542D01*
X19798279Y33277500D01*
X19774495Y33220080D01*
X19773606Y33215610D01*
X19771663Y33205846D01*
X19771662Y33205841D01*
X19745499Y33074315D01*
X19745499Y32919575D01*
X19745500Y32919554D01*
X19745500Y20613887D01*
X19725815Y20546848D01*
X19709181Y20526206D01*
X18223794Y19040819D01*
X18162471Y19007334D01*
X18136113Y19004500D01*
X14863886Y19004500D01*
X14834445Y19013145D01*
X14804459Y19019668D01*
X14799443Y19023423D01*
X14796847Y19024185D01*
X14776205Y19040819D01*
X14633588Y19183436D01*
X14600103Y19244759D01*
X14599663Y19246872D01*
X14597624Y19257124D01*
X14597623Y19257125D01*
X14597623Y19257128D01*
X14531176Y19417545D01*
X14531171Y19417554D01*
X14434706Y19561923D01*
X14434703Y19561927D01*
X14311926Y19684704D01*
X14311922Y19684707D01*
X14167553Y19781172D01*
X14167540Y19781179D01*
X14007128Y19847623D01*
X14007118Y19847626D01*
X13836822Y19881500D01*
X13836820Y19881500D01*
X13663180Y19881500D01*
X13663178Y19881500D01*
X13492881Y19847626D01*
X13492871Y19847623D01*
X13332459Y19781179D01*
X13332446Y19781172D01*
X13188077Y19684707D01*
X13188073Y19684704D01*
X13065296Y19561927D01*
X13065293Y19561923D01*
X12968828Y19417554D01*
X12968821Y19417541D01*
X12902377Y19257129D01*
X12902374Y19257119D01*
X12868500Y19086823D01*
X12868500Y19086820D01*
X12868500Y18913180D01*
X12868500Y18913178D01*
X12868499Y18913178D01*
X12902374Y18742882D01*
X12902377Y18742872D01*
X12968821Y18582460D01*
X12968828Y18582447D01*
X13065293Y18438078D01*
X13065296Y18438074D01*
X13188073Y18315297D01*
X13188077Y18315294D01*
X13332446Y18218829D01*
X13332455Y18218824D01*
X13492872Y18152377D01*
X13492875Y18152377D01*
X13492876Y18152376D01*
X13503071Y18150349D01*
X13564982Y18117966D01*
X13566564Y18116412D01*
X13909600Y17773376D01*
X13909621Y17773353D01*
X14019028Y17663946D01*
X14019035Y17663940D01*
X14142608Y17581372D01*
X14142609Y17581372D01*
X14142610Y17581371D01*
X14279920Y17524495D01*
X14425683Y17495501D01*
X14425687Y17495500D01*
X14425688Y17495500D01*
X14574312Y17495500D01*
X15248969Y17495500D01*
X15316008Y17475815D01*
X15361763Y17423011D01*
X15371707Y17353853D01*
X15370586Y17347307D01*
X15370012Y17344419D01*
X15368500Y17336820D01*
X15368500Y17163180D01*
X15368500Y17163178D01*
X15368499Y17163178D01*
X15402374Y16992882D01*
X15402377Y16992872D01*
X15468821Y16832460D01*
X15468828Y16832447D01*
X15565293Y16688078D01*
X15565296Y16688074D01*
X15688073Y16565297D01*
X15688077Y16565294D01*
X15832446Y16468829D01*
X15832459Y16468822D01*
X15992871Y16402378D01*
X15992876Y16402376D01*
X15992880Y16402376D01*
X15992881Y16402375D01*
X16163177Y16368500D01*
X16163180Y16368500D01*
X16336822Y16368500D01*
X16451394Y16391291D01*
X16507124Y16402376D01*
X16667547Y16468825D01*
X16811923Y16565294D01*
X16934706Y16688077D01*
X17031175Y16832453D01*
X17097624Y16992876D01*
X17110254Y17056372D01*
X17131500Y17163178D01*
X17131500Y17336821D01*
X17129414Y17347307D01*
X17135640Y17416898D01*
X17178502Y17472076D01*
X17244392Y17495322D01*
X17251031Y17495500D01*
X18419554Y17495500D01*
X18419574Y17495499D01*
X18425688Y17495499D01*
X18574314Y17495499D01*
X18611009Y17502800D01*
X18695894Y17519685D01*
X18720080Y17524495D01*
X18776955Y17548054D01*
X18857389Y17581370D01*
X18980966Y17663941D01*
X20980963Y19663940D01*
X20980966Y19663941D01*
X21086059Y19769034D01*
X21168629Y19892610D01*
X21225505Y20029920D01*
X21240915Y20107390D01*
X21254501Y20175688D01*
X21254501Y20324312D01*
X21254500Y20324318D01*
X21254500Y26413178D01*
X21868499Y26413178D01*
X21902374Y26242882D01*
X21902377Y26242872D01*
X21968821Y26082460D01*
X21968828Y26082447D01*
X22065293Y25938078D01*
X22065296Y25938074D01*
X22188073Y25815297D01*
X22188077Y25815294D01*
X22332446Y25718829D01*
X22332459Y25718822D01*
X22492871Y25652378D01*
X22492876Y25652376D01*
X22492880Y25652376D01*
X22492881Y25652375D01*
X22663177Y25618500D01*
X22663180Y25618500D01*
X22836822Y25618500D01*
X22951394Y25641291D01*
X23007124Y25652376D01*
X23167547Y25718825D01*
X23181108Y25727887D01*
X23247783Y25748766D01*
X23315164Y25730283D01*
X23318852Y25727913D01*
X23332453Y25718825D01*
X23332455Y25718824D01*
X23332457Y25718823D01*
X23492871Y25652378D01*
X23492876Y25652376D01*
X23492880Y25652376D01*
X23492881Y25652375D01*
X23663177Y25618500D01*
X23663180Y25618500D01*
X23836822Y25618500D01*
X23951394Y25641291D01*
X24007124Y25652376D01*
X24167547Y25718825D01*
X24181108Y25727887D01*
X24247783Y25748766D01*
X24315164Y25730283D01*
X24318852Y25727913D01*
X24332453Y25718825D01*
X24332455Y25718824D01*
X24332457Y25718823D01*
X24492871Y25652378D01*
X24492876Y25652376D01*
X24492880Y25652376D01*
X24492881Y25652375D01*
X24663177Y25618500D01*
X24663180Y25618500D01*
X24836822Y25618500D01*
X24951394Y25641291D01*
X25007124Y25652376D01*
X25167547Y25718825D01*
X25311923Y25815294D01*
X25434706Y25938077D01*
X25531175Y26082453D01*
X25597624Y26242876D01*
X25631500Y26413178D01*
X33368499Y26413178D01*
X33402374Y26242882D01*
X33402377Y26242872D01*
X33468821Y26082460D01*
X33468828Y26082447D01*
X33565293Y25938078D01*
X33565296Y25938074D01*
X33688073Y25815297D01*
X33688077Y25815294D01*
X33832446Y25718829D01*
X33832459Y25718822D01*
X33992871Y25652378D01*
X33992876Y25652376D01*
X33992880Y25652376D01*
X33992881Y25652375D01*
X34163177Y25618500D01*
X34163180Y25618500D01*
X34336822Y25618500D01*
X34451394Y25641291D01*
X34507124Y25652376D01*
X34667547Y25718825D01*
X34681108Y25727887D01*
X34747783Y25748766D01*
X34815164Y25730283D01*
X34818852Y25727913D01*
X34832453Y25718825D01*
X34832455Y25718824D01*
X34832457Y25718823D01*
X34992871Y25652378D01*
X34992876Y25652376D01*
X34992880Y25652376D01*
X34992881Y25652375D01*
X35163177Y25618500D01*
X35163180Y25618500D01*
X35336822Y25618500D01*
X35451394Y25641291D01*
X35507124Y25652376D01*
X35667547Y25718825D01*
X35681108Y25727887D01*
X35747783Y25748766D01*
X35815164Y25730283D01*
X35818852Y25727913D01*
X35832453Y25718825D01*
X35832455Y25718824D01*
X35832457Y25718823D01*
X35992871Y25652378D01*
X35992876Y25652376D01*
X35992880Y25652376D01*
X35992881Y25652375D01*
X36163177Y25618500D01*
X36163180Y25618500D01*
X36336822Y25618500D01*
X36451394Y25641291D01*
X36507124Y25652376D01*
X36667547Y25718825D01*
X36811923Y25815294D01*
X36934706Y25938077D01*
X37031175Y26082453D01*
X37097624Y26242876D01*
X37131500Y26413180D01*
X37131500Y26586820D01*
X37131500Y26586823D01*
X37097625Y26757119D01*
X37097624Y26757120D01*
X37097624Y26757124D01*
X37097622Y26757129D01*
X37031178Y26917541D01*
X37031171Y26917554D01*
X36934706Y27061923D01*
X36934703Y27061927D01*
X36811926Y27184704D01*
X36811922Y27184707D01*
X36667553Y27281172D01*
X36667540Y27281179D01*
X36507128Y27347623D01*
X36507118Y27347626D01*
X36336822Y27381500D01*
X36336820Y27381500D01*
X36163180Y27381500D01*
X36163178Y27381500D01*
X35992881Y27347626D01*
X35992871Y27347623D01*
X35832454Y27281177D01*
X35818888Y27272112D01*
X35752209Y27251236D01*
X35684830Y27269723D01*
X35681112Y27272112D01*
X35667545Y27281177D01*
X35507128Y27347623D01*
X35507118Y27347626D01*
X35336822Y27381500D01*
X35336820Y27381500D01*
X35163180Y27381500D01*
X35163178Y27381500D01*
X34992881Y27347626D01*
X34992871Y27347623D01*
X34832454Y27281177D01*
X34818888Y27272112D01*
X34752209Y27251236D01*
X34684830Y27269723D01*
X34681112Y27272112D01*
X34667545Y27281177D01*
X34507128Y27347623D01*
X34507118Y27347626D01*
X34336822Y27381500D01*
X34336820Y27381500D01*
X34163180Y27381500D01*
X34163178Y27381500D01*
X33992881Y27347626D01*
X33992871Y27347623D01*
X33832459Y27281179D01*
X33832446Y27281172D01*
X33688077Y27184707D01*
X33688073Y27184704D01*
X33565296Y27061927D01*
X33565293Y27061923D01*
X33468828Y26917554D01*
X33468821Y26917541D01*
X33402377Y26757129D01*
X33402374Y26757119D01*
X33368500Y26586823D01*
X33368500Y26586820D01*
X33368500Y26413180D01*
X33368500Y26413178D01*
X33368499Y26413178D01*
X25631500Y26413178D01*
X25631500Y26413180D01*
X25631500Y26586820D01*
X25631500Y26586823D01*
X25597625Y26757119D01*
X25597624Y26757120D01*
X25597624Y26757124D01*
X25597622Y26757129D01*
X25531178Y26917541D01*
X25531171Y26917554D01*
X25434706Y27061923D01*
X25434703Y27061927D01*
X25311926Y27184704D01*
X25311922Y27184707D01*
X25167553Y27281172D01*
X25167540Y27281179D01*
X25007128Y27347623D01*
X25007118Y27347626D01*
X24836822Y27381500D01*
X24836820Y27381500D01*
X24663180Y27381500D01*
X24663178Y27381500D01*
X24492881Y27347626D01*
X24492871Y27347623D01*
X24332454Y27281177D01*
X24318888Y27272112D01*
X24252209Y27251236D01*
X24184830Y27269723D01*
X24181112Y27272112D01*
X24167545Y27281177D01*
X24007128Y27347623D01*
X24007118Y27347626D01*
X23836822Y27381500D01*
X23836820Y27381500D01*
X23663180Y27381500D01*
X23663178Y27381500D01*
X23492881Y27347626D01*
X23492871Y27347623D01*
X23332454Y27281177D01*
X23318888Y27272112D01*
X23252209Y27251236D01*
X23184830Y27269723D01*
X23181112Y27272112D01*
X23167545Y27281177D01*
X23007128Y27347623D01*
X23007118Y27347626D01*
X22836822Y27381500D01*
X22836820Y27381500D01*
X22663180Y27381500D01*
X22663178Y27381500D01*
X22492881Y27347626D01*
X22492871Y27347623D01*
X22332459Y27281179D01*
X22332446Y27281172D01*
X22188077Y27184707D01*
X22188073Y27184704D01*
X22065296Y27061927D01*
X22065293Y27061923D01*
X21968828Y26917554D01*
X21968821Y26917541D01*
X21902377Y26757129D01*
X21902374Y26757119D01*
X21868500Y26586823D01*
X21868500Y26586820D01*
X21868500Y26413180D01*
X21868500Y26413178D01*
X21868499Y26413178D01*
X21254500Y26413178D01*
X21254500Y32636114D01*
X21274185Y32703153D01*
X21290819Y32723795D01*
X21656819Y33089795D01*
X21718142Y33123280D01*
X21787834Y33118296D01*
X21843767Y33076424D01*
X21868184Y33010960D01*
X21868500Y33002114D01*
X21868500Y32913180D01*
X21868500Y32913178D01*
X21868499Y32913178D01*
X21902374Y32742882D01*
X21902377Y32742872D01*
X21968823Y32582455D01*
X21977888Y32568888D01*
X21998764Y32502209D01*
X21980277Y32434830D01*
X21977888Y32431112D01*
X21968823Y32417546D01*
X21902377Y32257129D01*
X21902374Y32257119D01*
X21868500Y32086823D01*
X21868500Y32086820D01*
X21868500Y31913180D01*
X21868500Y31913178D01*
X21868499Y31913178D01*
X21902374Y31742882D01*
X21902377Y31742872D01*
X21968821Y31582460D01*
X21968828Y31582447D01*
X22065293Y31438078D01*
X22065296Y31438074D01*
X22188073Y31315297D01*
X22188077Y31315294D01*
X22332446Y31218829D01*
X22332459Y31218822D01*
X22492871Y31152378D01*
X22492876Y31152376D01*
X22492880Y31152376D01*
X22492881Y31152375D01*
X22663177Y31118500D01*
X22663180Y31118500D01*
X22836822Y31118500D01*
X22951394Y31141291D01*
X23007124Y31152376D01*
X23167547Y31218825D01*
X23181108Y31227887D01*
X23247783Y31248766D01*
X23315164Y31230283D01*
X23318852Y31227913D01*
X23332453Y31218825D01*
X23332455Y31218824D01*
X23332457Y31218823D01*
X23492871Y31152378D01*
X23492876Y31152376D01*
X23492880Y31152376D01*
X23492881Y31152375D01*
X23663177Y31118500D01*
X23663180Y31118500D01*
X23836822Y31118500D01*
X23951394Y31141291D01*
X24007124Y31152376D01*
X24167547Y31218825D01*
X24181108Y31227887D01*
X24247783Y31248766D01*
X24315164Y31230283D01*
X24318852Y31227913D01*
X24332453Y31218825D01*
X24332455Y31218824D01*
X24332457Y31218823D01*
X24492871Y31152378D01*
X24492876Y31152376D01*
X24492880Y31152376D01*
X24492881Y31152375D01*
X24663177Y31118500D01*
X24663180Y31118500D01*
X24836822Y31118500D01*
X24951394Y31141291D01*
X25007124Y31152376D01*
X25167547Y31218825D01*
X25311923Y31315294D01*
X25434706Y31438077D01*
X25531175Y31582453D01*
X25597624Y31742876D01*
X25610943Y31809833D01*
X25631500Y31913178D01*
X25631500Y32086823D01*
X25597625Y32257119D01*
X25597624Y32257120D01*
X25597624Y32257124D01*
X25597622Y32257129D01*
X25531177Y32417543D01*
X25531175Y32417546D01*
X25531175Y32417547D01*
X25522113Y32431109D01*
X25501234Y32497783D01*
X25519717Y32565164D01*
X25522087Y32568853D01*
X25531175Y32582453D01*
X25597624Y32742876D01*
X25625070Y32880853D01*
X25631500Y32913178D01*
X25631500Y33086823D01*
X25597625Y33257119D01*
X25597624Y33257120D01*
X25597624Y33257124D01*
X25580636Y33298137D01*
X25558720Y33351048D01*
X25551251Y33420517D01*
X25582526Y33482996D01*
X25642615Y33518648D01*
X25673281Y33522500D01*
X33326719Y33522500D01*
X33393758Y33502815D01*
X33439513Y33450011D01*
X33449457Y33380853D01*
X33441280Y33351048D01*
X33402377Y33257129D01*
X33402374Y33257119D01*
X33368500Y33086823D01*
X33368500Y33086820D01*
X33368500Y32913180D01*
X33368500Y32913178D01*
X33368499Y32913178D01*
X33402374Y32742882D01*
X33402377Y32742872D01*
X33468823Y32582455D01*
X33477888Y32568888D01*
X33498764Y32502209D01*
X33480277Y32434830D01*
X33477888Y32431112D01*
X33468823Y32417546D01*
X33402377Y32257129D01*
X33402374Y32257119D01*
X33368500Y32086823D01*
X33368500Y32086820D01*
X33368500Y31913180D01*
X33368500Y31913178D01*
X33368499Y31913178D01*
X33402374Y31742882D01*
X33402377Y31742872D01*
X33468821Y31582460D01*
X33468828Y31582447D01*
X33565293Y31438078D01*
X33565296Y31438074D01*
X33688073Y31315297D01*
X33688077Y31315294D01*
X33832446Y31218829D01*
X33832459Y31218822D01*
X33992871Y31152378D01*
X33992876Y31152376D01*
X33992880Y31152376D01*
X33992881Y31152375D01*
X34163177Y31118500D01*
X34163180Y31118500D01*
X34336822Y31118500D01*
X34451394Y31141291D01*
X34507124Y31152376D01*
X34667547Y31218825D01*
X34681108Y31227887D01*
X34747783Y31248766D01*
X34815164Y31230283D01*
X34818852Y31227913D01*
X34832453Y31218825D01*
X34832455Y31218824D01*
X34832457Y31218823D01*
X34992871Y31152378D01*
X34992876Y31152376D01*
X34992880Y31152376D01*
X34992881Y31152375D01*
X35163177Y31118500D01*
X35163180Y31118500D01*
X35336822Y31118500D01*
X35451394Y31141291D01*
X35507124Y31152376D01*
X35667547Y31218825D01*
X35681108Y31227887D01*
X35747783Y31248766D01*
X35815164Y31230283D01*
X35818852Y31227913D01*
X35832453Y31218825D01*
X35832455Y31218824D01*
X35832457Y31218823D01*
X35992871Y31152378D01*
X35992876Y31152376D01*
X35992880Y31152376D01*
X35992881Y31152375D01*
X36163177Y31118500D01*
X36163180Y31118500D01*
X36336822Y31118500D01*
X36451394Y31141291D01*
X36507124Y31152376D01*
X36667547Y31218825D01*
X36811923Y31315294D01*
X36934706Y31438077D01*
X37031175Y31582453D01*
X37097624Y31742876D01*
X37110943Y31809833D01*
X37131500Y31913178D01*
X37131500Y32086823D01*
X37097625Y32257119D01*
X37097624Y32257120D01*
X37097624Y32257124D01*
X37097622Y32257129D01*
X37031177Y32417543D01*
X37031175Y32417546D01*
X37031175Y32417547D01*
X37022113Y32431109D01*
X37001234Y32497783D01*
X37019717Y32565164D01*
X37022087Y32568853D01*
X37031175Y32582453D01*
X37097624Y32742876D01*
X37125070Y32880853D01*
X37131500Y32913178D01*
X37131500Y33086823D01*
X37097625Y33257119D01*
X37097624Y33257120D01*
X37097624Y33257124D01*
X37080636Y33298137D01*
X37058720Y33351048D01*
X37051251Y33420517D01*
X37082526Y33482996D01*
X37142615Y33518648D01*
X37173281Y33522500D01*
X38761804Y33522500D01*
X38761805Y33522501D01*
X38883035Y33546614D01*
X38951047Y33574787D01*
X39020515Y33582256D01*
X39082994Y33550982D01*
X39118648Y33490894D01*
X39122500Y33460226D01*
X39122500Y27438193D01*
X39146612Y27316973D01*
X39146614Y27316965D01*
X39173340Y27252443D01*
X39193915Y27202770D01*
X39193916Y27202768D01*
X39193917Y27202767D01*
X39205986Y27184704D01*
X39231436Y27146617D01*
X39231436Y27146616D01*
X39262590Y27099990D01*
X39262593Y27099987D01*
X48758454Y17604127D01*
X48791939Y17542804D01*
X48792390Y17540637D01*
X48799493Y17504928D01*
X48799495Y17504920D01*
X48856371Y17367609D01*
X48938939Y17244036D01*
X48938945Y17244029D01*
X49044028Y17138946D01*
X49044035Y17138940D01*
X49167608Y17056372D01*
X49167609Y17056372D01*
X49167610Y17056371D01*
X49304920Y16999495D01*
X49450683Y16970501D01*
X49450687Y16970500D01*
X49450688Y16970500D01*
X49599313Y16970500D01*
X49599314Y16970501D01*
X49745080Y16999495D01*
X49882390Y17056371D01*
X50005966Y17138941D01*
X50027122Y17160098D01*
X50035067Y17164436D01*
X50040493Y17171683D01*
X50065248Y17180917D01*
X50088443Y17193582D01*
X50097474Y17192937D01*
X50105957Y17196100D01*
X50131774Y17190484D01*
X50158134Y17188599D01*
X50167189Y17182780D01*
X50174230Y17181248D01*
X50202484Y17160097D01*
X50262589Y17099992D01*
X50349992Y17012589D01*
X50349994Y17012587D01*
X50349996Y17012586D01*
X50452761Y16943921D01*
X50452767Y16943917D01*
X50486215Y16930063D01*
X50566965Y16896614D01*
X50688192Y16872501D01*
X50688196Y16872500D01*
X50688197Y16872500D01*
X50829508Y16872500D01*
X50896547Y16852815D01*
X50917189Y16836181D01*
X50938073Y16815297D01*
X50938077Y16815294D01*
X51082446Y16718829D01*
X51082459Y16718822D01*
X51242871Y16652378D01*
X51242876Y16652376D01*
X51242880Y16652376D01*
X51242881Y16652375D01*
X51413177Y16618500D01*
X51413180Y16618500D01*
X51586822Y16618500D01*
X51701394Y16641291D01*
X51757124Y16652376D01*
X51917547Y16718825D01*
X52061923Y16815294D01*
X52184706Y16938077D01*
X52281175Y17082453D01*
X52347624Y17242876D01*
X52366311Y17336821D01*
X52381500Y17413178D01*
X52381500Y17586823D01*
X52347625Y17757119D01*
X52347624Y17757120D01*
X52347624Y17757124D01*
X52296761Y17879920D01*
X52281178Y17917541D01*
X52281171Y17917554D01*
X52184706Y18061923D01*
X52184703Y18061927D01*
X52061926Y18184704D01*
X52061922Y18184707D01*
X51917553Y18281172D01*
X51917540Y18281179D01*
X51757128Y18347623D01*
X51757118Y18347626D01*
X51586822Y18381500D01*
X51586820Y18381500D01*
X51413180Y18381500D01*
X51413178Y18381500D01*
X51242881Y18347626D01*
X51242875Y18347624D01*
X51082456Y18281177D01*
X51082449Y18281173D01*
X51031463Y18247105D01*
X50964785Y18226228D01*
X50897405Y18244713D01*
X50874892Y18262527D01*
X50444224Y18693195D01*
X50410739Y18754518D01*
X50415723Y18824210D01*
X50457595Y18880143D01*
X50501553Y18899746D01*
X50501292Y18900607D01*
X50507116Y18902375D01*
X50507124Y18902376D01*
X50667547Y18968825D01*
X50811923Y19065294D01*
X50934706Y19188077D01*
X51031175Y19332453D01*
X51097624Y19492876D01*
X51108709Y19548606D01*
X51131500Y19663178D01*
X51131500Y19836823D01*
X51097625Y20007119D01*
X51097624Y20007120D01*
X51097624Y20007124D01*
X51056093Y20107390D01*
X51031178Y20167541D01*
X51031171Y20167554D01*
X50934706Y20311923D01*
X50934703Y20311927D01*
X50811926Y20434704D01*
X50811922Y20434707D01*
X50667553Y20531172D01*
X50667540Y20531179D01*
X50507128Y20597623D01*
X50507118Y20597626D01*
X50336822Y20631500D01*
X50336820Y20631500D01*
X50163180Y20631500D01*
X50163178Y20631500D01*
X49992881Y20597626D01*
X49992871Y20597623D01*
X49855111Y20540561D01*
X49785642Y20533092D01*
X49723163Y20564368D01*
X49719978Y20567441D01*
X41863819Y28423600D01*
X41830334Y28484923D01*
X41827500Y28511281D01*
X41827500Y30734735D01*
X42949500Y30734735D01*
X42949500Y30371154D01*
X42985137Y30009314D01*
X43056064Y29652732D01*
X43056067Y29652721D01*
X43161614Y29304779D01*
X43218460Y29167541D01*
X43295739Y28980972D01*
X43300754Y28968866D01*
X43300756Y28968861D01*
X43472140Y28648224D01*
X43472151Y28648206D01*
X43674140Y28345909D01*
X43674150Y28345895D01*
X43904807Y28064838D01*
X44161893Y27807752D01*
X44161898Y27807748D01*
X44161899Y27807747D01*
X44442956Y27577090D01*
X44745268Y27375091D01*
X44745277Y27375086D01*
X44745279Y27375085D01*
X45065916Y27203701D01*
X45065918Y27203701D01*
X45065924Y27203697D01*
X45401836Y27064558D01*
X45749767Y26959014D01*
X45749773Y26959013D01*
X45749776Y26959012D01*
X45749787Y26959009D01*
X46106369Y26888082D01*
X46468206Y26852444D01*
X46468209Y26852444D01*
X46831791Y26852444D01*
X46831794Y26852444D01*
X47193631Y26888082D01*
X47263045Y26901890D01*
X47550212Y26959009D01*
X47550223Y26959012D01*
X47550223Y26959013D01*
X47550233Y26959014D01*
X47898164Y27064558D01*
X48234076Y27203697D01*
X48554732Y27375091D01*
X48857044Y27577090D01*
X49138101Y27807747D01*
X49395197Y28064843D01*
X49625854Y28345900D01*
X49827853Y28648212D01*
X49999247Y28968868D01*
X50138386Y29304780D01*
X50243930Y29652711D01*
X50243932Y29652721D01*
X50243935Y29652732D01*
X50314862Y30009314D01*
X50322688Y30088770D01*
X50350500Y30371150D01*
X50350500Y30734738D01*
X50314862Y31096575D01*
X50300530Y31168629D01*
X50243935Y31453157D01*
X50243932Y31453168D01*
X50243931Y31453171D01*
X50243930Y31453177D01*
X50138386Y31801108D01*
X49999247Y32137020D01*
X49985562Y32162622D01*
X49827859Y32457665D01*
X49827858Y32457667D01*
X49827853Y32457676D01*
X49625854Y32759988D01*
X49395197Y33041045D01*
X49395196Y33041046D01*
X49395192Y33041051D01*
X49138106Y33298137D01*
X48857049Y33528794D01*
X48857048Y33528795D01*
X48857044Y33528798D01*
X48554732Y33730797D01*
X48554727Y33730800D01*
X48554720Y33730804D01*
X48234083Y33902188D01*
X48234078Y33902190D01*
X47898165Y34041330D01*
X47550223Y34146877D01*
X47550212Y34146880D01*
X47193630Y34217807D01*
X46921111Y34244648D01*
X46831794Y34253444D01*
X46468206Y34253444D01*
X46385679Y34245316D01*
X46106369Y34217807D01*
X45749787Y34146880D01*
X45749776Y34146877D01*
X45401834Y34041330D01*
X45065921Y33902190D01*
X45065916Y33902188D01*
X44745279Y33730804D01*
X44745261Y33730793D01*
X44442964Y33528804D01*
X44442950Y33528794D01*
X44161893Y33298137D01*
X43904807Y33041051D01*
X43674150Y32759994D01*
X43674140Y32759980D01*
X43472151Y32457683D01*
X43472140Y32457665D01*
X43300756Y32137028D01*
X43300754Y32137023D01*
X43161614Y31801110D01*
X43056067Y31453168D01*
X43056064Y31453157D01*
X42985137Y31096575D01*
X42949500Y30734735D01*
X41827500Y30734735D01*
X41827500Y34285348D01*
X41847185Y34352387D01*
X41899989Y34398142D01*
X41969147Y34408086D01*
X41987500Y34404007D01*
X41992870Y34402379D01*
X41992876Y34402376D01*
X42060997Y34388826D01*
X42163177Y34368500D01*
X42163180Y34368500D01*
X42336822Y34368500D01*
X42451394Y34391291D01*
X42507124Y34402376D01*
X42667547Y34468825D01*
X42681108Y34477887D01*
X42747783Y34498766D01*
X42815164Y34480283D01*
X42818852Y34477913D01*
X42832453Y34468825D01*
X42832455Y34468824D01*
X42832457Y34468823D01*
X42979091Y34408086D01*
X42992876Y34402376D01*
X42992880Y34402376D01*
X42992881Y34402375D01*
X43163177Y34368500D01*
X43163180Y34368500D01*
X43336822Y34368500D01*
X43451394Y34391291D01*
X43507124Y34402376D01*
X43667547Y34468825D01*
X43811923Y34565294D01*
X43934706Y34688077D01*
X44031175Y34832453D01*
X44097624Y34992876D01*
X44116184Y35086181D01*
X44131500Y35163178D01*
X44131500Y35336823D01*
X44097625Y35507119D01*
X44097624Y35507120D01*
X44097624Y35507124D01*
X44071218Y35570874D01*
X44031177Y35667543D01*
X44031176Y35667545D01*
X44031175Y35667547D01*
X44022113Y35681109D01*
X44001234Y35747783D01*
X44019717Y35815164D01*
X44022087Y35818853D01*
X44031175Y35832453D01*
X44097624Y35992876D01*
X44110315Y36056678D01*
X44131500Y36163178D01*
X44131500Y36336823D01*
X44097625Y36507119D01*
X44097624Y36507120D01*
X44097624Y36507124D01*
X44087746Y36530972D01*
X44031177Y36667543D01*
X44031176Y36667545D01*
X44031175Y36667547D01*
X44022113Y36681109D01*
X44001234Y36747783D01*
X44019717Y36815164D01*
X44022087Y36818853D01*
X44031175Y36832453D01*
X44097624Y36992876D01*
X44113823Y37074312D01*
X44131500Y37163178D01*
X44131500Y37336823D01*
X44097625Y37507119D01*
X44097624Y37507120D01*
X44097624Y37507124D01*
X44031175Y37667547D01*
X44022113Y37681109D01*
X44001234Y37747783D01*
X44019717Y37815164D01*
X44022087Y37818853D01*
X44031175Y37832453D01*
X44097624Y37992876D01*
X44114653Y38078487D01*
X44131500Y38163178D01*
X44131500Y38336823D01*
X44097625Y38507119D01*
X44097624Y38507120D01*
X44097624Y38507124D01*
X44090429Y38524495D01*
X44031177Y38667543D01*
X44031175Y38667546D01*
X44031175Y38667547D01*
X44022113Y38681109D01*
X44001234Y38747783D01*
X44019717Y38815164D01*
X44022087Y38818853D01*
X44031175Y38832453D01*
X44097624Y38992876D01*
X44116311Y39086820D01*
X44131500Y39163178D01*
X44131500Y39336823D01*
X44116312Y39413178D01*
X53368499Y39413178D01*
X53402374Y39242882D01*
X53402377Y39242872D01*
X53468823Y39082455D01*
X53477888Y39068888D01*
X53498764Y39002209D01*
X53480277Y38934830D01*
X53477888Y38931112D01*
X53468823Y38917546D01*
X53402377Y38757129D01*
X53402374Y38757119D01*
X53368500Y38586823D01*
X53368500Y38586820D01*
X53368500Y38413180D01*
X53368500Y38413178D01*
X53368499Y38413178D01*
X53402374Y38242882D01*
X53402376Y38242876D01*
X53468823Y38082455D01*
X53477888Y38068888D01*
X53498764Y38002209D01*
X53480277Y37934830D01*
X53477888Y37931112D01*
X53468823Y37917546D01*
X53402377Y37757129D01*
X53402374Y37757119D01*
X53368500Y37586823D01*
X53368500Y37586820D01*
X53368500Y37413180D01*
X53368500Y37413178D01*
X53368499Y37413178D01*
X53402374Y37242882D01*
X53402377Y37242872D01*
X53468823Y37082455D01*
X53477888Y37068888D01*
X53498764Y37002209D01*
X53480277Y36934830D01*
X53477888Y36931112D01*
X53468823Y36917546D01*
X53402377Y36757129D01*
X53402374Y36757119D01*
X53368500Y36586823D01*
X53368500Y36586820D01*
X53368500Y36413180D01*
X53368500Y36413178D01*
X53368499Y36413178D01*
X53402374Y36242882D01*
X53402377Y36242872D01*
X53468823Y36082455D01*
X53477888Y36068888D01*
X53498764Y36002209D01*
X53480277Y35934830D01*
X53477888Y35931112D01*
X53468823Y35917546D01*
X53402377Y35757129D01*
X53402374Y35757119D01*
X53368500Y35586823D01*
X53368500Y35586820D01*
X53368500Y35413180D01*
X53368500Y35413178D01*
X53368499Y35413178D01*
X53402374Y35242882D01*
X53402377Y35242872D01*
X53468821Y35082460D01*
X53468828Y35082447D01*
X53565293Y34938078D01*
X53565296Y34938074D01*
X53688073Y34815297D01*
X53688077Y34815294D01*
X53832446Y34718829D01*
X53832459Y34718822D01*
X53992871Y34652378D01*
X53992876Y34652376D01*
X53992880Y34652376D01*
X53992881Y34652375D01*
X54163177Y34618500D01*
X54163180Y34618500D01*
X54336822Y34618500D01*
X54451394Y34641291D01*
X54507124Y34652376D01*
X54667547Y34718825D01*
X54681108Y34727887D01*
X54747783Y34748766D01*
X54815164Y34730283D01*
X54818852Y34727913D01*
X54832453Y34718825D01*
X54832455Y34718824D01*
X54832457Y34718823D01*
X54992871Y34652378D01*
X54992876Y34652376D01*
X54992880Y34652376D01*
X54992881Y34652375D01*
X55163177Y34618500D01*
X55163180Y34618500D01*
X55336822Y34618500D01*
X55451394Y34641291D01*
X55507124Y34652376D01*
X55667547Y34718825D01*
X55811923Y34815294D01*
X55934706Y34938077D01*
X56031175Y35082453D01*
X56097624Y35242876D01*
X56116311Y35336820D01*
X56131500Y35413178D01*
X56131500Y35586823D01*
X56097625Y35757119D01*
X56097624Y35757120D01*
X56097624Y35757124D01*
X56089935Y35775688D01*
X56031177Y35917543D01*
X56031175Y35917546D01*
X56031175Y35917547D01*
X56022113Y35931109D01*
X56001234Y35997783D01*
X56019717Y36065164D01*
X56022087Y36068853D01*
X56031175Y36082453D01*
X56097624Y36242876D01*
X56114024Y36325321D01*
X56131500Y36413178D01*
X56131500Y36586823D01*
X56097625Y36757119D01*
X56097624Y36757120D01*
X56097624Y36757124D01*
X56031175Y36917547D01*
X56022113Y36931109D01*
X56001234Y36997783D01*
X56019717Y37065164D01*
X56022087Y37068853D01*
X56031175Y37082453D01*
X56097624Y37242876D01*
X56116159Y37336055D01*
X56131500Y37413178D01*
X56131500Y37586823D01*
X56097625Y37757119D01*
X56097624Y37757120D01*
X56097624Y37757124D01*
X56092690Y37769036D01*
X56031177Y37917543D01*
X56031175Y37917546D01*
X56031175Y37917547D01*
X56022113Y37931109D01*
X56001234Y37997783D01*
X56019717Y38065164D01*
X56022087Y38068853D01*
X56031175Y38082453D01*
X56097624Y38242876D01*
X56116159Y38336058D01*
X56131500Y38413178D01*
X56131500Y38586823D01*
X56097625Y38757119D01*
X56097624Y38757120D01*
X56097624Y38757124D01*
X56090735Y38773756D01*
X56031177Y38917543D01*
X56031175Y38917546D01*
X56031175Y38917547D01*
X56022113Y38931109D01*
X56001234Y38997783D01*
X56019717Y39065164D01*
X56022087Y39068853D01*
X56031175Y39082453D01*
X56097624Y39242876D01*
X56116311Y39336820D01*
X56131500Y39413178D01*
X56131500Y39586823D01*
X56097625Y39757119D01*
X56097624Y39757120D01*
X56097624Y39757124D01*
X56064930Y39836055D01*
X56031178Y39917541D01*
X56031171Y39917554D01*
X55934706Y40061923D01*
X55934703Y40061927D01*
X55811926Y40184704D01*
X55811922Y40184707D01*
X55667553Y40281172D01*
X55667540Y40281179D01*
X55507128Y40347623D01*
X55507118Y40347626D01*
X55336822Y40381500D01*
X55336820Y40381500D01*
X55163180Y40381500D01*
X55163178Y40381500D01*
X54992881Y40347626D01*
X54992871Y40347623D01*
X54832454Y40281177D01*
X54818888Y40272112D01*
X54752209Y40251236D01*
X54684830Y40269723D01*
X54681112Y40272112D01*
X54667545Y40281177D01*
X54507128Y40347623D01*
X54507118Y40347626D01*
X54336822Y40381500D01*
X54336820Y40381500D01*
X54163180Y40381500D01*
X54163178Y40381500D01*
X53992881Y40347626D01*
X53992871Y40347623D01*
X53832459Y40281179D01*
X53832446Y40281172D01*
X53688077Y40184707D01*
X53688073Y40184704D01*
X53565296Y40061927D01*
X53565293Y40061923D01*
X53468828Y39917554D01*
X53468821Y39917541D01*
X53402377Y39757129D01*
X53402374Y39757119D01*
X53368500Y39586823D01*
X53368500Y39586820D01*
X53368500Y39413180D01*
X53368500Y39413178D01*
X53368499Y39413178D01*
X44116312Y39413178D01*
X44097625Y39507119D01*
X44097624Y39507120D01*
X44097624Y39507124D01*
X44047763Y39627500D01*
X44031178Y39667541D01*
X44031171Y39667554D01*
X43934706Y39811923D01*
X43934703Y39811927D01*
X43811926Y39934704D01*
X43811922Y39934707D01*
X43667549Y40031174D01*
X43667540Y40031179D01*
X43507128Y40097623D01*
X43507118Y40097626D01*
X43336822Y40131500D01*
X43336820Y40131500D01*
X43163180Y40131500D01*
X43163178Y40131500D01*
X42992881Y40097626D01*
X42992871Y40097623D01*
X42832454Y40031177D01*
X42818888Y40022112D01*
X42752209Y40001236D01*
X42684830Y40019723D01*
X42681112Y40022112D01*
X42667545Y40031177D01*
X42507128Y40097623D01*
X42507118Y40097626D01*
X42336822Y40131500D01*
X42336820Y40131500D01*
X42163180Y40131500D01*
X42163178Y40131500D01*
X41992881Y40097626D01*
X41992871Y40097623D01*
X41832459Y40031179D01*
X41832451Y40031174D01*
X41820387Y40023114D01*
X41753709Y40002239D01*
X41686329Y40020726D01*
X41639641Y40072707D01*
X41627500Y40126219D01*
X41627500Y48413178D01*
X51618499Y48413178D01*
X51652374Y48242882D01*
X51652377Y48242872D01*
X51718821Y48082460D01*
X51718828Y48082447D01*
X51815293Y47938078D01*
X51815296Y47938074D01*
X51938073Y47815297D01*
X51938077Y47815294D01*
X52082446Y47718829D01*
X52082459Y47718822D01*
X52242871Y47652378D01*
X52242876Y47652376D01*
X52242880Y47652376D01*
X52242881Y47652375D01*
X52413177Y47618500D01*
X52413180Y47618500D01*
X52586822Y47618500D01*
X52701394Y47641291D01*
X52757124Y47652376D01*
X52917547Y47718825D01*
X53061923Y47815294D01*
X53184706Y47938077D01*
X53281175Y48082453D01*
X53347624Y48242876D01*
X53381500Y48413180D01*
X53381500Y48586820D01*
X53381500Y48586823D01*
X53347625Y48757119D01*
X53347624Y48757120D01*
X53347624Y48757124D01*
X53342704Y48769002D01*
X53281178Y48917541D01*
X53281171Y48917554D01*
X53184706Y49061923D01*
X53184703Y49061927D01*
X53061926Y49184704D01*
X53061922Y49184707D01*
X52917553Y49281172D01*
X52917540Y49281179D01*
X52757128Y49347623D01*
X52757118Y49347626D01*
X52586822Y49381500D01*
X52586820Y49381500D01*
X52413180Y49381500D01*
X52413178Y49381500D01*
X52242881Y49347626D01*
X52242871Y49347623D01*
X52082459Y49281179D01*
X52082446Y49281172D01*
X51938077Y49184707D01*
X51938073Y49184704D01*
X51815296Y49061927D01*
X51815293Y49061923D01*
X51718828Y48917554D01*
X51718821Y48917541D01*
X51652377Y48757129D01*
X51652374Y48757119D01*
X51618500Y48586823D01*
X51618500Y48586820D01*
X51618500Y48413180D01*
X51618500Y48413178D01*
X51618499Y48413178D01*
X41627500Y48413178D01*
X41627500Y48903719D01*
X41647185Y48970758D01*
X41699989Y49016513D01*
X41769147Y49026457D01*
X41775691Y49025336D01*
X41838348Y49012873D01*
X41925685Y48995501D01*
X41925687Y48995500D01*
X41925688Y48995500D01*
X42074313Y48995500D01*
X42074314Y48995501D01*
X42220080Y49024495D01*
X42357390Y49081371D01*
X42480966Y49163941D01*
X42586059Y49269034D01*
X42668629Y49392610D01*
X42725505Y49529920D01*
X42754500Y49675688D01*
X42754500Y49824312D01*
X42725505Y49970080D01*
X42724664Y49974309D01*
X42730891Y50043900D01*
X42773754Y50099078D01*
X42839644Y50122322D01*
X42846281Y50122500D01*
X47153719Y50122500D01*
X47220758Y50102815D01*
X47266513Y50050011D01*
X47276457Y49980853D01*
X47275336Y49974309D01*
X47245500Y49824316D01*
X47245500Y49675684D01*
X47274493Y49529928D01*
X47274495Y49529920D01*
X47331371Y49392609D01*
X47413939Y49269036D01*
X47413945Y49269029D01*
X47519028Y49163946D01*
X47519035Y49163940D01*
X47642608Y49081372D01*
X47642609Y49081372D01*
X47642610Y49081371D01*
X47779920Y49024495D01*
X47925683Y48995501D01*
X47925687Y48995500D01*
X47925688Y48995500D01*
X48074313Y48995500D01*
X48074314Y48995501D01*
X48220080Y49024495D01*
X48357390Y49081371D01*
X48480966Y49163941D01*
X48586059Y49269034D01*
X48668629Y49392610D01*
X48725505Y49529920D01*
X48754500Y49675688D01*
X48754500Y49824312D01*
X48725505Y49970080D01*
X48724317Y49976055D01*
X48726351Y49976460D01*
X48722464Y49984953D01*
X48726132Y50010636D01*
X48725899Y50036571D01*
X48730993Y50044658D01*
X48732345Y50054121D01*
X48749314Y50073741D01*
X48763141Y50095688D01*
X48773018Y50101146D01*
X48778053Y50106966D01*
X48798565Y50115261D01*
X48810144Y50121657D01*
X48815504Y50123237D01*
X48933035Y50146614D01*
X49020961Y50183035D01*
X49047233Y50193917D01*
X49150008Y50262589D01*
X49237411Y50349992D01*
X49620874Y50733457D01*
X49682195Y50766940D01*
X49684285Y50767376D01*
X49720080Y50774495D01*
X49840360Y50824317D01*
X54745500Y50824317D01*
X54745500Y50675684D01*
X54774493Y50529928D01*
X54774495Y50529920D01*
X54831371Y50392609D01*
X54913939Y50269036D01*
X54913945Y50269029D01*
X55019028Y50163946D01*
X55019035Y50163940D01*
X55142608Y50081372D01*
X55142609Y50081372D01*
X55142610Y50081371D01*
X55279920Y50024495D01*
X55410606Y49998500D01*
X55425683Y49995501D01*
X55425687Y49995500D01*
X55425688Y49995500D01*
X55574313Y49995500D01*
X55574314Y49995501D01*
X55720080Y50024495D01*
X55857390Y50081371D01*
X55980966Y50163941D01*
X56086059Y50269034D01*
X56168629Y50392610D01*
X56225505Y50529920D01*
X56254500Y50675688D01*
X56254500Y50824312D01*
X56225505Y50970080D01*
X56168629Y51107390D01*
X56111687Y51192610D01*
X56086060Y51230965D01*
X56086054Y51230972D01*
X55980971Y51336055D01*
X55980964Y51336061D01*
X55857391Y51418629D01*
X55720080Y51475505D01*
X55720072Y51475507D01*
X55574316Y51504500D01*
X55574312Y51504500D01*
X55425688Y51504500D01*
X55425683Y51504500D01*
X55279927Y51475507D01*
X55279919Y51475505D01*
X55142608Y51418629D01*
X55019035Y51336061D01*
X55019028Y51336055D01*
X54913945Y51230972D01*
X54913939Y51230965D01*
X54831371Y51107392D01*
X54774495Y50970081D01*
X54774493Y50970073D01*
X54745500Y50824317D01*
X49840360Y50824317D01*
X49857390Y50831371D01*
X49980966Y50913941D01*
X49980971Y50913946D01*
X49985111Y50918085D01*
X50086054Y51019029D01*
X50086059Y51019034D01*
X50168629Y51142610D01*
X50225505Y51279920D01*
X50254500Y51425688D01*
X50254500Y51574312D01*
X50225505Y51720080D01*
X50168629Y51857390D01*
X50135220Y51907390D01*
X50086060Y51980965D01*
X50086054Y51980972D01*
X49980971Y52086055D01*
X49980964Y52086061D01*
X49857391Y52168629D01*
X49720080Y52225505D01*
X49720072Y52225507D01*
X49574316Y52254500D01*
X49574312Y52254500D01*
X49425688Y52254500D01*
X49425683Y52254500D01*
X49279927Y52225507D01*
X49279919Y52225505D01*
X49142608Y52168629D01*
X49019035Y52086061D01*
X49019028Y52086055D01*
X48913945Y51980972D01*
X48913939Y51980965D01*
X48831371Y51857392D01*
X48774495Y51720081D01*
X48774493Y51720075D01*
X48767390Y51684364D01*
X48735005Y51622453D01*
X48733455Y51620875D01*
X48526398Y51413818D01*
X48465078Y51380334D01*
X48438719Y51377500D01*
X39438192Y51377500D01*
X39316973Y51353388D01*
X39316965Y51353386D01*
X39260315Y51329920D01*
X39260314Y51329920D01*
X39202773Y51306087D01*
X39202761Y51306080D01*
X39129520Y51257141D01*
X39099993Y51237412D01*
X39099989Y51237409D01*
X38888114Y51025534D01*
X38826791Y50992049D01*
X38757099Y50997033D01*
X38701166Y51038905D01*
X38685872Y51065762D01*
X38668628Y51107393D01*
X38586060Y51230965D01*
X38586054Y51230972D01*
X38480971Y51336055D01*
X38480964Y51336061D01*
X38357391Y51418629D01*
X38220080Y51475505D01*
X38220072Y51475507D01*
X38074316Y51504500D01*
X38074312Y51504500D01*
X37925688Y51504500D01*
X37925683Y51504500D01*
X37779927Y51475507D01*
X37779919Y51475505D01*
X37642608Y51418629D01*
X37519035Y51336061D01*
X37519028Y51336055D01*
X37413945Y51230972D01*
X37413939Y51230965D01*
X37331371Y51107392D01*
X37274495Y50970081D01*
X37274493Y50970073D01*
X37245500Y50824317D01*
X37245500Y50675684D01*
X37274493Y50529928D01*
X37274495Y50529920D01*
X37331371Y50392609D01*
X37413939Y50269036D01*
X37413945Y50269029D01*
X37519028Y50163946D01*
X37519035Y50163940D01*
X37642608Y50081372D01*
X37642609Y50081372D01*
X37642610Y50081371D01*
X37779920Y50024495D01*
X37910606Y49998500D01*
X37925683Y49995501D01*
X37925687Y49995500D01*
X37925688Y49995500D01*
X38074313Y49995500D01*
X38074313Y49995501D01*
X38193003Y50019109D01*
X38224309Y50025336D01*
X38293900Y50019109D01*
X38349078Y49976246D01*
X38372322Y49910356D01*
X38372500Y49903719D01*
X38372500Y44706560D01*
X38352815Y44639521D01*
X38351603Y44637671D01*
X38331371Y44607392D01*
X38274495Y44470081D01*
X38274493Y44470073D01*
X38245500Y44324317D01*
X38245500Y44175684D01*
X38274493Y44029928D01*
X38274495Y44029920D01*
X38331369Y43892613D01*
X38331375Y43892602D01*
X38351601Y43862333D01*
X38372480Y43795656D01*
X38372500Y43793441D01*
X38372500Y38438193D01*
X38396612Y38316973D01*
X38396614Y38316965D01*
X38427303Y38242876D01*
X38443915Y38202770D01*
X38443916Y38202768D01*
X38443917Y38202767D01*
X38480864Y38147472D01*
X38484112Y38142612D01*
X38484112Y38142611D01*
X38512590Y38099990D01*
X38512593Y38099987D01*
X39316547Y37296034D01*
X39350032Y37234711D01*
X39345048Y37165020D01*
X39303176Y37109086D01*
X39297757Y37105251D01*
X39269031Y37086058D01*
X39163945Y36980972D01*
X39163939Y36980965D01*
X39081371Y36857392D01*
X39024495Y36720081D01*
X39024493Y36720073D01*
X38995500Y36574317D01*
X38995500Y36574312D01*
X38995500Y36425688D01*
X38999140Y36407390D01*
X39014780Y36328759D01*
X39008552Y36259168D01*
X38965688Y36203991D01*
X38917355Y36182952D01*
X38879924Y36175507D01*
X38879919Y36175505D01*
X38742608Y36118629D01*
X38619035Y36036061D01*
X38619028Y36036055D01*
X38513945Y35930972D01*
X38513939Y35930965D01*
X38431371Y35807392D01*
X38374495Y35670081D01*
X38374493Y35670075D01*
X38367390Y35634363D01*
X38358624Y35617607D01*
X38354605Y35599128D01*
X38335860Y35574088D01*
X38335005Y35572452D01*
X38333503Y35570924D01*
X38176398Y35413818D01*
X38115077Y35380334D01*
X38088719Y35377500D01*
X36755500Y35377500D01*
X36688461Y35397185D01*
X36642706Y35449989D01*
X36631500Y35501500D01*
X36631500Y35586823D01*
X36597625Y35757119D01*
X36597624Y35757120D01*
X36597624Y35757124D01*
X36589935Y35775688D01*
X36531178Y35917541D01*
X36531173Y35917550D01*
X36522403Y35930676D01*
X36501527Y35997354D01*
X36520013Y36064734D01*
X36571993Y36111423D01*
X36640963Y36122598D01*
X36649692Y36121183D01*
X36658869Y36119358D01*
X36663179Y36118500D01*
X36663180Y36118500D01*
X36836822Y36118500D01*
X36975653Y36146116D01*
X37007124Y36152376D01*
X37167547Y36218825D01*
X37311923Y36315294D01*
X37434706Y36438077D01*
X37531175Y36582453D01*
X37597624Y36742876D01*
X37631500Y36913180D01*
X37631500Y37086820D01*
X37631500Y37086823D01*
X37597625Y37257119D01*
X37597624Y37257120D01*
X37597624Y37257124D01*
X37581507Y37296034D01*
X37531177Y37417543D01*
X37531175Y37417546D01*
X37531175Y37417547D01*
X37522113Y37431109D01*
X37501234Y37497783D01*
X37519717Y37565164D01*
X37522087Y37568853D01*
X37531175Y37582453D01*
X37597624Y37742876D01*
X37627408Y37892606D01*
X37631500Y37913178D01*
X37631500Y38086823D01*
X37597625Y38257119D01*
X37597624Y38257120D01*
X37597624Y38257124D01*
X37583247Y38291834D01*
X37531177Y38417543D01*
X37531176Y38417545D01*
X37531175Y38417547D01*
X37522113Y38431109D01*
X37501234Y38497783D01*
X37519717Y38565164D01*
X37522087Y38568853D01*
X37531175Y38582453D01*
X37597624Y38742876D01*
X37627408Y38892609D01*
X37631500Y38913178D01*
X37631500Y39086823D01*
X37597625Y39257119D01*
X37597624Y39257120D01*
X37597624Y39257124D01*
X37532984Y39413180D01*
X37531178Y39417541D01*
X37531171Y39417554D01*
X37434706Y39561923D01*
X37434703Y39561927D01*
X37311926Y39684704D01*
X37311922Y39684707D01*
X37167553Y39781172D01*
X37167540Y39781179D01*
X37007128Y39847623D01*
X37007118Y39847626D01*
X36836822Y39881500D01*
X36836820Y39881500D01*
X36663180Y39881500D01*
X36663178Y39881500D01*
X36492881Y39847626D01*
X36492871Y39847623D01*
X36332454Y39781177D01*
X36318888Y39772112D01*
X36252209Y39751236D01*
X36184830Y39769723D01*
X36181112Y39772112D01*
X36167545Y39781177D01*
X36007128Y39847623D01*
X36007118Y39847626D01*
X35836822Y39881500D01*
X35836820Y39881500D01*
X35663180Y39881500D01*
X35663178Y39881500D01*
X35492881Y39847626D01*
X35492871Y39847623D01*
X35332459Y39781179D01*
X35332446Y39781172D01*
X35188077Y39684707D01*
X35188073Y39684704D01*
X35065296Y39561927D01*
X35065293Y39561923D01*
X34968828Y39417554D01*
X34968821Y39417541D01*
X34902377Y39257129D01*
X34902374Y39257119D01*
X34868500Y39086823D01*
X34868500Y39086820D01*
X34868500Y38913180D01*
X34868500Y38913178D01*
X34868499Y38913178D01*
X34902374Y38742882D01*
X34902377Y38742872D01*
X34968821Y38582460D01*
X34968828Y38582447D01*
X35065293Y38438078D01*
X35065296Y38438074D01*
X35188073Y38315297D01*
X35188077Y38315294D01*
X35332446Y38218829D01*
X35332459Y38218822D01*
X35492871Y38152378D01*
X35492876Y38152376D01*
X35492880Y38152376D01*
X35492881Y38152375D01*
X35663177Y38118500D01*
X35744500Y38118500D01*
X35811539Y38098815D01*
X35857294Y38046011D01*
X35868500Y37994500D01*
X35868500Y37913180D01*
X35868500Y37913178D01*
X35868499Y37913178D01*
X35902374Y37742882D01*
X35902377Y37742872D01*
X35968823Y37582455D01*
X35977888Y37568888D01*
X35998764Y37502209D01*
X35980277Y37434830D01*
X35977888Y37431112D01*
X35968823Y37417546D01*
X35902377Y37257129D01*
X35902374Y37257119D01*
X35868500Y37086823D01*
X35868500Y37086820D01*
X35868500Y36913180D01*
X35868500Y36913178D01*
X35868499Y36913178D01*
X35902374Y36742882D01*
X35902377Y36742872D01*
X35968821Y36582460D01*
X35968832Y36582440D01*
X35977596Y36569323D01*
X35998472Y36502645D01*
X35979985Y36435266D01*
X35928005Y36388577D01*
X35859035Y36377403D01*
X35850300Y36378819D01*
X35836822Y36381500D01*
X35836820Y36381500D01*
X35663180Y36381500D01*
X35663178Y36381500D01*
X35492881Y36347626D01*
X35492871Y36347623D01*
X35332454Y36281177D01*
X35318888Y36272112D01*
X35252209Y36251236D01*
X35184830Y36269723D01*
X35181112Y36272112D01*
X35167545Y36281177D01*
X35007128Y36347623D01*
X35007118Y36347626D01*
X34836822Y36381500D01*
X34836820Y36381500D01*
X34663180Y36381500D01*
X34663178Y36381500D01*
X34492881Y36347626D01*
X34492871Y36347623D01*
X34332454Y36281177D01*
X34318888Y36272112D01*
X34252209Y36251236D01*
X34184830Y36269723D01*
X34181112Y36272112D01*
X34167545Y36281177D01*
X34007128Y36347623D01*
X34007118Y36347626D01*
X33836822Y36381500D01*
X33836820Y36381500D01*
X33663180Y36381500D01*
X33663178Y36381500D01*
X33492881Y36347626D01*
X33492871Y36347623D01*
X33332459Y36281179D01*
X33332446Y36281172D01*
X33188077Y36184707D01*
X33188073Y36184704D01*
X33065296Y36061927D01*
X33065293Y36061923D01*
X32968828Y35917554D01*
X32968821Y35917541D01*
X32902377Y35757129D01*
X32902374Y35757119D01*
X32868500Y35586823D01*
X32868500Y35501500D01*
X32848815Y35434461D01*
X32796011Y35388706D01*
X32744500Y35377500D01*
X26755500Y35377500D01*
X26688461Y35397185D01*
X26642706Y35449989D01*
X26631500Y35501500D01*
X26631500Y35586823D01*
X26597625Y35757119D01*
X26597624Y35757120D01*
X26597624Y35757124D01*
X26589935Y35775688D01*
X26531177Y35917543D01*
X26531175Y35917546D01*
X26531175Y35917547D01*
X26522113Y35931109D01*
X26501234Y35997783D01*
X26519717Y36065164D01*
X26522087Y36068853D01*
X26531175Y36082453D01*
X26597624Y36242876D01*
X26614024Y36325321D01*
X26631500Y36413178D01*
X26631500Y36586823D01*
X26597625Y36757119D01*
X26597624Y36757120D01*
X26597624Y36757124D01*
X26531175Y36917547D01*
X26522113Y36931109D01*
X26501234Y36997783D01*
X26519717Y37065164D01*
X26522087Y37068853D01*
X26531175Y37082453D01*
X26597624Y37242876D01*
X26616159Y37336055D01*
X26631500Y37413178D01*
X26631500Y37586823D01*
X26597625Y37757119D01*
X26597624Y37757120D01*
X26597624Y37757124D01*
X26592690Y37769036D01*
X26531177Y37917543D01*
X26531175Y37917546D01*
X26531175Y37917547D01*
X26522113Y37931109D01*
X26501234Y37997783D01*
X26519717Y38065164D01*
X26522087Y38068853D01*
X26531175Y38082453D01*
X26597624Y38242876D01*
X26616159Y38336058D01*
X26631500Y38413178D01*
X26631500Y38586823D01*
X26597625Y38757119D01*
X26597624Y38757120D01*
X26597624Y38757124D01*
X26590735Y38773756D01*
X26531177Y38917543D01*
X26531175Y38917546D01*
X26531175Y38917547D01*
X26522113Y38931109D01*
X26501234Y38997783D01*
X26519717Y39065164D01*
X26522087Y39068853D01*
X26531175Y39082453D01*
X26597624Y39242876D01*
X26616311Y39336820D01*
X26631500Y39413178D01*
X26631500Y39586823D01*
X26597625Y39757119D01*
X26597624Y39757120D01*
X26597624Y39757124D01*
X26564930Y39836055D01*
X26531178Y39917541D01*
X26531171Y39917554D01*
X26434706Y40061923D01*
X26434703Y40061927D01*
X26311926Y40184704D01*
X26311922Y40184707D01*
X26167553Y40281172D01*
X26167540Y40281179D01*
X26007128Y40347623D01*
X26007118Y40347626D01*
X25836822Y40381500D01*
X25836820Y40381500D01*
X25663180Y40381500D01*
X25663178Y40381500D01*
X25492881Y40347626D01*
X25492871Y40347623D01*
X25332454Y40281177D01*
X25318888Y40272112D01*
X25252209Y40251236D01*
X25184830Y40269723D01*
X25181112Y40272112D01*
X25167545Y40281177D01*
X25007128Y40347623D01*
X25007118Y40347626D01*
X24836822Y40381500D01*
X24836820Y40381500D01*
X24663180Y40381500D01*
X24663178Y40381500D01*
X24492881Y40347626D01*
X24492871Y40347623D01*
X24332459Y40281179D01*
X24332447Y40281172D01*
X24320387Y40273114D01*
X24253709Y40252239D01*
X24186329Y40270726D01*
X24139641Y40322707D01*
X24127500Y40376219D01*
X24127500Y48438719D01*
X24147185Y48505758D01*
X24163819Y48526400D01*
X25723600Y50086181D01*
X25784923Y50119666D01*
X25811281Y50122500D01*
X32871500Y50122500D01*
X32938539Y50102815D01*
X32984294Y50050011D01*
X32995500Y49998500D01*
X32995500Y49925684D01*
X33024493Y49779928D01*
X33024495Y49779920D01*
X33081371Y49642609D01*
X33163939Y49519036D01*
X33163945Y49519029D01*
X33269028Y49413946D01*
X33269035Y49413940D01*
X33392608Y49331372D01*
X33392609Y49331372D01*
X33392610Y49331371D01*
X33529920Y49274495D01*
X33565635Y49267391D01*
X33627546Y49235008D01*
X33629126Y49233455D01*
X34097724Y48764857D01*
X34131209Y48703534D01*
X34131661Y48652986D01*
X34118500Y48586820D01*
X34118500Y48413180D01*
X34118500Y48413178D01*
X34118499Y48413178D01*
X34152374Y48242882D01*
X34152377Y48242872D01*
X34218821Y48082460D01*
X34218828Y48082447D01*
X34315293Y47938078D01*
X34315296Y47938074D01*
X34438073Y47815297D01*
X34438077Y47815294D01*
X34582446Y47718829D01*
X34582459Y47718822D01*
X34742871Y47652378D01*
X34742876Y47652376D01*
X34742880Y47652376D01*
X34742881Y47652375D01*
X34913177Y47618500D01*
X34913180Y47618500D01*
X35086822Y47618500D01*
X35201394Y47641291D01*
X35257124Y47652376D01*
X35417547Y47718825D01*
X35561923Y47815294D01*
X35684706Y47938077D01*
X35781175Y48082453D01*
X35847624Y48242876D01*
X35881500Y48413180D01*
X35881500Y48586820D01*
X35881500Y48586823D01*
X35847625Y48757119D01*
X35847624Y48757120D01*
X35847624Y48757124D01*
X35842704Y48769002D01*
X35781178Y48917541D01*
X35781171Y48917554D01*
X35684706Y49061923D01*
X35684703Y49061927D01*
X35561926Y49184704D01*
X35561922Y49184707D01*
X35417553Y49281172D01*
X35417543Y49281177D01*
X35335682Y49315085D01*
X35295454Y49341965D01*
X34516545Y50120874D01*
X34483060Y50182197D01*
X34482622Y50184298D01*
X34475505Y50220080D01*
X34418629Y50357390D01*
X34336059Y50480966D01*
X34336054Y50480972D01*
X34226659Y50590367D01*
X34228439Y50592148D01*
X34195307Y50640792D01*
X34193439Y50710636D01*
X34229629Y50770403D01*
X34265853Y50793456D01*
X34357390Y50831371D01*
X34357390Y50831372D01*
X34357392Y50831372D01*
X34432221Y50881371D01*
X34480966Y50913941D01*
X34586059Y51019034D01*
X34668629Y51142610D01*
X34725505Y51279920D01*
X34754500Y51425688D01*
X34754500Y51574312D01*
X34725505Y51720080D01*
X34668629Y51857390D01*
X34635220Y51907390D01*
X34586060Y51980965D01*
X34586054Y51980972D01*
X34480971Y52086055D01*
X34480964Y52086061D01*
X34357391Y52168629D01*
X34220080Y52225505D01*
X34220072Y52225507D01*
X34074316Y52254500D01*
X34074312Y52254500D01*
X33925688Y52254500D01*
X33925683Y52254500D01*
X33779927Y52225507D01*
X33779919Y52225505D01*
X33642608Y52168629D01*
X33519035Y52086061D01*
X33519028Y52086055D01*
X33413945Y51980972D01*
X33413939Y51980965D01*
X33331371Y51857392D01*
X33274495Y51720081D01*
X33274493Y51720075D01*
X33267390Y51684364D01*
X33235005Y51622453D01*
X33233455Y51620875D01*
X33026398Y51413818D01*
X32965078Y51380334D01*
X32938719Y51377500D01*
X25438195Y51377500D01*
X25316970Y51353387D01*
X25316960Y51353384D01*
X25202773Y51306087D01*
X25202761Y51306080D01*
X25129520Y51257141D01*
X25099990Y51237410D01*
X25099986Y51237407D01*
X23538269Y49675688D01*
X23099992Y49237411D01*
X23069917Y49207336D01*
X23012586Y49150006D01*
X23012585Y49150004D01*
X22943734Y49046961D01*
X22943482Y49046184D01*
X22896614Y48933035D01*
X22881568Y48857390D01*
X22880160Y48850314D01*
X22880156Y48850300D01*
X22872500Y48811808D01*
X22872500Y45628500D01*
X22852815Y45561461D01*
X22800011Y45515706D01*
X22748500Y45504500D01*
X22675683Y45504500D01*
X22529927Y45475507D01*
X22529919Y45475505D01*
X22392608Y45418629D01*
X22269035Y45336061D01*
X22269028Y45336055D01*
X22163945Y45230972D01*
X22163939Y45230965D01*
X22081371Y45107392D01*
X22024495Y44970081D01*
X22024493Y44970073D01*
X21995500Y44824317D01*
X21995500Y44751500D01*
X21975815Y44684461D01*
X21923011Y44638706D01*
X21871500Y44627500D01*
X17961281Y44627500D01*
X17894242Y44647185D01*
X17873600Y44663819D01*
X17252624Y45284795D01*
X17219139Y45346118D01*
X17224123Y45415810D01*
X17265995Y45471743D01*
X17318753Y45492217D01*
X17318337Y45494311D01*
X17387931Y45508155D01*
X17470080Y45524495D01*
X17607390Y45581371D01*
X17730966Y45663941D01*
X17836059Y45769034D01*
X17918629Y45892610D01*
X17975505Y46029920D01*
X18004500Y46175688D01*
X18004500Y46324312D01*
X17975505Y46470080D01*
X17918629Y46607390D01*
X17849433Y46710950D01*
X17828556Y46777626D01*
X17847041Y46845006D01*
X17899020Y46891696D01*
X17967990Y46902872D01*
X18008830Y46890325D01*
X18061588Y46863443D01*
X18263757Y46797754D01*
X18473713Y46764500D01*
X18473714Y46764500D01*
X18686286Y46764500D01*
X18686287Y46764500D01*
X18896243Y46797754D01*
X19098412Y46863443D01*
X19287816Y46959949D01*
X19309789Y46975914D01*
X19459786Y47084891D01*
X19459788Y47084894D01*
X19459792Y47084896D01*
X19610104Y47235208D01*
X19610106Y47235212D01*
X19610109Y47235214D01*
X19735048Y47407180D01*
X19735047Y47407180D01*
X19735051Y47407184D01*
X19831557Y47596588D01*
X19897246Y47798757D01*
X19930500Y48008713D01*
X19930500Y48221287D01*
X19897246Y48431243D01*
X19831557Y48633412D01*
X19735051Y48822816D01*
X19735049Y48822819D01*
X19735048Y48822821D01*
X19610109Y48994787D01*
X19459786Y49145110D01*
X19287820Y49270049D01*
X19098414Y49366556D01*
X19098413Y49366557D01*
X19098412Y49366557D01*
X18896243Y49432246D01*
X18896241Y49432247D01*
X18896240Y49432247D01*
X18734957Y49457792D01*
X18686287Y49465500D01*
X18473713Y49465500D01*
X18425042Y49457792D01*
X18263760Y49432247D01*
X18061585Y49366556D01*
X17872179Y49270049D01*
X17700213Y49145110D01*
X17549890Y48994787D01*
X17424949Y48822818D01*
X17420484Y48814054D01*
X17372509Y48763258D01*
X17304688Y48746464D01*
X17238553Y48769002D01*
X17199516Y48814054D01*
X17195050Y48822818D01*
X17070109Y48994787D01*
X16919786Y49145110D01*
X16747820Y49270049D01*
X16558414Y49366556D01*
X16558413Y49366557D01*
X16558412Y49366557D01*
X16356243Y49432246D01*
X16356241Y49432247D01*
X16356240Y49432247D01*
X16194957Y49457792D01*
X16146287Y49465500D01*
X15933713Y49465500D01*
X15885042Y49457792D01*
X15723760Y49432247D01*
X15521585Y49366556D01*
X15332179Y49270049D01*
X15160215Y49145111D01*
X15046673Y49031569D01*
X14985350Y48998085D01*
X14915658Y49003069D01*
X14859725Y49044941D01*
X14842810Y49075918D01*
X14793797Y49207329D01*
X14793793Y49207336D01*
X14707547Y49322545D01*
X14707544Y49322548D01*
X14592335Y49408794D01*
X14592328Y49408798D01*
X14457482Y49459092D01*
X14457483Y49459092D01*
X14397883Y49465499D01*
X14397881Y49465500D01*
X14397873Y49465500D01*
X14397864Y49465500D01*
X12602129Y49465500D01*
X12602123Y49465499D01*
X12542516Y49459092D01*
X12407671Y49408798D01*
X12407664Y49408794D01*
X12292455Y49322548D01*
X12292452Y49322545D01*
X12206206Y49207336D01*
X12206202Y49207329D01*
X12155908Y49072483D01*
X12149501Y49012884D01*
X12149500Y49012865D01*
X12149500Y47217130D01*
X12149501Y47217124D01*
X12155908Y47157517D01*
X12206202Y47022672D01*
X12206206Y47022665D01*
X12292452Y46907456D01*
X12292453Y46907456D01*
X12292454Y46907454D01*
X12298575Y46902872D01*
X12368179Y46850766D01*
X12410049Y46794832D01*
X12415033Y46725141D01*
X12381547Y46663818D01*
X12320224Y46630333D01*
X12293867Y46627500D01*
X7901846Y46627500D01*
X7834807Y46647185D01*
X7789052Y46699989D01*
X7779108Y46769147D01*
X7808133Y46832703D01*
X7845551Y46861985D01*
X7901169Y46890324D01*
X8037816Y46959949D01*
X8155178Y47045217D01*
X8209786Y47084891D01*
X8209788Y47084894D01*
X8209792Y47084896D01*
X8360104Y47235208D01*
X8360106Y47235212D01*
X8360109Y47235214D01*
X8485048Y47407180D01*
X8485047Y47407180D01*
X8485051Y47407184D01*
X8581557Y47596588D01*
X8647246Y47798757D01*
X8680500Y48008713D01*
X8680500Y48221287D01*
X8647246Y48431243D01*
X8581557Y48633412D01*
X8485051Y48822816D01*
X8485049Y48822819D01*
X8485048Y48822821D01*
X8360109Y48994787D01*
X8209786Y49145110D01*
X8037820Y49270049D01*
X7848414Y49366556D01*
X7848413Y49366557D01*
X7848412Y49366557D01*
X7646243Y49432246D01*
X7646241Y49432247D01*
X7646240Y49432247D01*
X7484957Y49457792D01*
X7436287Y49465500D01*
X7223713Y49465500D01*
X7175042Y49457792D01*
X7013760Y49432247D01*
X6811585Y49366556D01*
X6622179Y49270049D01*
X6450213Y49145110D01*
X6299890Y48994787D01*
X6174949Y48822818D01*
X6170484Y48814054D01*
X6122509Y48763258D01*
X6054688Y48746464D01*
X5988553Y48769002D01*
X5949516Y48814054D01*
X5945050Y48822818D01*
X5820109Y48994787D01*
X5669786Y49145110D01*
X5497820Y49270049D01*
X5308414Y49366556D01*
X5308413Y49366557D01*
X5308412Y49366557D01*
X5106243Y49432246D01*
X5106241Y49432247D01*
X5106240Y49432247D01*
X4944957Y49457792D01*
X4896287Y49465500D01*
X4683713Y49465500D01*
X4635042Y49457792D01*
X4473760Y49432247D01*
X4271585Y49366556D01*
X4082179Y49270049D01*
X3910215Y49145111D01*
X3796673Y49031569D01*
X3735350Y48998085D01*
X3665658Y49003069D01*
X3609725Y49044941D01*
X3592810Y49075918D01*
X3543797Y49207329D01*
X3543793Y49207336D01*
X3457547Y49322545D01*
X3457544Y49322548D01*
X3342335Y49408794D01*
X3342328Y49408798D01*
X3207482Y49459092D01*
X3207483Y49459092D01*
X3147883Y49465499D01*
X3147881Y49465500D01*
X3147873Y49465500D01*
X3147864Y49465500D01*
X1352129Y49465500D01*
X1352123Y49465499D01*
X1292516Y49459092D01*
X1157671Y49408798D01*
X1157664Y49408794D01*
X1042455Y49322548D01*
X1042452Y49322545D01*
X956206Y49207336D01*
X956202Y49207329D01*
X905908Y49072483D01*
X899501Y49012884D01*
X899500Y49012865D01*
X899500Y47217130D01*
X899501Y47217124D01*
X905908Y47157517D01*
X956202Y47022672D01*
X956206Y47022665D01*
X1042452Y46907456D01*
X1042455Y46907453D01*
X1157664Y46821207D01*
X1157671Y46821203D01*
X1292517Y46770909D01*
X1292516Y46770909D01*
X1299444Y46770165D01*
X1352127Y46764500D01*
X2546718Y46764501D01*
X2613757Y46744816D01*
X2634399Y46728182D01*
X3545177Y45817404D01*
X3578662Y45756081D01*
X3573678Y45686389D01*
X3531806Y45630456D01*
X3504949Y45615162D01*
X3392608Y45568629D01*
X3269035Y45486061D01*
X3269028Y45486055D01*
X3163945Y45380972D01*
X3163939Y45380965D01*
X3081371Y45257392D01*
X3024495Y45120081D01*
X3024493Y45120073D01*
X2995500Y44974317D01*
X2995500Y44825687D01*
X3024493Y44679928D01*
X3024495Y44679920D01*
X3081371Y44542609D01*
X3163939Y44419036D01*
X3163945Y44419029D01*
X3269028Y44313946D01*
X3269035Y44313940D01*
X3392608Y44231372D01*
X3392609Y44231372D01*
X3392610Y44231371D01*
X3529920Y44174495D01*
X3675683Y44145501D01*
X3675687Y44145500D01*
X3675688Y44145500D01*
X3824313Y44145500D01*
X3824314Y44145501D01*
X3970080Y44174495D01*
X4107390Y44231371D01*
X4116634Y44237548D01*
X4137671Y44251603D01*
X4204349Y44272480D01*
X4206560Y44272500D01*
X7088719Y44272500D01*
X7155758Y44252815D01*
X7176400Y44236181D01*
X9112589Y42299992D01*
X9179547Y42233034D01*
X9199994Y42212587D01*
X9199996Y42212586D01*
X9302756Y42143924D01*
X9302758Y42143923D01*
X9302767Y42143917D01*
X9318849Y42137256D01*
X9350071Y42124323D01*
X9392254Y42106851D01*
X9416966Y42096614D01*
X9529062Y42074317D01*
X9538192Y42072501D01*
X9538196Y42072500D01*
X9538197Y42072500D01*
X9661803Y42072500D01*
X11488719Y42072500D01*
X11555758Y42052815D01*
X11576400Y42036181D01*
X11786181Y41826400D01*
X11819666Y41765077D01*
X11822500Y41738719D01*
X11822500Y40338193D01*
X11846612Y40216972D01*
X11846613Y40216968D01*
X11846614Y40216965D01*
X11860669Y40183035D01*
X11893917Y40102767D01*
X11941753Y40031175D01*
X11945149Y40026093D01*
X11945152Y40026087D01*
X11962585Y39999997D01*
X11962591Y39999989D01*
X13112589Y38849992D01*
X13181224Y38781357D01*
X13199994Y38762587D01*
X13199996Y38762586D01*
X13302756Y38693924D01*
X13302758Y38693923D01*
X13302767Y38693917D01*
X13329039Y38683035D01*
X13416966Y38646614D01*
X13442128Y38641610D01*
X13451203Y38638276D01*
X13458759Y38632679D01*
X13477341Y38624982D01*
X13502770Y38607991D01*
X13510088Y38603101D01*
X13554892Y38549488D01*
X13563598Y38480163D01*
X13533442Y38417136D01*
X13510086Y38396898D01*
X13419031Y38336058D01*
X13313945Y38230972D01*
X13313939Y38230965D01*
X13231371Y38107392D01*
X13174495Y37970081D01*
X13174493Y37970073D01*
X13145500Y37824317D01*
X13145500Y37824313D01*
X13145500Y37824312D01*
X13145500Y37675688D01*
X13147120Y37667546D01*
X13153310Y37636423D01*
X13147081Y37566831D01*
X13104217Y37511654D01*
X13055884Y37490616D01*
X12979925Y37475507D01*
X12979919Y37475505D01*
X12842608Y37418629D01*
X12719035Y37336061D01*
X12719028Y37336055D01*
X12613945Y37230972D01*
X12613939Y37230965D01*
X12531371Y37107392D01*
X12474495Y36970081D01*
X12474493Y36970073D01*
X12445500Y36824317D01*
X12445500Y36758109D01*
X12425815Y36691070D01*
X12373011Y36645315D01*
X12303853Y36635371D01*
X12252610Y36655006D01*
X12198635Y36691070D01*
X12157390Y36718629D01*
X12098838Y36742882D01*
X12020080Y36775505D01*
X12020072Y36775507D01*
X11874316Y36804500D01*
X11874312Y36804500D01*
X11725688Y36804500D01*
X11725683Y36804500D01*
X11579927Y36775507D01*
X11579919Y36775505D01*
X11442608Y36718629D01*
X11319035Y36636061D01*
X11319028Y36636055D01*
X11213945Y36530972D01*
X11213939Y36530965D01*
X11131371Y36407392D01*
X11074495Y36270081D01*
X11074493Y36270073D01*
X11045500Y36124317D01*
X11045500Y35975684D01*
X11074493Y35829928D01*
X11074495Y35829920D01*
X11133702Y35686982D01*
X11132247Y35686380D01*
X11144921Y35625494D01*
X11119917Y35560251D01*
X11068774Y35520889D01*
X10942608Y35468629D01*
X10819035Y35386061D01*
X10819028Y35386055D01*
X10713945Y35280972D01*
X10713939Y35280965D01*
X10631371Y35157392D01*
X10574495Y35020081D01*
X10574493Y35020075D01*
X10567390Y34984364D01*
X10535005Y34922453D01*
X10533454Y34920875D01*
X9926400Y34313819D01*
X9865077Y34280334D01*
X9838719Y34277500D01*
X2288192Y34277500D01*
X2166973Y34253389D01*
X2166973Y34253388D01*
X2166970Y34253387D01*
X2166966Y34253386D01*
X2100070Y34225677D01*
X2100068Y34225677D01*
X2052770Y34206085D01*
X1963769Y34146618D01*
X1963770Y34146617D01*
X1949988Y34137409D01*
X1949986Y34137407D01*
X1398640Y33586059D01*
X1224992Y33412411D01*
X1049992Y33237411D01*
X1018422Y33205841D01*
X962586Y33150006D01*
X962585Y33150004D01*
X893920Y33047239D01*
X893915Y33047231D01*
X893316Y33045783D01*
X891354Y33041045D01*
X846614Y32933035D01*
X830648Y32852767D01*
X829272Y32845854D01*
X829272Y32845851D01*
X822500Y32811805D01*
X822500Y18706560D01*
X819828Y18694843D01*
X820862Y18686475D01*
X813897Y18668826D01*
X810247Y18652815D01*
X806456Y18644934D01*
X781371Y18607390D01*
X737746Y18502072D01*
X736247Y18498954D01*
X715064Y18475469D01*
X695220Y18450843D01*
X691839Y18449718D01*
X689451Y18447070D01*
X658929Y18438765D01*
X628925Y18428778D01*
X625471Y18429660D01*
X622033Y18428724D01*
X591881Y18438233D01*
X561226Y18446057D01*
X558796Y18448667D01*
X555399Y18449738D01*
X535171Y18474043D01*
X513616Y18497195D01*
X512709Y18501032D01*
X510703Y18503442D01*
X509129Y18516181D01*
X500500Y18552699D01*
X500500Y35924317D01*
X3045500Y35924317D01*
X3045500Y35775684D01*
X3074493Y35629928D01*
X3074495Y35629920D01*
X3131371Y35492609D01*
X3213939Y35369036D01*
X3213945Y35369029D01*
X3319028Y35263946D01*
X3319035Y35263940D01*
X3442608Y35181372D01*
X3442609Y35181372D01*
X3442610Y35181371D01*
X3579920Y35124495D01*
X3725683Y35095501D01*
X3725687Y35095500D01*
X3725688Y35095500D01*
X3874313Y35095500D01*
X3874314Y35095501D01*
X4020080Y35124495D01*
X4157390Y35181371D01*
X4280966Y35263941D01*
X4386059Y35369034D01*
X4468629Y35492610D01*
X4525505Y35629920D01*
X4554500Y35775688D01*
X4554500Y35924312D01*
X4525505Y36070080D01*
X4468629Y36207390D01*
X4460990Y36218822D01*
X4386060Y36330965D01*
X4386054Y36330972D01*
X4280971Y36436055D01*
X4280964Y36436061D01*
X4157391Y36518629D01*
X4020080Y36575505D01*
X4020072Y36575507D01*
X3874316Y36604500D01*
X3874312Y36604500D01*
X3725688Y36604500D01*
X3725683Y36604500D01*
X3579927Y36575507D01*
X3579919Y36575505D01*
X3442608Y36518629D01*
X3319035Y36436061D01*
X3319028Y36436055D01*
X3213945Y36330972D01*
X3213939Y36330965D01*
X3131371Y36207392D01*
X3074495Y36070081D01*
X3074493Y36070073D01*
X3045500Y35924317D01*
X500500Y35924317D01*
X500500Y43654529D01*
X520185Y43721568D01*
X572989Y43767323D01*
X642147Y43777267D01*
X705703Y43748242D01*
X727602Y43723419D01*
X763939Y43669036D01*
X763945Y43669029D01*
X869028Y43563946D01*
X869035Y43563940D01*
X992608Y43481372D01*
X992609Y43481372D01*
X992610Y43481371D01*
X1129920Y43424495D01*
X1270083Y43396615D01*
X1275683Y43395501D01*
X1275687Y43395500D01*
X1275688Y43395500D01*
X1424313Y43395500D01*
X1424314Y43395501D01*
X1570080Y43424495D01*
X1707390Y43481371D01*
X1830966Y43563941D01*
X1936059Y43669034D01*
X2018629Y43792610D01*
X2075505Y43929920D01*
X2104500Y44075688D01*
X2104500Y44224312D01*
X2075505Y44370080D01*
X2018629Y44507390D01*
X1951810Y44607392D01*
X1936060Y44630965D01*
X1936054Y44630972D01*
X1830971Y44736055D01*
X1830964Y44736061D01*
X1707391Y44818629D01*
X1570080Y44875505D01*
X1570072Y44875507D01*
X1424316Y44904500D01*
X1424312Y44904500D01*
X1275688Y44904500D01*
X1275683Y44904500D01*
X1129927Y44875507D01*
X1129919Y44875505D01*
X992608Y44818629D01*
X869035Y44736061D01*
X869028Y44736055D01*
X763942Y44630969D01*
X727602Y44576581D01*
X673989Y44531776D01*
X604664Y44523069D01*
X541637Y44553224D01*
X504918Y44612667D01*
X500500Y44645472D01*
X500500Y58625500D01*
X520185Y58692539D01*
X572989Y58738294D01*
X624500Y58749500D01*
X26447302Y58749500D01*
X26454795Y58747300D01*
G37*
%TD.AperFunction*%
%TD*%
M02*
